<svg width="461" height="89" viewBox="0 0 461 89" fill="none" xmlns="http://www.w3.org/2000/svg">
<path d="M0.898145 6.3L1.32314 1H15.2981L15.7231 6.3H14.9481L13.1981 2.025H3.42314L1.67314 6.3H0.898145ZM7.07315 1.475H9.52314V14.65C9.52314 15.15 9.53148 15.5583 9.54815 15.875C9.58148 16.1917 9.63981 16.4417 9.72315 16.625C9.85648 16.8417 10.0565 16.9917 10.3231 17.075C10.5898 17.1417 10.9815 17.2167 11.4981 17.3V18C10.9648 17.9667 10.5398 17.95 10.2231 17.95C9.90648 17.9333 9.60648 17.925 9.32315 17.925C9.03981 17.9083 8.68981 17.9 8.27314 17.9C7.87314 17.9 7.53148 17.9083 7.24815 17.925C6.98148 17.925 6.68981 17.9333 6.37314 17.95C6.05648 17.95 5.63981 17.9667 5.12314 18V17.3C5.62314 17.2167 6.00648 17.1417 6.27314 17.075C6.55648 16.9917 6.74814 16.8417 6.84815 16.625C6.94814 16.4583 7.00648 16.2167 7.02315 15.9C7.05648 15.5833 7.07315 15.1583 7.07315 14.625V1.475ZM21.6661 4.35V14.65C21.6661 15.15 21.6744 15.5583 21.6911 15.875C21.7078 16.1917 21.7661 16.4417 21.8661 16.625C21.9828 16.8417 22.1744 16.9917 22.4411 17.075C22.7078 17.1417 23.0994 17.2167 23.6161 17.3V18C23.0994 17.9667 22.6828 17.95 22.3661 17.95C22.0494 17.9333 21.7494 17.925 21.4661 17.925C21.1994 17.9083 20.8578 17.9 20.4411 17.9C20.0411 17.9 19.6911 17.9083 19.3911 17.925C19.1078 17.925 18.8078 17.9333 18.4911 17.95C18.1911 17.95 17.7744 17.9667 17.2411 18V17.3C17.7578 17.2167 18.1494 17.1417 18.4161 17.075C18.6828 16.9917 18.8744 16.8417 18.9911 16.625C19.0911 16.4583 19.1494 16.2167 19.1661 15.9C19.1994 15.5833 19.2161 15.1583 19.2161 14.625V4.375C19.2161 3.84167 19.1994 3.41667 19.1661 3.1C19.1494 2.78333 19.0911 2.54167 18.9911 2.375C18.8744 2.15833 18.6828 2.00833 18.4161 1.925C18.1494 1.84167 17.7578 1.76667 17.2411 1.7V1C17.7744 1.01667 18.1911 1.03333 18.4911 1.05C18.8078 1.06667 19.1078 1.08333 19.3911 1.1C19.6911 1.1 20.0411 1.1 20.4411 1.1C20.8578 1.1 21.1994 1.1 21.4661 1.1C21.7494 1.08333 22.0494 1.06667 22.3661 1.05C22.6828 1.03333 23.0994 1.01667 23.6161 1V1.7C23.0994 1.76667 22.7078 1.84167 22.4411 1.925C22.1744 1.99167 21.9828 2.14167 21.8661 2.375C21.7661 2.55833 21.7078 2.80833 21.6911 3.125C21.6744 3.425 21.6661 3.83333 21.6661 4.35ZM25.1413 6.3L25.5663 1H39.5413L39.9663 6.3H39.1913L37.4413 2.025H27.6663L25.9163 6.3H25.1413ZM31.3163 1.475H33.7663V14.65C33.7663 15.15 33.7746 15.5583 33.7913 15.875C33.8246 16.1917 33.883 16.4417 33.9663 16.625C34.0996 16.8417 34.2996 16.9917 34.5663 17.075C34.833 17.1417 35.2246 17.2167 35.7413 17.3V18C35.208 17.9667 34.783 17.95 34.4663 17.95C34.1496 17.9333 33.8496 17.925 33.5663 17.925C33.283 17.9083 32.933 17.9 32.5163 17.9C32.1163 17.9 31.7746 17.9083 31.4913 17.925C31.2246 17.925 30.933 17.9333 30.6163 17.95C30.2996 17.95 29.883 17.9667 29.3663 18V17.3C29.8663 17.2167 30.2496 17.1417 30.5163 17.075C30.7996 16.9917 30.9913 16.8417 31.0913 16.625C31.1913 16.4583 31.2496 16.2167 31.2663 15.9C31.2996 15.5833 31.3163 15.1583 31.3163 14.625V1.475ZM51.4153 13H43.5403V12H51.4153V13ZM48.1153 1L53.7403 14.85C53.957 15.35 54.132 15.75 54.2653 16.05C54.3987 16.3333 54.532 16.5583 54.6653 16.725C54.7987 16.875 54.982 16.9917 55.2153 17.075C55.4487 17.1583 55.757 17.2333 56.1403 17.3V18C55.7237 17.9667 55.2487 17.9417 54.7153 17.925C54.182 17.9083 53.5487 17.9 52.8153 17.9C52.3487 17.9 51.957 17.9083 51.6403 17.925C51.3237 17.925 51.0237 17.9333 50.7403 17.95C50.4737 17.9667 50.1737 17.9833 49.8403 18V17.3C50.407 17.1833 50.832 17.075 51.1153 16.975C51.3987 16.875 51.5403 16.6417 51.5403 16.275C51.5403 15.8417 51.332 15.1083 50.9153 14.075L46.9903 4.275L47.4653 3.875L43.1903 14.8C43.0403 15.1667 42.932 15.475 42.8653 15.725C42.7987 15.975 42.7653 16.1917 42.7653 16.375C42.7653 16.725 42.932 16.9417 43.2653 17.025C43.6153 17.1083 44.0403 17.2 44.5403 17.3V18C44.0237 17.9667 43.557 17.9417 43.1403 17.925C42.7403 17.9083 42.282 17.9 41.7653 17.9C41.4153 17.9 41.0403 17.9083 40.6403 17.925C40.2403 17.9417 39.8237 17.9667 39.3903 18V17.3C39.857 17.2167 40.2153 17.1167 40.4653 17C40.7153 16.8833 40.9153 16.6917 41.0653 16.425C41.232 16.1417 41.432 15.725 41.6653 15.175L47.4153 1H48.1153ZM71.7796 1.1C72.1296 1.1 72.4879 1.09167 72.8546 1.075C73.2379 1.04167 73.6796 1.01667 74.1796 1V1.7C73.6629 1.76667 73.2879 1.84167 73.0546 1.925C72.8379 1.99167 72.6713 2.14167 72.5546 2.375C72.4546 2.575 72.3963 2.875 72.3796 3.275C72.3629 3.675 72.3546 4.21667 72.3546 4.9V18H71.5296L60.4296 3.95L60.4546 14.075C60.4546 14.775 60.4629 15.325 60.4796 15.725C60.4963 16.125 60.5546 16.425 60.6546 16.625C60.7713 16.8417 60.9713 16.9917 61.2546 17.075C61.5546 17.1417 62.1379 17.2167 63.0046 17.3V18C62.1379 17.9667 61.4796 17.9417 61.0296 17.925C60.5963 17.9083 60.1963 17.9 59.8296 17.9C59.4629 17.9 59.0713 17.9083 58.6546 17.925C58.2546 17.9417 57.8046 17.9667 57.3046 18V17.3C57.7879 17.2167 58.1463 17.1417 58.3796 17.075C58.6129 17.0083 58.7796 16.8833 58.8796 16.7C58.9963 16.5 59.0629 16.2 59.0796 15.8C59.1129 15.4 59.1296 14.825 59.1296 14.075V4.925C59.1296 4.175 59.1129 3.6 59.0796 3.2C59.0629 2.78333 58.9963 2.48333 58.8796 2.3C58.7629 2.11667 58.5796 1.99167 58.3296 1.925C58.0963 1.84167 57.7546 1.76667 57.3046 1.7V1H61.1796L71.0046 13.625V4.925C71.0046 4.175 70.9879 3.6 70.9546 3.2C70.9379 2.8 70.8713 2.5 70.7546 2.3C70.6546 2.11667 70.4546 1.99167 70.1546 1.925C69.8713 1.84167 69.3129 1.76667 68.4796 1.7V1C69.3629 1.01667 70.0379 1.04167 70.5046 1.075C70.9713 1.09167 71.3963 1.1 71.7796 1.1ZM80.5528 4.35V14.65C80.5528 15.15 80.5612 15.5583 80.5778 15.875C80.5945 16.1917 80.6528 16.4417 80.7528 16.625C80.8695 16.8417 81.0612 16.9917 81.3278 17.075C81.5945 17.1417 81.9862 17.2167 82.5028 17.3V18C81.9862 17.9667 81.5695 17.95 81.2528 17.95C80.9362 17.9333 80.6362 17.925 80.3528 17.925C80.0862 17.9083 79.7445 17.9 79.3278 17.9C78.9278 17.9 78.5778 17.9083 78.2778 17.925C77.9945 17.925 77.6945 17.9333 77.3778 17.95C77.0778 17.95 76.6612 17.9667 76.1278 18V17.3C76.6445 17.2167 77.0362 17.1417 77.3028 17.075C77.5695 16.9917 77.7612 16.8417 77.8778 16.625C77.9778 16.4583 78.0362 16.2167 78.0528 15.9C78.0862 15.5833 78.1028 15.1583 78.1028 14.625V4.375C78.1028 3.84167 78.0862 3.41667 78.0528 3.1C78.0362 2.78333 77.9778 2.54167 77.8778 2.375C77.7612 2.15833 77.5695 2.00833 77.3028 1.925C77.0362 1.84167 76.6445 1.76667 76.1278 1.7V1C76.6612 1.01667 77.0778 1.03333 77.3778 1.05C77.6945 1.06667 77.9945 1.08333 78.2778 1.1C78.5778 1.1 78.9278 1.1 79.3278 1.1C79.7445 1.1 80.0862 1.1 80.3528 1.1C80.6362 1.08333 80.9362 1.06667 81.2528 1.05C81.5695 1.03333 81.9862 1.01667 82.5028 1V1.7C81.9862 1.76667 81.5945 1.84167 81.3278 1.925C81.0612 1.99167 80.8695 2.14167 80.7528 2.375C80.6528 2.55833 80.5945 2.80833 80.5778 3.125C80.5612 3.425 80.5528 3.83333 80.5528 4.35ZM98.528 4.55V10.65C98.528 13.15 98.0364 15.0417 97.053 16.325C96.0697 17.6083 94.4614 18.25 92.228 18.25C90.628 18.25 89.353 17.95 88.403 17.35C87.453 16.75 86.7697 15.8833 86.353 14.75C85.953 13.6167 85.753 12.2417 85.753 10.625V4.375C85.753 3.84167 85.7364 3.41667 85.703 3.1C85.6864 2.78333 85.628 2.54167 85.528 2.375C85.428 2.15833 85.2447 2.00833 84.978 1.925C84.7114 1.84167 84.328 1.76667 83.828 1.7V1C84.3447 1.01667 84.753 1.03333 85.053 1.05C85.3697 1.06667 85.6614 1.08333 85.928 1.1C86.2114 1.1 86.553 1.1 86.953 1.1C87.3697 1.1 87.7114 1.1 87.978 1.1C88.2614 1.08333 88.5614 1.06667 88.878 1.05C89.1947 1.03333 89.6197 1.01667 90.153 1V1.7C89.6364 1.76667 89.2447 1.84167 88.978 1.925C88.728 1.99167 88.5364 2.14167 88.403 2.375C88.3197 2.55833 88.2614 2.80833 88.228 3.125C88.2114 3.425 88.203 3.84167 88.203 4.375V10.25C88.203 11.6333 88.3447 12.825 88.628 13.825C88.928 14.825 89.403 15.5917 90.053 16.125C90.7197 16.6417 91.6114 16.9 92.728 16.9C94.228 16.9 95.3364 16.4417 96.053 15.525C96.7864 14.5917 97.153 13.1333 97.153 11.15V4.55C97.153 3.98333 97.1364 3.53333 97.103 3.2C97.0864 2.86667 97.0364 2.6 96.953 2.4C96.8364 2.16667 96.6447 2.00833 96.378 1.925C96.1114 1.84167 95.7364 1.76667 95.253 1.7V1C95.6697 1.01667 96.0114 1.03333 96.278 1.05C96.5447 1.06667 96.803 1.08333 97.053 1.1C97.303 1.1 97.603 1.1 97.953 1.1C98.2864 1.1 98.553 1.1 98.753 1.1C98.9697 1.08333 99.1947 1.06667 99.428 1.05C99.678 1.03333 100.011 1.01667 100.428 1V1.7C99.9614 1.78333 99.603 1.85833 99.353 1.925C99.103 1.99167 98.9197 2.125 98.803 2.325C98.6864 2.50833 98.6114 2.775 98.578 3.125C98.5447 3.45833 98.528 3.93333 98.528 4.55ZM123.013 17.3V18C122.413 17.9667 121.938 17.95 121.588 17.95C121.254 17.9333 120.971 17.925 120.738 17.925C120.504 17.9083 120.221 17.9 119.888 17.9C119.588 17.9 119.304 17.9083 119.038 17.925C118.771 17.925 118.471 17.9333 118.138 17.95C117.821 17.95 117.413 17.9667 116.913 18V17.3C117.579 17.2 118.046 17.0667 118.313 16.9C118.579 16.7333 118.729 16.4583 118.763 16.075C118.813 15.675 118.804 15.075 118.738 14.275L117.888 3.475L118.538 2.825L112.088 17.1H111.238L105.213 3.525L105.788 3.45L104.738 15.3C104.688 15.8167 104.688 16.2 104.738 16.45C104.788 16.7 104.954 16.8833 105.238 17C105.538 17.1 106.029 17.2 106.713 17.3V18C106.313 17.9833 105.979 17.9667 105.713 17.95C105.446 17.9333 105.196 17.925 104.963 17.925C104.729 17.9083 104.446 17.9 104.113 17.9C103.746 17.9 103.363 17.9083 102.963 17.925C102.563 17.9417 102.113 17.9667 101.613 18V17.3C102.096 17.2167 102.446 17.1333 102.663 17.05C102.879 16.9667 103.038 16.8333 103.138 16.65C103.254 16.45 103.329 16.1583 103.363 15.775C103.396 15.3917 103.446 14.825 103.513 14.075L104.363 4.925C104.446 4.175 104.479 3.6 104.463 3.2C104.446 2.78333 104.371 2.48333 104.238 2.3C104.104 2.11667 103.896 1.99167 103.613 1.925C103.346 1.84167 102.988 1.76667 102.538 1.7V1H106.813L112.638 13.975L112.188 14.025L117.938 1H122.163V1.7C121.513 1.76667 121.046 1.88333 120.763 2.05C120.496 2.2 120.338 2.475 120.288 2.875C120.254 3.275 120.271 3.89167 120.338 4.725L121.163 14.1C121.246 15 121.329 15.6667 121.413 16.1C121.496 16.5333 121.654 16.825 121.888 16.975C122.121 17.1083 122.496 17.2167 123.013 17.3ZM151.211 17.3V18C150.611 17.9667 150.136 17.95 149.786 17.95C149.453 17.9333 149.169 17.925 148.936 17.925C148.703 17.9083 148.419 17.9 148.086 17.9C147.786 17.9 147.503 17.9083 147.236 17.925C146.969 17.925 146.669 17.9333 146.336 17.95C146.019 17.95 145.611 17.9667 145.111 18V17.3C145.778 17.2 146.244 17.0667 146.511 16.9C146.778 16.7333 146.928 16.4583 146.961 16.075C147.011 15.675 147.003 15.075 146.936 14.275L146.086 3.475L146.736 2.825L140.286 17.1H139.436L133.411 3.525L133.986 3.45L132.936 15.3C132.886 15.8167 132.886 16.2 132.936 16.45C132.986 16.7 133.153 16.8833 133.436 17C133.736 17.1 134.228 17.2 134.911 17.3V18C134.511 17.9833 134.178 17.9667 133.911 17.95C133.644 17.9333 133.394 17.925 133.161 17.925C132.928 17.9083 132.644 17.9 132.311 17.9C131.944 17.9 131.561 17.9083 131.161 17.925C130.761 17.9417 130.311 17.9667 129.811 18V17.3C130.294 17.2167 130.644 17.1333 130.861 17.05C131.078 16.9667 131.236 16.8333 131.336 16.65C131.453 16.45 131.528 16.1583 131.561 15.775C131.594 15.3917 131.644 14.825 131.711 14.075L132.561 4.925C132.644 4.175 132.678 3.6 132.661 3.2C132.644 2.78333 132.569 2.48333 132.436 2.3C132.303 2.11667 132.094 1.99167 131.811 1.925C131.544 1.84167 131.186 1.76667 130.736 1.7V1H135.011L140.836 13.975L140.386 14.025L146.136 1H150.361V1.7C149.711 1.76667 149.244 1.88333 148.961 2.05C148.694 2.2 148.536 2.475 148.486 2.875C148.453 3.275 148.469 3.89167 148.536 4.725L149.361 14.1C149.444 15 149.528 15.6667 149.611 16.1C149.694 16.5333 149.853 16.825 150.086 16.975C150.319 17.1083 150.694 17.2167 151.211 17.3ZM164.233 13H156.358V12H164.233V13ZM160.933 1L166.558 14.85C166.774 15.35 166.949 15.75 167.083 16.05C167.216 16.3333 167.349 16.5583 167.483 16.725C167.616 16.875 167.799 16.9917 168.033 17.075C168.266 17.1583 168.574 17.2333 168.958 17.3V18C168.541 17.9667 168.066 17.9417 167.533 17.925C166.999 17.9083 166.366 17.9 165.633 17.9C165.166 17.9 164.774 17.9083 164.458 17.925C164.141 17.925 163.841 17.9333 163.558 17.95C163.291 17.9667 162.991 17.9833 162.658 18V17.3C163.224 17.1833 163.649 17.075 163.933 16.975C164.216 16.875 164.358 16.6417 164.358 16.275C164.358 15.8417 164.149 15.1083 163.733 14.075L159.808 4.275L160.283 3.875L156.008 14.8C155.858 15.1667 155.749 15.475 155.683 15.725C155.616 15.975 155.583 16.1917 155.583 16.375C155.583 16.725 155.749 16.9417 156.083 17.025C156.433 17.1083 156.858 17.2 157.358 17.3V18C156.841 17.9667 156.374 17.9417 155.958 17.925C155.558 17.9083 155.099 17.9 154.583 17.9C154.233 17.9 153.858 17.9083 153.458 17.925C153.058 17.9417 152.641 17.9667 152.208 18V17.3C152.674 17.2167 153.033 17.1167 153.283 17C153.533 16.8833 153.733 16.6917 153.883 16.425C154.049 16.1417 154.249 15.725 154.483 15.175L160.233 1H160.933ZM179.802 10.8V10.075H186.177V10.75C185.877 10.8 185.602 10.8667 185.352 10.95C185.119 11.0167 184.936 11.1583 184.802 11.375C184.686 11.575 184.627 11.9167 184.627 12.4V17.275C183.594 17.5583 182.611 17.7917 181.677 17.975C180.744 18.1583 179.769 18.25 178.752 18.25C176.969 18.25 175.419 17.9083 174.102 17.225C172.786 16.5417 171.769 15.5667 171.052 14.3C170.352 13.0333 170.002 11.525 170.002 9.775C170.002 8.025 170.386 6.46667 171.152 5.1C171.919 3.73333 173.011 2.65833 174.427 1.875C175.861 1.09167 177.544 0.699999 179.477 0.699999C180.261 0.699999 181.094 0.774999 181.977 0.924999C182.861 1.075 183.761 1.325 184.677 1.675L183.752 6.1H183.002L182.027 1.65L183.052 2.575C182.469 2.29167 181.886 2.075 181.302 1.925C180.736 1.775 180.077 1.7 179.327 1.7C178.261 1.7 177.311 1.91667 176.477 2.35C175.661 2.76667 174.961 3.34167 174.377 4.075C173.811 4.79167 173.369 5.60833 173.052 6.525C172.752 7.44167 172.602 8.4 172.602 9.4C172.602 11 172.852 12.3917 173.352 13.575C173.869 14.7417 174.619 15.65 175.602 16.3C176.602 16.9333 177.811 17.25 179.227 17.25C179.844 17.25 180.377 17.1917 180.827 17.075C181.294 16.9417 181.661 16.7 181.927 16.35C182.194 16 182.327 15.5 182.327 14.85V12.65C182.327 12.0833 182.227 11.6833 182.027 11.45C181.844 11.2 181.569 11.0417 181.202 10.975C180.836 10.8917 180.369 10.8333 179.802 10.8ZM199.145 13H191.27V12H199.145V13ZM195.845 1L201.47 14.85C201.686 15.35 201.861 15.75 201.995 16.05C202.128 16.3333 202.261 16.5583 202.395 16.725C202.528 16.875 202.711 16.9917 202.945 17.075C203.178 17.1583 203.486 17.2333 203.87 17.3V18C203.453 17.9667 202.978 17.9417 202.445 17.925C201.911 17.9083 201.278 17.9 200.545 17.9C200.078 17.9 199.686 17.9083 199.37 17.925C199.053 17.925 198.753 17.9333 198.47 17.95C198.203 17.9667 197.903 17.9833 197.57 18V17.3C198.136 17.1833 198.561 17.075 198.845 16.975C199.128 16.875 199.27 16.6417 199.27 16.275C199.27 15.8417 199.061 15.1083 198.645 14.075L194.72 4.275L195.195 3.875L190.92 14.8C190.77 15.1667 190.661 15.475 190.595 15.725C190.528 15.975 190.495 16.1917 190.495 16.375C190.495 16.725 190.661 16.9417 190.995 17.025C191.345 17.1083 191.77 17.2 192.27 17.3V18C191.753 17.9667 191.286 17.9417 190.87 17.925C190.47 17.9083 190.011 17.9 189.495 17.9C189.145 17.9 188.77 17.9083 188.37 17.925C187.97 17.9417 187.553 17.9667 187.12 18V17.3C187.586 17.2167 187.945 17.1167 188.195 17C188.445 16.8833 188.645 16.6917 188.795 16.425C188.961 16.1417 189.161 15.725 189.395 15.175L195.145 1H195.845ZM215.109 16.975L216.909 13H217.634L217.284 18H204.884V17.3L215.084 1.45L214.934 2.025H207.384L205.734 5.875H204.984L205.309 1H217.559V1.7L207.384 17.55L206.959 16.975H215.109ZM223.863 4.35V14.65C223.863 15.15 223.872 15.5583 223.888 15.875C223.905 16.1917 223.963 16.4417 224.063 16.625C224.18 16.8417 224.372 16.9917 224.638 17.075C224.905 17.1417 225.297 17.2167 225.813 17.3V18C225.297 17.9667 224.88 17.95 224.563 17.95C224.247 17.9333 223.947 17.925 223.663 17.925C223.397 17.9083 223.055 17.9 222.638 17.9C222.238 17.9 221.888 17.9083 221.588 17.925C221.305 17.925 221.005 17.9333 220.688 17.95C220.388 17.95 219.972 17.9667 219.438 18V17.3C219.955 17.2167 220.347 17.1417 220.613 17.075C220.88 16.9917 221.072 16.8417 221.188 16.625C221.288 16.4583 221.347 16.2167 221.363 15.9C221.397 15.5833 221.413 15.1583 221.413 14.625V4.375C221.413 3.84167 221.397 3.41667 221.363 3.1C221.347 2.78333 221.288 2.54167 221.188 2.375C221.072 2.15833 220.88 2.00833 220.613 1.925C220.347 1.84167 219.955 1.76667 219.438 1.7V1C219.972 1.01667 220.388 1.03333 220.688 1.05C221.005 1.06667 221.305 1.08333 221.588 1.1C221.888 1.1 222.238 1.1 222.638 1.1C223.055 1.1 223.397 1.1 223.663 1.1C223.947 1.08333 224.247 1.06667 224.563 1.05C224.88 1.03333 225.297 1.01667 225.813 1V1.7C225.297 1.76667 224.905 1.84167 224.638 1.925C224.372 1.99167 224.18 2.14167 224.063 2.375C223.963 2.55833 223.905 2.80833 223.888 3.125C223.872 3.425 223.863 3.83333 223.863 4.35ZM242.239 1.1C242.589 1.1 242.947 1.09167 243.314 1.075C243.697 1.04167 244.139 1.01667 244.639 1V1.7C244.122 1.76667 243.747 1.84167 243.514 1.925C243.297 1.99167 243.13 2.14167 243.014 2.375C242.914 2.575 242.855 2.875 242.839 3.275C242.822 3.675 242.814 4.21667 242.814 4.9V18H241.989L230.889 3.95L230.914 14.075C230.914 14.775 230.922 15.325 230.939 15.725C230.955 16.125 231.014 16.425 231.114 16.625C231.23 16.8417 231.43 16.9917 231.714 17.075C232.014 17.1417 232.597 17.2167 233.464 17.3V18C232.597 17.9667 231.939 17.9417 231.489 17.925C231.055 17.9083 230.655 17.9 230.289 17.9C229.922 17.9 229.53 17.9083 229.114 17.925C228.714 17.9417 228.264 17.9667 227.764 18V17.3C228.247 17.2167 228.605 17.1417 228.839 17.075C229.072 17.0083 229.239 16.8833 229.339 16.7C229.455 16.5 229.522 16.2 229.539 15.8C229.572 15.4 229.589 14.825 229.589 14.075V4.925C229.589 4.175 229.572 3.6 229.539 3.2C229.522 2.78333 229.455 2.48333 229.339 2.3C229.222 2.11667 229.039 1.99167 228.789 1.925C228.555 1.84167 228.214 1.76667 227.764 1.7V1H231.639L241.464 13.625V4.925C241.464 4.175 241.447 3.6 241.414 3.2C241.397 2.8 241.33 2.5 241.214 2.3C241.114 2.11667 240.914 1.99167 240.614 1.925C240.33 1.84167 239.772 1.76667 238.939 1.7V1C239.822 1.01667 240.497 1.04167 240.964 1.075C241.43 1.09167 241.855 1.1 242.239 1.1ZM249.662 9.675V8.675H253.112C253.712 8.675 254.178 8.64167 254.512 8.575C254.845 8.49167 255.095 8.36667 255.262 8.2C255.445 8.03333 255.578 7.8 255.662 7.5C255.762 7.18333 255.87 6.79167 255.987 6.325H256.712V12.025H255.987C255.87 11.575 255.762 11.2 255.662 10.9C255.578 10.5833 255.445 10.3333 255.262 10.15C255.095 9.96667 254.845 9.84167 254.512 9.775C254.178 9.70833 253.712 9.675 253.112 9.675H249.662ZM257.387 17.05L259.212 13.15H259.962L259.462 18H246.587V17.3C247.137 17.2167 247.545 17.1333 247.812 17.05C248.095 16.9667 248.295 16.825 248.412 16.625C248.528 16.425 248.595 16.1333 248.612 15.75C248.645 15.35 248.662 14.8083 248.662 14.125V4.875C248.662 4.14167 248.645 3.575 248.612 3.175C248.595 2.775 248.503 2.475 248.337 2.275C248.22 2.09167 248.028 1.96667 247.762 1.9C247.495 1.81667 247.103 1.75833 246.587 1.725V1H259.062L259.312 5.425H258.562L256.987 1.95H251.112V17.05H257.387ZM270.096 10.15V9.125H273.396C274.029 9.125 274.529 9.1 274.896 9.05C275.262 8.98333 275.537 8.86667 275.721 8.7C275.921 8.53333 276.071 8.29167 276.171 7.975C276.271 7.65833 276.379 7.25833 276.496 6.775H277.221V12.5H276.496C276.379 12 276.271 11.6 276.171 11.3C276.071 10.9833 275.921 10.7417 275.721 10.575C275.537 10.4083 275.262 10.3 274.896 10.25C274.529 10.1833 274.029 10.15 273.396 10.15H270.096ZM267.046 1H279.271L279.521 5.425H278.771L277.196 1.95H271.471V14.65C271.471 15.15 271.479 15.5583 271.496 15.875C271.512 16.1917 271.571 16.4417 271.671 16.625C271.787 16.8417 271.979 16.9917 272.246 17.075C272.512 17.1417 272.904 17.2167 273.421 17.3V18C272.904 17.9667 272.479 17.95 272.146 17.95C271.829 17.9333 271.529 17.925 271.246 17.925C270.979 17.9083 270.629 17.9 270.196 17.9C269.812 17.9 269.479 17.9083 269.196 17.925C268.912 17.925 268.612 17.9333 268.296 17.95C267.996 17.95 267.579 17.9667 267.046 18V17.3C267.562 17.2167 267.954 17.1417 268.221 17.075C268.487 16.9917 268.679 16.8417 268.796 16.625C268.896 16.4583 268.954 16.2167 268.971 15.9C269.004 15.5833 269.021 15.1583 269.021 14.625V4.875C269.021 4.14167 269.004 3.575 268.971 3.175C268.937 2.775 268.846 2.475 268.696 2.275C268.579 2.09167 268.387 1.96667 268.121 1.9C267.871 1.81667 267.512 1.75833 267.046 1.725V1ZM284.232 9.675V8.675H287.682C288.282 8.675 288.749 8.64167 289.082 8.575C289.415 8.49167 289.665 8.36667 289.832 8.2C290.015 8.03333 290.149 7.8 290.232 7.5C290.332 7.18333 290.44 6.79167 290.557 6.325H291.282V12.025H290.557C290.44 11.575 290.332 11.2 290.232 10.9C290.149 10.5833 290.015 10.3333 289.832 10.15C289.665 9.96667 289.415 9.84167 289.082 9.775C288.749 9.70833 288.282 9.675 287.682 9.675H284.232ZM291.957 17.05L293.782 13.15H294.532L294.032 18H281.157V17.3C281.707 17.2167 282.115 17.1333 282.382 17.05C282.665 16.9667 282.865 16.825 282.982 16.625C283.099 16.425 283.165 16.1333 283.182 15.75C283.215 15.35 283.232 14.8083 283.232 14.125V4.875C283.232 4.14167 283.215 3.575 283.182 3.175C283.165 2.775 283.074 2.475 282.907 2.275C282.79 2.09167 282.599 1.96667 282.332 1.9C282.065 1.81667 281.674 1.75833 281.157 1.725V1H293.632L293.882 5.425H293.132L291.557 1.95H285.682V17.05H291.957ZM307.69 13H299.815V12H307.69V13ZM304.39 1L310.015 14.85C310.231 15.35 310.406 15.75 310.54 16.05C310.673 16.3333 310.806 16.5583 310.94 16.725C311.073 16.875 311.256 16.9917 311.49 17.075C311.723 17.1583 312.031 17.2333 312.415 17.3V18C311.998 17.9667 311.523 17.9417 310.99 17.925C310.456 17.9083 309.823 17.9 309.09 17.9C308.623 17.9 308.231 17.9083 307.915 17.925C307.598 17.925 307.298 17.9333 307.015 17.95C306.748 17.9667 306.448 17.9833 306.115 18V17.3C306.681 17.1833 307.106 17.075 307.39 16.975C307.673 16.875 307.815 16.6417 307.815 16.275C307.815 15.8417 307.606 15.1083 307.19 14.075L303.265 4.275L303.74 3.875L299.465 14.8C299.315 15.1667 299.206 15.475 299.14 15.725C299.073 15.975 299.04 16.1917 299.04 16.375C299.04 16.725 299.206 16.9417 299.54 17.025C299.89 17.1083 300.315 17.2 300.815 17.3V18C300.298 17.9667 299.831 17.9417 299.415 17.925C299.015 17.9083 298.556 17.9 298.04 17.9C297.69 17.9 297.315 17.9083 296.915 17.925C296.515 17.9417 296.098 17.9667 295.665 18V17.3C296.131 17.2167 296.49 17.1167 296.74 17C296.99 16.8833 297.19 16.6917 297.34 16.425C297.506 16.1417 297.706 15.725 297.94 15.175L303.69 1H304.39ZM311.86 6.3L312.285 1H326.26L326.685 6.3H325.91L324.16 2.025H314.385L312.635 6.3H311.86ZM318.035 1.475H320.485V14.65C320.485 15.15 320.493 15.5583 320.51 15.875C320.543 16.1917 320.602 16.4417 320.685 16.625C320.818 16.8417 321.018 16.9917 321.285 17.075C321.552 17.1417 321.943 17.2167 322.46 17.3V18C321.927 17.9667 321.502 17.95 321.185 17.95C320.868 17.9333 320.568 17.925 320.285 17.925C320.002 17.9083 319.652 17.9 319.235 17.9C318.835 17.9 318.493 17.9083 318.21 17.925C317.943 17.925 317.652 17.9333 317.335 17.95C317.018 17.95 316.602 17.9667 316.085 18V17.3C316.585 17.2167 316.968 17.1417 317.235 17.075C317.518 16.9917 317.71 16.8417 317.81 16.625C317.91 16.4583 317.968 16.2167 317.985 15.9C318.018 15.5833 318.035 15.1583 318.035 14.625V1.475ZM342.278 4.55V10.65C342.278 13.15 341.786 15.0417 340.803 16.325C339.82 17.6083 338.211 18.25 335.978 18.25C334.378 18.25 333.103 17.95 332.153 17.35C331.203 16.75 330.52 15.8833 330.103 14.75C329.703 13.6167 329.503 12.2417 329.503 10.625V4.375C329.503 3.84167 329.486 3.41667 329.453 3.1C329.436 2.78333 329.378 2.54167 329.278 2.375C329.178 2.15833 328.995 2.00833 328.728 1.925C328.461 1.84167 328.078 1.76667 327.578 1.7V1C328.095 1.01667 328.503 1.03333 328.803 1.05C329.12 1.06667 329.411 1.08333 329.678 1.1C329.961 1.1 330.303 1.1 330.703 1.1C331.12 1.1 331.461 1.1 331.728 1.1C332.011 1.08333 332.311 1.06667 332.628 1.05C332.945 1.03333 333.37 1.01667 333.903 1V1.7C333.386 1.76667 332.995 1.84167 332.728 1.925C332.478 1.99167 332.286 2.14167 332.153 2.375C332.07 2.55833 332.011 2.80833 331.978 3.125C331.961 3.425 331.953 3.84167 331.953 4.375V10.25C331.953 11.6333 332.095 12.825 332.378 13.825C332.678 14.825 333.153 15.5917 333.803 16.125C334.47 16.6417 335.361 16.9 336.478 16.9C337.978 16.9 339.086 16.4417 339.803 15.525C340.536 14.5917 340.903 13.1333 340.903 11.15V4.55C340.903 3.98333 340.886 3.53333 340.853 3.2C340.836 2.86667 340.786 2.6 340.703 2.4C340.586 2.16667 340.395 2.00833 340.128 1.925C339.861 1.84167 339.486 1.76667 339.003 1.7V1C339.42 1.01667 339.761 1.03333 340.028 1.05C340.295 1.06667 340.553 1.08333 340.803 1.1C341.053 1.1 341.353 1.1 341.703 1.1C342.036 1.1 342.303 1.1 342.503 1.1C342.72 1.08333 342.945 1.06667 343.178 1.05C343.428 1.03333 343.761 1.01667 344.178 1V1.7C343.711 1.78333 343.353 1.85833 343.103 1.925C342.853 1.99167 342.67 2.125 342.553 2.325C342.436 2.50833 342.361 2.775 342.328 3.125C342.295 3.45833 342.278 3.93333 342.278 4.55ZM352.163 9.7L354.613 9.525L358.038 14.775C358.488 15.4583 358.888 15.975 359.238 16.325C359.588 16.6583 359.938 16.8917 360.288 17.025C360.638 17.1417 361.038 17.2333 361.488 17.3V18C360.954 17.9833 360.504 17.9667 360.138 17.95C359.771 17.9333 359.421 17.925 359.088 17.925C358.771 17.925 358.454 17.9333 358.138 17.95C357.838 17.9667 357.521 17.9833 357.188 18L352.163 9.7ZM349.988 1.9V14.125C349.988 14.7917 349.996 15.325 350.013 15.725C350.046 16.125 350.113 16.425 350.213 16.625C350.346 16.8417 350.554 16.9917 350.838 17.075C351.121 17.1417 351.538 17.2167 352.088 17.3V18C351.554 17.9667 351.129 17.95 350.813 17.95C350.496 17.9333 350.188 17.925 349.888 17.925C349.604 17.9083 349.238 17.9 348.788 17.9C348.371 17.9 348.013 17.9083 347.713 17.925C347.429 17.925 347.129 17.9333 346.813 17.95C346.496 17.95 346.071 17.9667 345.538 18V17.3C346.071 17.2167 346.471 17.1333 346.738 17.05C347.021 16.9667 347.221 16.825 347.338 16.625C347.471 16.4083 347.554 16.1083 347.588 15.725C347.621 15.325 347.638 14.7833 347.638 14.1V4.875C347.638 4.175 347.621 3.63333 347.588 3.25C347.571 2.85 347.488 2.55 347.338 2.35C347.221 2.15 347.021 2.00833 346.738 1.925C346.471 1.84167 346.104 1.76667 345.638 1.7V1H352.113C353.579 1 354.821 1.14167 355.838 1.425C356.871 1.70833 357.663 2.15833 358.213 2.775C358.763 3.39167 359.038 4.18333 359.038 5.15C359.038 5.93333 358.854 6.63333 358.488 7.25C358.121 7.86667 357.596 8.39167 356.913 8.825C356.246 9.25833 355.438 9.59167 354.488 9.825C353.538 10.0417 352.463 10.15 351.263 10.15H349.788V9.05C350.054 9.1 350.338 9.14167 350.638 9.175C350.954 9.19167 351.263 9.2 351.563 9.2C352.763 9.2 353.721 9.05 354.438 8.75C355.171 8.45 355.696 8.025 356.013 7.475C356.346 6.925 356.513 6.29167 356.513 5.575C356.513 4.79167 356.329 4.13333 355.963 3.6C355.596 3.05 355.063 2.63333 354.363 2.35C353.663 2.05 352.813 1.9 351.813 1.9H349.988ZM367.027 4.35V14.65C367.027 15.15 367.036 15.5583 367.052 15.875C367.069 16.1917 367.127 16.4417 367.227 16.625C367.344 16.8417 367.536 16.9917 367.802 17.075C368.069 17.1417 368.461 17.2167 368.977 17.3V18C368.461 17.9667 368.044 17.95 367.727 17.95C367.411 17.9333 367.111 17.925 366.827 17.925C366.561 17.9083 366.219 17.9 365.802 17.9C365.402 17.9 365.052 17.9083 364.752 17.925C364.469 17.925 364.169 17.9333 363.852 17.95C363.552 17.95 363.136 17.9667 362.602 18V17.3C363.119 17.2167 363.511 17.1417 363.777 17.075C364.044 16.9917 364.236 16.8417 364.352 16.625C364.452 16.4583 364.511 16.2167 364.527 15.9C364.561 15.5833 364.577 15.1583 364.577 14.625V4.375C364.577 3.84167 364.561 3.41667 364.527 3.1C364.511 2.78333 364.452 2.54167 364.352 2.375C364.236 2.15833 364.044 2.00833 363.777 1.925C363.511 1.84167 363.119 1.76667 362.602 1.7V1C363.136 1.01667 363.552 1.03333 363.852 1.05C364.169 1.06667 364.469 1.08333 364.752 1.1C365.052 1.1 365.402 1.1 365.802 1.1C366.219 1.1 366.561 1.1 366.827 1.1C367.111 1.08333 367.411 1.06667 367.727 1.05C368.044 1.03333 368.461 1.01667 368.977 1V1.7C368.461 1.76667 368.069 1.84167 367.802 1.925C367.536 1.99167 367.344 2.14167 367.227 2.375C367.127 2.55833 367.069 2.80833 367.052 3.125C367.036 3.425 367.027 3.83333 367.027 4.35ZM385.403 1.1C385.753 1.1 386.111 1.09167 386.478 1.075C386.861 1.04167 387.303 1.01667 387.803 1V1.7C387.286 1.76667 386.911 1.84167 386.678 1.925C386.461 1.99167 386.294 2.14167 386.178 2.375C386.078 2.575 386.019 2.875 386.003 3.275C385.986 3.675 385.978 4.21667 385.978 4.9V18H385.153L374.053 3.95L374.078 14.075C374.078 14.775 374.086 15.325 374.103 15.725C374.119 16.125 374.178 16.425 374.278 16.625C374.394 16.8417 374.594 16.9917 374.878 17.075C375.178 17.1417 375.761 17.2167 376.628 17.3V18C375.761 17.9667 375.103 17.9417 374.653 17.925C374.219 17.9083 373.819 17.9 373.453 17.9C373.086 17.9 372.694 17.9083 372.278 17.925C371.878 17.9417 371.428 17.9667 370.928 18V17.3C371.411 17.2167 371.769 17.1417 372.003 17.075C372.236 17.0083 372.403 16.8833 372.503 16.7C372.619 16.5 372.686 16.2 372.703 15.8C372.736 15.4 372.753 14.825 372.753 14.075V4.925C372.753 4.175 372.736 3.6 372.703 3.2C372.686 2.78333 372.619 2.48333 372.503 2.3C372.386 2.11667 372.203 1.99167 371.953 1.925C371.719 1.84167 371.378 1.76667 370.928 1.7V1H374.803L384.628 13.625V4.925C384.628 4.175 384.611 3.6 384.578 3.2C384.561 2.8 384.494 2.5 384.378 2.3C384.278 2.11667 384.078 1.99167 383.778 1.925C383.494 1.84167 382.936 1.76667 382.103 1.7V1C382.986 1.01667 383.661 1.04167 384.128 1.075C384.594 1.09167 385.019 1.1 385.403 1.1ZM399.651 10.8V10.075H406.026V10.75C405.726 10.8 405.451 10.8667 405.201 10.95C404.968 11.0167 404.784 11.1583 404.651 11.375C404.534 11.575 404.476 11.9167 404.476 12.4V17.275C403.443 17.5583 402.459 17.7917 401.526 17.975C400.593 18.1583 399.618 18.25 398.601 18.25C396.818 18.25 395.268 17.9083 393.951 17.225C392.634 16.5417 391.618 15.5667 390.901 14.3C390.201 13.0333 389.851 11.525 389.851 9.775C389.851 8.025 390.234 6.46667 391.001 5.1C391.768 3.73333 392.859 2.65833 394.276 1.875C395.709 1.09167 397.393 0.699999 399.326 0.699999C400.109 0.699999 400.943 0.774999 401.826 0.924999C402.709 1.075 403.609 1.325 404.526 1.675L403.601 6.1H402.851L401.876 1.65L402.901 2.575C402.318 2.29167 401.734 2.075 401.151 1.925C400.584 1.775 399.926 1.7 399.176 1.7C398.109 1.7 397.159 1.91667 396.326 2.35C395.509 2.76667 394.809 3.34167 394.226 4.075C393.659 4.79167 393.218 5.60833 392.901 6.525C392.601 7.44167 392.451 8.4 392.451 9.4C392.451 11 392.701 12.3917 393.201 13.575C393.718 14.7417 394.468 15.65 395.451 16.3C396.451 16.9333 397.659 17.25 399.076 17.25C399.693 17.25 400.226 17.1917 400.676 17.075C401.143 16.9417 401.509 16.7 401.776 16.35C402.043 16 402.176 15.5 402.176 14.85V12.65C402.176 12.0833 402.076 11.6833 401.876 11.45C401.693 11.2 401.418 11.0417 401.051 10.975C400.684 10.8917 400.218 10.8333 399.651 10.8ZM412.739 6.3L413.164 1H427.139L427.564 6.3H426.789L425.039 2.025H415.264L413.514 6.3H412.739ZM418.914 1.475H421.364V14.65C421.364 15.15 421.372 15.5583 421.389 15.875C421.422 16.1917 421.481 16.4417 421.564 16.625C421.697 16.8417 421.897 16.9917 422.164 17.075C422.431 17.1417 422.822 17.2167 423.339 17.3V18C422.806 17.9667 422.381 17.95 422.064 17.95C421.747 17.9333 421.447 17.925 421.164 17.925C420.881 17.9083 420.531 17.9 420.114 17.9C419.714 17.9 419.372 17.9083 419.089 17.925C418.822 17.925 418.531 17.9333 418.214 17.95C417.897 17.95 417.481 17.9667 416.964 18V17.3C417.464 17.2167 417.847 17.1417 418.114 17.075C418.397 16.9917 418.589 16.8417 418.689 16.625C418.789 16.4583 418.847 16.2167 418.864 15.9C418.897 15.5833 418.914 15.1583 418.914 14.625V1.475ZM437.282 18.25C436.032 18.25 434.907 18.0333 433.907 17.6C432.924 17.1667 432.074 16.575 431.357 15.825C430.657 15.0583 430.115 14.1583 429.732 13.125C429.365 12.0917 429.182 10.975 429.182 9.775C429.182 8.575 429.365 7.43333 429.732 6.35C430.115 5.26667 430.657 4.3 431.357 3.45C432.057 2.6 432.907 1.93333 433.907 1.45C434.907 0.949999 436.032 0.699999 437.282 0.699999C438.582 0.699999 439.732 0.924999 440.732 1.375C441.749 1.825 442.599 2.45 443.282 3.25C443.982 4.03333 444.507 4.94167 444.857 5.975C445.207 7.00833 445.382 8.09167 445.382 9.225C445.382 10.4583 445.19 11.625 444.807 12.725C444.44 13.8083 443.907 14.7667 443.207 15.6C442.524 16.4333 441.674 17.0833 440.657 17.55C439.657 18.0167 438.532 18.25 437.282 18.25ZM437.357 17.3C438.474 17.3 439.432 16.9833 440.232 16.35C441.049 15.7 441.674 14.8 442.107 13.65C442.54 12.5 442.757 11.175 442.757 9.675C442.757 8.525 442.632 7.46667 442.382 6.5C442.132 5.53333 441.765 4.69167 441.282 3.975C440.815 3.24167 440.24 2.675 439.557 2.275C438.874 1.85833 438.107 1.65 437.257 1.65C436.14 1.65 435.174 1.95833 434.357 2.575C433.54 3.19167 432.907 4.05833 432.457 5.175C432.024 6.29167 431.807 7.61667 431.807 9.15C431.807 10.2833 431.932 11.35 432.182 12.35C432.432 13.3333 432.799 14.1917 433.282 14.925C433.765 15.6583 434.349 16.2417 435.032 16.675C435.715 17.0917 436.49 17.3 437.357 17.3ZM451.991 1.9V14.65C451.991 15.15 452 15.5583 452.016 15.875C452.033 16.1917 452.091 16.4417 452.191 16.625C452.308 16.8417 452.5 16.9917 452.766 17.075C453.033 17.1417 453.425 17.2167 453.941 17.3V18C453.425 17.9667 453 17.95 452.666 17.95C452.35 17.9333 452.05 17.925 451.766 17.925C451.5 17.9083 451.15 17.9 450.716 17.9C450.333 17.9 450 17.9083 449.716 17.925C449.433 17.925 449.133 17.9333 448.816 17.95C448.516 17.95 448.1 17.9667 447.566 18V17.3C448.083 17.2167 448.475 17.1417 448.741 17.075C449.008 16.9917 449.2 16.8417 449.316 16.625C449.416 16.4583 449.475 16.2167 449.491 15.9C449.525 15.5833 449.541 15.1583 449.541 14.625V4.875C449.541 4.175 449.525 3.63333 449.491 3.25C449.475 2.85 449.391 2.55 449.241 2.35C449.125 2.15 448.925 2.00833 448.641 1.925C448.358 1.84167 447.958 1.76667 447.441 1.7V1H454.066C455.583 1 456.85 1.18333 457.866 1.55C458.9 1.9 459.675 2.425 460.191 3.125C460.725 3.825 460.991 4.68333 460.991 5.7C460.991 6.51667 460.791 7.25833 460.391 7.925C460.008 8.575 459.458 9.13333 458.741 9.6C458.041 10.05 457.208 10.4 456.241 10.65C455.291 10.8833 454.233 11 453.066 11H451.741L451.716 9.975C452 9.99167 452.266 10.0167 452.516 10.05C452.766 10.0833 453.025 10.1 453.291 10.1C454.408 10.1 455.341 9.91667 456.091 9.55C456.858 9.18333 457.441 8.69167 457.841 8.075C458.241 7.45833 458.441 6.75 458.441 5.95C458.441 5.13333 458.258 4.425 457.891 3.825C457.525 3.225 456.983 2.75833 456.266 2.425C455.566 2.075 454.716 1.9 453.716 1.9H451.991ZM12.4169 38.15L12.0169 44.55L11.5169 44.225C11.8669 43.9583 12.2169 43.7167 12.5669 43.5C12.9336 43.2833 13.3419 43.1167 13.7919 43C14.2419 42.8667 14.7669 42.8 15.3669 42.8C16.4502 42.8 17.3919 43 18.1919 43.4C19.0086 43.7833 19.6419 44.3333 20.0919 45.05C20.5419 45.7667 20.7669 46.6333 20.7669 47.65C20.7669 48.5667 20.5752 49.375 20.1919 50.075C19.8252 50.7583 19.3169 51.3417 18.6669 51.825C18.0336 52.2917 17.3086 52.65 16.4919 52.9C15.6752 53.1333 14.8169 53.25 13.9169 53.25C13.1502 53.25 12.4669 53.175 11.8669 53.025C11.2669 52.8917 10.6919 52.6667 10.1419 52.35L10.8419 48.825H11.4669L12.5919 52.7L11.4919 51.625C11.9919 51.875 12.4419 52.0583 12.8419 52.175C13.2586 52.275 13.7086 52.325 14.1919 52.325C14.9586 52.325 15.6502 52.175 16.2669 51.875C16.9002 51.575 17.4086 51.125 17.7919 50.525C18.1919 49.925 18.3919 49.1667 18.3919 48.25C18.3919 46.9333 18.0002 45.9583 17.2169 45.325C16.4502 44.6917 15.4836 44.375 14.3169 44.375C13.6669 44.375 13.0836 44.475 12.5669 44.675C12.0669 44.8583 11.6336 45.0917 11.2669 45.375L10.8419 45.075L11.4169 36.75H19.7919L19.6919 38.85H11.6669L12.4169 38.15ZM29.697 53.25C28.497 53.25 27.4386 52.8833 26.522 52.15C25.622 51.4 24.922 50.4 24.422 49.15C23.9386 47.9 23.697 46.5167 23.697 45C23.697 43.95 23.8303 42.9167 24.097 41.9C24.3636 40.8833 24.7636 39.975 25.297 39.175C25.8303 38.3583 26.497 37.7083 27.297 37.225C28.097 36.7417 29.022 36.5 30.072 36.5C31.3053 36.5 32.372 36.85 33.272 37.55C34.1886 38.25 34.8886 39.2083 35.372 40.425C35.872 41.625 36.122 43 36.122 44.55C36.122 45.6833 35.972 46.775 35.672 47.825C35.3886 48.8583 34.9636 49.7833 34.397 50.6C33.8303 51.4167 33.147 52.0667 32.347 52.55C31.5636 53.0167 30.6803 53.25 29.697 53.25ZM29.922 52.325C30.672 52.325 31.322 52.025 31.872 51.425C32.422 50.825 32.847 49.975 33.147 48.875C33.4636 47.775 33.622 46.4917 33.622 45.025C33.622 43.5083 33.472 42.1833 33.172 41.05C32.8886 39.9 32.4553 39.0083 31.872 38.375C31.3053 37.7417 30.622 37.425 29.822 37.425C28.6886 37.425 27.797 38.025 27.147 39.225C26.5136 40.4083 26.197 42.1 26.197 44.3C26.197 45.8333 26.3386 47.2083 26.622 48.425C26.9053 49.6417 27.322 50.6 27.872 51.3C28.422 51.9833 29.1053 52.325 29.922 52.325ZM64.956 52.3V53C64.356 52.9667 63.881 52.95 63.531 52.95C63.1976 52.9333 62.9143 52.925 62.681 52.925C62.4476 52.9083 62.1643 52.9 61.831 52.9C61.531 52.9 61.2476 52.9083 60.981 52.925C60.7143 52.925 60.4143 52.9333 60.081 52.95C59.7643 52.95 59.356 52.9667 58.856 53V52.3C59.5226 52.2 59.9893 52.0667 60.256 51.9C60.5226 51.7333 60.6726 51.4583 60.706 51.075C60.756 50.675 60.7476 50.075 60.681 49.275L59.831 38.475L60.481 37.825L54.031 52.1H53.181L47.156 38.525L47.731 38.45L46.681 50.3C46.631 50.8167 46.631 51.2 46.681 51.45C46.731 51.7 46.8976 51.8833 47.181 52C47.481 52.1 47.9726 52.2 48.656 52.3V53C48.256 52.9833 47.9226 52.9667 47.656 52.95C47.3893 52.9333 47.1393 52.925 46.906 52.925C46.6726 52.9083 46.3893 52.9 46.056 52.9C45.6893 52.9 45.306 52.9083 44.906 52.925C44.506 52.9417 44.056 52.9667 43.556 53V52.3C44.0393 52.2167 44.3893 52.1333 44.606 52.05C44.8226 51.9667 44.981 51.8333 45.081 51.65C45.1976 51.45 45.2726 51.1583 45.306 50.775C45.3393 50.3917 45.3893 49.825 45.456 49.075L46.306 39.925C46.3893 39.175 46.4226 38.6 46.406 38.2C46.3893 37.7833 46.3143 37.4833 46.181 37.3C46.0476 37.1167 45.8393 36.9917 45.556 36.925C45.2893 36.8417 44.931 36.7667 44.481 36.7V36H48.756L54.581 48.975L54.131 49.025L59.881 36H64.106V36.7C63.456 36.7667 62.9893 36.8833 62.706 37.05C62.4393 37.2 62.281 37.475 62.231 37.875C62.1976 38.275 62.2143 38.8917 62.281 39.725L63.106 49.1C63.1893 50 63.2726 50.6667 63.356 51.1C63.4393 51.5333 63.5976 51.825 63.831 51.975C64.0643 52.1083 64.4393 52.2167 64.956 52.3ZM74.9528 53.25C73.7028 53.25 72.5778 53.0333 71.5778 52.6C70.5945 52.1667 69.7445 51.575 69.0278 50.825C68.3278 50.0583 67.7862 49.1583 67.4028 48.125C67.0362 47.0917 66.8528 45.975 66.8528 44.775C66.8528 43.575 67.0362 42.4333 67.4028 41.35C67.7862 40.2667 68.3278 39.3 69.0278 38.45C69.7278 37.6 70.5778 36.9333 71.5778 36.45C72.5778 35.95 73.7028 35.7 74.9528 35.7C76.2528 35.7 77.4028 35.925 78.4028 36.375C79.4195 36.825 80.2695 37.45 80.9528 38.25C81.6528 39.0333 82.1778 39.9417 82.5278 40.975C82.8778 42.0083 83.0528 43.0917 83.0528 44.225C83.0528 45.4583 82.8612 46.625 82.4778 47.725C82.1112 48.8083 81.5778 49.7667 80.8778 50.6C80.1945 51.4333 79.3445 52.0833 78.3278 52.55C77.3278 53.0167 76.2028 53.25 74.9528 53.25ZM75.0278 52.3C76.1445 52.3 77.1028 51.9833 77.9028 51.35C78.7195 50.7 79.3445 49.8 79.7778 48.65C80.2112 47.5 80.4278 46.175 80.4278 44.675C80.4278 43.525 80.3028 42.4667 80.0528 41.5C79.8028 40.5333 79.4362 39.6917 78.9528 38.975C78.4862 38.2417 77.9112 37.675 77.2278 37.275C76.5445 36.8583 75.7778 36.65 74.9278 36.65C73.8112 36.65 72.8445 36.9583 72.0278 37.575C71.2112 38.1917 70.5778 39.0583 70.1278 40.175C69.6945 41.2917 69.4778 42.6167 69.4778 44.15C69.4778 45.2833 69.6028 46.35 69.8528 47.35C70.1028 48.3333 70.4695 49.1917 70.9528 49.925C71.4362 50.6583 72.0195 51.2417 72.7028 51.675C73.3862 52.0917 74.1612 52.3 75.0278 52.3ZM90.3872 53.25C89.4372 53.25 88.5455 53.1417 87.7122 52.925C86.8789 52.7083 86.0622 52.4083 85.2622 52.025L86.1622 48H86.9122L87.8372 52.375L87.2122 51.825L86.6872 51.075C87.2705 51.375 87.7872 51.6167 88.2372 51.8C88.6872 51.9667 89.1039 52.0917 89.4872 52.175C89.8872 52.2417 90.2872 52.275 90.6872 52.275C91.9539 52.275 92.9455 52 93.6622 51.45C94.3789 50.9 94.7372 50.1917 94.7372 49.325C94.7372 48.6917 94.5455 48.15 94.1622 47.7C93.7955 47.25 93.2955 46.8417 92.6622 46.475C92.0455 46.1083 91.3455 45.7333 90.5622 45.35C89.7122 44.9333 88.9205 44.5083 88.1872 44.075C87.4705 43.6417 86.8872 43.1333 86.4372 42.55C86.0039 41.95 85.7872 41.2167 85.7872 40.35C85.7872 39.4667 86.0205 38.675 86.4872 37.975C86.9539 37.275 87.6289 36.725 88.5122 36.325C89.4122 35.9083 90.4872 35.7 91.7372 35.7C92.6039 35.7 93.4289 35.8 94.2122 36C94.9955 36.2 95.7622 36.4833 96.5122 36.85L95.6872 40.675H94.9372L94.0122 36.525L95.1622 37.8C94.6289 37.5 94.1455 37.2667 93.7122 37.1C93.2955 36.9333 92.9039 36.825 92.5372 36.775C92.1705 36.7083 91.8039 36.675 91.4372 36.675C90.2872 36.675 89.4122 36.9167 88.8122 37.4C88.2122 37.8667 87.9122 38.5167 87.9122 39.35C87.9122 39.9667 88.0705 40.4833 88.3872 40.9C88.7205 41.3 89.1705 41.6667 89.7372 42C90.3205 42.3333 90.9789 42.675 91.7122 43.025C92.6289 43.475 93.4789 43.9333 94.2622 44.4C95.0622 44.8667 95.7039 45.4167 96.1872 46.05C96.6872 46.6667 96.9372 47.4417 96.9372 48.375C96.9372 49.2917 96.6705 50.1167 96.1372 50.85C95.6205 51.5833 94.8705 52.1667 93.8872 52.6C92.9039 53.0333 91.7372 53.25 90.3872 53.25ZM98.7253 41.3L99.1503 36H113.125L113.55 41.3H112.775L111.025 37.025H101.25L99.5003 41.3H98.7253ZM104.9 36.475H107.35V49.65C107.35 50.15 107.359 50.5583 107.375 50.875C107.409 51.1917 107.467 51.4417 107.55 51.625C107.684 51.8417 107.884 51.9917 108.15 52.075C108.417 52.1417 108.809 52.2167 109.325 52.3V53C108.792 52.9667 108.367 52.95 108.05 52.95C107.734 52.9333 107.434 52.925 107.15 52.925C106.867 52.9083 106.517 52.9 106.1 52.9C105.7 52.9 105.359 52.9083 105.075 52.925C104.809 52.925 104.517 52.9333 104.2 52.95C103.884 52.95 103.467 52.9667 102.95 53V52.3C103.45 52.2167 103.834 52.1417 104.1 52.075C104.384 51.9917 104.575 51.8417 104.675 51.625C104.775 51.4583 104.834 51.2167 104.85 50.9C104.884 50.5833 104.9 50.1583 104.9 49.625V36.475ZM124.645 39.35V49.65C124.645 50.15 124.653 50.5583 124.67 50.875C124.686 51.1917 124.745 51.4417 124.845 51.625C124.961 51.8417 125.153 51.9917 125.42 52.075C125.686 52.1417 126.078 52.2167 126.595 52.3V53C126.078 52.9667 125.661 52.95 125.345 52.95C125.028 52.9333 124.728 52.925 124.445 52.925C124.178 52.9083 123.836 52.9 123.42 52.9C123.02 52.9 122.67 52.9083 122.37 52.925C122.086 52.925 121.786 52.9333 121.47 52.95C121.17 52.95 120.753 52.9667 120.22 53V52.3C120.736 52.2167 121.128 52.1417 121.395 52.075C121.661 51.9917 121.853 51.8417 121.97 51.625C122.07 51.4583 122.128 51.2167 122.145 50.9C122.178 50.5833 122.195 50.1583 122.195 49.625V39.375C122.195 38.8417 122.178 38.4167 122.145 38.1C122.128 37.7833 122.07 37.5417 121.97 37.375C121.853 37.1583 121.661 37.0083 121.395 36.925C121.128 36.8417 120.736 36.7667 120.22 36.7V36C120.753 36.0167 121.17 36.0333 121.47 36.05C121.786 36.0667 122.086 36.0833 122.37 36.1C122.67 36.1 123.02 36.1 123.42 36.1C123.836 36.1 124.178 36.1 124.445 36.1C124.728 36.0833 125.028 36.0667 125.345 36.05C125.661 36.0333 126.078 36.0167 126.595 36V36.7C126.078 36.7667 125.686 36.8417 125.42 36.925C125.153 36.9917 124.961 37.1417 124.845 37.375C124.745 37.5583 124.686 37.8083 124.67 38.125C124.653 38.425 124.645 38.8333 124.645 39.35ZM143.02 36.1C143.37 36.1 143.728 36.0917 144.095 36.075C144.478 36.0417 144.92 36.0167 145.42 36V36.7C144.903 36.7667 144.528 36.8417 144.295 36.925C144.078 36.9917 143.911 37.1417 143.795 37.375C143.695 37.575 143.636 37.875 143.62 38.275C143.603 38.675 143.595 39.2167 143.595 39.9V53H142.77L131.67 38.95L131.695 49.075C131.695 49.775 131.703 50.325 131.72 50.725C131.736 51.125 131.795 51.425 131.895 51.625C132.011 51.8417 132.211 51.9917 132.495 52.075C132.795 52.1417 133.378 52.2167 134.245 52.3V53C133.378 52.9667 132.72 52.9417 132.27 52.925C131.836 52.9083 131.436 52.9 131.07 52.9C130.703 52.9 130.311 52.9083 129.895 52.925C129.495 52.9417 129.045 52.9667 128.545 53V52.3C129.028 52.2167 129.386 52.1417 129.62 52.075C129.853 52.0083 130.02 51.8833 130.12 51.7C130.236 51.5 130.303 51.2 130.32 50.8C130.353 50.4 130.37 49.825 130.37 49.075V39.925C130.37 39.175 130.353 38.6 130.32 38.2C130.303 37.7833 130.236 37.4833 130.12 37.3C130.003 37.1167 129.82 36.9917 129.57 36.925C129.336 36.8417 128.995 36.7667 128.545 36.7V36H132.42L142.245 48.625V39.925C142.245 39.175 142.228 38.6 142.195 38.2C142.178 37.8 142.111 37.5 141.995 37.3C141.895 37.1167 141.695 36.9917 141.395 36.925C141.111 36.8417 140.553 36.7667 139.72 36.7V36C140.603 36.0167 141.278 36.0417 141.745 36.075C142.211 36.0917 142.636 36.1 143.02 36.1ZM152.643 53.25C151.693 53.25 150.801 53.1417 149.968 52.925C149.135 52.7083 148.318 52.4083 147.518 52.025L148.418 48H149.168L150.093 52.375L149.468 51.825L148.943 51.075C149.526 51.375 150.043 51.6167 150.493 51.8C150.943 51.9667 151.36 52.0917 151.743 52.175C152.143 52.2417 152.543 52.275 152.943 52.275C154.21 52.275 155.201 52 155.918 51.45C156.635 50.9 156.993 50.1917 156.993 49.325C156.993 48.6917 156.801 48.15 156.418 47.7C156.051 47.25 155.551 46.8417 154.918 46.475C154.301 46.1083 153.601 45.7333 152.818 45.35C151.968 44.9333 151.176 44.5083 150.443 44.075C149.726 43.6417 149.143 43.1333 148.693 42.55C148.26 41.95 148.043 41.2167 148.043 40.35C148.043 39.4667 148.276 38.675 148.743 37.975C149.21 37.275 149.885 36.725 150.768 36.325C151.668 35.9083 152.743 35.7 153.993 35.7C154.86 35.7 155.685 35.8 156.468 36C157.251 36.2 158.018 36.4833 158.768 36.85L157.943 40.675H157.193L156.268 36.525L157.418 37.8C156.885 37.5 156.401 37.2667 155.968 37.1C155.551 36.9333 155.16 36.825 154.793 36.775C154.426 36.7083 154.06 36.675 153.693 36.675C152.543 36.675 151.668 36.9167 151.068 37.4C150.468 37.8667 150.168 38.5167 150.168 39.35C150.168 39.9667 150.326 40.4833 150.643 40.9C150.976 41.3 151.426 41.6667 151.993 42C152.576 42.3333 153.235 42.675 153.968 43.025C154.885 43.475 155.735 43.9333 156.518 44.4C157.318 44.8667 157.96 45.4167 158.443 46.05C158.943 46.6667 159.193 47.4417 159.193 48.375C159.193 49.2917 158.926 50.1167 158.393 50.85C157.876 51.5833 157.126 52.1667 156.143 52.6C155.16 53.0333 153.993 53.25 152.643 53.25ZM165.956 36.9V49.65C165.956 50.15 165.964 50.5583 165.981 50.875C165.998 51.1917 166.056 51.4417 166.156 51.625C166.273 51.8417 166.464 51.9917 166.731 52.075C166.998 52.1417 167.389 52.2167 167.906 52.3V53C167.389 52.9667 166.964 52.95 166.631 52.95C166.314 52.9333 166.014 52.925 165.731 52.925C165.464 52.9083 165.114 52.9 164.681 52.9C164.298 52.9 163.964 52.9083 163.681 52.925C163.398 52.925 163.098 52.9333 162.781 52.95C162.481 52.95 162.064 52.9667 161.531 53V52.3C162.048 52.2167 162.439 52.1417 162.706 52.075C162.973 51.9917 163.164 51.8417 163.281 51.625C163.381 51.4583 163.439 51.2167 163.456 50.9C163.489 50.5833 163.506 50.1583 163.506 49.625V39.875C163.506 39.175 163.489 38.6333 163.456 38.25C163.439 37.85 163.356 37.55 163.206 37.35C163.089 37.15 162.889 37.0083 162.606 36.925C162.323 36.8417 161.923 36.7667 161.406 36.7V36H168.031C169.548 36 170.814 36.1833 171.831 36.55C172.864 36.9 173.639 37.425 174.156 38.125C174.689 38.825 174.956 39.6833 174.956 40.7C174.956 41.5167 174.756 42.2583 174.356 42.925C173.973 43.575 173.423 44.1333 172.706 44.6C172.006 45.05 171.173 45.4 170.206 45.65C169.256 45.8833 168.198 46 167.031 46H165.706L165.681 44.975C165.964 44.9917 166.231 45.0167 166.481 45.05C166.731 45.0833 166.989 45.1 167.256 45.1C168.373 45.1 169.306 44.9167 170.056 44.55C170.823 44.1833 171.406 43.6917 171.806 43.075C172.206 42.4583 172.406 41.75 172.406 40.95C172.406 40.1333 172.223 39.425 171.856 38.825C171.489 38.225 170.948 37.7583 170.231 37.425C169.531 37.075 168.681 36.9 167.681 36.9H165.956ZM181.017 39.35V49.65C181.017 50.15 181.025 50.5583 181.042 50.875C181.058 51.1917 181.117 51.4417 181.217 51.625C181.333 51.8417 181.525 51.9917 181.792 52.075C182.058 52.1417 182.45 52.2167 182.967 52.3V53C182.45 52.9667 182.033 52.95 181.717 52.95C181.4 52.9333 181.1 52.925 180.817 52.925C180.55 52.9083 180.208 52.9 179.792 52.9C179.392 52.9 179.042 52.9083 178.742 52.925C178.458 52.925 178.158 52.9333 177.842 52.95C177.542 52.95 177.125 52.9667 176.592 53V52.3C177.108 52.2167 177.5 52.1417 177.767 52.075C178.033 51.9917 178.225 51.8417 178.342 51.625C178.442 51.4583 178.5 51.2167 178.517 50.9C178.55 50.5833 178.567 50.1583 178.567 49.625V39.375C178.567 38.8417 178.55 38.4167 178.517 38.1C178.5 37.7833 178.442 37.5417 178.342 37.375C178.225 37.1583 178.033 37.0083 177.767 36.925C177.5 36.8417 177.108 36.7667 176.592 36.7V36C177.125 36.0167 177.542 36.0333 177.842 36.05C178.158 36.0667 178.458 36.0833 178.742 36.1C179.042 36.1 179.392 36.1 179.792 36.1C180.208 36.1 180.55 36.1 180.817 36.1C181.1 36.0833 181.4 36.0667 181.717 36.05C182.033 36.0333 182.45 36.0167 182.967 36V36.7C182.45 36.7667 182.058 36.8417 181.792 36.925C181.525 36.9917 181.333 37.1417 181.217 37.375C181.117 37.5583 181.058 37.8083 181.042 38.125C181.025 38.425 181.017 38.8333 181.017 39.35ZM191.567 44.7L194.017 44.525L197.442 49.775C197.892 50.4583 198.292 50.975 198.642 51.325C198.992 51.6583 199.342 51.8917 199.692 52.025C200.042 52.1417 200.442 52.2333 200.892 52.3V53C200.359 52.9833 199.909 52.9667 199.542 52.95C199.175 52.9333 198.825 52.925 198.492 52.925C198.175 52.925 197.859 52.9333 197.542 52.95C197.242 52.9667 196.925 52.9833 196.592 53L191.567 44.7ZM189.392 36.9V49.125C189.392 49.7917 189.4 50.325 189.417 50.725C189.45 51.125 189.517 51.425 189.617 51.625C189.75 51.8417 189.959 51.9917 190.242 52.075C190.525 52.1417 190.942 52.2167 191.492 52.3V53C190.959 52.9667 190.534 52.95 190.217 52.95C189.9 52.9333 189.592 52.925 189.292 52.925C189.009 52.9083 188.642 52.9 188.192 52.9C187.775 52.9 187.417 52.9083 187.117 52.925C186.834 52.925 186.534 52.9333 186.217 52.95C185.9 52.95 185.475 52.9667 184.942 53V52.3C185.475 52.2167 185.875 52.1333 186.142 52.05C186.425 51.9667 186.625 51.825 186.742 51.625C186.875 51.4083 186.959 51.1083 186.992 50.725C187.025 50.325 187.042 49.7833 187.042 49.1V39.875C187.042 39.175 187.025 38.6333 186.992 38.25C186.975 37.85 186.892 37.55 186.742 37.35C186.625 37.15 186.425 37.0083 186.142 36.925C185.875 36.8417 185.509 36.7667 185.042 36.7V36H191.517C192.984 36 194.225 36.1417 195.242 36.425C196.275 36.7083 197.067 37.1583 197.617 37.775C198.167 38.3917 198.442 39.1833 198.442 40.15C198.442 40.9333 198.259 41.6333 197.892 42.25C197.525 42.8667 197 43.3917 196.317 43.825C195.65 44.2583 194.842 44.5917 193.892 44.825C192.942 45.0417 191.867 45.15 190.667 45.15H189.192V44.05C189.459 44.1 189.742 44.1417 190.042 44.175C190.359 44.1917 190.667 44.2 190.967 44.2C192.167 44.2 193.125 44.05 193.842 43.75C194.575 43.45 195.1 43.025 195.417 42.475C195.75 41.925 195.917 41.2917 195.917 40.575C195.917 39.7917 195.734 39.1333 195.367 38.6C195 38.05 194.467 37.6333 193.767 37.35C193.067 37.05 192.217 36.9 191.217 36.9H189.392ZM213.232 48H205.357V47H213.232V48ZM209.932 36L215.557 49.85C215.773 50.35 215.948 50.75 216.082 51.05C216.215 51.3333 216.348 51.5583 216.482 51.725C216.615 51.875 216.798 51.9917 217.032 52.075C217.265 52.1583 217.573 52.2333 217.957 52.3V53C217.54 52.9667 217.065 52.9417 216.532 52.925C215.998 52.9083 215.365 52.9 214.632 52.9C214.165 52.9 213.773 52.9083 213.457 52.925C213.14 52.925 212.84 52.9333 212.557 52.95C212.29 52.9667 211.99 52.9833 211.657 53V52.3C212.223 52.1833 212.648 52.075 212.932 51.975C213.215 51.875 213.357 51.6417 213.357 51.275C213.357 50.8417 213.148 50.1083 212.732 49.075L208.807 39.275L209.282 38.875L205.007 49.8C204.857 50.1667 204.748 50.475 204.682 50.725C204.615 50.975 204.582 51.1917 204.582 51.375C204.582 51.725 204.748 51.9417 205.082 52.025C205.432 52.1083 205.857 52.2 206.357 52.3V53C205.84 52.9667 205.373 52.9417 204.957 52.925C204.557 52.9083 204.098 52.9 203.582 52.9C203.232 52.9 202.857 52.9083 202.457 52.925C202.057 52.9417 201.64 52.9667 201.207 53V52.3C201.673 52.2167 202.032 52.1167 202.282 52C202.532 51.8833 202.732 51.6917 202.882 51.425C203.048 51.1417 203.248 50.725 203.482 50.175L209.232 36H209.932ZM217.402 41.3L217.827 36H231.802L232.227 41.3H231.452L229.702 37.025H219.927L218.177 41.3H217.402ZM223.577 36.475H226.027V49.65C226.027 50.15 226.035 50.5583 226.052 50.875C226.085 51.1917 226.144 51.4417 226.227 51.625C226.36 51.8417 226.56 51.9917 226.827 52.075C227.094 52.1417 227.485 52.2167 228.002 52.3V53C227.469 52.9667 227.044 52.95 226.727 52.95C226.41 52.9333 226.11 52.925 225.827 52.925C225.544 52.9083 225.194 52.9 224.777 52.9C224.377 52.9 224.035 52.9083 223.752 52.925C223.485 52.925 223.194 52.9333 222.877 52.95C222.56 52.95 222.144 52.9667 221.627 53V52.3C222.127 52.2167 222.51 52.1417 222.777 52.075C223.06 51.9917 223.252 51.8417 223.352 51.625C223.452 51.4583 223.51 51.2167 223.527 50.9C223.56 50.5833 223.577 50.1583 223.577 49.625V36.475ZM238.17 39.35V49.65C238.17 50.15 238.178 50.5583 238.195 50.875C238.212 51.1917 238.27 51.4417 238.37 51.625C238.487 51.8417 238.678 51.9917 238.945 52.075C239.212 52.1417 239.603 52.2167 240.12 52.3V53C239.603 52.9667 239.187 52.95 238.87 52.95C238.553 52.9333 238.253 52.925 237.97 52.925C237.703 52.9083 237.362 52.9 236.945 52.9C236.545 52.9 236.195 52.9083 235.895 52.925C235.612 52.925 235.312 52.9333 234.995 52.95C234.695 52.95 234.278 52.9667 233.745 53V52.3C234.262 52.2167 234.653 52.1417 234.92 52.075C235.187 51.9917 235.378 51.8417 235.495 51.625C235.595 51.4583 235.653 51.2167 235.67 50.9C235.703 50.5833 235.72 50.1583 235.72 49.625V39.375C235.72 38.8417 235.703 38.4167 235.67 38.1C235.653 37.7833 235.595 37.5417 235.495 37.375C235.378 37.1583 235.187 37.0083 234.92 36.925C234.653 36.8417 234.262 36.7667 233.745 36.7V36C234.278 36.0167 234.695 36.0333 234.995 36.05C235.312 36.0667 235.612 36.0833 235.895 36.1C236.195 36.1 236.545 36.1 236.945 36.1C237.362 36.1 237.703 36.1 237.97 36.1C238.253 36.0833 238.553 36.0667 238.87 36.05C239.187 36.0333 239.603 36.0167 240.12 36V36.7C239.603 36.7667 239.212 36.8417 238.945 36.925C238.678 36.9917 238.487 37.1417 238.37 37.375C238.27 37.5583 238.212 37.8083 238.195 38.125C238.178 38.425 238.17 38.8333 238.17 39.35ZM250.27 53.25C249.02 53.25 247.895 53.0333 246.895 52.6C245.912 52.1667 245.062 51.575 244.345 50.825C243.645 50.0583 243.104 49.1583 242.72 48.125C242.354 47.0917 242.17 45.975 242.17 44.775C242.17 43.575 242.354 42.4333 242.72 41.35C243.104 40.2667 243.645 39.3 244.345 38.45C245.045 37.6 245.895 36.9333 246.895 36.45C247.895 35.95 249.02 35.7 250.27 35.7C251.57 35.7 252.72 35.925 253.72 36.375C254.737 36.825 255.587 37.45 256.27 38.25C256.97 39.0333 257.495 39.9417 257.845 40.975C258.195 42.0083 258.37 43.0917 258.37 44.225C258.37 45.4583 258.179 46.625 257.795 47.725C257.429 48.8083 256.895 49.7667 256.195 50.6C255.512 51.4333 254.662 52.0833 253.645 52.55C252.645 53.0167 251.52 53.25 250.27 53.25ZM250.345 52.3C251.462 52.3 252.42 51.9833 253.22 51.35C254.037 50.7 254.662 49.8 255.095 48.65C255.529 47.5 255.745 46.175 255.745 44.675C255.745 43.525 255.62 42.4667 255.37 41.5C255.12 40.5333 254.754 39.6917 254.27 38.975C253.804 38.2417 253.229 37.675 252.545 37.275C251.862 36.8583 251.095 36.65 250.245 36.65C249.129 36.65 248.162 36.9583 247.345 37.575C246.529 38.1917 245.895 39.0583 245.445 40.175C245.012 41.2917 244.795 42.6167 244.795 44.15C244.795 45.2833 244.92 46.35 245.17 47.35C245.42 48.3333 245.787 49.1917 246.27 49.925C246.754 50.6583 247.337 51.2417 248.02 51.675C248.704 52.0917 249.479 52.3 250.345 52.3ZM274.905 36.1C275.255 36.1 275.613 36.0917 275.98 36.075C276.363 36.0417 276.805 36.0167 277.305 36V36.7C276.788 36.7667 276.413 36.8417 276.18 36.925C275.963 36.9917 275.796 37.1417 275.68 37.375C275.58 37.575 275.521 37.875 275.505 38.275C275.488 38.675 275.48 39.2167 275.48 39.9V53H274.655L263.555 38.95L263.58 49.075C263.58 49.775 263.588 50.325 263.605 50.725C263.621 51.125 263.68 51.425 263.78 51.625C263.896 51.8417 264.096 51.9917 264.38 52.075C264.68 52.1417 265.263 52.2167 266.13 52.3V53C265.263 52.9667 264.605 52.9417 264.155 52.925C263.721 52.9083 263.321 52.9 262.955 52.9C262.588 52.9 262.196 52.9083 261.78 52.925C261.38 52.9417 260.93 52.9667 260.43 53V52.3C260.913 52.2167 261.271 52.1417 261.505 52.075C261.738 52.0083 261.905 51.8833 262.005 51.7C262.121 51.5 262.188 51.2 262.205 50.8C262.238 50.4 262.255 49.825 262.255 49.075V39.925C262.255 39.175 262.238 38.6 262.205 38.2C262.188 37.7833 262.121 37.4833 262.005 37.3C261.888 37.1167 261.705 36.9917 261.455 36.925C261.221 36.8417 260.88 36.7667 260.43 36.7V36H264.305L274.13 48.625V39.925C274.13 39.175 274.113 38.6 274.08 38.2C274.063 37.8 273.996 37.5 273.88 37.3C273.78 37.1167 273.58 36.9917 273.28 36.925C272.996 36.8417 272.438 36.7667 271.605 36.7V36C272.488 36.0167 273.163 36.0417 273.63 36.075C274.096 36.0917 274.521 36.1 274.905 36.1ZM289.111 48H281.236V47H289.111V48ZM285.811 36L291.436 49.85C291.652 50.35 291.827 50.75 291.961 51.05C292.094 51.3333 292.227 51.5583 292.361 51.725C292.494 51.875 292.677 51.9917 292.911 52.075C293.144 52.1583 293.452 52.2333 293.836 52.3V53C293.419 52.9667 292.944 52.9417 292.411 52.925C291.877 52.9083 291.244 52.9 290.511 52.9C290.044 52.9 289.652 52.9083 289.336 52.925C289.019 52.925 288.719 52.9333 288.436 52.95C288.169 52.9667 287.869 52.9833 287.536 53V52.3C288.102 52.1833 288.527 52.075 288.811 51.975C289.094 51.875 289.236 51.6417 289.236 51.275C289.236 50.8417 289.027 50.1083 288.611 49.075L284.686 39.275L285.161 38.875L280.886 49.8C280.736 50.1667 280.627 50.475 280.561 50.725C280.494 50.975 280.461 51.1917 280.461 51.375C280.461 51.725 280.627 51.9417 280.961 52.025C281.311 52.1083 281.736 52.2 282.236 52.3V53C281.719 52.9667 281.252 52.9417 280.836 52.925C280.436 52.9083 279.977 52.9 279.461 52.9C279.111 52.9 278.736 52.9083 278.336 52.925C277.936 52.9417 277.519 52.9667 277.086 53V52.3C277.552 52.2167 277.911 52.1167 278.161 52C278.411 51.8833 278.611 51.6917 278.761 51.425C278.927 51.1417 279.127 50.725 279.361 50.175L285.111 36H285.811ZM299.425 39.375V52.05H304.85L306.525 48.05H307.3L306.95 53H295V52.3C295.5 52.2167 295.883 52.1333 296.15 52.05C296.417 51.9667 296.6 51.825 296.7 51.625C296.833 51.425 296.908 51.1333 296.925 50.75C296.958 50.35 296.975 49.8083 296.975 49.125V39.375C296.975 38.8417 296.958 38.4167 296.925 38.1C296.908 37.7833 296.85 37.5417 296.75 37.375C296.633 37.1583 296.442 37.0083 296.175 36.925C295.908 36.8417 295.517 36.7667 295 36.7V36C295.533 36.0167 295.95 36.0333 296.25 36.05C296.567 36.0667 296.867 36.0833 297.15 36.1C297.433 36.1 297.767 36.1 298.15 36.1C298.583 36.1 298.933 36.1 299.2 36.1C299.483 36.0833 299.783 36.0667 300.1 36.05C300.433 36.0333 300.858 36.0167 301.375 36V36.7C300.858 36.7667 300.467 36.8417 300.2 36.925C299.933 36.9917 299.742 37.1417 299.625 37.375C299.525 37.5583 299.467 37.8083 299.45 38.125C299.433 38.425 299.425 38.8417 299.425 39.375ZM336.194 36.1C336.527 36.1 336.894 36.0917 337.294 36.075C337.694 36.0417 338.152 36.0167 338.669 36V36.7C338.136 36.7833 337.736 36.8833 337.469 37C337.202 37.1167 336.986 37.3333 336.819 37.65C336.652 37.9667 336.436 38.4833 336.169 39.2L331.069 53H330.369L325.669 40.225H326.394L321.469 53H320.769L316.044 39.925C315.777 39.2083 315.561 38.65 315.394 38.25C315.227 37.85 315.052 37.55 314.869 37.35C314.702 37.15 314.494 37.0083 314.244 36.925C313.994 36.8417 313.652 36.7667 313.219 36.7V36C313.719 36.0167 314.236 36.0417 314.769 36.075C315.302 36.0917 315.911 36.1 316.594 36.1C317.177 36.1 317.644 36.1 317.994 36.1C318.344 36.0833 318.661 36.0667 318.944 36.05C319.227 36.0333 319.536 36.0167 319.869 36V36.7C319.386 36.7667 318.969 36.8583 318.619 36.975C318.269 37.0917 318.094 37.3417 318.094 37.725C318.094 37.9417 318.152 38.2333 318.269 38.6C318.402 38.9667 318.552 39.4083 318.719 39.925L322.319 50.175H321.319L326.294 37.05H327.119L331.819 50.15L330.919 50.175L334.769 39.2C334.902 38.85 335.002 38.55 335.069 38.3C335.152 38.05 335.194 37.8417 335.194 37.675C335.194 37.2917 335.019 37.05 334.669 36.95C334.336 36.85 333.952 36.7667 333.519 36.7V36C334.036 36.0167 334.486 36.0417 334.869 36.075C335.252 36.0917 335.694 36.1 336.194 36.1ZM347.267 53.25C346.017 53.25 344.892 53.0333 343.892 52.6C342.909 52.1667 342.059 51.575 341.342 50.825C340.642 50.0583 340.101 49.1583 339.717 48.125C339.351 47.0917 339.167 45.975 339.167 44.775C339.167 43.575 339.351 42.4333 339.717 41.35C340.101 40.2667 340.642 39.3 341.342 38.45C342.042 37.6 342.892 36.9333 343.892 36.45C344.892 35.95 346.017 35.7 347.267 35.7C348.567 35.7 349.717 35.925 350.717 36.375C351.734 36.825 352.584 37.45 353.267 38.25C353.967 39.0333 354.492 39.9417 354.842 40.975C355.192 42.0083 355.367 43.0917 355.367 44.225C355.367 45.4583 355.176 46.625 354.792 47.725C354.426 48.8083 353.892 49.7667 353.192 50.6C352.509 51.4333 351.659 52.0833 350.642 52.55C349.642 53.0167 348.517 53.25 347.267 53.25ZM347.342 52.3C348.459 52.3 349.417 51.9833 350.217 51.35C351.034 50.7 351.659 49.8 352.092 48.65C352.526 47.5 352.742 46.175 352.742 44.675C352.742 43.525 352.617 42.4667 352.367 41.5C352.117 40.5333 351.751 39.6917 351.267 38.975C350.801 38.2417 350.226 37.675 349.542 37.275C348.859 36.8583 348.092 36.65 347.242 36.65C346.126 36.65 345.159 36.9583 344.342 37.575C343.526 38.1917 342.892 39.0583 342.442 40.175C342.009 41.2917 341.792 42.6167 341.792 44.15C341.792 45.2833 341.917 46.35 342.167 47.35C342.417 48.3333 342.784 49.1917 343.267 49.925C343.751 50.6583 344.334 51.2417 345.017 51.675C345.701 52.0917 346.476 52.3 347.342 52.3ZM378.677 52.3V53C378.077 52.9667 377.602 52.95 377.252 52.95C376.918 52.9333 376.635 52.925 376.402 52.925C376.168 52.9083 375.885 52.9 375.552 52.9C375.252 52.9 374.968 52.9083 374.702 52.925C374.435 52.925 374.135 52.9333 373.802 52.95C373.485 52.95 373.077 52.9667 372.577 53V52.3C373.243 52.2 373.71 52.0667 373.977 51.9C374.243 51.7333 374.393 51.4583 374.427 51.075C374.477 50.675 374.468 50.075 374.402 49.275L373.552 38.475L374.202 37.825L367.752 52.1H366.902L360.877 38.525L361.452 38.45L360.402 50.3C360.352 50.8167 360.352 51.2 360.402 51.45C360.452 51.7 360.618 51.8833 360.902 52C361.202 52.1 361.693 52.2 362.377 52.3V53C361.977 52.9833 361.643 52.9667 361.377 52.95C361.11 52.9333 360.86 52.925 360.627 52.925C360.393 52.9083 360.11 52.9 359.777 52.9C359.41 52.9 359.027 52.9083 358.627 52.925C358.227 52.9417 357.777 52.9667 357.277 53V52.3C357.76 52.2167 358.11 52.1333 358.327 52.05C358.543 51.9667 358.702 51.8333 358.802 51.65C358.918 51.45 358.993 51.1583 359.027 50.775C359.06 50.3917 359.11 49.825 359.177 49.075L360.027 39.925C360.11 39.175 360.143 38.6 360.127 38.2C360.11 37.7833 360.035 37.4833 359.902 37.3C359.768 37.1167 359.56 36.9917 359.277 36.925C359.01 36.8417 358.652 36.7667 358.202 36.7V36H362.477L368.302 48.975L367.852 49.025L373.602 36H377.827V36.7C377.177 36.7667 376.71 36.8833 376.427 37.05C376.16 37.2 376.002 37.475 375.952 37.875C375.918 38.275 375.935 38.8917 376.002 39.725L376.827 49.1C376.91 50 376.993 50.6667 377.077 51.1C377.16 51.5333 377.318 51.825 377.552 51.975C377.785 52.1083 378.16 52.2167 378.677 52.3ZM383.549 44.675V43.675H386.999C387.599 43.675 388.065 43.6417 388.399 43.575C388.732 43.4917 388.982 43.3667 389.149 43.2C389.332 43.0333 389.465 42.8 389.549 42.5C389.649 42.1833 389.757 41.7917 389.874 41.325H390.599V47.025H389.874C389.757 46.575 389.649 46.2 389.549 45.9C389.465 45.5833 389.332 45.3333 389.149 45.15C388.982 44.9667 388.732 44.8417 388.399 44.775C388.065 44.7083 387.599 44.675 386.999 44.675H383.549ZM391.274 52.05L393.099 48.15H393.849L393.349 53H380.474V52.3C381.024 52.2167 381.432 52.1333 381.699 52.05C381.982 51.9667 382.182 51.825 382.299 51.625C382.415 51.425 382.482 51.1333 382.499 50.75C382.532 50.35 382.549 49.8083 382.549 49.125V39.875C382.549 39.1417 382.532 38.575 382.499 38.175C382.482 37.775 382.39 37.475 382.224 37.275C382.107 37.0917 381.915 36.9667 381.649 36.9C381.382 36.8167 380.99 36.7583 380.474 36.725V36H392.949L393.199 40.425H392.449L390.874 36.95H384.999V52.05H391.274ZM410.256 36.1C410.606 36.1 410.964 36.0917 411.331 36.075C411.714 36.0417 412.156 36.0167 412.656 36V36.7C412.139 36.7667 411.764 36.8417 411.531 36.925C411.314 36.9917 411.148 37.1417 411.031 37.375C410.931 37.575 410.873 37.875 410.856 38.275C410.839 38.675 410.831 39.2167 410.831 39.9V53H410.006L398.906 38.95L398.931 49.075C398.931 49.775 398.939 50.325 398.956 50.725C398.973 51.125 399.031 51.425 399.131 51.625C399.248 51.8417 399.448 51.9917 399.731 52.075C400.031 52.1417 400.614 52.2167 401.481 52.3V53C400.614 52.9667 399.956 52.9417 399.506 52.925C399.073 52.9083 398.673 52.9 398.306 52.9C397.939 52.9 397.548 52.9083 397.131 52.925C396.731 52.9417 396.281 52.9667 395.781 53V52.3C396.264 52.2167 396.623 52.1417 396.856 52.075C397.089 52.0083 397.256 51.8833 397.356 51.7C397.473 51.5 397.539 51.2 397.556 50.8C397.589 50.4 397.606 49.825 397.606 49.075V39.925C397.606 39.175 397.589 38.6 397.556 38.2C397.539 37.7833 397.473 37.4833 397.356 37.3C397.239 37.1167 397.056 36.9917 396.806 36.925C396.573 36.8417 396.231 36.7667 395.781 36.7V36H399.656L409.481 48.625V39.925C409.481 39.175 409.464 38.6 409.431 38.2C409.414 37.8 409.348 37.5 409.231 37.3C409.131 37.1167 408.931 36.9917 408.631 36.925C408.348 36.8417 407.789 36.7667 406.956 36.7V36C407.839 36.0167 408.514 36.0417 408.981 36.075C409.448 36.0917 409.873 36.1 410.256 36.1ZM419.331 41.3L419.756 36H433.731L434.156 41.3H433.381L431.631 37.025H421.856L420.106 41.3H419.331ZM425.506 36.475H427.956V49.65C427.956 50.15 427.964 50.5583 427.981 50.875C428.014 51.1917 428.072 51.4417 428.156 51.625C428.289 51.8417 428.489 51.9917 428.756 52.075C429.022 52.1417 429.414 52.2167 429.931 52.3V53C429.397 52.9667 428.972 52.95 428.656 52.95C428.339 52.9333 428.039 52.925 427.756 52.925C427.472 52.9083 427.122 52.9 426.706 52.9C426.306 52.9 425.964 52.9083 425.681 52.925C425.414 52.925 425.122 52.9333 424.806 52.95C424.489 52.95 424.072 52.9667 423.556 53V52.3C424.056 52.2167 424.439 52.1417 424.706 52.075C424.989 51.9917 425.181 51.8417 425.281 51.625C425.381 51.4583 425.439 51.2167 425.456 50.9C425.489 50.5833 425.506 50.1583 425.506 49.625V36.475ZM443.874 53.25C442.624 53.25 441.499 53.0333 440.499 52.6C439.515 52.1667 438.665 51.575 437.949 50.825C437.249 50.0583 436.707 49.1583 436.324 48.125C435.957 47.0917 435.774 45.975 435.774 44.775C435.774 43.575 435.957 42.4333 436.324 41.35C436.707 40.2667 437.249 39.3 437.949 38.45C438.649 37.6 439.499 36.9333 440.499 36.45C441.499 35.95 442.624 35.7 443.874 35.7C445.174 35.7 446.324 35.925 447.324 36.375C448.34 36.825 449.19 37.45 449.874 38.25C450.574 39.0333 451.099 39.9417 451.449 40.975C451.799 42.0083 451.974 43.0917 451.974 44.225C451.974 45.4583 451.782 46.625 451.399 47.725C451.032 48.8083 450.499 49.7667 449.799 50.6C449.115 51.4333 448.265 52.0833 447.249 52.55C446.249 53.0167 445.124 53.25 443.874 53.25ZM443.949 52.3C445.065 52.3 446.024 51.9833 446.824 51.35C447.64 50.7 448.265 49.8 448.699 48.65C449.132 47.5 449.349 46.175 449.349 44.675C449.349 43.525 449.224 42.4667 448.974 41.5C448.724 40.5333 448.357 39.6917 447.874 38.975C447.407 38.2417 446.832 37.675 446.149 37.275C445.465 36.8583 444.699 36.65 443.849 36.65C442.732 36.65 441.765 36.9583 440.949 37.575C440.132 38.1917 439.499 39.0583 439.049 40.175C438.615 41.2917 438.399 42.6167 438.399 44.15C438.399 45.2833 438.524 46.35 438.774 47.35C439.024 48.3333 439.39 49.1917 439.874 49.925C440.357 50.6583 440.94 51.2417 441.624 51.675C442.307 52.0917 443.082 52.3 443.949 52.3ZM101.744 74.375V87.05H107.169L108.844 83.05H109.619L109.269 88H97.3192V87.3C97.8192 87.2167 98.2026 87.1333 98.4692 87.05C98.7359 86.9667 98.9192 86.825 99.0192 86.625C99.1526 86.425 99.2276 86.1333 99.2442 85.75C99.2776 85.35 99.2942 84.8083 99.2942 84.125V74.375C99.2942 73.8417 99.2776 73.4167 99.2442 73.1C99.2276 72.7833 99.1692 72.5417 99.0692 72.375C98.9526 72.1583 98.7609 72.0083 98.4942 71.925C98.2276 71.8417 97.8359 71.7667 97.3192 71.7V71C97.8526 71.0167 98.2692 71.0333 98.5692 71.05C98.8859 71.0667 99.1859 71.0833 99.4692 71.1C99.7526 71.1 100.086 71.1 100.469 71.1C100.903 71.1 101.253 71.1 101.519 71.1C101.803 71.0833 102.103 71.0667 102.419 71.05C102.753 71.0333 103.178 71.0167 103.694 71V71.7C103.178 71.7667 102.786 71.8417 102.519 71.925C102.253 71.9917 102.061 72.1417 101.944 72.375C101.844 72.5583 101.786 72.8083 101.769 73.125C101.753 73.425 101.744 73.8417 101.744 74.375ZM119.118 88.25C117.868 88.25 116.743 88.0333 115.743 87.6C114.76 87.1667 113.91 86.575 113.193 85.825C112.493 85.0583 111.951 84.1583 111.568 83.125C111.201 82.0917 111.018 80.975 111.018 79.775C111.018 78.575 111.201 77.4333 111.568 76.35C111.951 75.2667 112.493 74.3 113.193 73.45C113.893 72.6 114.743 71.9333 115.743 71.45C116.743 70.95 117.868 70.7 119.118 70.7C120.418 70.7 121.568 70.925 122.568 71.375C123.585 71.825 124.435 72.45 125.118 73.25C125.818 74.0333 126.343 74.9417 126.693 75.975C127.043 77.0083 127.218 78.0917 127.218 79.225C127.218 80.4583 127.026 81.625 126.643 82.725C126.276 83.8083 125.743 84.7667 125.043 85.6C124.36 86.4333 123.51 87.0833 122.493 87.55C121.493 88.0167 120.368 88.25 119.118 88.25ZM119.193 87.3C120.31 87.3 121.268 86.9833 122.068 86.35C122.885 85.7 123.51 84.8 123.943 83.65C124.376 82.5 124.593 81.175 124.593 79.675C124.593 78.525 124.468 77.4667 124.218 76.5C123.968 75.5333 123.601 74.6917 123.118 73.975C122.651 73.2417 122.076 72.675 121.393 72.275C120.71 71.8583 119.943 71.65 119.093 71.65C117.976 71.65 117.01 71.9583 116.193 72.575C115.376 73.1917 114.743 74.0583 114.293 75.175C113.86 76.2917 113.643 77.6167 113.643 79.15C113.643 80.2833 113.768 81.35 114.018 82.35C114.268 83.3333 114.635 84.1917 115.118 84.925C115.601 85.6583 116.185 86.2417 116.868 86.675C117.551 87.0917 118.326 87.3 119.193 87.3ZM137.477 88.25C136.227 88.25 135.102 88.0333 134.102 87.6C133.119 87.1667 132.269 86.575 131.552 85.825C130.852 85.0583 130.311 84.1583 129.927 83.125C129.561 82.0917 129.377 80.975 129.377 79.775C129.377 78.575 129.561 77.4333 129.927 76.35C130.311 75.2667 130.852 74.3 131.552 73.45C132.252 72.6 133.102 71.9333 134.102 71.45C135.102 70.95 136.227 70.7 137.477 70.7C138.777 70.7 139.927 70.925 140.927 71.375C141.944 71.825 142.794 72.45 143.477 73.25C144.177 74.0333 144.702 74.9417 145.052 75.975C145.402 77.0083 145.577 78.0917 145.577 79.225C145.577 80.4583 145.386 81.625 145.002 82.725C144.636 83.8083 144.102 84.7667 143.402 85.6C142.719 86.4333 141.869 87.0833 140.852 87.55C139.852 88.0167 138.727 88.25 137.477 88.25ZM137.552 87.3C138.669 87.3 139.627 86.9833 140.427 86.35C141.244 85.7 141.869 84.8 142.302 83.65C142.736 82.5 142.952 81.175 142.952 79.675C142.952 78.525 142.827 77.4667 142.577 76.5C142.327 75.5333 141.961 74.6917 141.477 73.975C141.011 73.2417 140.436 72.675 139.752 72.275C139.069 71.8583 138.302 71.65 137.452 71.65C136.336 71.65 135.369 71.9583 134.552 72.575C133.736 73.1917 133.102 74.0583 132.652 75.175C132.219 76.2917 132.002 77.6167 132.002 79.15C132.002 80.2833 132.127 81.35 132.377 82.35C132.627 83.3333 132.994 84.1917 133.477 84.925C133.961 85.6583 134.544 86.2417 135.227 86.675C135.911 87.0917 136.686 87.3 137.552 87.3ZM151.762 81.125L150.462 81.075L158.337 73.75C158.67 73.4333 158.92 73.1917 159.087 73.025C159.27 72.8583 159.362 72.675 159.362 72.475C159.362 72.2417 159.237 72.0667 158.987 71.95C158.753 71.8333 158.412 71.75 157.962 71.7V71C158.478 71.0333 158.97 71.0583 159.437 71.075C159.903 71.0917 160.378 71.1 160.862 71.1C161.328 71.1 161.803 71.0917 162.287 71.075C162.77 71.0583 163.395 71.0333 164.162 71V71.7C163.612 71.7667 163.137 71.8667 162.737 72C162.353 72.1167 161.97 72.3 161.587 72.55C161.22 72.7833 160.795 73.1167 160.312 73.55L151.762 81.125ZM153.762 78.425L155.687 77L160.787 84.5C161.237 85.1 161.62 85.5833 161.937 85.95C162.253 86.3 162.537 86.5667 162.787 86.75C163.053 86.9167 163.337 87.0417 163.637 87.125C163.953 87.1917 164.32 87.25 164.737 87.3V88C164.053 87.9667 163.537 87.95 163.187 87.95C162.837 87.9333 162.512 87.925 162.212 87.925C161.912 87.925 161.603 87.9333 161.287 87.95C160.987 87.9667 160.678 87.9833 160.362 88L153.762 78.425ZM152.187 74.35V84.65C152.187 85.15 152.195 85.5583 152.212 85.875C152.245 86.1917 152.303 86.4417 152.387 86.625C152.52 86.8417 152.728 86.9917 153.012 87.075C153.295 87.1417 153.72 87.2167 154.287 87.3V88C153.753 87.9667 153.32 87.95 152.987 87.95C152.653 87.9333 152.337 87.925 152.037 87.925C151.737 87.9083 151.37 87.9 150.937 87.9C150.52 87.9 150.162 87.9083 149.862 87.925C149.578 87.925 149.27 87.9333 148.937 87.95C148.62 87.95 148.187 87.9667 147.637 88V87.3C148.17 87.2167 148.587 87.1417 148.887 87.075C149.187 86.9917 149.395 86.8417 149.512 86.625C149.612 86.4583 149.67 86.2167 149.687 85.9C149.72 85.5833 149.737 85.1583 149.737 84.625V74.375C149.737 73.8417 149.72 73.4167 149.687 73.1C149.67 72.7833 149.612 72.5417 149.512 72.375C149.395 72.1583 149.187 72.0083 148.887 71.925C148.587 71.8417 148.17 71.7667 147.637 71.7V71C148.187 71.0167 148.62 71.0333 148.937 71.05C149.27 71.0667 149.578 71.0833 149.862 71.1C150.162 71.1 150.52 71.1 150.937 71.1C151.37 71.1 151.737 71.1 152.037 71.1C152.337 71.0833 152.653 71.0667 152.987 71.05C153.32 71.0333 153.753 71.0167 154.287 71V71.7C153.72 71.7667 153.295 71.8417 153.012 71.925C152.728 71.9917 152.52 72.1417 152.387 72.375C152.303 72.5583 152.245 72.8083 152.212 73.125C152.195 73.425 152.187 73.8333 152.187 74.35ZM179.201 88.25C177.951 88.25 176.826 88.0333 175.826 87.6C174.843 87.1667 173.993 86.575 173.276 85.825C172.576 85.0583 172.034 84.1583 171.651 83.125C171.284 82.0917 171.101 80.975 171.101 79.775C171.101 78.575 171.284 77.4333 171.651 76.35C172.034 75.2667 172.576 74.3 173.276 73.45C173.976 72.6 174.826 71.9333 175.826 71.45C176.826 70.95 177.951 70.7 179.201 70.7C180.501 70.7 181.651 70.925 182.651 71.375C183.668 71.825 184.518 72.45 185.201 73.25C185.901 74.0333 186.426 74.9417 186.776 75.975C187.126 77.0083 187.301 78.0917 187.301 79.225C187.301 80.4583 187.109 81.625 186.726 82.725C186.359 83.8083 185.826 84.7667 185.126 85.6C184.443 86.4333 183.593 87.0833 182.576 87.55C181.576 88.0167 180.451 88.25 179.201 88.25ZM179.276 87.3C180.393 87.3 181.351 86.9833 182.151 86.35C182.968 85.7 183.593 84.8 184.026 83.65C184.459 82.5 184.676 81.175 184.676 79.675C184.676 78.525 184.551 77.4667 184.301 76.5C184.051 75.5333 183.684 74.6917 183.201 73.975C182.734 73.2417 182.159 72.675 181.476 72.275C180.793 71.8583 180.026 71.65 179.176 71.65C178.059 71.65 177.093 71.9583 176.276 72.575C175.459 73.1917 174.826 74.0583 174.376 75.175C173.943 76.2917 173.726 77.6167 173.726 79.15C173.726 80.2833 173.851 81.35 174.101 82.35C174.351 83.3333 174.718 84.1917 175.201 84.925C175.684 85.6583 176.268 86.2417 176.951 86.675C177.634 87.0917 178.409 87.3 179.276 87.3ZM203.435 74.55V80.65C203.435 83.15 202.944 85.0417 201.96 86.325C200.977 87.6083 199.369 88.25 197.135 88.25C195.535 88.25 194.26 87.95 193.31 87.35C192.36 86.75 191.677 85.8833 191.26 84.75C190.86 83.6167 190.66 82.2417 190.66 80.625V74.375C190.66 73.8417 190.644 73.4167 190.61 73.1C190.594 72.7833 190.535 72.5417 190.435 72.375C190.335 72.1583 190.152 72.0083 189.885 71.925C189.619 71.8417 189.235 71.7667 188.735 71.7V71C189.252 71.0167 189.66 71.0333 189.96 71.05C190.277 71.0667 190.569 71.0833 190.835 71.1C191.119 71.1 191.46 71.1 191.86 71.1C192.277 71.1 192.619 71.1 192.885 71.1C193.169 71.0833 193.469 71.0667 193.785 71.05C194.102 71.0333 194.527 71.0167 195.06 71V71.7C194.544 71.7667 194.152 71.8417 193.885 71.925C193.635 71.9917 193.444 72.1417 193.31 72.375C193.227 72.5583 193.169 72.8083 193.135 73.125C193.119 73.425 193.11 73.8417 193.11 74.375V80.25C193.11 81.6333 193.252 82.825 193.535 83.825C193.835 84.825 194.31 85.5917 194.96 86.125C195.627 86.6417 196.519 86.9 197.635 86.9C199.135 86.9 200.244 86.4417 200.96 85.525C201.694 84.5917 202.06 83.1333 202.06 81.15V74.55C202.06 73.9833 202.044 73.5333 202.01 73.2C201.994 72.8667 201.944 72.6 201.86 72.4C201.744 72.1667 201.552 72.0083 201.285 71.925C201.019 71.8417 200.644 71.7667 200.16 71.7V71C200.577 71.0167 200.919 71.0333 201.185 71.05C201.452 71.0667 201.71 71.0833 201.96 71.1C202.21 71.1 202.51 71.1 202.86 71.1C203.194 71.1 203.46 71.1 203.66 71.1C203.877 71.0833 204.102 71.0667 204.335 71.05C204.585 71.0333 204.919 71.0167 205.335 71V71.7C204.869 71.7833 204.51 71.8583 204.26 71.925C204.01 71.9917 203.827 72.125 203.71 72.325C203.594 72.5083 203.519 72.775 203.485 73.125C203.452 73.4583 203.435 73.9333 203.435 74.55ZM206.245 76.3L206.67 71H220.645L221.07 76.3H220.295L218.545 72.025H208.77L207.02 76.3H206.245ZM212.42 71.475H214.87V84.65C214.87 85.15 214.878 85.5583 214.895 85.875C214.928 86.1917 214.986 86.4417 215.07 86.625C215.203 86.8417 215.403 86.9917 215.67 87.075C215.936 87.1417 216.328 87.2167 216.845 87.3V88C216.311 87.9667 215.886 87.95 215.57 87.95C215.253 87.9333 214.953 87.925 214.67 87.925C214.386 87.9083 214.036 87.9 213.62 87.9C213.22 87.9 212.878 87.9083 212.595 87.925C212.328 87.925 212.036 87.9333 211.72 87.95C211.403 87.95 210.986 87.9667 210.47 88V87.3C210.97 87.2167 211.353 87.1417 211.62 87.075C211.903 86.9917 212.095 86.8417 212.195 86.625C212.295 86.4583 212.353 86.2167 212.37 85.9C212.403 85.5833 212.42 85.1583 212.42 84.625V71.475ZM230.789 80.15V79.125H234.089C234.722 79.125 235.222 79.1 235.589 79.05C235.956 78.9833 236.231 78.8667 236.414 78.7C236.614 78.5333 236.764 78.2917 236.864 77.975C236.964 77.6583 237.072 77.2583 237.189 76.775H237.914V82.5H237.189C237.072 82 236.964 81.6 236.864 81.3C236.764 80.9833 236.614 80.7417 236.414 80.575C236.231 80.4083 235.956 80.3 235.589 80.25C235.222 80.1833 234.722 80.15 234.089 80.15H230.789ZM227.739 71H239.964L240.214 75.425H239.464L237.889 71.95H232.164V84.65C232.164 85.15 232.172 85.5583 232.189 85.875C232.206 86.1917 232.264 86.4417 232.364 86.625C232.481 86.8417 232.672 86.9917 232.939 87.075C233.206 87.1417 233.597 87.2167 234.114 87.3V88C233.597 87.9667 233.172 87.95 232.839 87.95C232.522 87.9333 232.222 87.925 231.939 87.925C231.672 87.9083 231.322 87.9 230.889 87.9C230.506 87.9 230.172 87.9083 229.889 87.925C229.606 87.925 229.306 87.9333 228.989 87.95C228.689 87.95 228.272 87.9667 227.739 88V87.3C228.256 87.2167 228.647 87.1417 228.914 87.075C229.181 86.9917 229.372 86.8417 229.489 86.625C229.589 86.4583 229.647 86.2167 229.664 85.9C229.697 85.5833 229.714 85.1583 229.714 84.625V74.875C229.714 74.1417 229.697 73.575 229.664 73.175C229.631 72.775 229.539 72.475 229.389 72.275C229.272 72.0917 229.081 71.9667 228.814 71.9C228.564 71.8167 228.206 71.7583 227.739 71.725V71ZM249.928 88.25C248.678 88.25 247.553 88.0333 246.553 87.6C245.57 87.1667 244.72 86.575 244.003 85.825C243.303 85.0583 242.762 84.1583 242.378 83.125C242.012 82.0917 241.828 80.975 241.828 79.775C241.828 78.575 242.012 77.4333 242.378 76.35C242.762 75.2667 243.303 74.3 244.003 73.45C244.703 72.6 245.553 71.9333 246.553 71.45C247.553 70.95 248.678 70.7 249.928 70.7C251.228 70.7 252.378 70.925 253.378 71.375C254.395 71.825 255.245 72.45 255.928 73.25C256.628 74.0333 257.153 74.9417 257.503 75.975C257.853 77.0083 258.028 78.0917 258.028 79.225C258.028 80.4583 257.837 81.625 257.453 82.725C257.087 83.8083 256.553 84.7667 255.853 85.6C255.17 86.4333 254.32 87.0833 253.303 87.55C252.303 88.0167 251.178 88.25 249.928 88.25ZM250.003 87.3C251.12 87.3 252.078 86.9833 252.878 86.35C253.695 85.7 254.32 84.8 254.753 83.65C255.187 82.5 255.403 81.175 255.403 79.675C255.403 78.525 255.278 77.4667 255.028 76.5C254.778 75.5333 254.412 74.6917 253.928 73.975C253.462 73.2417 252.887 72.675 252.203 72.275C251.52 71.8583 250.753 71.65 249.903 71.65C248.787 71.65 247.82 71.9583 247.003 72.575C246.187 73.1917 245.553 74.0583 245.103 75.175C244.67 76.2917 244.453 77.6167 244.453 79.15C244.453 80.2833 244.578 81.35 244.828 82.35C245.078 83.3333 245.445 84.1917 245.928 84.925C246.412 85.6583 246.995 86.2417 247.678 86.675C248.362 87.0917 249.137 87.3 250.003 87.3ZM266.738 79.7L269.188 79.525L272.613 84.775C273.063 85.4583 273.463 85.975 273.813 86.325C274.163 86.6583 274.513 86.8917 274.863 87.025C275.213 87.1417 275.613 87.2333 276.063 87.3V88C275.529 87.9833 275.079 87.9667 274.713 87.95C274.346 87.9333 273.996 87.925 273.663 87.925C273.346 87.925 273.029 87.9333 272.713 87.95C272.413 87.9667 272.096 87.9833 271.763 88L266.738 79.7ZM264.563 71.9V84.125C264.563 84.7917 264.571 85.325 264.588 85.725C264.621 86.125 264.688 86.425 264.788 86.625C264.921 86.8417 265.129 86.9917 265.413 87.075C265.696 87.1417 266.113 87.2167 266.663 87.3V88C266.129 87.9667 265.704 87.95 265.388 87.95C265.071 87.9333 264.763 87.925 264.463 87.925C264.179 87.9083 263.813 87.9 263.363 87.9C262.946 87.9 262.588 87.9083 262.288 87.925C262.004 87.925 261.704 87.9333 261.388 87.95C261.071 87.95 260.646 87.9667 260.113 88V87.3C260.646 87.2167 261.046 87.1333 261.313 87.05C261.596 86.9667 261.796 86.825 261.913 86.625C262.046 86.4083 262.129 86.1083 262.163 85.725C262.196 85.325 262.213 84.7833 262.213 84.1V74.875C262.213 74.175 262.196 73.6333 262.163 73.25C262.146 72.85 262.063 72.55 261.913 72.35C261.796 72.15 261.596 72.0083 261.313 71.925C261.046 71.8417 260.679 71.7667 260.213 71.7V71H266.688C268.154 71 269.396 71.1417 270.413 71.425C271.446 71.7083 272.238 72.1583 272.788 72.775C273.338 73.3917 273.613 74.1833 273.613 75.15C273.613 75.9333 273.429 76.6333 273.063 77.25C272.696 77.8667 272.171 78.3917 271.488 78.825C270.821 79.2583 270.013 79.5917 269.063 79.825C268.113 80.0417 267.038 80.15 265.838 80.15H264.363V79.05C264.629 79.1 264.913 79.1417 265.213 79.175C265.529 79.1917 265.838 79.2 266.138 79.2C267.338 79.2 268.296 79.05 269.013 78.75C269.746 78.45 270.271 78.025 270.588 77.475C270.921 76.925 271.088 76.2917 271.088 75.575C271.088 74.7917 270.904 74.1333 270.538 73.6C270.171 73.05 269.638 72.6333 268.938 72.35C268.238 72.05 267.388 71.9 266.388 71.9H264.563ZM286.754 74.35V84.65C286.754 85.15 286.762 85.5583 286.779 85.875C286.796 86.1917 286.854 86.4417 286.954 86.625C287.071 86.8417 287.262 86.9917 287.529 87.075C287.796 87.1417 288.187 87.2167 288.704 87.3V88C288.187 87.9667 287.771 87.95 287.454 87.95C287.137 87.9333 286.837 87.925 286.554 87.925C286.287 87.9083 285.946 87.9 285.529 87.9C285.129 87.9 284.779 87.9083 284.479 87.925C284.196 87.925 283.896 87.9333 283.579 87.95C283.279 87.95 282.862 87.9667 282.329 88V87.3C282.846 87.2167 283.237 87.1417 283.504 87.075C283.771 86.9917 283.962 86.8417 284.079 86.625C284.179 86.4583 284.237 86.2167 284.254 85.9C284.287 85.5833 284.304 85.1583 284.304 84.625V74.375C284.304 73.8417 284.287 73.4167 284.254 73.1C284.237 72.7833 284.179 72.5417 284.079 72.375C283.962 72.1583 283.771 72.0083 283.504 71.925C283.237 71.8417 282.846 71.7667 282.329 71.7V71C282.862 71.0167 283.279 71.0333 283.579 71.05C283.896 71.0667 284.196 71.0833 284.479 71.1C284.779 71.1 285.129 71.1 285.529 71.1C285.946 71.1 286.287 71.1 286.554 71.1C286.837 71.0833 287.137 71.0667 287.454 71.05C287.771 71.0333 288.187 71.0167 288.704 71V71.7C288.187 71.7667 287.796 71.8417 287.529 71.925C287.262 71.9917 287.071 72.1417 286.954 72.375C286.854 72.5583 286.796 72.8083 286.779 73.125C286.762 73.425 286.754 73.8333 286.754 74.35ZM305.129 71.1C305.479 71.1 305.838 71.0917 306.204 71.075C306.588 71.0417 307.029 71.0167 307.529 71V71.7C307.013 71.7667 306.638 71.8417 306.404 71.925C306.188 71.9917 306.021 72.1417 305.904 72.375C305.804 72.575 305.746 72.875 305.729 73.275C305.713 73.675 305.704 74.2167 305.704 74.9V88H304.879L293.779 73.95L293.804 84.075C293.804 84.775 293.813 85.325 293.829 85.725C293.846 86.125 293.904 86.425 294.004 86.625C294.121 86.8417 294.321 86.9917 294.604 87.075C294.904 87.1417 295.488 87.2167 296.354 87.3V88C295.488 87.9667 294.829 87.9417 294.379 87.925C293.946 87.9083 293.546 87.9 293.179 87.9C292.813 87.9 292.421 87.9083 292.004 87.925C291.604 87.9417 291.154 87.9667 290.654 88V87.3C291.138 87.2167 291.496 87.1417 291.729 87.075C291.963 87.0083 292.129 86.8833 292.229 86.7C292.346 86.5 292.413 86.2 292.429 85.8C292.463 85.4 292.479 84.825 292.479 84.075V74.925C292.479 74.175 292.463 73.6 292.429 73.2C292.413 72.7833 292.346 72.4833 292.229 72.3C292.113 72.1167 291.929 71.9917 291.679 71.925C291.446 71.8417 291.104 71.7667 290.654 71.7V71H294.529L304.354 83.625V74.925C304.354 74.175 304.338 73.6 304.304 73.2C304.288 72.8 304.221 72.5 304.104 72.3C304.004 72.1167 303.804 71.9917 303.504 71.925C303.221 71.8417 302.663 71.7667 301.829 71.7V71C302.713 71.0167 303.388 71.0417 303.854 71.075C304.321 71.0917 304.746 71.1 305.129 71.1ZM314.779 75.175L314.129 74.75C314.662 73.7833 315.354 73 316.204 72.4C317.07 71.8 318.062 71.5 319.179 71.5C320.129 71.5 320.962 71.6833 321.679 72.05C322.412 72.4167 322.987 72.9333 323.404 73.6C323.82 74.2667 324.029 75.0417 324.029 75.925C324.029 76.6417 323.895 77.3083 323.629 77.925C323.362 78.5417 323.012 79.1333 322.579 79.7C322.162 80.25 321.704 80.775 321.204 81.275C320.704 81.775 320.212 82.2583 319.729 82.725L315.404 86.975L315.879 85.875H323.154L323.954 83.925H324.579L324.229 88H314.079V87.4L318.179 82.725C318.995 81.8083 319.645 81.0083 320.129 80.325C320.629 79.625 320.987 78.975 321.204 78.375C321.437 77.7583 321.554 77.1333 321.554 76.5C321.554 75.3833 321.254 74.5417 320.654 73.975C320.07 73.3917 319.32 73.1 318.404 73.1C317.587 73.1 316.879 73.3 316.279 73.7C315.679 74.0833 315.179 74.575 314.779 75.175ZM333.31 88.25C332.11 88.25 331.052 87.8833 330.135 87.15C329.235 86.4 328.535 85.4 328.035 84.15C327.552 82.9 327.31 81.5167 327.31 80C327.31 78.95 327.444 77.9167 327.71 76.9C327.977 75.8833 328.377 74.975 328.91 74.175C329.444 73.3583 330.11 72.7083 330.91 72.225C331.71 71.7417 332.635 71.5 333.685 71.5C334.919 71.5 335.985 71.85 336.885 72.55C337.802 73.25 338.502 74.2083 338.985 75.425C339.485 76.625 339.735 78 339.735 79.55C339.735 80.6833 339.585 81.775 339.285 82.825C339.002 83.8583 338.577 84.7833 338.01 85.6C337.444 86.4167 336.76 87.0667 335.96 87.55C335.177 88.0167 334.294 88.25 333.31 88.25ZM333.535 87.325C334.285 87.325 334.935 87.025 335.485 86.425C336.035 85.825 336.46 84.975 336.76 83.875C337.077 82.775 337.235 81.4917 337.235 80.025C337.235 78.5083 337.085 77.1833 336.785 76.05C336.502 74.9 336.069 74.0083 335.485 73.375C334.919 72.7417 334.235 72.425 333.435 72.425C332.302 72.425 331.41 73.025 330.76 74.225C330.127 75.4083 329.81 77.1 329.81 79.3C329.81 80.8333 329.952 82.2083 330.235 83.425C330.519 84.6417 330.935 85.6 331.485 86.3C332.035 86.9833 332.719 87.325 333.535 87.325ZM342.318 75.175L341.668 74.75C342.201 73.7833 342.893 73 343.743 72.4C344.61 71.8 345.601 71.5 346.718 71.5C347.668 71.5 348.501 71.6833 349.218 72.05C349.951 72.4167 350.526 72.9333 350.943 73.6C351.36 74.2667 351.568 75.0417 351.568 75.925C351.568 76.6417 351.435 77.3083 351.168 77.925C350.901 78.5417 350.551 79.1333 350.118 79.7C349.701 80.25 349.243 80.775 348.743 81.275C348.243 81.775 347.751 82.2583 347.268 82.725L342.943 86.975L343.418 85.875H350.693L351.493 83.925H352.118L351.768 88H341.618V87.4L345.718 82.725C346.535 81.8083 347.185 81.0083 347.668 80.325C348.168 79.625 348.526 78.975 348.743 78.375C348.976 77.7583 349.093 77.1333 349.093 76.5C349.093 75.3833 348.793 74.5417 348.193 73.975C347.61 73.3917 346.86 73.1 345.943 73.1C345.126 73.1 344.418 73.3 343.818 73.7C343.218 74.0833 342.718 74.575 342.318 75.175ZM354.549 75.175L353.899 74.75C354.433 73.7833 355.124 73 355.974 72.4C356.841 71.8 357.833 71.5 358.949 71.5C359.899 71.5 360.733 71.6833 361.449 72.05C362.183 72.4167 362.758 72.9333 363.174 73.6C363.591 74.2667 363.799 75.0417 363.799 75.925C363.799 76.6417 363.666 77.3083 363.399 77.925C363.133 78.5417 362.783 79.1333 362.349 79.7C361.933 80.25 361.474 80.775 360.974 81.275C360.474 81.775 359.983 82.2583 359.499 82.725L355.174 86.975L355.649 85.875H362.924L363.724 83.925H364.349L363.999 88H353.849V87.4L357.949 82.725C358.766 81.8083 359.416 81.0083 359.899 80.325C360.399 79.625 360.758 78.975 360.974 78.375C361.208 77.7583 361.324 77.1333 361.324 76.5C361.324 75.3833 361.024 74.5417 360.424 73.975C359.841 73.3917 359.091 73.1 358.174 73.1C357.358 73.1 356.649 73.3 356.049 73.7C355.449 74.0833 354.949 74.575 354.549 75.175Z" fill="#7D97C2"/>
</svg>
