<svg width="365" height="91" viewBox="0 0 365 91" fill="none" xmlns="http://www.w3.org/2000/svg">
<path d="M46.705 34.555V32.77H50.24C51.29 32.77 52.1067 32.7233 52.69 32.63C53.2967 32.5367 53.7517 32.3733 54.055 32.14C54.3817 31.9067 54.6267 31.58 54.79 31.16C54.9533 30.7167 55.1167 30.1683 55.28 29.515H56.61V37.81H55.28C55.1167 37.1567 54.9533 36.62 54.79 36.2C54.6267 35.78 54.3817 35.4533 54.055 35.22C53.7517 34.9633 53.2967 34.7883 52.69 34.695C52.1067 34.6017 51.29 34.555 50.24 34.555H46.705ZM57.275 44.32L60.635 39.14H61.965L61.265 46H42.33V44.67C43.17 44.5533 43.765 44.4483 44.115 44.355C44.4883 44.2383 44.745 44.0633 44.885 43.83C45.0483 43.55 45.1417 43.1417 45.165 42.605C45.2117 42.045 45.235 41.24 45.235 40.19V28.01C45.235 26.96 45.2117 26.1667 45.165 25.63C45.1417 25.07 45.0483 24.65 44.885 24.37C44.745 24.1133 44.4883 23.9383 44.115 23.845C43.765 23.7283 43.17 23.6233 42.33 23.53V22.2H60.74L61.09 28.745H59.76L56.75 23.88H50.485V44.32H57.275ZM71.6811 34.17V40.365C71.6811 41.3217 71.6927 42.08 71.7161 42.64C71.7394 43.2 71.8211 43.62 71.9611 43.9C72.1244 44.2033 72.3461 44.4133 72.6261 44.53C72.9294 44.6233 73.3494 44.7283 73.8861 44.845V46C73.0694 45.9533 72.4394 45.93 71.9961 45.93C71.5761 45.9067 71.1794 45.895 70.8061 45.895C70.4327 45.8717 69.8961 45.86 69.1961 45.86C68.5194 45.86 67.9827 45.8717 67.5861 45.895C67.2127 45.895 66.8044 45.9067 66.3611 45.93C65.9411 45.93 65.3227 45.9533 64.5061 46V44.845C64.9961 44.7283 65.3927 44.6233 65.6961 44.53C65.9994 44.4367 66.2211 44.2617 66.3611 44.005C66.5244 43.725 66.6177 43.305 66.6411 42.745C66.6877 42.185 66.7111 41.38 66.7111 40.33V35.57C66.7111 34.8233 66.6877 34.24 66.6411 33.82C66.6177 33.4 66.5244 33.0733 66.3611 32.84C66.1977 32.63 65.9761 32.49 65.6961 32.42C65.4161 32.3267 65.0194 32.2333 64.5061 32.14V30.915C65.7427 30.7983 66.8861 30.6233 67.9361 30.39C69.0094 30.1567 70.0127 29.8883 70.9461 29.585L71.8561 30.04C71.7627 30.6233 71.7044 31.2533 71.6811 31.93C71.6811 32.6067 71.6811 33.3533 71.6811 34.17ZM82.9161 35.535V40.365C82.9161 41.3217 82.9277 42.08 82.9511 42.64C82.9744 43.2 83.0561 43.62 83.1961 43.9C83.3594 44.2033 83.5811 44.4133 83.8611 44.53C84.1644 44.6233 84.5844 44.7283 85.1211 44.845V46C84.3044 45.9533 83.6744 45.93 83.2311 45.93C82.8111 45.9067 82.4144 45.895 82.0411 45.895C81.6677 45.8717 81.1311 45.86 80.4311 45.86C79.7544 45.86 79.2177 45.8717 78.8211 45.895C78.4477 45.895 78.0394 45.9067 77.5961 45.93C77.1761 45.93 76.5577 45.9533 75.7411 46V44.845C76.2311 44.7283 76.6277 44.6233 76.9311 44.53C77.2344 44.4367 77.4561 44.2617 77.5961 44.005C77.7594 43.725 77.8527 43.305 77.8761 42.745C77.9227 42.185 77.9461 41.38 77.9461 40.33V37.985C77.9461 36.9117 77.8294 36.025 77.5961 35.325C77.3861 34.6017 77.0361 34.065 76.5461 33.715C76.0794 33.3417 75.4494 33.155 74.6561 33.155C73.7227 33.155 72.9644 33.3183 72.3811 33.645C71.8211 33.9483 71.2844 34.3217 70.7711 34.765H69.9311C70.6077 33.9017 71.2844 33.0733 71.9611 32.28C72.6611 31.4867 73.4311 30.8333 74.2711 30.32C75.1111 29.8067 76.1027 29.55 77.2461 29.55C78.2261 29.55 79.1477 29.7717 80.0111 30.215C80.8744 30.6583 81.5744 31.3233 82.1111 32.21C82.6477 33.0733 82.9161 34.1817 82.9161 35.535ZM93.1596 46.35C91.6662 46.35 90.4996 45.9183 89.6596 45.055C88.8429 44.1683 88.4346 43.0133 88.4346 41.59V32.035H86.6146V30.6C87.7812 30.39 88.8429 29.8417 89.7996 28.955C90.7562 28.0683 91.5029 26.9483 92.0396 25.595H93.4046V30.11L98.5496 29.9V32.035H93.4046V39.91C93.4046 41.4033 93.6379 42.43 94.1046 42.99C94.5712 43.55 95.3062 43.83 96.3096 43.83C96.7062 43.83 97.0679 43.795 97.3946 43.725C97.7212 43.655 98.0012 43.5733 98.2346 43.48L98.7246 44.88C97.7912 45.3233 96.8346 45.685 95.8546 45.965C94.8979 46.2217 93.9996 46.35 93.1596 46.35ZM106.391 36.725L105.586 37.285C106.426 35.6283 107.196 34.2517 107.896 33.155C108.596 32.0583 109.296 31.2417 109.996 30.705C110.72 30.1683 111.513 29.9 112.376 29.9C112.493 29.9 112.656 29.9117 112.866 29.935C113.076 29.9583 113.298 29.9933 113.531 30.04L112.796 34.73C111.303 34.73 109.985 34.8817 108.841 35.185C107.698 35.4883 106.881 36.0017 106.391 36.725ZM107.091 34.1V40.365C107.091 41.3217 107.103 42.08 107.126 42.64C107.15 43.2 107.231 43.62 107.371 43.9C107.535 44.2033 107.803 44.4133 108.176 44.53C108.55 44.6233 109.273 44.7283 110.346 44.845V46C109.483 45.9767 108.783 45.9533 108.246 45.93C107.733 45.9067 107.301 45.895 106.951 45.895C106.601 45.8717 106.251 45.86 105.901 45.86C105.551 45.86 105.12 45.86 104.606 45.86C103.93 45.86 103.393 45.8717 102.996 45.895C102.623 45.895 102.215 45.9067 101.771 45.93C101.351 45.93 100.733 45.9533 99.9162 46V44.845C100.406 44.7283 100.803 44.6233 101.106 44.53C101.41 44.4367 101.631 44.2617 101.771 44.005C101.935 43.725 102.028 43.305 102.051 42.745C102.098 42.185 102.121 41.38 102.121 40.33V35.5C102.121 34.7533 102.098 34.17 102.051 33.75C102.028 33.33 101.935 33.0033 101.771 32.77C101.608 32.56 101.386 32.42 101.106 32.35C100.826 32.2567 100.43 32.1633 99.9162 32.07V30.845C101.13 30.7283 102.25 30.565 103.276 30.355C104.303 30.1217 105.271 29.8533 106.181 29.55L107.231 30.11C107.161 30.6933 107.115 31.3117 107.091 31.965C107.091 32.595 107.091 33.3067 107.091 34.1ZM129.66 42.85C129.287 43.3167 128.762 43.8183 128.085 44.355C127.409 44.8917 126.604 45.3467 125.67 45.72C124.737 46.0933 123.675 46.28 122.485 46.28C120.782 46.28 119.359 45.93 118.215 45.23C117.095 44.5067 116.255 43.55 115.695 42.36C115.159 41.17 114.89 39.8867 114.89 38.51C114.89 36.8533 115.24 35.3483 115.94 33.995C116.664 32.6417 117.667 31.5683 118.95 30.775C120.257 29.9583 121.797 29.55 123.57 29.55C125.46 29.55 126.977 30.145 128.12 31.335C129.287 32.5017 129.87 34.03 129.87 35.92V37.705H118.495L118.635 36.235L124.97 35.92C124.97 35.0333 124.889 34.2283 124.725 33.505C124.585 32.7817 124.34 32.1983 123.99 31.755C123.664 31.3117 123.232 31.09 122.695 31.09C122.065 31.09 121.552 31.4167 121.155 32.07C120.782 32.7233 120.502 33.54 120.315 34.52C120.152 35.5 120.07 36.5033 120.07 37.53C120.07 39.3033 120.444 40.715 121.19 41.765C121.96 42.7917 123.162 43.305 124.795 43.305C125.682 43.305 126.452 43.1533 127.105 42.85C127.759 42.5467 128.307 42.1733 128.75 41.73L129.66 42.85ZM134.431 44.075L137.441 41.205C137.814 42.2083 138.258 43.06 138.771 43.76C139.308 44.4367 140.101 44.775 141.151 44.775C142.061 44.775 142.808 44.5067 143.391 43.97C143.974 43.41 144.394 42.6633 144.651 41.73C144.931 40.7967 145.071 39.7583 145.071 38.615C145.071 37.4483 144.943 36.4567 144.686 35.64C144.429 34.8233 144.033 34.205 143.496 33.785C142.983 33.3417 142.329 33.12 141.536 33.12C140.766 33.12 140.066 33.2833 139.436 33.61C138.829 33.9367 138.304 34.2983 137.861 34.695L137.931 33.505C138.444 32.8517 139.004 32.2217 139.611 31.615C140.218 31.0083 140.906 30.5183 141.676 30.145C142.469 29.7483 143.356 29.55 144.336 29.55C145.619 29.55 146.681 29.865 147.521 30.495C148.361 31.125 148.991 31.9767 149.411 33.05C149.831 34.1233 150.041 35.325 150.041 36.655C150.041 38.6617 149.586 40.3883 148.676 41.835C147.789 43.2817 146.599 44.4017 145.106 45.195C143.613 45.965 141.979 46.35 140.206 46.35C139.506 46.35 138.771 46.28 138.001 46.14C137.254 46 136.566 45.7667 135.936 45.44C135.306 45.1133 134.804 44.6583 134.431 44.075ZM138.701 34.17V47.89C138.701 48.8467 138.713 49.605 138.736 50.165C138.759 50.725 138.841 51.145 138.981 51.425C139.144 51.7283 139.413 51.9267 139.786 52.02C140.159 52.1367 140.883 52.2533 141.956 52.37V53.525C141.093 53.5017 140.393 53.4783 139.856 53.455C139.343 53.4317 138.911 53.4083 138.561 53.385C138.211 53.385 137.861 53.385 137.511 53.385C137.161 53.385 136.729 53.385 136.216 53.385C135.539 53.385 135.003 53.385 134.606 53.385C134.233 53.4083 133.824 53.42 133.381 53.42C132.961 53.4433 132.343 53.4783 131.526 53.525V52.37C132.016 52.2533 132.413 52.1483 132.716 52.055C133.019 51.9617 133.241 51.7867 133.381 51.53C133.544 51.25 133.638 50.83 133.661 50.27C133.708 49.71 133.731 48.905 133.731 47.855V35.57C133.731 34.8233 133.708 34.24 133.661 33.82C133.638 33.4 133.544 33.0733 133.381 32.84C133.218 32.63 132.996 32.49 132.716 32.42C132.436 32.3267 132.039 32.2333 131.526 32.14V30.915C132.763 30.7983 133.906 30.6233 134.956 30.39C136.029 30.1567 137.033 29.8883 137.966 29.585L138.876 30.04C138.783 30.6233 138.724 31.2533 138.701 31.93C138.701 32.6067 138.701 33.3533 138.701 34.17ZM158.754 36.725L157.949 37.285C158.789 35.6283 159.559 34.2517 160.259 33.155C160.959 32.0583 161.659 31.2417 162.359 30.705C163.083 30.1683 163.876 29.9 164.739 29.9C164.856 29.9 165.019 29.9117 165.229 29.935C165.439 29.9583 165.661 29.9933 165.894 30.04L165.159 34.73C163.666 34.73 162.348 34.8817 161.204 35.185C160.061 35.4883 159.244 36.0017 158.754 36.725ZM159.454 34.1V40.365C159.454 41.3217 159.466 42.08 159.489 42.64C159.513 43.2 159.594 43.62 159.734 43.9C159.898 44.2033 160.166 44.4133 160.539 44.53C160.913 44.6233 161.636 44.7283 162.709 44.845V46C161.846 45.9767 161.146 45.9533 160.609 45.93C160.096 45.9067 159.664 45.895 159.314 45.895C158.964 45.8717 158.614 45.86 158.264 45.86C157.914 45.86 157.483 45.86 156.969 45.86C156.293 45.86 155.756 45.8717 155.359 45.895C154.986 45.895 154.578 45.9067 154.134 45.93C153.714 45.93 153.096 45.9533 152.279 46V44.845C152.769 44.7283 153.166 44.6233 153.469 44.53C153.773 44.4367 153.994 44.2617 154.134 44.005C154.298 43.725 154.391 43.305 154.414 42.745C154.461 42.185 154.484 41.38 154.484 40.33V35.5C154.484 34.7533 154.461 34.17 154.414 33.75C154.391 33.33 154.298 33.0033 154.134 32.77C153.971 32.56 153.749 32.42 153.469 32.35C153.189 32.2567 152.793 32.1633 152.279 32.07V30.845C153.493 30.7283 154.613 30.565 155.639 30.355C156.666 30.1217 157.634 29.8533 158.544 29.55L159.594 30.11C159.524 30.6933 159.478 31.3117 159.454 31.965C159.454 32.595 159.454 33.3067 159.454 34.1ZM182.023 42.85C181.65 43.3167 181.125 43.8183 180.448 44.355C179.772 44.8917 178.967 45.3467 178.033 45.72C177.1 46.0933 176.038 46.28 174.848 46.28C173.145 46.28 171.722 45.93 170.578 45.23C169.458 44.5067 168.618 43.55 168.058 42.36C167.522 41.17 167.253 39.8867 167.253 38.51C167.253 36.8533 167.603 35.3483 168.303 33.995C169.027 32.6417 170.03 31.5683 171.313 30.775C172.62 29.9583 174.16 29.55 175.933 29.55C177.823 29.55 179.34 30.145 180.483 31.335C181.65 32.5017 182.233 34.03 182.233 35.92V37.705H170.858L170.998 36.235L177.333 35.92C177.333 35.0333 177.252 34.2283 177.088 33.505C176.948 32.7817 176.703 32.1983 176.353 31.755C176.027 31.3117 175.595 31.09 175.058 31.09C174.428 31.09 173.915 31.4167 173.518 32.07C173.145 32.7233 172.865 33.54 172.678 34.52C172.515 35.5 172.433 36.5033 172.433 37.53C172.433 39.3033 172.807 40.715 173.553 41.765C174.323 42.7917 175.525 43.305 177.158 43.305C178.045 43.305 178.815 43.1533 179.468 42.85C180.122 42.5467 180.67 42.1733 181.113 41.73L182.023 42.85ZM191.344 34.17V40.365C191.344 41.3217 191.356 42.08 191.379 42.64C191.402 43.2 191.484 43.62 191.624 43.9C191.787 44.2033 192.009 44.4133 192.289 44.53C192.592 44.6233 193.012 44.7283 193.549 44.845V46C192.732 45.9533 192.102 45.93 191.659 45.93C191.239 45.9067 190.842 45.895 190.469 45.895C190.096 45.8717 189.559 45.86 188.859 45.86C188.182 45.86 187.646 45.8717 187.249 45.895C186.876 45.895 186.467 45.9067 186.024 45.93C185.604 45.93 184.986 45.9533 184.169 46V44.845C184.659 44.7283 185.056 44.6233 185.359 44.53C185.662 44.4367 185.884 44.2617 186.024 44.005C186.187 43.725 186.281 43.305 186.304 42.745C186.351 42.185 186.374 41.38 186.374 40.33V35.57C186.374 34.8233 186.351 34.24 186.304 33.82C186.281 33.4 186.187 33.0733 186.024 32.84C185.861 32.63 185.639 32.49 185.359 32.42C185.079 32.3267 184.682 32.2333 184.169 32.14V30.915C185.406 30.7983 186.549 30.6233 187.599 30.39C188.672 30.1567 189.676 29.8883 190.609 29.585L191.519 30.04C191.426 30.6233 191.367 31.2533 191.344 31.93C191.344 32.6067 191.344 33.3533 191.344 34.17ZM202.579 35.535V40.365C202.579 41.3217 202.591 42.08 202.614 42.64C202.637 43.2 202.719 43.62 202.859 43.9C203.022 44.2033 203.244 44.4133 203.524 44.53C203.827 44.6233 204.247 44.7283 204.784 44.845V46C203.967 45.9533 203.337 45.93 202.894 45.93C202.474 45.9067 202.077 45.895 201.704 45.895C201.331 45.8717 200.794 45.86 200.094 45.86C199.417 45.86 198.881 45.8717 198.484 45.895C198.111 45.895 197.702 45.9067 197.259 45.93C196.839 45.93 196.221 45.9533 195.404 46V44.845C195.894 44.7283 196.291 44.6233 196.594 44.53C196.897 44.4367 197.119 44.2617 197.259 44.005C197.422 43.725 197.516 43.305 197.539 42.745C197.586 42.185 197.609 41.38 197.609 40.33V37.985C197.609 36.9117 197.492 36.025 197.259 35.325C197.049 34.6017 196.699 34.065 196.209 33.715C195.742 33.3417 195.112 33.155 194.319 33.155C193.386 33.155 192.627 33.3183 192.044 33.645C191.484 33.9483 190.947 34.3217 190.434 34.765H189.594C190.271 33.9017 190.947 33.0733 191.624 32.28C192.324 31.4867 193.094 30.8333 193.934 30.32C194.774 29.8067 195.766 29.55 196.909 29.55C197.889 29.55 198.811 29.7717 199.674 30.215C200.537 30.6583 201.237 31.3233 201.774 32.21C202.311 33.0733 202.579 34.1817 202.579 35.535ZM221.433 42.85C221.059 43.3167 220.534 43.8183 219.858 44.355C219.181 44.8917 218.376 45.3467 217.443 45.72C216.509 46.0933 215.448 46.28 214.258 46.28C212.554 46.28 211.131 45.93 209.988 45.23C208.868 44.5067 208.028 43.55 207.468 42.36C206.931 41.17 206.663 39.8867 206.663 38.51C206.663 36.8533 207.013 35.3483 207.713 33.995C208.436 32.6417 209.439 31.5683 210.723 30.775C212.029 29.9583 213.569 29.55 215.343 29.55C217.233 29.55 218.749 30.145 219.893 31.335C221.059 32.5017 221.643 34.03 221.643 35.92V37.705H210.268L210.408 36.235L216.743 35.92C216.743 35.0333 216.661 34.2283 216.498 33.505C216.358 32.7817 216.113 32.1983 215.763 31.755C215.436 31.3117 215.004 31.09 214.468 31.09C213.838 31.09 213.324 31.4167 212.928 32.07C212.554 32.7233 212.274 33.54 212.088 34.52C211.924 35.5 211.843 36.5033 211.843 37.53C211.843 39.3033 212.216 40.715 212.963 41.765C213.733 42.7917 214.934 43.305 216.568 43.305C217.454 43.305 218.224 43.1533 218.878 42.85C219.531 42.5467 220.079 42.1733 220.523 41.73L221.433 42.85ZM240.833 29.55V40.855C240.833 41.8117 240.892 42.5583 241.008 43.095C241.125 43.6083 241.335 43.97 241.638 44.18C241.965 44.3667 242.432 44.46 243.038 44.46V45.615L235.863 46.35V35.045C235.863 34.0883 235.805 33.3533 235.688 32.84C235.572 32.3033 235.35 31.9417 235.023 31.755C234.72 31.545 234.265 31.44 233.658 31.44V30.285L240.833 29.55ZM236.423 41.135L237.263 41.275C236.703 42.1383 236.108 42.955 235.478 43.725C234.872 44.495 234.172 45.125 233.378 45.615C232.585 46.105 231.64 46.35 230.543 46.35C229.003 46.35 227.708 45.86 226.658 44.88C225.608 43.8767 225.083 42.3717 225.083 40.365V35.045C225.083 34.0883 225.025 33.3533 224.908 32.84C224.792 32.3033 224.57 31.9417 224.243 31.755C223.94 31.545 223.485 31.44 222.878 31.44V30.285L230.053 29.55V38.72C230.053 39.6533 230.147 40.4233 230.333 41.03C230.543 41.6133 230.87 42.045 231.313 42.325C231.757 42.605 232.34 42.745 233.063 42.745C233.903 42.745 234.592 42.5933 235.128 42.29C235.665 41.9633 236.097 41.5783 236.423 41.135ZM251.381 36.725L250.576 37.285C251.416 35.6283 252.186 34.2517 252.886 33.155C253.586 32.0583 254.286 31.2417 254.986 30.705C255.71 30.1683 256.503 29.9 257.366 29.9C257.483 29.9 257.646 29.9117 257.856 29.935C258.066 29.9583 258.288 29.9933 258.521 30.04L257.786 34.73C256.293 34.73 254.975 34.8817 253.831 35.185C252.688 35.4883 251.871 36.0017 251.381 36.725ZM252.081 34.1V40.365C252.081 41.3217 252.093 42.08 252.116 42.64C252.14 43.2 252.221 43.62 252.361 43.9C252.525 44.2033 252.793 44.4133 253.166 44.53C253.54 44.6233 254.263 44.7283 255.336 44.845V46C254.473 45.9767 253.773 45.9533 253.236 45.93C252.723 45.9067 252.291 45.895 251.941 45.895C251.591 45.8717 251.241 45.86 250.891 45.86C250.541 45.86 250.11 45.86 249.596 45.86C248.92 45.86 248.383 45.8717 247.986 45.895C247.613 45.895 247.205 45.9067 246.761 45.93C246.341 45.93 245.723 45.9533 244.906 46V44.845C245.396 44.7283 245.793 44.6233 246.096 44.53C246.4 44.4367 246.621 44.2617 246.761 44.005C246.925 43.725 247.018 43.305 247.041 42.745C247.088 42.185 247.111 41.38 247.111 40.33V35.5C247.111 34.7533 247.088 34.17 247.041 33.75C247.018 33.33 246.925 33.0033 246.761 32.77C246.598 32.56 246.376 32.42 246.096 32.35C245.816 32.2567 245.42 32.1633 244.906 32.07V30.845C246.12 30.7283 247.24 30.565 248.266 30.355C249.293 30.1217 250.261 29.8533 251.171 29.55L252.221 30.11C252.151 30.6933 252.105 31.3117 252.081 31.965C252.081 32.595 252.081 33.3067 252.081 34.1ZM298.519 44.67V46C297.586 45.9533 296.851 45.93 296.314 45.93C295.777 45.9067 295.287 45.895 294.844 45.895C294.424 45.8717 293.876 45.86 293.199 45.86C292.639 45.86 292.149 45.8717 291.729 45.895C291.332 45.895 290.866 45.9067 290.329 45.93C289.816 45.93 289.092 45.9533 288.159 46V44.67C289.092 44.53 289.746 44.3783 290.119 44.215C290.516 44.0517 290.737 43.725 290.784 43.235C290.854 42.745 290.842 41.9517 290.749 40.855L289.734 26.68H290.539L282.139 44.74H280.459L272.444 26.96L273.529 26.855L272.094 41.87C272.024 42.5933 272.024 43.13 272.094 43.48C272.187 43.83 272.456 44.0867 272.899 44.25C273.342 44.39 274.089 44.53 275.139 44.67V46C274.439 45.9767 273.844 45.9533 273.354 45.93C272.864 45.9067 272.397 45.895 271.954 45.895C271.534 45.8717 271.079 45.86 270.589 45.86C270.076 45.86 269.539 45.8717 268.979 45.895C268.419 45.9183 267.789 45.9533 267.089 46V44.67C267.766 44.5533 268.244 44.46 268.524 44.39C268.827 44.32 269.049 44.1567 269.189 43.9C269.352 43.62 269.457 43.1883 269.504 42.605C269.574 42.0217 269.656 41.205 269.749 40.155L271.009 28.045C271.126 26.995 271.172 26.19 271.149 25.63C271.126 25.0467 271.021 24.6267 270.834 24.37C270.647 24.1133 270.356 23.9383 269.959 23.845C269.586 23.7283 269.084 23.6233 268.454 23.53V22.2H276.084L283.574 38.055L282.734 38.09L289.979 22.2H297.469V23.53C296.559 23.6233 295.906 23.775 295.509 23.985C295.136 24.195 294.914 24.58 294.844 25.14C294.797 25.7 294.821 26.5633 294.914 27.73L295.964 40.19C296.081 41.4733 296.186 42.4183 296.279 43.025C296.396 43.6083 296.617 44.005 296.944 44.215C297.271 44.4017 297.796 44.5533 298.519 44.67ZM305.274 34.555V32.77H308.809C309.859 32.77 310.676 32.7233 311.259 32.63C311.866 32.5367 312.321 32.3733 312.624 32.14C312.951 31.9067 313.196 31.58 313.359 31.16C313.523 30.7167 313.686 30.1683 313.849 29.515H315.179V37.81H313.849C313.686 37.1567 313.523 36.62 313.359 36.2C313.196 35.78 312.951 35.4533 312.624 35.22C312.321 34.9633 311.866 34.7883 311.259 34.695C310.676 34.6017 309.859 34.555 308.809 34.555H305.274ZM315.844 44.32L319.204 39.14H320.534L319.834 46H300.899V44.67C301.739 44.5533 302.334 44.4483 302.684 44.355C303.058 44.2383 303.314 44.0633 303.454 43.83C303.618 43.55 303.711 43.1417 303.734 42.605C303.781 42.045 303.804 41.24 303.804 40.19V28.01C303.804 26.96 303.781 26.1667 303.734 25.63C303.711 25.07 303.618 24.65 303.454 24.37C303.314 24.1133 303.058 23.9383 302.684 23.845C302.334 23.7283 301.739 23.6233 300.899 23.53V22.2H319.309L319.659 28.745H318.329L315.319 23.88H309.054V44.32H315.844Z" fill="white"/>
<path d="M43.9873 60.48C44.2539 60.48 44.5473 60.4733 44.8673 60.46C45.1873 60.4333 45.5539 60.4133 45.9673 60.4V60.96C45.5406 61.0267 45.2206 61.1067 45.0073 61.2C44.7939 61.2933 44.6206 61.4667 44.4873 61.72C44.3539 61.9733 44.1806 62.3867 43.9673 62.96L39.8873 74H39.3273L35.5673 63.78H36.1473L32.2073 74H31.6473L27.8673 63.54C27.6539 62.9667 27.4806 62.52 27.3473 62.2C27.2139 61.88 27.0739 61.64 26.9273 61.48C26.7939 61.32 26.6273 61.2067 26.4273 61.14C26.2273 61.0733 25.9539 61.0133 25.6073 60.96V60.4C26.0073 60.4133 26.4206 60.4333 26.8473 60.46C27.2739 60.4733 27.7606 60.48 28.3073 60.48C28.7739 60.48 29.1473 60.48 29.4273 60.48C29.7073 60.4667 29.9606 60.4533 30.1873 60.44C30.4139 60.4267 30.6606 60.4133 30.9273 60.4V60.96C30.5406 61.0133 30.2073 61.0867 29.9273 61.18C29.6473 61.2733 29.5073 61.4733 29.5073 61.78C29.5073 61.9533 29.5539 62.1867 29.6473 62.48C29.7539 62.7733 29.8739 63.1267 30.0073 63.54L32.8873 71.74H32.0873L36.0673 61.24H36.7273L40.4873 71.72L39.7673 71.74L42.8473 62.96C42.9539 62.68 43.0339 62.44 43.0873 62.24C43.1539 62.04 43.1873 61.8733 43.1873 61.74C43.1873 61.4333 43.0473 61.24 42.7673 61.16C42.5006 61.08 42.1939 61.0133 41.8473 60.96V60.4C42.2606 60.4133 42.6206 60.4333 42.9273 60.46C43.2339 60.4733 43.5873 60.48 43.9873 60.48ZM52.8459 74.2C51.8459 74.2 50.9459 74.0267 50.1459 73.68C49.3592 73.3333 48.6792 72.86 48.1059 72.26C47.5459 71.6467 47.1125 70.9267 46.8059 70.1C46.5125 69.2733 46.3659 68.38 46.3659 67.42C46.3659 66.46 46.5125 65.5467 46.8059 64.68C47.1125 63.8133 47.5459 63.04 48.1059 62.36C48.6659 61.68 49.3459 61.1467 50.1459 60.76C50.9459 60.36 51.8459 60.16 52.8459 60.16C53.8859 60.16 54.8059 60.34 55.6059 60.7C56.4192 61.06 57.0992 61.56 57.6459 62.2C58.2059 62.8267 58.6259 63.5533 58.9059 64.38C59.1859 65.2067 59.3259 66.0733 59.3259 66.98C59.3259 67.9667 59.1725 68.9 58.8659 69.78C58.5725 70.6467 58.1459 71.4133 57.5859 72.08C57.0392 72.7467 56.3592 73.2667 55.5459 73.64C54.7459 74.0133 53.8459 74.2 52.8459 74.2ZM52.9059 73.44C53.7992 73.44 54.5659 73.1867 55.2059 72.68C55.8592 72.16 56.3592 71.44 56.7059 70.52C57.0525 69.6 57.2259 68.54 57.2259 67.34C57.2259 66.42 57.1259 65.5733 56.9259 64.8C56.7259 64.0267 56.4325 63.3533 56.0459 62.78C55.6725 62.1933 55.2125 61.74 54.6659 61.42C54.1192 61.0867 53.5059 60.92 52.8259 60.92C51.9325 60.92 51.1592 61.1667 50.5059 61.66C49.8525 62.1533 49.3459 62.8467 48.9859 63.74C48.6392 64.6333 48.4659 65.6933 48.4659 66.92C48.4659 67.8267 48.5659 68.68 48.7659 69.48C48.9659 70.2667 49.2592 70.9533 49.6459 71.54C50.0325 72.1267 50.4992 72.5933 51.0459 72.94C51.5925 73.2733 52.2125 73.44 52.9059 73.44ZM77.9734 73.44V74C77.4934 73.9733 77.1134 73.96 76.8334 73.96C76.5667 73.9467 76.34 73.94 76.1534 73.94C75.9667 73.9267 75.74 73.92 75.4734 73.92C75.2334 73.92 75.0067 73.9267 74.7934 73.94C74.58 73.94 74.34 73.9467 74.0734 73.96C73.82 73.96 73.4934 73.9733 73.0934 74V73.44C73.6267 73.36 74 73.2533 74.2134 73.12C74.4267 72.9867 74.5467 72.7667 74.5734 72.46C74.6134 72.14 74.6067 71.66 74.5534 71.02L73.8734 62.38L74.3934 61.86L69.2334 73.28H68.5534L63.7334 62.42L64.1934 62.36L63.3534 71.84C63.3134 72.2533 63.3134 72.56 63.3534 72.76C63.3934 72.96 63.5267 73.1067 63.7534 73.2C63.9934 73.28 64.3867 73.36 64.9334 73.44V74C64.6134 73.9867 64.3467 73.9733 64.1334 73.96C63.92 73.9467 63.72 73.94 63.5334 73.94C63.3467 73.9267 63.12 73.92 62.8534 73.92C62.56 73.92 62.2534 73.9267 61.9334 73.94C61.6134 73.9533 61.2534 73.9733 60.8534 74V73.44C61.24 73.3733 61.52 73.3067 61.6934 73.24C61.8667 73.1733 61.9934 73.0667 62.0734 72.92C62.1667 72.76 62.2267 72.5267 62.2534 72.22C62.28 71.9133 62.32 71.46 62.3734 70.86L63.0534 63.54C63.12 62.94 63.1467 62.48 63.1334 62.16C63.12 61.8267 63.06 61.5867 62.9534 61.44C62.8467 61.2933 62.68 61.1933 62.4534 61.14C62.24 61.0733 61.9534 61.0133 61.5934 60.96V60.4H65.0134L69.6734 70.78L69.3134 70.82L73.9134 60.4H77.2934V60.96C76.7734 61.0133 76.4 61.1067 76.1734 61.24C75.96 61.36 75.8334 61.58 75.7934 61.9C75.7667 62.22 75.78 62.7133 75.8334 63.38L76.4934 70.88C76.56 71.6 76.6267 72.1333 76.6934 72.48C76.76 72.8267 76.8867 73.06 77.0734 73.18C77.26 73.2867 77.56 73.3733 77.9734 73.44ZM81.8709 67.34V66.54H84.6309C85.1109 66.54 85.4842 66.5133 85.7509 66.46C86.0175 66.3933 86.2175 66.2933 86.3509 66.16C86.4975 66.0267 86.6042 65.84 86.6709 65.6C86.7509 65.3467 86.8375 65.0333 86.9309 64.66H87.5109V69.22H86.9309C86.8375 68.86 86.7509 68.56 86.6709 68.32C86.6042 68.0667 86.4975 67.8667 86.3509 67.72C86.2175 67.5733 86.0175 67.4733 85.7509 67.42C85.4842 67.3667 85.1109 67.34 84.6309 67.34H81.8709ZM88.0509 73.24L89.5109 70.12H90.1109L89.7109 74H79.4109V73.44C79.8509 73.3733 80.1775 73.3067 80.3909 73.24C80.6175 73.1733 80.7775 73.06 80.8709 72.9C80.9642 72.74 81.0175 72.5067 81.0309 72.2C81.0575 71.88 81.0709 71.4467 81.0709 70.9V63.5C81.0709 62.9133 81.0575 62.46 81.0309 62.14C81.0175 61.82 80.9442 61.58 80.8109 61.42C80.7175 61.2733 80.5642 61.1733 80.3509 61.12C80.1375 61.0533 79.8242 61.0067 79.4109 60.98V60.4H89.3909L89.5909 63.94H88.9909L87.7309 61.16H83.0309V73.24H88.0509ZM103.237 60.48C103.517 60.48 103.804 60.4733 104.097 60.46C104.404 60.4333 104.757 60.4133 105.157 60.4V60.96C104.744 61.0133 104.444 61.0733 104.257 61.14C104.084 61.1933 103.95 61.3133 103.857 61.5C103.777 61.66 103.73 61.9 103.717 62.22C103.704 62.54 103.697 62.9733 103.697 63.52V74H103.037L94.157 62.76L94.177 70.86C94.177 71.42 94.1836 71.86 94.197 72.18C94.2103 72.5 94.257 72.74 94.337 72.9C94.4303 73.0733 94.5903 73.1933 94.817 73.26C95.057 73.3133 95.5236 73.3733 96.217 73.44V74C95.5236 73.9733 94.997 73.9533 94.637 73.94C94.2903 73.9267 93.9703 73.92 93.677 73.92C93.3836 73.92 93.0703 73.9267 92.737 73.94C92.417 73.9533 92.057 73.9733 91.657 74V73.44C92.0436 73.3733 92.3303 73.3133 92.517 73.26C92.7036 73.2067 92.837 73.1067 92.917 72.96C93.0103 72.8 93.0636 72.56 93.077 72.24C93.1036 71.92 93.117 71.46 93.117 70.86V63.54C93.117 62.94 93.1036 62.48 93.077 62.16C93.0636 61.8267 93.0103 61.5867 92.917 61.44C92.8236 61.2933 92.677 61.1933 92.477 61.14C92.2903 61.0733 92.017 61.0133 91.657 60.96V60.4H94.757L102.617 70.5V63.54C102.617 62.94 102.604 62.48 102.577 62.16C102.564 61.84 102.51 61.6 102.417 61.44C102.337 61.2933 102.177 61.1933 101.937 61.14C101.71 61.0733 101.264 61.0133 100.597 60.96V60.4C101.304 60.4133 101.844 60.4333 102.217 60.46C102.59 60.4733 102.93 60.48 103.237 60.48ZM114.377 63.1V73.24H118.717L120.057 70.04H120.677L120.397 74H110.837V73.44C111.237 73.3733 111.543 73.3067 111.757 73.24C111.97 73.1733 112.117 73.06 112.197 72.9C112.303 72.74 112.363 72.5067 112.377 72.2C112.403 71.88 112.417 71.4467 112.417 70.9V63.1C112.417 62.6733 112.403 62.3333 112.377 62.08C112.363 61.8267 112.317 61.6333 112.237 61.5C112.143 61.3267 111.99 61.2067 111.777 61.14C111.563 61.0733 111.25 61.0133 110.837 60.96V60.4C111.263 60.4133 111.597 60.4267 111.837 60.44C112.09 60.4533 112.33 60.4667 112.557 60.48C112.783 60.48 113.05 60.48 113.357 60.48C113.703 60.48 113.983 60.48 114.197 60.48C114.423 60.4667 114.663 60.4533 114.917 60.44C115.183 60.4267 115.523 60.4133 115.937 60.4V60.96C115.523 61.0133 115.21 61.0733 114.997 61.14C114.783 61.1933 114.63 61.3133 114.537 61.5C114.457 61.6467 114.41 61.8467 114.397 62.1C114.383 62.34 114.377 62.6733 114.377 63.1ZM124.371 67.34V66.54H127.131C127.611 66.54 127.984 66.5133 128.251 66.46C128.518 66.3933 128.718 66.2933 128.851 66.16C128.998 66.0267 129.104 65.84 129.171 65.6C129.251 65.3467 129.338 65.0333 129.431 64.66H130.011V69.22H129.431C129.338 68.86 129.251 68.56 129.171 68.32C129.104 68.0667 128.998 67.8667 128.851 67.72C128.718 67.5733 128.518 67.4733 128.251 67.42C127.984 67.3667 127.611 67.34 127.131 67.34H124.371ZM130.551 73.24L132.011 70.12H132.611L132.211 74H121.911V73.44C122.351 73.3733 122.678 73.3067 122.891 73.24C123.118 73.1733 123.278 73.06 123.371 72.9C123.464 72.74 123.518 72.5067 123.531 72.2C123.558 71.88 123.571 71.4467 123.571 70.9V63.5C123.571 62.9133 123.558 62.46 123.531 62.14C123.518 61.82 123.444 61.58 123.311 61.42C123.218 61.2733 123.064 61.1733 122.851 61.12C122.638 61.0533 122.324 61.0067 121.911 60.98V60.4H131.891L132.091 63.94H131.491L130.231 61.16H125.531V73.24H130.551ZM143.137 70H136.837V69.2H143.137V70ZM140.497 60.4L144.997 71.48C145.17 71.88 145.31 72.2 145.417 72.44C145.524 72.6667 145.63 72.8467 145.737 72.98C145.844 73.1 145.99 73.1933 146.177 73.26C146.364 73.3267 146.61 73.3867 146.917 73.44V74C146.584 73.9733 146.204 73.9533 145.777 73.94C145.35 73.9267 144.844 73.92 144.257 73.92C143.884 73.92 143.57 73.9267 143.317 73.94C143.064 73.94 142.824 73.9467 142.597 73.96C142.384 73.9733 142.144 73.9867 141.877 74V73.44C142.33 73.3467 142.67 73.26 142.897 73.18C143.124 73.1 143.237 72.9133 143.237 72.62C143.237 72.2733 143.07 71.6867 142.737 70.86L139.597 63.02L139.977 62.7L136.557 71.44C136.437 71.7333 136.35 71.98 136.297 72.18C136.244 72.38 136.217 72.5533 136.217 72.7C136.217 72.98 136.35 73.1533 136.617 73.22C136.897 73.2867 137.237 73.36 137.637 73.44V74C137.224 73.9733 136.85 73.9533 136.517 73.94C136.197 73.9267 135.83 73.92 135.417 73.92C135.137 73.92 134.837 73.9267 134.517 73.94C134.197 73.9533 133.864 73.9733 133.517 74V73.44C133.89 73.3733 134.177 73.2933 134.377 73.2C134.577 73.1067 134.737 72.9533 134.857 72.74C134.99 72.5133 135.15 72.18 135.337 71.74L139.937 60.4H140.497ZM147.848 60.4H151.388V74H147.848V73.44C148.248 73.3733 148.555 73.3067 148.768 73.24C148.982 73.1733 149.135 73.06 149.228 72.9C149.322 72.74 149.375 72.5067 149.388 72.2C149.415 71.88 149.428 71.4467 149.428 70.9V63.5C149.428 62.9133 149.415 62.46 149.388 62.14C149.362 61.82 149.288 61.58 149.168 61.42C149.075 61.2733 148.922 61.1733 148.708 61.12C148.508 61.0533 148.222 61.0067 147.848 60.98V60.4ZM150.408 74V60.4H153.428C154.548 60.4 155.562 60.5333 156.468 60.8C157.375 61.0533 158.162 61.4467 158.828 61.98C159.495 62.5 160.002 63.1733 160.348 64C160.708 64.8133 160.888 65.78 160.888 66.9C160.888 67.8867 160.708 68.8133 160.348 69.68C159.988 70.5333 159.468 71.2867 158.788 71.94C158.122 72.58 157.315 73.0867 156.368 73.46C155.435 73.82 154.382 74 153.208 74H150.408ZM151.388 62.7V73.26H153.228C154.402 73.26 155.402 73.0333 156.228 72.58C157.055 72.1133 157.688 71.44 158.128 70.56C158.568 69.6667 158.788 68.5867 158.788 67.32C158.788 65.2533 158.328 63.7067 157.408 62.68C156.488 61.6533 155.128 61.14 153.328 61.14H151.388V62.7ZM164.996 67.34V66.54H167.756C168.236 66.54 168.609 66.5133 168.876 66.46C169.143 66.3933 169.343 66.2933 169.476 66.16C169.623 66.0267 169.729 65.84 169.796 65.6C169.876 65.3467 169.963 65.0333 170.056 64.66H170.636V69.22H170.056C169.963 68.86 169.876 68.56 169.796 68.32C169.729 68.0667 169.623 67.8667 169.476 67.72C169.343 67.5733 169.143 67.4733 168.876 67.42C168.609 67.3667 168.236 67.34 167.756 67.34H164.996ZM171.176 73.24L172.636 70.12H173.236L172.836 74H162.536V73.44C162.976 73.3733 163.303 73.3067 163.516 73.24C163.743 73.1733 163.903 73.06 163.996 72.9C164.089 72.74 164.143 72.5067 164.156 72.2C164.183 71.88 164.196 71.4467 164.196 70.9V63.5C164.196 62.9133 164.183 62.46 164.156 62.14C164.143 61.82 164.069 61.58 163.936 61.42C163.843 61.2733 163.689 61.1733 163.476 61.12C163.263 61.0533 162.949 61.0067 162.536 60.98V60.4H172.516L172.716 63.94H172.116L170.856 61.16H166.156V73.24H171.176ZM180.102 67.36L182.062 67.22L184.802 71.42C185.162 71.9667 185.482 72.38 185.762 72.66C186.042 72.9267 186.322 73.1133 186.602 73.22C186.882 73.3133 187.202 73.3867 187.562 73.44V74C187.135 73.9867 186.775 73.9733 186.482 73.96C186.189 73.9467 185.909 73.94 185.642 73.94C185.389 73.94 185.135 73.9467 184.882 73.96C184.642 73.9733 184.389 73.9867 184.122 74L180.102 67.36ZM178.362 61.12V70.9C178.362 71.4333 178.369 71.86 178.382 72.18C178.409 72.5 178.462 72.74 178.542 72.9C178.649 73.0733 178.815 73.1933 179.042 73.26C179.269 73.3133 179.602 73.3733 180.042 73.44V74C179.615 73.9733 179.275 73.96 179.022 73.96C178.769 73.9467 178.522 73.94 178.282 73.94C178.055 73.9267 177.762 73.92 177.402 73.92C177.069 73.92 176.782 73.9267 176.542 73.94C176.315 73.94 176.075 73.9467 175.822 73.96C175.569 73.96 175.229 73.9733 174.802 74V73.44C175.229 73.3733 175.549 73.3067 175.762 73.24C175.989 73.1733 176.149 73.06 176.242 72.9C176.349 72.7267 176.415 72.4867 176.442 72.18C176.469 71.86 176.482 71.4267 176.482 70.88V63.5C176.482 62.94 176.469 62.5067 176.442 62.2C176.429 61.88 176.362 61.64 176.242 61.48C176.149 61.32 175.989 61.2067 175.762 61.14C175.549 61.0733 175.255 61.0133 174.882 60.96V60.4H180.062C181.235 60.4 182.229 60.5133 183.042 60.74C183.869 60.9667 184.502 61.3267 184.942 61.82C185.382 62.3133 185.602 62.9467 185.602 63.72C185.602 64.3467 185.455 64.9067 185.162 65.4C184.869 65.8933 184.449 66.3133 183.902 66.66C183.369 67.0067 182.722 67.2733 181.962 67.46C181.202 67.6333 180.342 67.72 179.382 67.72H178.202V66.84C178.415 66.88 178.642 66.9133 178.882 66.94C179.135 66.9533 179.382 66.96 179.622 66.96C180.582 66.96 181.349 66.84 181.922 66.6C182.509 66.36 182.929 66.02 183.182 65.58C183.449 65.14 183.582 64.6333 183.582 64.06C183.582 63.4333 183.435 62.9067 183.142 62.48C182.849 62.04 182.422 61.7067 181.862 61.48C181.302 61.24 180.622 61.12 179.822 61.12H178.362ZM192.674 74.2C191.914 74.2 191.2 74.1133 190.534 73.94C189.867 73.7667 189.214 73.5267 188.574 73.22L189.294 70H189.894L190.634 73.5L190.134 73.06L189.714 72.46C190.18 72.7 190.594 72.8933 190.954 73.04C191.314 73.1733 191.647 73.2733 191.954 73.34C192.274 73.3933 192.594 73.42 192.914 73.42C193.927 73.42 194.72 73.2 195.294 72.76C195.867 72.32 196.154 71.7533 196.154 71.06C196.154 70.5533 196 70.12 195.694 69.76C195.4 69.4 195 69.0733 194.494 68.78C194 68.4867 193.44 68.1867 192.814 67.88C192.134 67.5467 191.5 67.2067 190.914 66.86C190.34 66.5133 189.874 66.1067 189.514 65.64C189.167 65.16 188.994 64.5733 188.994 63.88C188.994 63.1733 189.18 62.54 189.554 61.98C189.927 61.42 190.467 60.98 191.174 60.66C191.894 60.3267 192.754 60.16 193.754 60.16C194.447 60.16 195.107 60.24 195.734 60.4C196.36 60.56 196.974 60.7867 197.574 61.08L196.914 64.14H196.314L195.574 60.82L196.494 61.84C196.067 61.6 195.68 61.4133 195.334 61.28C195 61.1467 194.687 61.06 194.394 61.02C194.1 60.9667 193.807 60.94 193.514 60.94C192.594 60.94 191.894 61.1333 191.414 61.52C190.934 61.8933 190.694 62.4133 190.694 63.08C190.694 63.5733 190.82 63.9867 191.074 64.32C191.34 64.64 191.7 64.9333 192.154 65.2C192.62 65.4667 193.147 65.74 193.734 66.02C194.467 66.38 195.147 66.7467 195.774 67.12C196.414 67.4933 196.927 67.9333 197.314 68.44C197.714 68.9333 197.914 69.5533 197.914 70.3C197.914 71.0333 197.7 71.6933 197.274 72.28C196.86 72.8667 196.26 73.3333 195.474 73.68C194.687 74.0267 193.754 74.2 192.674 74.2ZM199.471 64.32C199.978 63.92 200.378 63.48 200.671 63C200.965 62.52 201.111 62.0333 201.111 61.54L201.191 61.8C201.018 61.8533 200.871 61.88 200.751 61.88C200.405 61.88 200.125 61.7733 199.911 61.56C199.711 61.3333 199.611 61.0867 199.611 60.82C199.611 60.5133 199.705 60.2333 199.891 59.98C200.091 59.7267 200.391 59.6 200.791 59.6C201.138 59.6 201.438 59.7333 201.691 60C201.958 60.2667 202.091 60.6467 202.091 61.14C202.091 61.8467 201.871 62.52 201.431 63.16C201.005 63.8 200.458 64.3467 199.791 64.8L199.471 64.32ZM207.947 74.2C207.187 74.2 206.474 74.1133 205.807 73.94C205.141 73.7667 204.487 73.5267 203.847 73.22L204.567 70H205.167L205.907 73.5L205.407 73.06L204.987 72.46C205.454 72.7 205.867 72.8933 206.227 73.04C206.587 73.1733 206.921 73.2733 207.227 73.34C207.547 73.3933 207.867 73.42 208.187 73.42C209.201 73.42 209.994 73.2 210.567 72.76C211.141 72.32 211.427 71.7533 211.427 71.06C211.427 70.5533 211.274 70.12 210.967 69.76C210.674 69.4 210.274 69.0733 209.767 68.78C209.274 68.4867 208.714 68.1867 208.087 67.88C207.407 67.5467 206.774 67.2067 206.187 66.86C205.614 66.5133 205.147 66.1067 204.787 65.64C204.441 65.16 204.267 64.5733 204.267 63.88C204.267 63.1733 204.454 62.54 204.827 61.98C205.201 61.42 205.741 60.98 206.447 60.66C207.167 60.3267 208.027 60.16 209.027 60.16C209.721 60.16 210.381 60.24 211.007 60.4C211.634 60.56 212.247 60.7867 212.847 61.08L212.187 64.14H211.587L210.847 60.82L211.767 61.84C211.341 61.6 210.954 61.4133 210.607 61.28C210.274 61.1467 209.961 61.06 209.667 61.02C209.374 60.9667 209.081 60.94 208.787 60.94C207.867 60.94 207.167 61.1333 206.687 61.52C206.207 61.8933 205.967 62.4133 205.967 63.08C205.967 63.5733 206.094 63.9867 206.347 64.32C206.614 64.64 206.974 64.9333 207.427 65.2C207.894 65.4667 208.421 65.74 209.007 66.02C209.741 66.38 210.421 66.7467 211.047 67.12C211.687 67.4933 212.201 67.9333 212.587 68.44C212.987 68.9333 213.187 69.5533 213.187 70.3C213.187 71.0333 212.974 71.6933 212.547 72.28C212.134 72.8667 211.534 73.3333 210.747 73.68C209.961 74.0267 209.027 74.2 207.947 74.2ZM219.219 68.2C219.219 67.0667 219.365 65.9867 219.659 64.96C219.965 63.9333 220.392 62.9533 220.939 62.02C221.499 61.0867 222.152 60.2 222.899 59.36L223.319 59.72C222.412 61.1467 221.785 62.5667 221.439 63.98C221.105 65.38 220.939 66.7867 220.939 68.2C220.939 69.6 221.105 71.0067 221.439 72.42C221.785 73.8333 222.412 75.2533 223.319 76.68L222.899 77.04C222.152 76.2 221.499 75.3133 220.939 74.38C220.392 73.4467 219.965 72.4667 219.659 71.44C219.365 70.4133 219.219 69.3333 219.219 68.2ZM228.826 74.2C228.066 74.2 227.353 74.1133 226.686 73.94C226.02 73.7667 225.366 73.5267 224.726 73.22L225.446 70H226.046L226.786 73.5L226.286 73.06L225.866 72.46C226.333 72.7 226.746 72.8933 227.106 73.04C227.466 73.1733 227.8 73.2733 228.106 73.34C228.426 73.3933 228.746 73.42 229.066 73.42C230.08 73.42 230.873 73.2 231.446 72.76C232.02 72.32 232.306 71.7533 232.306 71.06C232.306 70.5533 232.153 70.12 231.846 69.76C231.553 69.4 231.153 69.0733 230.646 68.78C230.153 68.4867 229.593 68.1867 228.966 67.88C228.286 67.5467 227.653 67.2067 227.066 66.86C226.493 66.5133 226.026 66.1067 225.666 65.64C225.32 65.16 225.146 64.5733 225.146 63.88C225.146 63.1733 225.333 62.54 225.706 61.98C226.08 61.42 226.62 60.98 227.326 60.66C228.046 60.3267 228.906 60.16 229.906 60.16C230.6 60.16 231.26 60.24 231.886 60.4C232.513 60.56 233.126 60.7867 233.726 61.08L233.066 64.14H232.466L231.726 60.82L232.646 61.84C232.22 61.6 231.833 61.4133 231.486 61.28C231.153 61.1467 230.84 61.06 230.546 61.02C230.253 60.9667 229.96 60.94 229.666 60.94C228.746 60.94 228.046 61.1333 227.566 61.52C227.086 61.8933 226.846 62.4133 226.846 63.08C226.846 63.5733 226.973 63.9867 227.226 64.32C227.493 64.64 227.853 64.9333 228.306 65.2C228.773 65.4667 229.3 65.74 229.886 66.02C230.62 66.38 231.3 66.7467 231.926 67.12C232.566 67.4933 233.08 67.9333 233.466 68.44C233.866 68.9333 234.066 69.5533 234.066 70.3C234.066 71.0333 233.853 71.6933 233.426 72.28C233.013 72.8667 232.413 73.3333 231.626 73.68C230.84 74.0267 229.906 74.2 228.826 74.2ZM248.377 63.08V71.32C248.377 71.72 248.383 72.0467 248.397 72.3C248.41 72.5533 248.457 72.7533 248.537 72.9C248.63 73.0733 248.783 73.1933 248.997 73.26C249.21 73.3133 249.523 73.3733 249.937 73.44V74C249.523 73.9733 249.19 73.96 248.937 73.96C248.683 73.9467 248.443 73.94 248.217 73.94C247.99 73.9267 247.703 73.92 247.357 73.92C247.05 73.92 246.783 73.9267 246.557 73.94C246.343 73.94 246.11 73.9467 245.857 73.96C245.603 73.96 245.263 73.9733 244.837 74V73.44C245.25 73.3733 245.563 73.3133 245.777 73.26C245.99 73.1933 246.143 73.0733 246.237 72.9C246.317 72.7667 246.363 72.5733 246.377 72.32C246.403 72.0667 246.417 71.7267 246.417 71.3V67.36H239.377V71.32C239.377 71.72 239.383 72.0467 239.397 72.3C239.41 72.5533 239.457 72.7533 239.537 72.9C239.63 73.0733 239.783 73.1933 239.997 73.26C240.21 73.3133 240.523 73.3733 240.937 73.44V74C240.523 73.9733 240.183 73.96 239.917 73.96C239.663 73.9467 239.423 73.94 239.197 73.94C238.983 73.9267 238.703 73.92 238.357 73.92C238.05 73.92 237.783 73.9267 237.557 73.94C237.33 73.94 237.09 73.9467 236.837 73.96C236.597 73.96 236.263 73.9733 235.837 74V73.44C236.25 73.3733 236.563 73.3133 236.777 73.26C236.99 73.1933 237.143 73.0733 237.237 72.9C237.317 72.7667 237.363 72.5733 237.377 72.32C237.403 72.0667 237.417 71.7267 237.417 71.3V63.1C237.417 62.6733 237.403 62.3333 237.377 62.08C237.363 61.8267 237.317 61.6333 237.237 61.5C237.143 61.3267 236.99 61.2067 236.777 61.14C236.563 61.0733 236.25 61.0133 235.837 60.96V60.4C236.263 60.4133 236.597 60.4267 236.837 60.44C237.09 60.4533 237.33 60.4667 237.557 60.48C237.783 60.48 238.05 60.48 238.357 60.48C238.703 60.48 238.983 60.48 239.197 60.48C239.423 60.4667 239.663 60.4533 239.917 60.44C240.183 60.4267 240.523 60.4133 240.937 60.4V60.96C240.523 61.0133 240.21 61.0733 239.997 61.14C239.783 61.1933 239.63 61.3133 239.537 61.5C239.457 61.6467 239.41 61.8467 239.397 62.1C239.383 62.34 239.377 62.6667 239.377 63.08V66.54H246.417V63.1C246.417 62.6733 246.403 62.3333 246.377 62.08C246.363 61.8267 246.317 61.6333 246.237 61.5C246.143 61.3267 245.99 61.2067 245.777 61.14C245.563 61.0733 245.25 61.0133 244.837 60.96V60.4C245.263 60.4133 245.603 60.4267 245.857 60.44C246.11 60.4533 246.343 60.4667 246.557 60.48C246.783 60.48 247.05 60.48 247.357 60.48C247.703 60.48 247.99 60.48 248.217 60.48C248.443 60.4667 248.683 60.4533 248.937 60.44C249.19 60.4267 249.523 60.4133 249.937 60.4V60.96C249.523 61.0133 249.21 61.0733 248.997 61.14C248.783 61.1933 248.63 61.3133 248.537 61.5C248.457 61.6467 248.41 61.8467 248.397 62.1C248.383 62.34 248.377 62.6667 248.377 63.08ZM258.061 74.2C257.061 74.2 256.161 74.0267 255.361 73.68C254.574 73.3333 253.894 72.86 253.321 72.26C252.761 71.6467 252.327 70.9267 252.021 70.1C251.727 69.2733 251.581 68.38 251.581 67.42C251.581 66.46 251.727 65.5467 252.021 64.68C252.327 63.8133 252.761 63.04 253.321 62.36C253.881 61.68 254.561 61.1467 255.361 60.76C256.161 60.36 257.061 60.16 258.061 60.16C259.101 60.16 260.021 60.34 260.821 60.7C261.634 61.06 262.314 61.56 262.861 62.2C263.421 62.8267 263.841 63.5533 264.121 64.38C264.401 65.2067 264.541 66.0733 264.541 66.98C264.541 67.9667 264.387 68.9 264.081 69.78C263.787 70.6467 263.361 71.4133 262.801 72.08C262.254 72.7467 261.574 73.2667 260.761 73.64C259.961 74.0133 259.061 74.2 258.061 74.2ZM258.121 73.44C259.014 73.44 259.781 73.1867 260.421 72.68C261.074 72.16 261.574 71.44 261.921 70.52C262.267 69.6 262.441 68.54 262.441 67.34C262.441 66.42 262.341 65.5733 262.141 64.8C261.941 64.0267 261.647 63.3533 261.261 62.78C260.887 62.1933 260.427 61.74 259.881 61.42C259.334 61.0867 258.721 60.92 258.041 60.92C257.147 60.92 256.374 61.1667 255.721 61.66C255.067 62.1533 254.561 62.8467 254.201 63.74C253.854 64.6333 253.681 65.6933 253.681 66.92C253.681 67.8267 253.781 68.68 253.981 69.48C254.181 70.2667 254.474 70.9533 254.861 71.54C255.247 72.1267 255.714 72.5933 256.261 72.94C256.807 73.2733 257.427 73.44 258.121 73.44ZM271.508 67.36L273.468 67.22L276.208 71.42C276.568 71.9667 276.888 72.38 277.168 72.66C277.448 72.9267 277.728 73.1133 278.008 73.22C278.288 73.3133 278.608 73.3867 278.968 73.44V74C278.542 73.9867 278.182 73.9733 277.888 73.96C277.595 73.9467 277.315 73.94 277.048 73.94C276.795 73.94 276.542 73.9467 276.288 73.96C276.048 73.9733 275.795 73.9867 275.528 74L271.508 67.36ZM269.768 61.12V70.9C269.768 71.4333 269.775 71.86 269.788 72.18C269.815 72.5 269.868 72.74 269.948 72.9C270.055 73.0733 270.222 73.1933 270.448 73.26C270.675 73.3133 271.008 73.3733 271.448 73.44V74C271.022 73.9733 270.682 73.96 270.428 73.96C270.175 73.9467 269.928 73.94 269.688 73.94C269.462 73.9267 269.168 73.92 268.808 73.92C268.475 73.92 268.188 73.9267 267.948 73.94C267.722 73.94 267.482 73.9467 267.228 73.96C266.975 73.96 266.635 73.9733 266.208 74V73.44C266.635 73.3733 266.955 73.3067 267.168 73.24C267.395 73.1733 267.555 73.06 267.648 72.9C267.755 72.7267 267.822 72.4867 267.848 72.18C267.875 71.86 267.888 71.4267 267.888 70.88V63.5C267.888 62.94 267.875 62.5067 267.848 62.2C267.835 61.88 267.768 61.64 267.648 61.48C267.555 61.32 267.395 61.2067 267.168 61.14C266.955 61.0733 266.662 61.0133 266.288 60.96V60.4H271.468C272.642 60.4 273.635 60.5133 274.448 60.74C275.275 60.9667 275.908 61.3267 276.348 61.82C276.788 62.3133 277.008 62.9467 277.008 63.72C277.008 64.3467 276.862 64.9067 276.568 65.4C276.275 65.8933 275.855 66.3133 275.308 66.66C274.775 67.0067 274.128 67.2733 273.368 67.46C272.608 67.6333 271.748 67.72 270.788 67.72H269.608V66.84C269.822 66.88 270.048 66.9133 270.288 66.94C270.542 66.9533 270.788 66.96 271.028 66.96C271.988 66.96 272.755 66.84 273.328 66.6C273.915 66.36 274.335 66.02 274.588 65.58C274.855 65.14 274.988 64.6333 274.988 64.06C274.988 63.4333 274.842 62.9067 274.548 62.48C274.255 62.04 273.828 61.7067 273.268 61.48C272.708 61.24 272.028 61.12 271.228 61.12H269.768ZM279.032 64.64L279.372 60.4H290.552L290.892 64.64H290.272L288.872 61.22H281.052L279.652 64.64H279.032ZM283.972 60.78H285.932V71.32C285.932 71.72 285.938 72.0467 285.952 72.3C285.978 72.5533 286.025 72.7533 286.092 72.9C286.198 73.0733 286.358 73.1933 286.572 73.26C286.785 73.3133 287.098 73.3733 287.512 73.44V74C287.085 73.9733 286.745 73.96 286.492 73.96C286.238 73.9467 285.998 73.94 285.772 73.94C285.545 73.9267 285.265 73.92 284.932 73.92C284.612 73.92 284.338 73.9267 284.112 73.94C283.898 73.94 283.665 73.9467 283.412 73.96C283.158 73.96 282.825 73.9733 282.412 74V73.44C282.812 73.3733 283.118 73.3133 283.332 73.26C283.558 73.1933 283.712 73.0733 283.792 72.9C283.872 72.7667 283.918 72.5733 283.932 72.32C283.958 72.0667 283.972 71.7267 283.972 71.3V60.78ZM295.646 63.1V73.24H299.986L301.326 70.04H301.946L301.666 74H292.106V73.44C292.506 73.3733 292.813 73.3067 293.026 73.24C293.24 73.1733 293.386 73.06 293.466 72.9C293.573 72.74 293.633 72.5067 293.646 72.2C293.673 71.88 293.686 71.4467 293.686 70.9V63.1C293.686 62.6733 293.673 62.3333 293.646 62.08C293.633 61.8267 293.586 61.6333 293.506 61.5C293.413 61.3267 293.26 61.2067 293.046 61.14C292.833 61.0733 292.52 61.0133 292.106 60.96V60.4C292.533 60.4133 292.866 60.4267 293.106 60.44C293.36 60.4533 293.6 60.4667 293.826 60.48C294.053 60.48 294.32 60.48 294.626 60.48C294.973 60.48 295.253 60.48 295.466 60.48C295.693 60.4667 295.933 60.4533 296.186 60.44C296.453 60.4267 296.793 60.4133 297.206 60.4V60.96C296.793 61.0133 296.48 61.0733 296.266 61.14C296.053 61.1933 295.9 61.3133 295.806 61.5C295.726 61.6467 295.68 61.8467 295.666 62.1C295.653 62.34 295.646 62.6733 295.646 63.1ZM306.72 63.08V71.32C306.72 71.72 306.727 72.0467 306.74 72.3C306.754 72.5533 306.8 72.7533 306.88 72.9C306.974 73.0733 307.127 73.1933 307.34 73.26C307.554 73.3133 307.867 73.3733 308.28 73.44V74C307.867 73.9733 307.534 73.96 307.28 73.96C307.027 73.9467 306.787 73.94 306.56 73.94C306.347 73.9267 306.074 73.92 305.74 73.92C305.42 73.92 305.14 73.9267 304.9 73.94C304.674 73.94 304.434 73.9467 304.18 73.96C303.94 73.96 303.607 73.9733 303.18 74V73.44C303.594 73.3733 303.907 73.3133 304.12 73.26C304.334 73.1933 304.487 73.0733 304.58 72.9C304.66 72.7667 304.707 72.5733 304.72 72.32C304.747 72.0667 304.76 71.7267 304.76 71.3V63.1C304.76 62.6733 304.747 62.3333 304.72 62.08C304.707 61.8267 304.66 61.6333 304.58 61.5C304.487 61.3267 304.334 61.2067 304.12 61.14C303.907 61.0733 303.594 61.0133 303.18 60.96V60.4C303.607 60.4133 303.94 60.4267 304.18 60.44C304.434 60.4533 304.674 60.4667 304.9 60.48C305.14 60.48 305.42 60.48 305.74 60.48C306.074 60.48 306.347 60.48 306.56 60.48C306.787 60.4667 307.027 60.4533 307.28 60.44C307.534 60.4267 307.867 60.4133 308.28 60.4V60.96C307.867 61.0133 307.554 61.0733 307.34 61.14C307.127 61.1933 306.974 61.3133 306.88 61.5C306.8 61.6467 306.754 61.8467 306.74 62.1C306.727 62.34 306.72 62.6667 306.72 63.08ZM314.061 74.2C313.301 74.2 312.587 74.1133 311.921 73.94C311.254 73.7667 310.601 73.5267 309.961 73.22L310.681 70H311.281L312.021 73.5L311.521 73.06L311.101 72.46C311.567 72.7 311.981 72.8933 312.341 73.04C312.701 73.1733 313.034 73.2733 313.341 73.34C313.661 73.3933 313.981 73.42 314.301 73.42C315.314 73.42 316.107 73.2 316.681 72.76C317.254 72.32 317.541 71.7533 317.541 71.06C317.541 70.5533 317.387 70.12 317.081 69.76C316.787 69.4 316.387 69.0733 315.881 68.78C315.387 68.4867 314.827 68.1867 314.201 67.88C313.521 67.5467 312.887 67.2067 312.301 66.86C311.727 66.5133 311.261 66.1067 310.901 65.64C310.554 65.16 310.381 64.5733 310.381 63.88C310.381 63.1733 310.567 62.54 310.941 61.98C311.314 61.42 311.854 60.98 312.561 60.66C313.281 60.3267 314.141 60.16 315.141 60.16C315.834 60.16 316.494 60.24 317.121 60.4C317.747 60.56 318.361 60.7867 318.961 61.08L318.301 64.14H317.701L316.961 60.82L317.881 61.84C317.454 61.6 317.067 61.4133 316.721 61.28C316.387 61.1467 316.074 61.06 315.781 61.02C315.487 60.9667 315.194 60.94 314.901 60.94C313.981 60.94 313.281 61.1333 312.801 61.52C312.321 61.8933 312.081 62.4133 312.081 63.08C312.081 63.5733 312.207 63.9867 312.461 64.32C312.727 64.64 313.087 64.9333 313.541 65.2C314.007 65.4667 314.534 65.74 315.121 66.02C315.854 66.38 316.534 66.7467 317.161 67.12C317.801 67.4933 318.314 67.9333 318.701 68.44C319.101 68.9333 319.301 69.5533 319.301 70.3C319.301 71.0333 319.087 71.6933 318.661 72.28C318.247 72.8667 317.647 73.3333 316.861 73.68C316.074 74.0267 315.141 74.2 314.061 74.2ZM320.731 64.64L321.071 60.4H332.251L332.591 64.64H331.971L330.571 61.22H322.751L321.351 64.64H320.731ZM325.671 60.78H327.631V71.32C327.631 71.72 327.638 72.0467 327.651 72.3C327.678 72.5533 327.724 72.7533 327.791 72.9C327.898 73.0733 328.058 73.1933 328.271 73.26C328.484 73.3133 328.798 73.3733 329.211 73.44V74C328.784 73.9733 328.444 73.96 328.191 73.96C327.938 73.9467 327.698 73.94 327.471 73.94C327.244 73.9267 326.964 73.92 326.631 73.92C326.311 73.92 326.038 73.9267 325.811 73.94C325.598 73.94 325.364 73.9467 325.111 73.96C324.858 73.96 324.524 73.9733 324.111 74V73.44C324.511 73.3733 324.818 73.3133 325.031 73.26C325.258 73.1933 325.411 73.0733 325.491 72.9C325.571 72.7667 325.618 72.5733 325.631 72.32C325.658 72.0667 325.671 71.7267 325.671 71.3V60.78ZM337.645 68.2C337.645 69.3333 337.492 70.4133 337.185 71.44C336.879 72.4667 336.445 73.4467 335.885 74.38C335.339 75.3133 334.692 76.2 333.945 77.04L333.545 76.68C334.452 75.2533 335.072 73.8333 335.405 72.42C335.739 71.0067 335.905 69.6 335.905 68.2C335.905 66.7867 335.739 65.38 335.405 63.98C335.072 62.5667 334.452 61.1467 333.545 59.72L333.945 59.36C334.692 60.2 335.339 61.0867 335.885 62.02C336.445 62.9533 336.879 63.9333 337.185 64.96C337.492 65.9867 337.645 67.0667 337.645 68.2Z" fill="#7D97C2"/>
</svg>
