<svg width="365" height="91" viewBox="0 0 365 91" fill="none" xmlns="http://www.w3.org/2000/svg">
<path d="M108.568 34.765C108.568 32.8283 108.86 31.0667 109.443 29.48C110.026 27.87 110.878 26.4933 111.998 25.35C113.118 24.1833 114.483 23.285 116.093 22.655C117.703 22.0017 119.535 21.675 121.588 21.675C122.895 21.675 124.166 21.7917 125.403 22.025C126.64 22.235 127.841 22.5733 129.008 23.04L127.118 29.48H125.788L123.793 23.18L127.503 23.46L126.628 24.965C125.858 24.4283 125.018 24.0317 124.108 23.775C123.221 23.495 122.37 23.355 121.553 23.355C120.246 23.355 119.126 23.6467 118.193 24.23C117.283 24.8133 116.536 25.6067 115.953 26.61C115.37 27.6133 114.938 28.7567 114.658 30.04C114.378 31.3 114.238 32.63 114.238 34.03C114.238 36.0133 114.506 37.81 115.043 39.42C115.603 41.03 116.443 42.3133 117.563 43.27C118.683 44.2033 120.106 44.67 121.833 44.67C122.86 44.67 123.828 44.4833 124.738 44.11C125.671 43.7367 126.546 43.235 127.363 42.605L127.153 44.04L123.793 45.3L125.788 38.755H127.118L128.973 45.09C127.62 45.5333 126.29 45.8483 124.983 46.035C123.7 46.245 122.545 46.35 121.518 46.35C118.835 46.35 116.525 45.9067 114.588 45.02C112.651 44.1333 111.158 42.8267 110.108 41.1C109.081 39.3733 108.568 37.2617 108.568 34.765ZM135.602 34.555V32.77H139.137C140.187 32.77 141.004 32.7233 141.587 32.63C142.194 32.5367 142.649 32.3733 142.952 32.14C143.279 31.9067 143.524 31.58 143.687 31.16C143.851 30.7167 144.014 30.1683 144.177 29.515H145.507V37.81H144.177C144.014 37.1567 143.851 36.62 143.687 36.2C143.524 35.78 143.279 35.4533 142.952 35.22C142.649 34.9633 142.194 34.7883 141.587 34.695C141.004 34.6017 140.187 34.555 139.137 34.555H135.602ZM146.172 44.32L149.532 39.14H150.862L150.162 46H131.227V44.67C132.067 44.5533 132.662 44.4483 133.012 44.355C133.386 44.2383 133.642 44.0633 133.782 43.83C133.946 43.55 134.039 43.1417 134.062 42.605C134.109 42.045 134.132 41.24 134.132 40.19V28.01C134.132 26.96 134.109 26.1667 134.062 25.63C134.039 25.07 133.946 24.65 133.782 24.37C133.642 24.1133 133.386 23.9383 133.012 23.845C132.662 23.7283 132.067 23.6233 131.227 23.53V22.2H149.637L149.987 28.745H148.657L145.647 23.88H139.382V44.32H146.172ZM165.417 46.35C163.643 46.35 162.022 46.0933 160.552 45.58C159.082 45.0433 157.81 44.2733 156.737 43.27C155.687 42.2667 154.87 41.0417 154.287 39.595C153.703 38.125 153.412 36.4567 153.412 34.59C153.412 32.5833 153.727 30.7867 154.357 29.2C154.987 27.6133 155.85 26.26 156.947 25.14C158.067 24.02 159.35 23.1683 160.797 22.585C162.243 21.9783 163.772 21.675 165.382 21.675C167.155 21.675 168.777 21.9433 170.247 22.48C171.717 23.0167 172.977 23.7983 174.027 24.825C175.1 25.8517 175.917 27.1 176.477 28.57C177.06 30.04 177.352 31.7083 177.352 33.575C177.352 35.5817 177.037 37.3783 176.407 38.965C175.777 40.5283 174.913 41.87 173.817 42.99C172.72 44.0867 171.448 44.9267 170.002 45.51C168.555 46.07 167.027 46.35 165.417 46.35ZM165.592 44.67C167.038 44.67 168.217 44.215 169.127 43.305C170.037 42.3717 170.702 41.1233 171.122 39.56C171.542 37.9967 171.752 36.2467 171.752 34.31C171.752 32.8633 171.623 31.4867 171.367 30.18C171.133 28.8733 170.76 27.7067 170.247 26.68C169.733 25.6533 169.057 24.8483 168.217 24.265C167.4 23.6583 166.408 23.355 165.242 23.355C163.795 23.355 162.617 23.81 161.707 24.72C160.797 25.6067 160.12 26.82 159.677 28.36C159.257 29.9 159.047 31.6383 159.047 33.575C159.047 35.0217 159.163 36.41 159.397 37.74C159.653 39.07 160.038 40.26 160.552 41.31C161.088 42.3367 161.765 43.1533 162.582 43.76C163.422 44.3667 164.425 44.67 165.592 44.67ZM207.657 26.89V35.535C207.657 38.9183 206.945 41.5667 205.522 43.48C204.099 45.3933 201.789 46.35 198.592 46.35C196.165 46.35 194.217 45.9767 192.747 45.23C191.277 44.4833 190.215 43.34 189.562 41.8C188.909 40.26 188.582 38.2883 188.582 35.885V28.045C188.582 26.995 188.559 26.19 188.512 25.63C188.489 25.07 188.395 24.65 188.232 24.37C188.092 24.1133 187.859 23.9383 187.532 23.845C187.205 23.7283 186.704 23.6233 186.027 23.53V22.2C186.96 22.2233 187.684 22.2467 188.197 22.27C188.734 22.2933 189.2 22.3167 189.597 22.34C189.994 22.34 190.484 22.34 191.067 22.34C191.744 22.34 192.292 22.34 192.712 22.34C193.155 22.3167 193.645 22.2933 194.182 22.27C194.719 22.2467 195.454 22.2233 196.387 22.2V23.53C195.664 23.6233 195.139 23.7283 194.812 23.845C194.509 23.9383 194.275 24.1483 194.112 24.475C193.972 24.755 193.89 25.175 193.867 25.735C193.844 26.295 193.832 27.065 193.832 28.045V35.185C193.832 37.0517 193.995 38.6383 194.322 39.945C194.672 41.2283 195.244 42.2083 196.037 42.885C196.854 43.5383 197.939 43.865 199.292 43.865C201.065 43.865 202.465 43.2933 203.492 42.15C204.519 40.9833 205.032 39.0117 205.032 36.235V26.89C205.032 26.26 205.009 25.7583 204.962 25.385C204.939 24.9883 204.869 24.6733 204.752 24.44C204.612 24.1133 204.367 23.9033 204.017 23.81C203.667 23.7167 203.165 23.6233 202.512 23.53V22.2C203.142 22.2233 203.655 22.2467 204.052 22.27C204.449 22.2933 204.834 22.3167 205.207 22.34C205.604 22.34 206.07 22.34 206.607 22.34C207.097 22.34 207.494 22.34 207.797 22.34C208.1 22.3167 208.427 22.2933 208.777 22.27C209.127 22.2467 209.605 22.2233 210.212 22.2V23.53C209.629 23.6 209.174 23.6817 208.847 23.775C208.52 23.845 208.264 23.9967 208.077 24.23C207.914 24.44 207.797 24.755 207.727 25.175C207.68 25.5717 207.657 26.1433 207.657 26.89ZM227.196 39.595H216.416V37.81H227.196V39.595ZM223.451 22.2L231.081 40.155C231.501 41.1117 231.828 41.87 232.061 42.43C232.318 42.99 232.551 43.4217 232.761 43.725C232.995 44.005 233.275 44.215 233.601 44.355C233.951 44.4717 234.43 44.5767 235.036 44.67V46C234.336 45.9533 233.566 45.9183 232.726 45.895C231.886 45.8717 230.731 45.86 229.261 45.86C228.258 45.86 227.465 45.8717 226.881 45.895C226.321 45.895 225.843 45.9067 225.446 45.93C225.073 45.9533 224.653 45.9767 224.186 46V44.67C224.863 44.5533 225.423 44.425 225.866 44.285C226.333 44.1217 226.566 43.7833 226.566 43.27C226.566 42.64 226.275 41.6017 225.691 40.155L221.141 29.095H221.456L216.626 41.17C216.416 41.6833 216.253 42.115 216.136 42.465C216.043 42.815 215.996 43.1067 215.996 43.34C215.996 43.8533 216.241 44.18 216.731 44.32C217.221 44.46 217.758 44.5767 218.341 44.67V46C217.641 45.9533 216.976 45.9183 216.346 45.895C215.74 45.8717 215.075 45.86 214.351 45.86C213.675 45.86 213.033 45.8717 212.426 45.895C211.843 45.9183 211.201 45.9533 210.501 46V44.67C211.225 44.5533 211.761 44.4133 212.111 44.25C212.485 44.0867 212.8 43.7833 213.056 43.34C213.313 42.8733 213.64 42.15 214.036 41.17L222.051 22.2H223.451ZM241.081 34.555V32.77H244.616C245.666 32.77 246.483 32.7233 247.066 32.63C247.673 32.5367 248.128 32.3733 248.431 32.14C248.758 31.9067 249.003 31.58 249.166 31.16C249.329 30.7167 249.493 30.1683 249.656 29.515H250.986V37.81H249.656C249.493 37.1567 249.329 36.62 249.166 36.2C249.003 35.78 248.758 35.4533 248.431 35.22C248.128 34.9633 247.673 34.7883 247.066 34.695C246.483 34.6017 245.666 34.555 244.616 34.555H241.081ZM251.651 44.32L255.011 39.14H256.341L255.641 46H236.706V44.67C237.546 44.5533 238.141 44.4483 238.491 44.355C238.864 44.2383 239.121 44.0633 239.261 43.83C239.424 43.55 239.518 43.1417 239.541 42.605C239.588 42.045 239.611 41.24 239.611 40.19V28.01C239.611 26.96 239.588 26.1667 239.541 25.63C239.518 25.07 239.424 24.65 239.261 24.37C239.121 24.1133 238.864 23.9383 238.491 23.845C238.141 23.7283 237.546 23.6233 236.706 23.53V22.2H255.116L255.466 28.745H254.136L251.126 23.88H244.861V44.32H251.651Z" fill="white"/>
<path d="M4.32672 63.64L4.66672 59.4H15.8467L16.1867 63.64H15.5667L14.1667 60.22H6.34672L4.94672 63.64H4.32672ZM9.26672 59.78H11.2267V70.32C11.2267 70.72 11.2334 71.0467 11.2467 71.3C11.2734 71.5533 11.3201 71.7533 11.3867 71.9C11.4934 72.0733 11.6534 72.1933 11.8667 72.26C12.0801 72.3133 12.3934 72.3733 12.8067 72.44V73C12.3801 72.9733 12.0401 72.96 11.7867 72.96C11.5334 72.9467 11.2934 72.94 11.0667 72.94C10.8401 72.9267 10.5601 72.92 10.2267 72.92C9.90672 72.92 9.63339 72.9267 9.40672 72.94C9.19339 72.94 8.96005 72.9467 8.70672 72.96C8.45339 72.96 8.12005 72.9733 7.70672 73V72.44C8.10672 72.3733 8.41339 72.3133 8.62672 72.26C8.85339 72.1933 9.00672 72.0733 9.08672 71.9C9.16672 71.7667 9.21339 71.5733 9.22672 71.32C9.25339 71.0667 9.26672 70.7267 9.26672 70.3V59.78ZM23.9611 73.2C22.9611 73.2 22.0611 73.0267 21.2611 72.68C20.4744 72.3333 19.7944 71.86 19.2211 71.26C18.6611 70.6467 18.2278 69.9267 17.9211 69.1C17.6278 68.2733 17.4811 67.38 17.4811 66.42C17.4811 65.46 17.6278 64.5467 17.9211 63.68C18.2278 62.8133 18.6611 62.04 19.2211 61.36C19.7811 60.68 20.4611 60.1467 21.2611 59.76C22.0611 59.36 22.9611 59.16 23.9611 59.16C25.0011 59.16 25.9211 59.34 26.7211 59.7C27.5344 60.06 28.2144 60.56 28.7611 61.2C29.3211 61.8267 29.7411 62.5533 30.0211 63.38C30.3011 64.2067 30.4411 65.0733 30.4411 65.98C30.4411 66.9667 30.2878 67.9 29.9811 68.78C29.6878 69.6467 29.2611 70.4133 28.7011 71.08C28.1544 71.7467 27.4744 72.2667 26.6611 72.64C25.8611 73.0133 24.9611 73.2 23.9611 73.2ZM24.0211 72.44C24.9144 72.44 25.6811 72.1867 26.3211 71.68C26.9744 71.16 27.4744 70.44 27.8211 69.52C28.1678 68.6 28.3411 67.54 28.3411 66.34C28.3411 65.42 28.2411 64.5733 28.0411 63.8C27.8411 63.0267 27.5478 62.3533 27.1611 61.78C26.7878 61.1933 26.3278 60.74 25.7811 60.42C25.2344 60.0867 24.6211 59.92 23.9411 59.92C23.0478 59.92 22.2744 60.1667 21.6211 60.66C20.9678 61.1533 20.4611 61.8467 20.1011 62.74C19.7544 63.6333 19.5811 64.6933 19.5811 65.92C19.5811 66.8267 19.6811 67.68 19.8811 68.48C20.0811 69.2667 20.3744 69.9533 20.7611 70.54C21.1478 71.1267 21.6144 71.5933 22.1611 71.94C22.7078 72.2733 23.3278 72.44 24.0211 72.44ZM35.7286 60.12V70.32C35.7286 70.72 35.7353 71.0467 35.7486 71.3C35.7619 71.5533 35.8086 71.7533 35.8886 71.9C35.9819 72.0733 36.1353 72.1933 36.3486 72.26C36.5619 72.3133 36.8753 72.3733 37.2886 72.44V73C36.8753 72.9733 36.5353 72.96 36.2686 72.96C36.0153 72.9467 35.7753 72.94 35.5486 72.94C35.3353 72.9267 35.0553 72.92 34.7086 72.92C34.4019 72.92 34.1353 72.9267 33.9086 72.94C33.6819 72.94 33.4419 72.9467 33.1886 72.96C32.9486 72.96 32.6153 72.9733 32.1886 73V72.44C32.6019 72.3733 32.9153 72.3133 33.1286 72.26C33.3419 72.1933 33.4953 72.0733 33.5886 71.9C33.6686 71.7667 33.7153 71.5733 33.7286 71.32C33.7553 71.0667 33.7686 70.7267 33.7686 70.3V62.5C33.7686 61.94 33.7553 61.5067 33.7286 61.2C33.7153 60.88 33.6486 60.64 33.5286 60.48C33.4353 60.32 33.2753 60.2067 33.0486 60.14C32.8219 60.0733 32.5019 60.0133 32.0886 59.96V59.4H37.3886C38.6019 59.4 39.6153 59.5467 40.4286 59.84C41.2553 60.12 41.8753 60.54 42.2886 61.1C42.7153 61.66 42.9286 62.3467 42.9286 63.16C42.9286 63.8133 42.7686 64.4067 42.4486 64.94C42.1419 65.46 41.7019 65.9067 41.1286 66.28C40.5686 66.64 39.9019 66.92 39.1286 67.12C38.3686 67.3067 37.5219 67.4 36.5886 67.4H35.5286L35.5086 66.58C35.7353 66.5933 35.9486 66.6133 36.1486 66.64C36.3486 66.6667 36.5553 66.68 36.7686 66.68C37.6619 66.68 38.4086 66.5333 39.0086 66.24C39.6219 65.9467 40.0886 65.5533 40.4086 65.06C40.7286 64.5667 40.8886 64 40.8886 63.36C40.8886 62.7067 40.7419 62.14 40.4486 61.66C40.1553 61.18 39.7219 60.8067 39.1486 60.54C38.5886 60.26 37.9086 60.12 37.1086 60.12H35.7286ZM50.3581 61.12L50.0381 66.24L49.6381 65.98C49.9181 65.7667 50.1981 65.5733 50.4781 65.4C50.7715 65.2267 51.0981 65.0933 51.4581 65C51.8181 64.8933 52.2381 64.84 52.7181 64.84C53.5848 64.84 54.3381 65 54.9781 65.32C55.6315 65.6267 56.1381 66.0667 56.4981 66.64C56.8581 67.2133 57.0381 67.9067 57.0381 68.72C57.0381 69.4533 56.8848 70.1 56.5781 70.66C56.2848 71.2067 55.8781 71.6733 55.3581 72.06C54.8515 72.4333 54.2715 72.72 53.6181 72.92C52.9648 73.1067 52.2781 73.2 51.5581 73.2C50.9448 73.2 50.3981 73.14 49.9181 73.02C49.4381 72.9133 48.9781 72.7333 48.5381 72.48L49.0981 69.66H49.5981L50.4981 72.76L49.6181 71.9C50.0181 72.1 50.3781 72.2467 50.6981 72.34C51.0315 72.42 51.3915 72.46 51.7781 72.46C52.3915 72.46 52.9448 72.34 53.4381 72.1C53.9448 71.86 54.3515 71.5 54.6581 71.02C54.9781 70.54 55.1381 69.9333 55.1381 69.2C55.1381 68.1467 54.8248 67.3667 54.1981 66.86C53.5848 66.3533 52.8115 66.1 51.8781 66.1C51.3581 66.1 50.8915 66.18 50.4781 66.34C50.0781 66.4867 49.7315 66.6733 49.4381 66.9L49.0981 66.66L49.5581 60H56.2581L56.1781 61.68H49.7581L50.3581 61.12ZM64.1822 73.2C63.2222 73.2 62.3755 72.9067 61.6422 72.32C60.9222 71.72 60.3622 70.92 59.9622 69.92C59.5755 68.92 59.3822 67.8133 59.3822 66.6C59.3822 65.76 59.4889 64.9333 59.7022 64.12C59.9155 63.3067 60.2355 62.58 60.6622 61.94C61.0889 61.2867 61.6222 60.7667 62.2622 60.38C62.9022 59.9933 63.6422 59.8 64.4822 59.8C65.4689 59.8 66.3222 60.08 67.0422 60.64C67.7755 61.2 68.3355 61.9667 68.7222 62.94C69.1222 63.9 69.3222 65 69.3222 66.24C69.3222 67.1467 69.2022 68.02 68.9622 68.86C68.7355 69.6867 68.3955 70.4267 67.9422 71.08C67.4889 71.7333 66.9422 72.2533 66.3022 72.64C65.6755 73.0133 64.9689 73.2 64.1822 73.2ZM64.3622 72.46C64.9622 72.46 65.4822 72.22 65.9222 71.74C66.3622 71.26 66.7022 70.58 66.9422 69.7C67.1955 68.82 67.3222 67.7933 67.3222 66.62C67.3222 65.4067 67.2022 64.3467 66.9622 63.44C66.7355 62.52 66.3889 61.8067 65.9222 61.3C65.4689 60.7933 64.9222 60.54 64.2822 60.54C63.3755 60.54 62.6622 61.02 62.1422 61.98C61.6355 62.9267 61.3822 64.28 61.3822 66.04C61.3822 67.2667 61.4955 68.3667 61.7222 69.34C61.9489 70.3133 62.2822 71.08 62.7222 71.64C63.1622 72.1867 63.7089 72.46 64.3622 72.46ZM78.9294 62.08V70.32C78.9294 70.72 78.936 71.0467 78.9494 71.3C78.9627 71.5533 79.0094 71.7533 79.0894 71.9C79.1827 72.0733 79.336 72.1933 79.5494 72.26C79.7627 72.3133 80.076 72.3733 80.4894 72.44V73C80.076 72.9733 79.7427 72.96 79.4894 72.96C79.236 72.9467 78.996 72.94 78.7694 72.94C78.556 72.9267 78.2827 72.92 77.9494 72.92C77.6294 72.92 77.3494 72.9267 77.1094 72.94C76.8827 72.94 76.6427 72.9467 76.3894 72.96C76.1494 72.96 75.816 72.9733 75.3894 73V72.44C75.8027 72.3733 76.116 72.3133 76.3294 72.26C76.5427 72.1933 76.696 72.0733 76.7894 71.9C76.8694 71.7667 76.916 71.5733 76.9294 71.32C76.956 71.0667 76.9694 70.7267 76.9694 70.3V62.1C76.9694 61.6733 76.956 61.3333 76.9294 61.08C76.916 60.8267 76.8694 60.6333 76.7894 60.5C76.696 60.3267 76.5427 60.2067 76.3294 60.14C76.116 60.0733 75.8027 60.0133 75.3894 59.96V59.4C75.816 59.4133 76.1494 59.4267 76.3894 59.44C76.6427 59.4533 76.8827 59.4667 77.1094 59.48C77.3494 59.48 77.6294 59.48 77.9494 59.48C78.2827 59.48 78.556 59.48 78.7694 59.48C78.996 59.4667 79.236 59.4533 79.4894 59.44C79.7427 59.4267 80.076 59.4133 80.4894 59.4V59.96C80.076 60.0133 79.7627 60.0733 79.5494 60.14C79.336 60.1933 79.1827 60.3133 79.0894 60.5C79.0094 60.6467 78.9627 60.8467 78.9494 61.1C78.936 61.34 78.9294 61.6667 78.9294 62.08ZM93.6295 59.48C93.9095 59.48 94.1962 59.4733 94.4895 59.46C94.7962 59.4333 95.1495 59.4133 95.5495 59.4V59.96C95.1362 60.0133 94.8362 60.0733 94.6495 60.14C94.4762 60.1933 94.3429 60.3133 94.2495 60.5C94.1695 60.66 94.1229 60.9 94.1095 61.22C94.0962 61.54 94.0895 61.9733 94.0895 62.52V73H93.4295L84.5495 61.76L84.5695 69.86C84.5695 70.42 84.5762 70.86 84.5895 71.18C84.6029 71.5 84.6495 71.74 84.7295 71.9C84.8229 72.0733 84.9829 72.1933 85.2095 72.26C85.4495 72.3133 85.9162 72.3733 86.6095 72.44V73C85.9162 72.9733 85.3895 72.9533 85.0295 72.94C84.6829 72.9267 84.3629 72.92 84.0695 72.92C83.7762 72.92 83.4629 72.9267 83.1295 72.94C82.8095 72.9533 82.4495 72.9733 82.0495 73V72.44C82.4362 72.3733 82.7229 72.3133 82.9095 72.26C83.0962 72.2067 83.2295 72.1067 83.3095 71.96C83.4029 71.8 83.4562 71.56 83.4695 71.24C83.4962 70.92 83.5095 70.46 83.5095 69.86V62.54C83.5095 61.94 83.4962 61.48 83.4695 61.16C83.4562 60.8267 83.4029 60.5867 83.3095 60.44C83.2162 60.2933 83.0695 60.1933 82.8695 60.14C82.6829 60.0733 82.4095 60.0133 82.0495 59.96V59.4H85.1495L93.0095 69.5V62.54C93.0095 61.94 92.9962 61.48 92.9695 61.16C92.9562 60.84 92.9029 60.6 92.8095 60.44C92.7295 60.2933 92.5695 60.1933 92.3295 60.14C92.1029 60.0733 91.6562 60.0133 90.9895 59.96V59.4C91.6962 59.4133 92.2362 59.4333 92.6095 59.46C92.9829 59.4733 93.3229 59.48 93.6295 59.48ZM99.5481 66.72V65.9H102.188C102.695 65.9 103.095 65.88 103.388 65.84C103.681 65.7867 103.901 65.6933 104.048 65.56C104.208 65.4267 104.328 65.2333 104.408 64.98C104.488 64.7267 104.575 64.4067 104.668 64.02H105.248V68.6H104.668C104.575 68.2 104.488 67.88 104.408 67.64C104.328 67.3867 104.208 67.1933 104.048 67.06C103.901 66.9267 103.681 66.84 103.388 66.8C103.095 66.7467 102.695 66.72 102.188 66.72H99.5481ZM97.1081 59.4H106.888L107.088 62.94H106.488L105.228 60.16H100.648V70.32C100.648 70.72 100.655 71.0467 100.668 71.3C100.681 71.5533 100.728 71.7533 100.808 71.9C100.901 72.0733 101.055 72.1933 101.268 72.26C101.481 72.3133 101.795 72.3733 102.208 72.44V73C101.795 72.9733 101.455 72.96 101.188 72.96C100.935 72.9467 100.695 72.94 100.468 72.94C100.255 72.9267 99.9748 72.92 99.6281 72.92C99.3215 72.92 99.0548 72.9267 98.8281 72.94C98.6015 72.94 98.3615 72.9467 98.1081 72.96C97.8681 72.96 97.5348 72.9733 97.1081 73V72.44C97.5215 72.3733 97.8348 72.3133 98.0481 72.26C98.2615 72.1933 98.4148 72.0733 98.5081 71.9C98.5881 71.7667 98.6348 71.5733 98.6481 71.32C98.6748 71.0667 98.6881 70.7267 98.6881 70.3V62.5C98.6881 61.9133 98.6748 61.46 98.6481 61.14C98.6215 60.82 98.5481 60.58 98.4281 60.42C98.3348 60.2733 98.1815 60.1733 97.9681 60.12C97.7681 60.0533 97.4815 60.0067 97.1081 59.98V59.4ZM111.937 62.1V72.24H116.277L117.617 69.04H118.237L117.957 73H108.397V72.44C108.797 72.3733 109.104 72.3067 109.317 72.24C109.531 72.1733 109.677 72.06 109.757 71.9C109.864 71.74 109.924 71.5067 109.937 71.2C109.964 70.88 109.977 70.4467 109.977 69.9V62.1C109.977 61.6733 109.964 61.3333 109.937 61.08C109.924 60.8267 109.877 60.6333 109.797 60.5C109.704 60.3267 109.551 60.2067 109.337 60.14C109.124 60.0733 108.811 60.0133 108.397 59.96V59.4C108.824 59.4133 109.157 59.4267 109.397 59.44C109.651 59.4533 109.891 59.4667 110.117 59.48C110.344 59.48 110.611 59.48 110.917 59.48C111.264 59.48 111.544 59.48 111.757 59.48C111.984 59.4667 112.224 59.4533 112.477 59.44C112.744 59.4267 113.084 59.4133 113.497 59.4V59.96C113.084 60.0133 112.771 60.0733 112.557 60.14C112.344 60.1933 112.191 60.3133 112.097 60.5C112.017 60.6467 111.971 60.8467 111.957 61.1C111.944 61.34 111.937 61.6733 111.937 62.1ZM130.731 62.24V67.12C130.731 69.12 130.338 70.6333 129.551 71.66C128.765 72.6867 127.478 73.2 125.691 73.2C124.411 73.2 123.391 72.96 122.631 72.48C121.871 72 121.325 71.3067 120.991 70.4C120.671 69.4933 120.511 68.3933 120.511 67.1V62.1C120.511 61.6733 120.498 61.3333 120.471 61.08C120.458 60.8267 120.411 60.6333 120.331 60.5C120.251 60.3267 120.105 60.2067 119.891 60.14C119.678 60.0733 119.371 60.0133 118.971 59.96V59.4C119.385 59.4133 119.711 59.4267 119.951 59.44C120.205 59.4533 120.438 59.4667 120.651 59.48C120.878 59.48 121.151 59.48 121.471 59.48C121.805 59.48 122.078 59.48 122.291 59.48C122.518 59.4667 122.758 59.4533 123.011 59.44C123.265 59.4267 123.605 59.4133 124.031 59.4V59.96C123.618 60.0133 123.305 60.0733 123.091 60.14C122.891 60.1933 122.738 60.3133 122.631 60.5C122.565 60.6467 122.518 60.8467 122.491 61.1C122.478 61.34 122.471 61.6733 122.471 62.1V66.8C122.471 67.9067 122.585 68.86 122.811 69.66C123.051 70.46 123.431 71.0733 123.951 71.5C124.485 71.9133 125.198 72.12 126.091 72.12C127.291 72.12 128.178 71.7533 128.751 71.02C129.338 70.2733 129.631 69.1067 129.631 67.52V62.24C129.631 61.7867 129.618 61.4267 129.591 61.16C129.578 60.8933 129.538 60.68 129.471 60.52C129.378 60.3333 129.225 60.2067 129.011 60.14C128.798 60.0733 128.498 60.0133 128.111 59.96V59.4C128.445 59.4133 128.718 59.4267 128.931 59.44C129.145 59.4533 129.351 59.4667 129.551 59.48C129.751 59.48 129.991 59.48 130.271 59.48C130.538 59.48 130.751 59.48 130.911 59.48C131.085 59.4667 131.265 59.4533 131.451 59.44C131.651 59.4267 131.918 59.4133 132.251 59.4V59.96C131.878 60.0267 131.591 60.0867 131.391 60.14C131.191 60.1933 131.045 60.3 130.951 60.46C130.858 60.6067 130.798 60.82 130.771 61.1C130.745 61.3667 130.731 61.7467 130.731 62.24ZM135.779 66.34V65.54H138.539C139.019 65.54 139.392 65.5133 139.659 65.46C139.926 65.3933 140.126 65.2933 140.259 65.16C140.406 65.0267 140.512 64.84 140.579 64.6C140.659 64.3467 140.746 64.0333 140.839 63.66H141.419V68.22H140.839C140.746 67.86 140.659 67.56 140.579 67.32C140.512 67.0667 140.406 66.8667 140.259 66.72C140.126 66.5733 139.926 66.4733 139.659 66.42C139.392 66.3667 139.019 66.34 138.539 66.34H135.779ZM141.959 72.24L143.419 69.12H144.019L143.619 73H133.319V72.44C133.759 72.3733 134.086 72.3067 134.299 72.24C134.526 72.1733 134.686 72.06 134.779 71.9C134.872 71.74 134.926 71.5067 134.939 71.2C134.966 70.88 134.979 70.4467 134.979 69.9V62.5C134.979 61.9133 134.966 61.46 134.939 61.14C134.926 60.82 134.852 60.58 134.719 60.42C134.626 60.2733 134.472 60.1733 134.259 60.12C134.046 60.0533 133.732 60.0067 133.319 59.98V59.4H143.299L143.499 62.94H142.899L141.639 60.16H136.939V72.24H141.959ZM157.145 59.48C157.425 59.48 157.712 59.4733 158.005 59.46C158.312 59.4333 158.665 59.4133 159.065 59.4V59.96C158.652 60.0133 158.352 60.0733 158.165 60.14C157.992 60.1933 157.858 60.3133 157.765 60.5C157.685 60.66 157.638 60.9 157.625 61.22C157.612 61.54 157.605 61.9733 157.605 62.52V73H156.945L148.065 61.76L148.085 69.86C148.085 70.42 148.092 70.86 148.105 71.18C148.118 71.5 148.165 71.74 148.245 71.9C148.338 72.0733 148.498 72.1933 148.725 72.26C148.965 72.3133 149.432 72.3733 150.125 72.44V73C149.432 72.9733 148.905 72.9533 148.545 72.94C148.198 72.9267 147.878 72.92 147.585 72.92C147.292 72.92 146.978 72.9267 146.645 72.94C146.325 72.9533 145.965 72.9733 145.565 73V72.44C145.952 72.3733 146.238 72.3133 146.425 72.26C146.612 72.2067 146.745 72.1067 146.825 71.96C146.918 71.8 146.972 71.56 146.985 71.24C147.012 70.92 147.025 70.46 147.025 69.86V62.54C147.025 61.94 147.012 61.48 146.985 61.16C146.972 60.8267 146.918 60.5867 146.825 60.44C146.732 60.2933 146.585 60.1933 146.385 60.14C146.198 60.0733 145.925 60.0133 145.565 59.96V59.4H148.665L156.525 69.5V62.54C156.525 61.94 156.512 61.48 156.485 61.16C156.472 60.84 156.418 60.6 156.325 60.44C156.245 60.2933 156.085 60.1933 155.845 60.14C155.618 60.0733 155.172 60.0133 154.505 59.96V59.4C155.212 59.4133 155.752 59.4333 156.125 59.46C156.498 59.4733 156.838 59.48 157.145 59.48ZM160.284 63.64L160.624 59.4H171.804L172.144 63.64H171.524L170.124 60.22H162.304L160.904 63.64H160.284ZM165.224 59.78H167.184V70.32C167.184 70.72 167.19 71.0467 167.204 71.3C167.23 71.5533 167.277 71.7533 167.344 71.9C167.45 72.0733 167.61 72.1933 167.824 72.26C168.037 72.3133 168.35 72.3733 168.764 72.44V73C168.337 72.9733 167.997 72.96 167.744 72.96C167.49 72.9467 167.25 72.94 167.024 72.94C166.797 72.9267 166.517 72.92 166.184 72.92C165.864 72.92 165.59 72.9267 165.364 72.94C165.15 72.94 164.917 72.9467 164.664 72.96C164.41 72.96 164.077 72.9733 163.664 73V72.44C164.064 72.3733 164.37 72.3133 164.584 72.26C164.81 72.1933 164.964 72.0733 165.044 71.9C165.124 71.7667 165.17 71.5733 165.184 71.32C165.21 71.0667 165.224 70.7267 165.224 70.3V59.78ZM176.898 62.08V70.32C176.898 70.72 176.905 71.0467 176.918 71.3C176.931 71.5533 176.978 71.7533 177.058 71.9C177.151 72.0733 177.305 72.1933 177.518 72.26C177.731 72.3133 178.045 72.3733 178.458 72.44V73C178.045 72.9733 177.711 72.96 177.458 72.96C177.205 72.9467 176.965 72.94 176.738 72.94C176.525 72.9267 176.251 72.92 175.918 72.92C175.598 72.92 175.318 72.9267 175.078 72.94C174.851 72.94 174.611 72.9467 174.358 72.96C174.118 72.96 173.785 72.9733 173.358 73V72.44C173.771 72.3733 174.085 72.3133 174.298 72.26C174.511 72.1933 174.665 72.0733 174.758 71.9C174.838 71.7667 174.885 71.5733 174.898 71.32C174.925 71.0667 174.938 70.7267 174.938 70.3V62.1C174.938 61.6733 174.925 61.3333 174.898 61.08C174.885 60.8267 174.838 60.6333 174.758 60.5C174.665 60.3267 174.511 60.2067 174.298 60.14C174.085 60.0733 173.771 60.0133 173.358 59.96V59.4C173.785 59.4133 174.118 59.4267 174.358 59.44C174.611 59.4533 174.851 59.4667 175.078 59.48C175.318 59.48 175.598 59.48 175.918 59.48C176.251 59.48 176.525 59.48 176.738 59.48C176.965 59.4667 177.205 59.4533 177.458 59.44C177.711 59.4267 178.045 59.4133 178.458 59.4V59.96C178.045 60.0133 177.731 60.0733 177.518 60.14C177.305 60.1933 177.151 60.3133 177.058 60.5C176.978 60.6467 176.931 60.8467 176.918 61.1C176.905 61.34 176.898 61.6667 176.898 62.08ZM188.998 69H182.698V68.2H188.998V69ZM186.358 59.4L190.858 70.48C191.032 70.88 191.172 71.2 191.278 71.44C191.385 71.6667 191.492 71.8467 191.598 71.98C191.705 72.1 191.852 72.1933 192.038 72.26C192.225 72.3267 192.472 72.3867 192.778 72.44V73C192.445 72.9733 192.065 72.9533 191.638 72.94C191.212 72.9267 190.705 72.92 190.118 72.92C189.745 72.92 189.432 72.9267 189.178 72.94C188.925 72.94 188.685 72.9467 188.458 72.96C188.245 72.9733 188.005 72.9867 187.738 73V72.44C188.192 72.3467 188.532 72.26 188.758 72.18C188.985 72.1 189.098 71.9133 189.098 71.62C189.098 71.2733 188.932 70.6867 188.598 69.86L185.458 62.02L185.838 61.7L182.418 70.44C182.298 70.7333 182.212 70.98 182.158 71.18C182.105 71.38 182.078 71.5533 182.078 71.7C182.078 71.98 182.212 72.1533 182.478 72.22C182.758 72.2867 183.098 72.36 183.498 72.44V73C183.085 72.9733 182.712 72.9533 182.378 72.94C182.058 72.9267 181.692 72.92 181.278 72.92C180.998 72.92 180.698 72.9267 180.378 72.94C180.058 72.9533 179.725 72.9733 179.378 73V72.44C179.752 72.3733 180.038 72.2933 180.238 72.2C180.438 72.1067 180.598 71.9533 180.718 71.74C180.852 71.5133 181.012 71.18 181.198 70.74L185.798 59.4H186.358ZM197.25 62.1V72.24H201.59L202.93 69.04H203.55L203.27 73H193.71V72.44C194.11 72.3733 194.416 72.3067 194.63 72.24C194.843 72.1733 194.99 72.06 195.07 71.9C195.176 71.74 195.236 71.5067 195.25 71.2C195.276 70.88 195.29 70.4467 195.29 69.9V62.1C195.29 61.6733 195.276 61.3333 195.25 61.08C195.236 60.8267 195.19 60.6333 195.11 60.5C195.016 60.3267 194.863 60.2067 194.65 60.14C194.436 60.0733 194.123 60.0133 193.71 59.96V59.4C194.136 59.4133 194.47 59.4267 194.71 59.44C194.963 59.4533 195.203 59.4667 195.43 59.48C195.656 59.48 195.923 59.48 196.23 59.48C196.576 59.48 196.856 59.48 197.07 59.48C197.296 59.4667 197.536 59.4533 197.79 59.44C198.056 59.4267 198.396 59.4133 198.81 59.4V59.96C198.396 60.0133 198.083 60.0733 197.87 60.14C197.656 60.1933 197.503 60.3133 197.41 60.5C197.33 60.6467 197.283 60.8467 197.27 61.1C197.256 61.34 197.25 61.6733 197.25 62.1ZM226.665 59.48C226.932 59.48 227.225 59.4733 227.545 59.46C227.865 59.4333 228.232 59.4133 228.645 59.4V59.96C228.218 60.0267 227.898 60.1067 227.685 60.2C227.472 60.2933 227.298 60.4667 227.165 60.72C227.032 60.9733 226.858 61.3867 226.645 61.96L222.565 73H222.005L218.245 62.78H218.825L214.885 73H214.325L210.545 62.54C210.332 61.9667 210.158 61.52 210.025 61.2C209.892 60.88 209.752 60.64 209.605 60.48C209.472 60.32 209.305 60.2067 209.105 60.14C208.905 60.0733 208.632 60.0133 208.285 59.96V59.4C208.685 59.4133 209.098 59.4333 209.525 59.46C209.952 59.4733 210.438 59.48 210.985 59.48C211.452 59.48 211.825 59.48 212.105 59.48C212.385 59.4667 212.638 59.4533 212.865 59.44C213.092 59.4267 213.338 59.4133 213.605 59.4V59.96C213.218 60.0133 212.885 60.0867 212.605 60.18C212.325 60.2733 212.185 60.4733 212.185 60.78C212.185 60.9533 212.232 61.1867 212.325 61.48C212.432 61.7733 212.552 62.1267 212.685 62.54L215.565 70.74H214.765L218.745 60.24H219.405L223.165 70.72L222.445 70.74L225.525 61.96C225.632 61.68 225.712 61.44 225.765 61.24C225.832 61.04 225.865 60.8733 225.865 60.74C225.865 60.4333 225.725 60.24 225.445 60.16C225.178 60.08 224.872 60.0133 224.525 59.96V59.4C224.938 59.4133 225.298 59.4333 225.605 59.46C225.912 59.4733 226.265 59.48 226.665 59.48ZM235.524 73.2C234.524 73.2 233.624 73.0267 232.824 72.68C232.037 72.3333 231.357 71.86 230.784 71.26C230.224 70.6467 229.79 69.9267 229.484 69.1C229.19 68.2733 229.044 67.38 229.044 66.42C229.044 65.46 229.19 64.5467 229.484 63.68C229.79 62.8133 230.224 62.04 230.784 61.36C231.344 60.68 232.024 60.1467 232.824 59.76C233.624 59.36 234.524 59.16 235.524 59.16C236.564 59.16 237.484 59.34 238.284 59.7C239.097 60.06 239.777 60.56 240.324 61.2C240.884 61.8267 241.304 62.5533 241.584 63.38C241.864 64.2067 242.004 65.0733 242.004 65.98C242.004 66.9667 241.85 67.9 241.544 68.78C241.25 69.6467 240.824 70.4133 240.264 71.08C239.717 71.7467 239.037 72.2667 238.224 72.64C237.424 73.0133 236.524 73.2 235.524 73.2ZM235.584 72.44C236.477 72.44 237.244 72.1867 237.884 71.68C238.537 71.16 239.037 70.44 239.384 69.52C239.73 68.6 239.904 67.54 239.904 66.34C239.904 65.42 239.804 64.5733 239.604 63.8C239.404 63.0267 239.11 62.3533 238.724 61.78C238.35 61.1933 237.89 60.74 237.344 60.42C236.797 60.0867 236.184 59.92 235.504 59.92C234.61 59.92 233.837 60.1667 233.184 60.66C232.53 61.1533 232.024 61.8467 231.664 62.74C231.317 63.6333 231.144 64.6933 231.144 65.92C231.144 66.8267 231.244 67.68 231.444 68.48C231.644 69.2667 231.937 69.9533 232.324 70.54C232.71 71.1267 233.177 71.5933 233.724 71.94C234.27 72.2733 234.89 72.44 235.584 72.44ZM260.651 72.44V73C260.171 72.9733 259.791 72.96 259.511 72.96C259.244 72.9467 259.018 72.94 258.831 72.94C258.644 72.9267 258.418 72.92 258.151 72.92C257.911 72.92 257.684 72.9267 257.471 72.94C257.258 72.94 257.018 72.9467 256.751 72.96C256.498 72.96 256.171 72.9733 255.771 73V72.44C256.304 72.36 256.678 72.2533 256.891 72.12C257.104 71.9867 257.224 71.7667 257.251 71.46C257.291 71.14 257.284 70.66 257.231 70.02L256.551 61.38L257.071 60.86L251.911 72.28H251.231L246.411 61.42L246.871 61.36L246.031 70.84C245.991 71.2533 245.991 71.56 246.031 71.76C246.071 71.96 246.204 72.1067 246.431 72.2C246.671 72.28 247.064 72.36 247.611 72.44V73C247.291 72.9867 247.024 72.9733 246.811 72.96C246.598 72.9467 246.398 72.94 246.211 72.94C246.024 72.9267 245.798 72.92 245.531 72.92C245.238 72.92 244.931 72.9267 244.611 72.94C244.291 72.9533 243.931 72.9733 243.531 73V72.44C243.918 72.3733 244.198 72.3067 244.371 72.24C244.544 72.1733 244.671 72.0667 244.751 71.92C244.844 71.76 244.904 71.5267 244.931 71.22C244.958 70.9133 244.998 70.46 245.051 69.86L245.731 62.54C245.798 61.94 245.824 61.48 245.811 61.16C245.798 60.8267 245.738 60.5867 245.631 60.44C245.524 60.2933 245.358 60.1933 245.131 60.14C244.918 60.0733 244.631 60.0133 244.271 59.96V59.4H247.691L252.351 69.78L251.991 69.82L256.591 59.4H259.971V59.96C259.451 60.0133 259.078 60.1067 258.851 60.24C258.638 60.36 258.511 60.58 258.471 60.9C258.444 61.22 258.458 61.7133 258.511 62.38L259.171 69.88C259.238 70.6 259.304 71.1333 259.371 71.48C259.438 71.8267 259.564 72.06 259.751 72.18C259.938 72.2867 260.238 72.3733 260.651 72.44ZM264.549 66.34V65.54H267.309C267.789 65.54 268.162 65.5133 268.429 65.46C268.695 65.3933 268.895 65.2933 269.029 65.16C269.175 65.0267 269.282 64.84 269.349 64.6C269.429 64.3467 269.515 64.0333 269.609 63.66H270.189V68.22H269.609C269.515 67.86 269.429 67.56 269.349 67.32C269.282 67.0667 269.175 66.8667 269.029 66.72C268.895 66.5733 268.695 66.4733 268.429 66.42C268.162 66.3667 267.789 66.34 267.309 66.34H264.549ZM270.729 72.24L272.189 69.12H272.789L272.389 73H262.089V72.44C262.529 72.3733 262.855 72.3067 263.069 72.24C263.295 72.1733 263.455 72.06 263.549 71.9C263.642 71.74 263.695 71.5067 263.709 71.2C263.735 70.88 263.749 70.4467 263.749 69.9V62.5C263.749 61.9133 263.735 61.46 263.709 61.14C263.695 60.82 263.622 60.58 263.489 60.42C263.395 60.2733 263.242 60.1733 263.029 60.12C262.815 60.0533 262.502 60.0067 262.089 59.98V59.4H272.069L272.269 62.94H271.669L270.409 60.16H265.709V72.24H270.729ZM285.915 59.48C286.195 59.48 286.481 59.4733 286.775 59.46C287.081 59.4333 287.435 59.4133 287.835 59.4V59.96C287.421 60.0133 287.121 60.0733 286.935 60.14C286.761 60.1933 286.628 60.3133 286.535 60.5C286.455 60.66 286.408 60.9 286.395 61.22C286.381 61.54 286.375 61.9733 286.375 62.52V73H285.715L276.835 61.76L276.855 69.86C276.855 70.42 276.861 70.86 276.875 71.18C276.888 71.5 276.935 71.74 277.015 71.9C277.108 72.0733 277.268 72.1933 277.495 72.26C277.735 72.3133 278.201 72.3733 278.895 72.44V73C278.201 72.9733 277.675 72.9533 277.315 72.94C276.968 72.9267 276.648 72.92 276.355 72.92C276.061 72.92 275.748 72.9267 275.415 72.94C275.095 72.9533 274.735 72.9733 274.335 73V72.44C274.721 72.3733 275.008 72.3133 275.195 72.26C275.381 72.2067 275.515 72.1067 275.595 71.96C275.688 71.8 275.741 71.56 275.755 71.24C275.781 70.92 275.795 70.46 275.795 69.86V62.54C275.795 61.94 275.781 61.48 275.755 61.16C275.741 60.8267 275.688 60.5867 275.595 60.44C275.501 60.2933 275.355 60.1933 275.155 60.14C274.968 60.0733 274.695 60.0133 274.335 59.96V59.4H277.435L285.295 69.5V62.54C285.295 61.94 285.281 61.48 285.255 61.16C285.241 60.84 285.188 60.6 285.095 60.44C285.015 60.2933 284.855 60.1933 284.615 60.14C284.388 60.0733 283.941 60.0133 283.275 59.96V59.4C283.981 59.4133 284.521 59.4333 284.895 59.46C285.268 59.4733 285.608 59.48 285.915 59.48ZM297.054 62.08V70.32C297.054 70.72 297.061 71.0467 297.074 71.3C297.088 71.5533 297.134 71.7533 297.214 71.9C297.308 72.0733 297.461 72.1933 297.674 72.26C297.888 72.3133 298.201 72.3733 298.614 72.44V73C298.201 72.9733 297.868 72.96 297.614 72.96C297.361 72.9467 297.121 72.94 296.894 72.94C296.681 72.9267 296.408 72.92 296.074 72.92C295.754 72.92 295.474 72.9267 295.234 72.94C295.008 72.94 294.768 72.9467 294.514 72.96C294.274 72.96 293.941 72.9733 293.514 73V72.44C293.928 72.3733 294.241 72.3133 294.454 72.26C294.668 72.1933 294.821 72.0733 294.914 71.9C294.994 71.7667 295.041 71.5733 295.054 71.32C295.081 71.0667 295.094 70.7267 295.094 70.3V62.1C295.094 61.6733 295.081 61.3333 295.054 61.08C295.041 60.8267 294.994 60.6333 294.914 60.5C294.821 60.3267 294.668 60.2067 294.454 60.14C294.241 60.0733 293.928 60.0133 293.514 59.96V59.4C293.941 59.4133 294.274 59.4267 294.514 59.44C294.768 59.4533 295.008 59.4667 295.234 59.48C295.474 59.48 295.754 59.48 296.074 59.48C296.408 59.48 296.681 59.48 296.894 59.48C297.121 59.4667 297.361 59.4533 297.614 59.44C297.868 59.4267 298.201 59.4133 298.614 59.4V59.96C298.201 60.0133 297.888 60.0733 297.674 60.14C297.461 60.1933 297.308 60.3133 297.214 60.5C297.134 60.6467 297.088 60.8467 297.074 61.1C297.061 61.34 297.054 61.6667 297.054 62.08ZM311.755 59.48C312.035 59.48 312.321 59.4733 312.615 59.46C312.921 59.4333 313.275 59.4133 313.675 59.4V59.96C313.261 60.0133 312.961 60.0733 312.775 60.14C312.601 60.1933 312.468 60.3133 312.375 60.5C312.295 60.66 312.248 60.9 312.235 61.22C312.221 61.54 312.215 61.9733 312.215 62.52V73H311.555L302.675 61.76L302.695 69.86C302.695 70.42 302.701 70.86 302.715 71.18C302.728 71.5 302.775 71.74 302.855 71.9C302.948 72.0733 303.108 72.1933 303.335 72.26C303.575 72.3133 304.041 72.3733 304.735 72.44V73C304.041 72.9733 303.515 72.9533 303.155 72.94C302.808 72.9267 302.488 72.92 302.195 72.92C301.901 72.92 301.588 72.9267 301.255 72.94C300.935 72.9533 300.575 72.9733 300.175 73V72.44C300.561 72.3733 300.848 72.3133 301.035 72.26C301.221 72.2067 301.355 72.1067 301.435 71.96C301.528 71.8 301.581 71.56 301.595 71.24C301.621 70.92 301.635 70.46 301.635 69.86V62.54C301.635 61.94 301.621 61.48 301.595 61.16C301.581 60.8267 301.528 60.5867 301.435 60.44C301.341 60.2933 301.195 60.1933 300.995 60.14C300.808 60.0733 300.535 60.0133 300.175 59.96V59.4H303.275L311.135 69.5V62.54C311.135 61.94 311.121 61.48 311.095 61.16C311.081 60.84 311.028 60.6 310.935 60.44C310.855 60.2933 310.695 60.1933 310.455 60.14C310.228 60.0733 309.781 60.0133 309.115 59.96V59.4C309.821 59.4133 310.361 59.4333 310.735 59.46C311.108 59.4733 311.448 59.48 311.755 59.48ZM319.474 62.74L318.954 62.4C319.381 61.6267 319.934 61 320.614 60.52C321.308 60.04 322.101 59.8 322.994 59.8C323.754 59.8 324.421 59.9467 324.994 60.24C325.581 60.5333 326.041 60.9467 326.374 61.48C326.708 62.0133 326.874 62.6333 326.874 63.34C326.874 63.9133 326.768 64.4467 326.554 64.94C326.341 65.4333 326.061 65.9067 325.714 66.36C325.381 66.8 325.014 67.22 324.614 67.62C324.214 68.02 323.821 68.4067 323.434 68.78L319.974 72.18L320.354 71.3H326.174L326.814 69.74H327.314L327.034 73H318.914V72.52L322.194 68.78C322.848 68.0467 323.368 67.4067 323.754 66.86C324.154 66.3 324.441 65.78 324.614 65.3C324.801 64.8067 324.894 64.3067 324.894 63.8C324.894 62.9067 324.654 62.2333 324.174 61.78C323.708 61.3133 323.108 61.08 322.374 61.08C321.721 61.08 321.154 61.24 320.674 61.56C320.194 61.8667 319.794 62.26 319.474 62.74ZM334.299 73.2C333.339 73.2 332.493 72.9067 331.759 72.32C331.039 71.72 330.479 70.92 330.079 69.92C329.693 68.92 329.499 67.8133 329.499 66.6C329.499 65.76 329.606 64.9333 329.819 64.12C330.033 63.3067 330.353 62.58 330.779 61.94C331.206 61.2867 331.739 60.7667 332.379 60.38C333.019 59.9933 333.759 59.8 334.599 59.8C335.586 59.8 336.439 60.08 337.159 60.64C337.893 61.2 338.453 61.9667 338.839 62.94C339.239 63.9 339.439 65 339.439 66.24C339.439 67.1467 339.319 68.02 339.079 68.86C338.853 69.6867 338.513 70.4267 338.059 71.08C337.606 71.7333 337.059 72.2533 336.419 72.64C335.793 73.0133 335.086 73.2 334.299 73.2ZM334.479 72.46C335.079 72.46 335.599 72.22 336.039 71.74C336.479 71.26 336.819 70.58 337.059 69.7C337.313 68.82 337.439 67.7933 337.439 66.62C337.439 65.4067 337.319 64.3467 337.079 63.44C336.853 62.52 336.506 61.8067 336.039 61.3C335.586 60.7933 335.039 60.54 334.399 60.54C333.493 60.54 332.779 61.02 332.259 61.98C331.753 62.9267 331.499 64.28 331.499 66.04C331.499 67.2667 331.613 68.3667 331.839 69.34C332.066 70.3133 332.399 71.08 332.839 71.64C333.279 72.1867 333.826 72.46 334.479 72.46ZM341.505 62.74L340.985 62.4C341.412 61.6267 341.965 61 342.645 60.52C343.339 60.04 344.132 59.8 345.025 59.8C345.785 59.8 346.452 59.9467 347.025 60.24C347.612 60.5333 348.072 60.9467 348.405 61.48C348.739 62.0133 348.905 62.6333 348.905 63.34C348.905 63.9133 348.799 64.4467 348.585 64.94C348.372 65.4333 348.092 65.9067 347.745 66.36C347.412 66.8 347.045 67.22 346.645 67.62C346.245 68.02 345.852 68.4067 345.465 68.78L342.005 72.18L342.385 71.3H348.205L348.845 69.74H349.345L349.065 73H340.945V72.52L344.225 68.78C344.879 68.0467 345.399 67.4067 345.785 66.86C346.185 66.3 346.472 65.78 346.645 65.3C346.832 64.8067 346.925 64.3067 346.925 63.8C346.925 62.9067 346.685 62.2333 346.205 61.78C345.739 61.3133 345.139 61.08 344.405 61.08C343.752 61.08 343.185 61.24 342.705 61.56C342.225 61.8667 341.825 62.26 341.505 62.74ZM359.511 60.54L355.171 66L355.031 65.66C355.177 65.6333 355.337 65.6133 355.511 65.6C355.684 65.5733 355.871 65.56 356.071 65.56C356.751 65.56 357.377 65.6867 357.951 65.94C358.524 66.18 358.977 66.5467 359.311 67.04C359.657 67.52 359.831 68.1333 359.831 68.88C359.831 69.56 359.684 70.1667 359.391 70.7C359.097 71.2333 358.697 71.6867 358.191 72.06C357.684 72.4333 357.104 72.72 356.451 72.92C355.797 73.1067 355.104 73.2 354.371 73.2C353.664 73.2 353.064 73.1333 352.571 73C352.077 72.8533 351.624 72.68 351.211 72.48L351.871 69.66H352.371L353.191 72.78L352.311 71.88C352.671 72.0933 353.031 72.2467 353.391 72.34C353.751 72.42 354.157 72.46 354.611 72.46C355.224 72.46 355.777 72.3467 356.271 72.12C356.764 71.88 357.157 71.5267 357.451 71.06C357.744 70.58 357.891 70 357.891 69.32C357.891 68.6667 357.757 68.14 357.491 67.74C357.224 67.3267 356.877 67.0267 356.451 66.84C356.024 66.6533 355.564 66.56 355.071 66.56C354.884 66.56 354.711 66.5667 354.551 66.58C354.404 66.5933 354.277 66.62 354.171 66.66L353.911 66.28L358.031 61.04L358.171 61.58H352.751L352.131 63.08H351.631L351.811 60H359.491L359.511 60.54Z" fill="#7D97C2"/>
</svg>
