<svg width="550" height="113" viewBox="0 0 550 113" fill="none" xmlns="http://www.w3.org/2000/svg">
<path d="M46.7974 59.64L47.1374 55.4H58.3174L58.6574 59.64H58.0374L56.6374 56.22H48.8174L47.4174 59.64H46.7974ZM51.7374 55.78H53.6974V66.32C53.6974 66.72 53.7041 67.0467 53.7174 67.3C53.7441 67.5533 53.7908 67.7533 53.8574 67.9C53.9641 68.0733 54.1241 68.1933 54.3374 68.26C54.5508 68.3133 54.8641 68.3733 55.2774 68.44V69C54.8508 68.9733 54.5108 68.96 54.2574 68.96C54.0041 68.9467 53.7641 68.94 53.5374 68.94C53.3108 68.9267 53.0308 68.92 52.6974 68.92C52.3774 68.92 52.1041 68.9267 51.8774 68.94C51.6641 68.94 51.4308 68.9467 51.1774 68.96C50.9241 68.96 50.5908 68.9733 50.1774 69V68.44C50.5774 68.3733 50.8841 68.3133 51.0974 68.26C51.3241 68.1933 51.4774 68.0733 51.5574 67.9C51.6374 67.7667 51.6841 67.5733 51.6974 67.32C51.7241 67.0667 51.7374 66.7267 51.7374 66.3V55.78ZM63.4118 58.08V66.32C63.4118 66.72 63.4185 67.0467 63.4318 67.3C63.4451 67.5533 63.4918 67.7533 63.5718 67.9C63.6651 68.0733 63.8185 68.1933 64.0318 68.26C64.2451 68.3133 64.5585 68.3733 64.9718 68.44V69C64.5585 68.9733 64.2251 68.96 63.9718 68.96C63.7185 68.9467 63.4785 68.94 63.2518 68.94C63.0385 68.9267 62.7651 68.92 62.4318 68.92C62.1118 68.92 61.8318 68.9267 61.5918 68.94C61.3651 68.94 61.1251 68.9467 60.8718 68.96C60.6318 68.96 60.2985 68.9733 59.8718 69V68.44C60.2851 68.3733 60.5985 68.3133 60.8118 68.26C61.0251 68.1933 61.1785 68.0733 61.2718 67.9C61.3518 67.7667 61.3985 67.5733 61.4118 67.32C61.4385 67.0667 61.4518 66.7267 61.4518 66.3V58.1C61.4518 57.6733 61.4385 57.3333 61.4118 57.08C61.3985 56.8267 61.3518 56.6333 61.2718 56.5C61.1785 56.3267 61.0251 56.2067 60.8118 56.14C60.5985 56.0733 60.2851 56.0133 59.8718 55.96V55.4C60.2985 55.4133 60.6318 55.4267 60.8718 55.44C61.1251 55.4533 61.3651 55.4667 61.5918 55.48C61.8318 55.48 62.1118 55.48 62.4318 55.48C62.7651 55.48 63.0385 55.48 63.2518 55.48C63.4785 55.4667 63.7185 55.4533 63.9718 55.44C64.2251 55.4267 64.5585 55.4133 64.9718 55.4V55.96C64.5585 56.0133 64.2451 56.0733 64.0318 56.14C63.8185 56.1933 63.6651 56.3133 63.5718 56.5C63.4918 56.6467 63.4451 56.8467 63.4318 57.1C63.4185 57.34 63.4118 57.6667 63.4118 58.08ZM66.192 59.64L66.532 55.4H77.712L78.052 59.64H77.432L76.032 56.22H68.212L66.812 59.64H66.192ZM71.132 55.78H73.092V66.32C73.092 66.72 73.0986 67.0467 73.112 67.3C73.1386 67.5533 73.1853 67.7533 73.252 67.9C73.3586 68.0733 73.5186 68.1933 73.732 68.26C73.9453 68.3133 74.2586 68.3733 74.672 68.44V69C74.2453 68.9733 73.9053 68.96 73.652 68.96C73.3986 68.9467 73.1586 68.94 72.932 68.94C72.7053 68.9267 72.4253 68.92 72.092 68.92C71.772 68.92 71.4986 68.9267 71.272 68.94C71.0586 68.94 70.8253 68.9467 70.572 68.96C70.3186 68.96 69.9853 68.9733 69.572 69V68.44C69.972 68.3733 70.2786 68.3133 70.492 68.26C70.7186 68.1933 70.872 68.0733 70.952 67.9C71.032 67.7667 71.0786 67.5733 71.092 67.32C71.1186 67.0667 71.132 66.7267 71.132 66.3V55.78ZM87.2112 65H80.9112V64.2H87.2112V65ZM84.5712 55.4L89.0712 66.48C89.2445 66.88 89.3845 67.2 89.4912 67.44C89.5978 67.6667 89.7045 67.8467 89.8112 67.98C89.9178 68.1 90.0645 68.1933 90.2512 68.26C90.4378 68.3267 90.6845 68.3867 90.9912 68.44V69C90.6578 68.9733 90.2778 68.9533 89.8512 68.94C89.4245 68.9267 88.9178 68.92 88.3312 68.92C87.9578 68.92 87.6445 68.9267 87.3912 68.94C87.1378 68.94 86.8978 68.9467 86.6712 68.96C86.4578 68.9733 86.2178 68.9867 85.9512 69V68.44C86.4045 68.3467 86.7445 68.26 86.9712 68.18C87.1978 68.1 87.3112 67.9133 87.3112 67.62C87.3112 67.2733 87.1445 66.6867 86.8112 65.86L83.6712 58.02L84.0512 57.7L80.6312 66.44C80.5112 66.7333 80.4245 66.98 80.3712 67.18C80.3178 67.38 80.2912 67.5533 80.2912 67.7C80.2912 67.98 80.4245 68.1533 80.6912 68.22C80.9712 68.2867 81.3112 68.36 81.7112 68.44V69C81.2978 68.9733 80.9245 68.9533 80.5912 68.94C80.2712 68.9267 79.9045 68.92 79.4912 68.92C79.2112 68.92 78.9112 68.9267 78.5912 68.94C78.2712 68.9533 77.9378 68.9733 77.5912 69V68.44C77.9645 68.3733 78.2512 68.2933 78.4512 68.2C78.6512 68.1067 78.8112 67.9533 78.9312 67.74C79.0645 67.5133 79.2245 67.18 79.4112 66.74L84.0112 55.4H84.5712ZM103.503 55.48C103.783 55.48 104.069 55.4733 104.363 55.46C104.669 55.4333 105.023 55.4133 105.423 55.4V55.96C105.009 56.0133 104.709 56.0733 104.523 56.14C104.349 56.1933 104.216 56.3133 104.123 56.5C104.043 56.66 103.996 56.9 103.983 57.22C103.969 57.54 103.963 57.9733 103.963 58.52V69H103.303L94.4226 57.76L94.4426 65.86C94.4426 66.42 94.4492 66.86 94.4626 67.18C94.4759 67.5 94.5226 67.74 94.6026 67.9C94.6959 68.0733 94.8559 68.1933 95.0826 68.26C95.3226 68.3133 95.7892 68.3733 96.4826 68.44V69C95.7892 68.9733 95.2626 68.9533 94.9026 68.94C94.5559 68.9267 94.2359 68.92 93.9426 68.92C93.6492 68.92 93.3359 68.9267 93.0026 68.94C92.6826 68.9533 92.3226 68.9733 91.9226 69V68.44C92.3092 68.3733 92.5959 68.3133 92.7826 68.26C92.9692 68.2067 93.1026 68.1067 93.1826 67.96C93.2759 67.8 93.3292 67.56 93.3426 67.24C93.3692 66.92 93.3826 66.46 93.3826 65.86V58.54C93.3826 57.94 93.3692 57.48 93.3426 57.16C93.3292 56.8267 93.2759 56.5867 93.1826 56.44C93.0892 56.2933 92.9426 56.1933 92.7426 56.14C92.5559 56.0733 92.2826 56.0133 91.9226 55.96V55.4H95.0226L102.883 65.5V58.54C102.883 57.94 102.869 57.48 102.843 57.16C102.829 56.84 102.776 56.6 102.683 56.44C102.603 56.2933 102.443 56.1933 102.203 56.14C101.976 56.0733 101.529 56.0133 100.863 55.96V55.4C101.569 55.4133 102.109 55.4333 102.483 55.46C102.856 55.4733 103.196 55.48 103.503 55.48ZM110.521 58.08V66.32C110.521 66.72 110.528 67.0467 110.541 67.3C110.555 67.5533 110.601 67.7533 110.681 67.9C110.775 68.0733 110.928 68.1933 111.141 68.26C111.355 68.3133 111.668 68.3733 112.081 68.44V69C111.668 68.9733 111.335 68.96 111.081 68.96C110.828 68.9467 110.588 68.94 110.361 68.94C110.148 68.9267 109.875 68.92 109.541 68.92C109.221 68.92 108.941 68.9267 108.701 68.94C108.475 68.94 108.235 68.9467 107.981 68.96C107.741 68.96 107.408 68.9733 106.981 69V68.44C107.395 68.3733 107.708 68.3133 107.921 68.26C108.135 68.1933 108.288 68.0733 108.381 67.9C108.461 67.7667 108.508 67.5733 108.521 67.32C108.548 67.0667 108.561 66.7267 108.561 66.3V58.1C108.561 57.6733 108.548 57.3333 108.521 57.08C108.508 56.8267 108.461 56.6333 108.381 56.5C108.288 56.3267 108.135 56.2067 107.921 56.14C107.708 56.0733 107.395 56.0133 106.981 55.96V55.4C107.408 55.4133 107.741 55.4267 107.981 55.44C108.235 55.4533 108.475 55.4667 108.701 55.48C108.941 55.48 109.221 55.48 109.541 55.48C109.875 55.48 110.148 55.48 110.361 55.48C110.588 55.4667 110.828 55.4533 111.081 55.44C111.335 55.4267 111.668 55.4133 112.081 55.4V55.96C111.668 56.0133 111.355 56.0733 111.141 56.14C110.928 56.1933 110.775 56.3133 110.681 56.5C110.601 56.6467 110.555 56.8467 110.541 57.1C110.528 57.34 110.521 57.6667 110.521 58.08ZM124.901 58.24V63.12C124.901 65.12 124.508 66.6333 123.721 67.66C122.935 68.6867 121.648 69.2 119.861 69.2C118.581 69.2 117.561 68.96 116.801 68.48C116.041 68 115.495 67.3067 115.161 66.4C114.841 65.4933 114.681 64.3933 114.681 63.1V58.1C114.681 57.6733 114.668 57.3333 114.641 57.08C114.628 56.8267 114.581 56.6333 114.501 56.5C114.421 56.3267 114.275 56.2067 114.061 56.14C113.848 56.0733 113.541 56.0133 113.141 55.96V55.4C113.555 55.4133 113.881 55.4267 114.121 55.44C114.375 55.4533 114.608 55.4667 114.821 55.48C115.048 55.48 115.321 55.48 115.641 55.48C115.975 55.48 116.248 55.48 116.461 55.48C116.688 55.4667 116.928 55.4533 117.181 55.44C117.435 55.4267 117.775 55.4133 118.201 55.4V55.96C117.788 56.0133 117.475 56.0733 117.261 56.14C117.061 56.1933 116.908 56.3133 116.801 56.5C116.735 56.6467 116.688 56.8467 116.661 57.1C116.648 57.34 116.641 57.6733 116.641 58.1V62.8C116.641 63.9067 116.755 64.86 116.981 65.66C117.221 66.46 117.601 67.0733 118.121 67.5C118.655 67.9133 119.368 68.12 120.261 68.12C121.461 68.12 122.348 67.7533 122.921 67.02C123.508 66.2733 123.801 65.1067 123.801 63.52V58.24C123.801 57.7867 123.788 57.4267 123.761 57.16C123.748 56.8933 123.708 56.68 123.641 56.52C123.548 56.3333 123.395 56.2067 123.181 56.14C122.968 56.0733 122.668 56.0133 122.281 55.96V55.4C122.615 55.4133 122.888 55.4267 123.101 55.44C123.315 55.4533 123.521 55.4667 123.721 55.48C123.921 55.48 124.161 55.48 124.441 55.48C124.708 55.48 124.921 55.48 125.081 55.48C125.255 55.4667 125.435 55.4533 125.621 55.44C125.821 55.4267 126.088 55.4133 126.421 55.4V55.96C126.048 56.0267 125.761 56.0867 125.561 56.14C125.361 56.1933 125.215 56.3 125.121 56.46C125.028 56.6067 124.968 56.82 124.941 57.1C124.915 57.3667 124.901 57.7467 124.901 58.24ZM144.489 68.44V69C144.009 68.9733 143.629 68.96 143.349 68.96C143.082 68.9467 142.856 68.94 142.669 68.94C142.482 68.9267 142.256 68.92 141.989 68.92C141.749 68.92 141.522 68.9267 141.309 68.94C141.096 68.94 140.856 68.9467 140.589 68.96C140.336 68.96 140.009 68.9733 139.609 69V68.44C140.142 68.36 140.516 68.2533 140.729 68.12C140.942 67.9867 141.062 67.7667 141.089 67.46C141.129 67.14 141.122 66.66 141.069 66.02L140.389 57.38L140.909 56.86L135.749 68.28H135.069L130.249 57.42L130.709 57.36L129.869 66.84C129.829 67.2533 129.829 67.56 129.869 67.76C129.909 67.96 130.042 68.1067 130.269 68.2C130.509 68.28 130.902 68.36 131.449 68.44V69C131.129 68.9867 130.862 68.9733 130.649 68.96C130.436 68.9467 130.236 68.94 130.049 68.94C129.862 68.9267 129.636 68.92 129.369 68.92C129.076 68.92 128.769 68.9267 128.449 68.94C128.129 68.9533 127.769 68.9733 127.369 69V68.44C127.756 68.3733 128.036 68.3067 128.209 68.24C128.382 68.1733 128.509 68.0667 128.589 67.92C128.682 67.76 128.742 67.5267 128.769 67.22C128.796 66.9133 128.836 66.46 128.889 65.86L129.569 58.54C129.636 57.94 129.662 57.48 129.649 57.16C129.636 56.8267 129.576 56.5867 129.469 56.44C129.362 56.2933 129.196 56.1933 128.969 56.14C128.756 56.0733 128.469 56.0133 128.109 55.96V55.4H131.529L136.189 65.78L135.829 65.82L140.429 55.4H143.809V55.96C143.289 56.0133 142.916 56.1067 142.689 56.24C142.476 56.36 142.349 56.58 142.309 56.9C142.282 57.22 142.296 57.7133 142.349 58.38L143.009 65.88C143.076 66.6 143.142 67.1333 143.209 67.48C143.276 67.8267 143.402 68.06 143.589 68.18C143.776 68.2867 144.076 68.3733 144.489 68.44ZM167.048 68.44V69C166.568 68.9733 166.188 68.96 165.908 68.96C165.641 68.9467 165.414 68.94 165.228 68.94C165.041 68.9267 164.814 68.92 164.548 68.92C164.308 68.92 164.081 68.9267 163.868 68.94C163.654 68.94 163.414 68.9467 163.148 68.96C162.894 68.96 162.568 68.9733 162.168 69V68.44C162.701 68.36 163.074 68.2533 163.288 68.12C163.501 67.9867 163.621 67.7667 163.648 67.46C163.688 67.14 163.681 66.66 163.628 66.02L162.948 57.38L163.468 56.86L158.308 68.28H157.628L152.808 57.42L153.268 57.36L152.428 66.84C152.388 67.2533 152.388 67.56 152.428 67.76C152.468 67.96 152.601 68.1067 152.828 68.2C153.068 68.28 153.461 68.36 154.008 68.44V69C153.688 68.9867 153.421 68.9733 153.208 68.96C152.994 68.9467 152.794 68.94 152.608 68.94C152.421 68.9267 152.194 68.92 151.928 68.92C151.634 68.92 151.328 68.9267 151.008 68.94C150.688 68.9533 150.328 68.9733 149.928 69V68.44C150.314 68.3733 150.594 68.3067 150.768 68.24C150.941 68.1733 151.068 68.0667 151.148 67.92C151.241 67.76 151.301 67.5267 151.328 67.22C151.354 66.9133 151.394 66.46 151.448 65.86L152.128 58.54C152.194 57.94 152.221 57.48 152.208 57.16C152.194 56.8267 152.134 56.5867 152.028 56.44C151.921 56.2933 151.754 56.1933 151.528 56.14C151.314 56.0733 151.028 56.0133 150.668 55.96V55.4H154.088L158.748 65.78L158.388 65.82L162.988 55.4H166.368V55.96C165.848 56.0133 165.474 56.1067 165.248 56.24C165.034 56.36 164.908 56.58 164.868 56.9C164.841 57.22 164.854 57.7133 164.908 58.38L165.568 65.88C165.634 66.6 165.701 67.1333 165.768 67.48C165.834 67.8267 165.961 68.06 166.148 68.18C166.334 68.2867 166.634 68.3733 167.048 68.44ZM177.465 65H171.165V64.2H177.465V65ZM174.825 55.4L179.325 66.48C179.498 66.88 179.638 67.2 179.745 67.44C179.852 67.6667 179.958 67.8467 180.065 67.98C180.172 68.1 180.318 68.1933 180.505 68.26C180.692 68.3267 180.938 68.3867 181.245 68.44V69C180.912 68.9733 180.532 68.9533 180.105 68.94C179.678 68.9267 179.172 68.92 178.585 68.92C178.212 68.92 177.898 68.9267 177.645 68.94C177.392 68.94 177.152 68.9467 176.925 68.96C176.712 68.9733 176.472 68.9867 176.205 69V68.44C176.658 68.3467 176.998 68.26 177.225 68.18C177.452 68.1 177.565 67.9133 177.565 67.62C177.565 67.2733 177.398 66.6867 177.065 65.86L173.925 58.02L174.305 57.7L170.885 66.44C170.765 66.7333 170.678 66.98 170.625 67.18C170.572 67.38 170.545 67.5533 170.545 67.7C170.545 67.98 170.678 68.1533 170.945 68.22C171.225 68.2867 171.565 68.36 171.965 68.44V69C171.552 68.9733 171.178 68.9533 170.845 68.94C170.525 68.9267 170.158 68.92 169.745 68.92C169.465 68.92 169.165 68.9267 168.845 68.94C168.525 68.9533 168.192 68.9733 167.845 69V68.44C168.218 68.3733 168.505 68.2933 168.705 68.2C168.905 68.1067 169.065 67.9533 169.185 67.74C169.318 67.5133 169.478 67.18 169.665 66.74L174.265 55.4H174.825ZM189.921 63.24V62.66H195.021V63.2C194.781 63.24 194.561 63.2933 194.361 63.36C194.174 63.4133 194.027 63.5267 193.921 63.7C193.827 63.86 193.781 64.1333 193.781 64.52V68.42C192.954 68.6467 192.167 68.8333 191.421 68.98C190.674 69.1267 189.894 69.2 189.081 69.2C187.654 69.2 186.414 68.9267 185.361 68.38C184.307 67.8333 183.494 67.0533 182.921 66.04C182.361 65.0267 182.081 63.82 182.081 62.42C182.081 61.02 182.387 59.7733 183.001 58.68C183.614 57.5867 184.487 56.7267 185.621 56.1C186.767 55.4733 188.114 55.16 189.661 55.16C190.287 55.16 190.954 55.22 191.661 55.34C192.367 55.46 193.087 55.66 193.821 55.94L193.081 59.48H192.481L191.701 55.92L192.521 56.66C192.054 56.4333 191.587 56.26 191.121 56.14C190.667 56.02 190.141 55.96 189.541 55.96C188.687 55.96 187.927 56.1333 187.261 56.48C186.607 56.8133 186.047 57.2733 185.581 57.86C185.127 58.4333 184.774 59.0867 184.521 59.82C184.281 60.5533 184.161 61.32 184.161 62.12C184.161 63.4 184.361 64.5133 184.761 65.46C185.174 66.3933 185.774 67.12 186.561 67.64C187.361 68.1467 188.327 68.4 189.461 68.4C189.954 68.4 190.381 68.3533 190.741 68.26C191.114 68.1533 191.407 67.96 191.621 67.68C191.834 67.4 191.941 67 191.941 66.48V64.72C191.941 64.2667 191.861 63.9467 191.701 63.76C191.554 63.56 191.334 63.4333 191.041 63.38C190.747 63.3133 190.374 63.2667 189.921 63.24ZM205.395 65H199.095V64.2H205.395V65ZM202.755 55.4L207.255 66.48C207.428 66.88 207.568 67.2 207.675 67.44C207.781 67.6667 207.888 67.8467 207.995 67.98C208.101 68.1 208.248 68.1933 208.435 68.26C208.621 68.3267 208.868 68.3867 209.175 68.44V69C208.841 68.9733 208.461 68.9533 208.035 68.94C207.608 68.9267 207.101 68.92 206.515 68.92C206.141 68.92 205.828 68.9267 205.575 68.94C205.321 68.94 205.081 68.9467 204.855 68.96C204.641 68.9733 204.401 68.9867 204.135 69V68.44C204.588 68.3467 204.928 68.26 205.155 68.18C205.381 68.1 205.495 67.9133 205.495 67.62C205.495 67.2733 205.328 66.6867 204.995 65.86L201.855 58.02L202.235 57.7L198.815 66.44C198.695 66.7333 198.608 66.98 198.555 67.18C198.501 67.38 198.475 67.5533 198.475 67.7C198.475 67.98 198.608 68.1533 198.875 68.22C199.155 68.2867 199.495 68.36 199.895 68.44V69C199.481 68.9733 199.108 68.9533 198.775 68.94C198.455 68.9267 198.088 68.92 197.675 68.92C197.395 68.92 197.095 68.9267 196.775 68.94C196.455 68.9533 196.121 68.9733 195.775 69V68.44C196.148 68.3733 196.435 68.2933 196.635 68.2C196.835 68.1067 196.995 67.9533 197.115 67.74C197.248 67.5133 197.408 67.18 197.595 66.74L202.195 55.4H202.755ZM218.166 68.18L219.606 65H220.186L219.906 69H209.986V68.44L218.146 55.76L218.026 56.22H211.986L210.666 59.3H210.066L210.326 55.4H220.126V55.96L211.986 68.64L211.646 68.18H218.166ZM225.17 58.08V66.32C225.17 66.72 225.176 67.0467 225.19 67.3C225.203 67.5533 225.25 67.7533 225.33 67.9C225.423 68.0733 225.576 68.1933 225.79 68.26C226.003 68.3133 226.316 68.3733 226.73 68.44V69C226.316 68.9733 225.983 68.96 225.73 68.96C225.476 68.9467 225.236 68.94 225.01 68.94C224.796 68.9267 224.523 68.92 224.19 68.92C223.87 68.92 223.59 68.9267 223.35 68.94C223.123 68.94 222.883 68.9467 222.63 68.96C222.39 68.96 222.056 68.9733 221.63 69V68.44C222.043 68.3733 222.356 68.3133 222.57 68.26C222.783 68.1933 222.936 68.0733 223.03 67.9C223.11 67.7667 223.156 67.5733 223.17 67.32C223.196 67.0667 223.21 66.7267 223.21 66.3V58.1C223.21 57.6733 223.196 57.3333 223.17 57.08C223.156 56.8267 223.11 56.6333 223.03 56.5C222.936 56.3267 222.783 56.2067 222.57 56.14C222.356 56.0733 222.043 56.0133 221.63 55.96V55.4C222.056 55.4133 222.39 55.4267 222.63 55.44C222.883 55.4533 223.123 55.4667 223.35 55.48C223.59 55.48 223.87 55.48 224.19 55.48C224.523 55.48 224.796 55.48 225.01 55.48C225.236 55.4667 225.476 55.4533 225.73 55.44C225.983 55.4267 226.316 55.4133 226.73 55.4V55.96C226.316 56.0133 226.003 56.0733 225.79 56.14C225.576 56.1933 225.423 56.3133 225.33 56.5C225.25 56.6467 225.203 56.8467 225.19 57.1C225.176 57.34 225.17 57.6667 225.17 58.08ZM239.87 55.48C240.15 55.48 240.436 55.4733 240.73 55.46C241.036 55.4333 241.39 55.4133 241.79 55.4V55.96C241.376 56.0133 241.076 56.0733 240.89 56.14C240.716 56.1933 240.583 56.3133 240.49 56.5C240.41 56.66 240.363 56.9 240.35 57.22C240.336 57.54 240.33 57.9733 240.33 58.52V69H239.67L230.79 57.76L230.81 65.86C230.81 66.42 230.816 66.86 230.83 67.18C230.843 67.5 230.89 67.74 230.97 67.9C231.063 68.0733 231.223 68.1933 231.45 68.26C231.69 68.3133 232.156 68.3733 232.85 68.44V69C232.156 68.9733 231.63 68.9533 231.27 68.94C230.923 68.9267 230.603 68.92 230.31 68.92C230.016 68.92 229.703 68.9267 229.37 68.94C229.05 68.9533 228.69 68.9733 228.29 69V68.44C228.676 68.3733 228.963 68.3133 229.15 68.26C229.336 68.2067 229.47 68.1067 229.55 67.96C229.643 67.8 229.696 67.56 229.71 67.24C229.736 66.92 229.75 66.46 229.75 65.86V58.54C229.75 57.94 229.736 57.48 229.71 57.16C229.696 56.8267 229.643 56.5867 229.55 56.44C229.456 56.2933 229.31 56.1933 229.11 56.14C228.923 56.0733 228.65 56.0133 228.29 55.96V55.4H231.39L239.25 65.5V58.54C239.25 57.94 239.236 57.48 239.21 57.16C239.196 56.84 239.143 56.6 239.05 56.44C238.97 56.2933 238.81 56.1933 238.57 56.14C238.343 56.0733 237.896 56.0133 237.23 55.96V55.4C237.936 55.4133 238.476 55.4333 238.85 55.46C239.223 55.4733 239.563 55.48 239.87 55.48ZM245.808 62.34V61.54H248.568C249.048 61.54 249.422 61.5133 249.688 61.46C249.955 61.3933 250.155 61.2933 250.288 61.16C250.435 61.0267 250.542 60.84 250.608 60.6C250.688 60.3467 250.775 60.0333 250.868 59.66H251.448V64.22H250.868C250.775 63.86 250.688 63.56 250.608 63.32C250.542 63.0667 250.435 62.8667 250.288 62.72C250.155 62.5733 249.955 62.4733 249.688 62.42C249.422 62.3667 249.048 62.34 248.568 62.34H245.808ZM251.988 68.24L253.448 65.12H254.048L253.648 69H243.348V68.44C243.788 68.3733 244.115 68.3067 244.328 68.24C244.555 68.1733 244.715 68.06 244.808 67.9C244.902 67.74 244.955 67.5067 244.968 67.2C244.995 66.88 245.008 66.4467 245.008 65.9V58.5C245.008 57.9133 244.995 57.46 244.968 57.14C244.955 56.82 244.882 56.58 244.748 56.42C244.655 56.2733 244.502 56.1733 244.288 56.12C244.075 56.0533 243.762 56.0067 243.348 55.98V55.4H253.328L253.528 58.94H252.928L251.668 56.16H246.968V68.24H251.988ZM262.156 62.72V61.9H264.796C265.302 61.9 265.702 61.88 265.996 61.84C266.289 61.7867 266.509 61.6933 266.656 61.56C266.816 61.4267 266.936 61.2333 267.016 60.98C267.096 60.7267 267.182 60.4067 267.276 60.02H267.856V64.6H267.276C267.182 64.2 267.096 63.88 267.016 63.64C266.936 63.3867 266.816 63.1933 266.656 63.06C266.509 62.9267 266.289 62.84 265.996 62.8C265.702 62.7467 265.302 62.72 264.796 62.72H262.156ZM259.716 55.4H269.496L269.696 58.94H269.096L267.836 56.16H263.256V66.32C263.256 66.72 263.262 67.0467 263.276 67.3C263.289 67.5533 263.336 67.7533 263.416 67.9C263.509 68.0733 263.662 68.1933 263.876 68.26C264.089 68.3133 264.402 68.3733 264.816 68.44V69C264.402 68.9733 264.062 68.96 263.796 68.96C263.542 68.9467 263.302 68.94 263.076 68.94C262.862 68.9267 262.582 68.92 262.236 68.92C261.929 68.92 261.662 68.9267 261.436 68.94C261.209 68.94 260.969 68.9467 260.716 68.96C260.476 68.96 260.142 68.9733 259.716 69V68.44C260.129 68.3733 260.442 68.3133 260.656 68.26C260.869 68.1933 261.022 68.0733 261.116 67.9C261.196 67.7667 261.242 67.5733 261.256 67.32C261.282 67.0667 261.296 66.7267 261.296 66.3V58.5C261.296 57.9133 261.282 57.46 261.256 57.14C261.229 56.82 261.156 56.58 261.036 56.42C260.942 56.2733 260.789 56.1733 260.576 56.12C260.376 56.0533 260.089 56.0067 259.716 55.98V55.4ZM273.465 62.34V61.54H276.225C276.705 61.54 277.078 61.5133 277.345 61.46C277.611 61.3933 277.811 61.2933 277.945 61.16C278.091 61.0267 278.198 60.84 278.265 60.6C278.345 60.3467 278.431 60.0333 278.525 59.66H279.105V64.22H278.525C278.431 63.86 278.345 63.56 278.265 63.32C278.198 63.0667 278.091 62.8667 277.945 62.72C277.811 62.5733 277.611 62.4733 277.345 62.42C277.078 62.3667 276.705 62.34 276.225 62.34H273.465ZM279.645 68.24L281.105 65.12H281.705L281.305 69H271.005V68.44C271.445 68.3733 271.771 68.3067 271.985 68.24C272.211 68.1733 272.371 68.06 272.465 67.9C272.558 67.74 272.611 67.5067 272.625 67.2C272.651 66.88 272.665 66.4467 272.665 65.9V58.5C272.665 57.9133 272.651 57.46 272.625 57.14C272.611 56.82 272.538 56.58 272.405 56.42C272.311 56.2733 272.158 56.1733 271.945 56.12C271.731 56.0533 271.418 56.0067 271.005 55.98V55.4H280.985L281.185 58.94H280.585L279.325 56.16H274.625V68.24H279.645ZM292.231 65H285.931V64.2H292.231V65ZM289.591 55.4L294.091 66.48C294.264 66.88 294.404 67.2 294.511 67.44C294.617 67.6667 294.724 67.8467 294.831 67.98C294.937 68.1 295.084 68.1933 295.271 68.26C295.457 68.3267 295.704 68.3867 296.011 68.44V69C295.677 68.9733 295.297 68.9533 294.871 68.94C294.444 68.9267 293.937 68.92 293.351 68.92C292.977 68.92 292.664 68.9267 292.411 68.94C292.157 68.94 291.917 68.9467 291.691 68.96C291.477 68.9733 291.237 68.9867 290.971 69V68.44C291.424 68.3467 291.764 68.26 291.991 68.18C292.217 68.1 292.331 67.9133 292.331 67.62C292.331 67.2733 292.164 66.6867 291.831 65.86L288.691 58.02L289.071 57.7L285.651 66.44C285.531 66.7333 285.444 66.98 285.391 67.18C285.337 67.38 285.311 67.5533 285.311 67.7C285.311 67.98 285.444 68.1533 285.711 68.22C285.991 68.2867 286.331 68.36 286.731 68.44V69C286.317 68.9733 285.944 68.9533 285.611 68.94C285.291 68.9267 284.924 68.92 284.511 68.92C284.231 68.92 283.931 68.9267 283.611 68.94C283.291 68.9533 282.957 68.9733 282.611 69V68.44C282.984 68.3733 283.271 68.2933 283.471 68.2C283.671 68.1067 283.831 67.9533 283.951 67.74C284.084 67.5133 284.244 67.18 284.431 66.74L289.031 55.4H289.591ZM295.567 59.64L295.907 55.4H307.087L307.427 59.64H306.807L305.407 56.22H297.587L296.187 59.64H295.567ZM300.507 55.78H302.467V66.32C302.467 66.72 302.474 67.0467 302.487 67.3C302.514 67.5533 302.56 67.7533 302.627 67.9C302.734 68.0733 302.894 68.1933 303.107 68.26C303.32 68.3133 303.634 68.3733 304.047 68.44V69C303.62 68.9733 303.28 68.96 303.027 68.96C302.774 68.9467 302.534 68.94 302.307 68.94C302.08 68.9267 301.8 68.92 301.467 68.92C301.147 68.92 300.874 68.9267 300.647 68.94C300.434 68.94 300.2 68.9467 299.947 68.96C299.694 68.96 299.36 68.9733 298.947 69V68.44C299.347 68.3733 299.654 68.3133 299.867 68.26C300.094 68.1933 300.247 68.0733 300.327 67.9C300.407 67.7667 300.454 67.5733 300.467 67.32C300.494 67.0667 300.507 66.7267 300.507 66.3V55.78ZM319.901 58.24V63.12C319.901 65.12 319.508 66.6333 318.721 67.66C317.935 68.6867 316.648 69.2 314.861 69.2C313.581 69.2 312.561 68.96 311.801 68.48C311.041 68 310.495 67.3067 310.161 66.4C309.841 65.4933 309.681 64.3933 309.681 63.1V58.1C309.681 57.6733 309.668 57.3333 309.641 57.08C309.628 56.8267 309.581 56.6333 309.501 56.5C309.421 56.3267 309.275 56.2067 309.061 56.14C308.848 56.0733 308.541 56.0133 308.141 55.96V55.4C308.555 55.4133 308.881 55.4267 309.121 55.44C309.375 55.4533 309.608 55.4667 309.821 55.48C310.048 55.48 310.321 55.48 310.641 55.48C310.975 55.48 311.248 55.48 311.461 55.48C311.688 55.4667 311.928 55.4533 312.181 55.44C312.435 55.4267 312.775 55.4133 313.201 55.4V55.96C312.788 56.0133 312.475 56.0733 312.261 56.14C312.061 56.1933 311.908 56.3133 311.801 56.5C311.735 56.6467 311.688 56.8467 311.661 57.1C311.648 57.34 311.641 57.6733 311.641 58.1V62.8C311.641 63.9067 311.755 64.86 311.981 65.66C312.221 66.46 312.601 67.0733 313.121 67.5C313.655 67.9133 314.368 68.12 315.261 68.12C316.461 68.12 317.348 67.7533 317.921 67.02C318.508 66.2733 318.801 65.1067 318.801 63.52V58.24C318.801 57.7867 318.788 57.4267 318.761 57.16C318.748 56.8933 318.708 56.68 318.641 56.52C318.548 56.3333 318.395 56.2067 318.181 56.14C317.968 56.0733 317.668 56.0133 317.281 55.96V55.4C317.615 55.4133 317.888 55.4267 318.101 55.44C318.315 55.4533 318.521 55.4667 318.721 55.48C318.921 55.48 319.161 55.48 319.441 55.48C319.708 55.48 319.921 55.48 320.081 55.48C320.255 55.4667 320.435 55.4533 320.621 55.44C320.821 55.4267 321.088 55.4133 321.421 55.4V55.96C321.048 56.0267 320.761 56.0867 320.561 56.14C320.361 56.1933 320.215 56.3 320.121 56.46C320.028 56.6067 319.968 56.82 319.941 57.1C319.915 57.3667 319.901 57.7467 319.901 58.24ZM327.809 62.36L329.769 62.22L332.509 66.42C332.869 66.9667 333.189 67.38 333.469 67.66C333.749 67.9267 334.029 68.1133 334.309 68.22C334.589 68.3133 334.909 68.3867 335.269 68.44V69C334.842 68.9867 334.482 68.9733 334.189 68.96C333.896 68.9467 333.616 68.94 333.349 68.94C333.096 68.94 332.842 68.9467 332.589 68.96C332.349 68.9733 332.096 68.9867 331.829 69L327.809 62.36ZM326.069 56.12V65.9C326.069 66.4333 326.076 66.86 326.089 67.18C326.116 67.5 326.169 67.74 326.249 67.9C326.356 68.0733 326.522 68.1933 326.749 68.26C326.976 68.3133 327.309 68.3733 327.749 68.44V69C327.322 68.9733 326.982 68.96 326.729 68.96C326.476 68.9467 326.229 68.94 325.989 68.94C325.762 68.9267 325.469 68.92 325.109 68.92C324.776 68.92 324.489 68.9267 324.249 68.94C324.022 68.94 323.782 68.9467 323.529 68.96C323.276 68.96 322.936 68.9733 322.509 69V68.44C322.936 68.3733 323.256 68.3067 323.469 68.24C323.696 68.1733 323.856 68.06 323.949 67.9C324.056 67.7267 324.122 67.4867 324.149 67.18C324.176 66.86 324.189 66.4267 324.189 65.88V58.5C324.189 57.94 324.176 57.5067 324.149 57.2C324.136 56.88 324.069 56.64 323.949 56.48C323.856 56.32 323.696 56.2067 323.469 56.14C323.256 56.0733 322.962 56.0133 322.589 55.96V55.4H327.769C328.942 55.4 329.936 55.5133 330.749 55.74C331.576 55.9667 332.209 56.3267 332.649 56.82C333.089 57.3133 333.309 57.9467 333.309 58.72C333.309 59.3467 333.162 59.9067 332.869 60.4C332.576 60.8933 332.156 61.3133 331.609 61.66C331.076 62.0067 330.429 62.2733 329.669 62.46C328.909 62.6333 328.049 62.72 327.089 62.72H325.909V61.84C326.122 61.88 326.349 61.9133 326.589 61.94C326.842 61.9533 327.089 61.96 327.329 61.96C328.289 61.96 329.056 61.84 329.629 61.6C330.216 61.36 330.636 61.02 330.889 60.58C331.156 60.14 331.289 59.6333 331.289 59.06C331.289 58.4333 331.142 57.9067 330.849 57.48C330.556 57.04 330.129 56.7067 329.569 56.48C329.009 56.24 328.329 56.12 327.529 56.12H326.069ZM339.701 58.08V66.32C339.701 66.72 339.708 67.0467 339.721 67.3C339.734 67.5533 339.781 67.7533 339.861 67.9C339.954 68.0733 340.108 68.1933 340.321 68.26C340.534 68.3133 340.848 68.3733 341.261 68.44V69C340.848 68.9733 340.514 68.96 340.261 68.96C340.008 68.9467 339.768 68.94 339.541 68.94C339.328 68.9267 339.054 68.92 338.721 68.92C338.401 68.92 338.121 68.9267 337.881 68.94C337.654 68.94 337.414 68.9467 337.161 68.96C336.921 68.96 336.588 68.9733 336.161 69V68.44C336.574 68.3733 336.888 68.3133 337.101 68.26C337.314 68.1933 337.468 68.0733 337.561 67.9C337.641 67.7667 337.688 67.5733 337.701 67.32C337.728 67.0667 337.741 66.7267 337.741 66.3V58.1C337.741 57.6733 337.728 57.3333 337.701 57.08C337.688 56.8267 337.641 56.6333 337.561 56.5C337.468 56.3267 337.314 56.2067 337.101 56.14C336.888 56.0733 336.574 56.0133 336.161 55.96V55.4C336.588 55.4133 336.921 55.4267 337.161 55.44C337.414 55.4533 337.654 55.4667 337.881 55.48C338.121 55.48 338.401 55.48 338.721 55.48C339.054 55.48 339.328 55.48 339.541 55.48C339.768 55.4667 340.008 55.4533 340.261 55.44C340.514 55.4267 340.848 55.4133 341.261 55.4V55.96C340.848 56.0133 340.534 56.0733 340.321 56.14C340.108 56.1933 339.954 56.3133 339.861 56.5C339.781 56.6467 339.734 56.8467 339.721 57.1C339.708 57.34 339.701 57.6667 339.701 58.08ZM354.401 55.48C354.681 55.48 354.968 55.4733 355.261 55.46C355.568 55.4333 355.921 55.4133 356.321 55.4V55.96C355.908 56.0133 355.608 56.0733 355.421 56.14C355.248 56.1933 355.114 56.3133 355.021 56.5C354.941 56.66 354.894 56.9 354.881 57.22C354.868 57.54 354.861 57.9733 354.861 58.52V69H354.201L345.321 57.76L345.341 65.86C345.341 66.42 345.348 66.86 345.361 67.18C345.374 67.5 345.421 67.74 345.501 67.9C345.594 68.0733 345.754 68.1933 345.981 68.26C346.221 68.3133 346.688 68.3733 347.381 68.44V69C346.688 68.9733 346.161 68.9533 345.801 68.94C345.454 68.9267 345.134 68.92 344.841 68.92C344.548 68.92 344.234 68.9267 343.901 68.94C343.581 68.9533 343.221 68.9733 342.821 69V68.44C343.208 68.3733 343.494 68.3133 343.681 68.26C343.868 68.2067 344.001 68.1067 344.081 67.96C344.174 67.8 344.228 67.56 344.241 67.24C344.268 66.92 344.281 66.46 344.281 65.86V58.54C344.281 57.94 344.268 57.48 344.241 57.16C344.228 56.8267 344.174 56.5867 344.081 56.44C343.988 56.2933 343.841 56.1933 343.641 56.14C343.454 56.0733 343.181 56.0133 342.821 55.96V55.4H345.921L353.781 65.5V58.54C353.781 57.94 353.768 57.48 353.741 57.16C353.728 56.84 353.674 56.6 353.581 56.44C353.501 56.2933 353.341 56.1933 353.101 56.14C352.874 56.0733 352.428 56.0133 351.761 55.96V55.4C352.468 55.4133 353.008 55.4333 353.381 55.46C353.754 55.4733 354.094 55.48 354.401 55.48ZM365.8 63.24V62.66H370.9V63.2C370.66 63.24 370.44 63.2933 370.24 63.36C370.053 63.4133 369.906 63.5267 369.8 63.7C369.706 63.86 369.66 64.1333 369.66 64.52V68.42C368.833 68.6467 368.046 68.8333 367.3 68.98C366.553 69.1267 365.773 69.2 364.96 69.2C363.533 69.2 362.293 68.9267 361.24 68.38C360.186 67.8333 359.373 67.0533 358.8 66.04C358.24 65.0267 357.96 63.82 357.96 62.42C357.96 61.02 358.266 59.7733 358.88 58.68C359.493 57.5867 360.366 56.7267 361.5 56.1C362.646 55.4733 363.993 55.16 365.54 55.16C366.166 55.16 366.833 55.22 367.54 55.34C368.246 55.46 368.966 55.66 369.7 55.94L368.96 59.48H368.36L367.58 55.92L368.4 56.66C367.933 56.4333 367.466 56.26 367 56.14C366.546 56.02 366.02 55.96 365.42 55.96C364.566 55.96 363.806 56.1333 363.14 56.48C362.486 56.8133 361.926 57.2733 361.46 57.86C361.006 58.4333 360.653 59.0867 360.4 59.82C360.16 60.5533 360.04 61.32 360.04 62.12C360.04 63.4 360.24 64.5133 360.64 65.46C361.053 66.3933 361.653 67.12 362.44 67.64C363.24 68.1467 364.206 68.4 365.34 68.4C365.833 68.4 366.26 68.3533 366.62 68.26C366.993 68.1533 367.286 67.96 367.5 67.68C367.713 67.4 367.82 67 367.82 66.48V64.72C367.82 64.2667 367.74 63.9467 367.58 63.76C367.433 63.56 367.213 63.4333 366.92 63.38C366.626 63.3133 366.253 63.2667 365.8 63.24ZM376.27 59.64L376.61 55.4H387.79L388.13 59.64H387.51L386.11 56.22H378.29L376.89 59.64H376.27ZM381.21 55.78H383.17V66.32C383.17 66.72 383.177 67.0467 383.19 67.3C383.217 67.5533 383.263 67.7533 383.33 67.9C383.437 68.0733 383.597 68.1933 383.81 68.26C384.023 68.3133 384.337 68.3733 384.75 68.44V69C384.323 68.9733 383.983 68.96 383.73 68.96C383.477 68.9467 383.237 68.94 383.01 68.94C382.783 68.9267 382.503 68.92 382.17 68.92C381.85 68.92 381.577 68.9267 381.35 68.94C381.137 68.94 380.903 68.9467 380.65 68.96C380.397 68.96 380.063 68.9733 379.65 69V68.44C380.05 68.3733 380.357 68.3133 380.57 68.26C380.797 68.1933 380.95 68.0733 381.03 67.9C381.11 67.7667 381.157 67.5733 381.17 67.32C381.197 67.0667 381.21 66.7267 381.21 66.3V55.78ZM395.904 69.2C394.904 69.2 394.004 69.0267 393.204 68.68C392.418 68.3333 391.738 67.86 391.164 67.26C390.604 66.6467 390.171 65.9267 389.864 65.1C389.571 64.2733 389.424 63.38 389.424 62.42C389.424 61.46 389.571 60.5467 389.864 59.68C390.171 58.8133 390.604 58.04 391.164 57.36C391.724 56.68 392.404 56.1467 393.204 55.76C394.004 55.36 394.904 55.16 395.904 55.16C396.944 55.16 397.864 55.34 398.664 55.7C399.478 56.06 400.158 56.56 400.704 57.2C401.264 57.8267 401.684 58.5533 401.964 59.38C402.244 60.2067 402.384 61.0733 402.384 61.98C402.384 62.9667 402.231 63.9 401.924 64.78C401.631 65.6467 401.204 66.4133 400.644 67.08C400.098 67.7467 399.418 68.2667 398.604 68.64C397.804 69.0133 396.904 69.2 395.904 69.2ZM395.964 68.44C396.858 68.44 397.624 68.1867 398.264 67.68C398.918 67.16 399.418 66.44 399.764 65.52C400.111 64.6 400.284 63.54 400.284 62.34C400.284 61.42 400.184 60.5733 399.984 59.8C399.784 59.0267 399.491 58.3533 399.104 57.78C398.731 57.1933 398.271 56.74 397.724 56.42C397.178 56.0867 396.564 55.92 395.884 55.92C394.991 55.92 394.218 56.1667 393.564 56.66C392.911 57.1533 392.404 57.8467 392.044 58.74C391.698 59.6333 391.524 60.6933 391.524 61.92C391.524 62.8267 391.624 63.68 391.824 64.48C392.024 65.2667 392.318 65.9533 392.704 66.54C393.091 67.1267 393.558 67.5933 394.104 67.94C394.651 68.2733 395.271 68.44 395.964 68.44ZM407.672 56.12V66.32C407.672 66.72 407.679 67.0467 407.692 67.3C407.705 67.5533 407.752 67.7533 407.832 67.9C407.925 68.0733 408.079 68.1933 408.292 68.26C408.505 68.3133 408.819 68.3733 409.232 68.44V69C408.819 68.9733 408.479 68.96 408.212 68.96C407.959 68.9467 407.719 68.94 407.492 68.94C407.279 68.9267 406.999 68.92 406.652 68.92C406.345 68.92 406.079 68.9267 405.852 68.94C405.625 68.94 405.385 68.9467 405.132 68.96C404.892 68.96 404.559 68.9733 404.132 69V68.44C404.545 68.3733 404.859 68.3133 405.072 68.26C405.285 68.1933 405.439 68.0733 405.532 67.9C405.612 67.7667 405.659 67.5733 405.672 67.32C405.699 67.0667 405.712 66.7267 405.712 66.3V58.5C405.712 57.94 405.699 57.5067 405.672 57.2C405.659 56.88 405.592 56.64 405.472 56.48C405.379 56.32 405.219 56.2067 404.992 56.14C404.765 56.0733 404.445 56.0133 404.032 55.96V55.4H409.332C410.545 55.4 411.559 55.5467 412.372 55.84C413.199 56.12 413.819 56.54 414.232 57.1C414.659 57.66 414.872 58.3467 414.872 59.16C414.872 59.8133 414.712 60.4067 414.392 60.94C414.085 61.46 413.645 61.9067 413.072 62.28C412.512 62.64 411.845 62.92 411.072 63.12C410.312 63.3067 409.465 63.4 408.532 63.4H407.472L407.452 62.58C407.679 62.5933 407.892 62.6133 408.092 62.64C408.292 62.6667 408.499 62.68 408.712 62.68C409.605 62.68 410.352 62.5333 410.952 62.24C411.565 61.9467 412.032 61.5533 412.352 61.06C412.672 60.5667 412.832 60 412.832 59.36C412.832 58.7067 412.685 58.14 412.392 57.66C412.099 57.18 411.665 56.8067 411.092 56.54C410.532 56.26 409.852 56.12 409.052 56.12H407.672ZM422.301 57.12L421.981 62.24L421.581 61.98C421.861 61.7667 422.141 61.5733 422.421 61.4C422.715 61.2267 423.041 61.0933 423.401 61C423.761 60.8933 424.181 60.84 424.661 60.84C425.528 60.84 426.281 61 426.921 61.32C427.575 61.6267 428.081 62.0667 428.441 62.64C428.801 63.2133 428.981 63.9067 428.981 64.72C428.981 65.4533 428.828 66.1 428.521 66.66C428.228 67.2067 427.821 67.6733 427.301 68.06C426.795 68.4333 426.215 68.72 425.561 68.92C424.908 69.1067 424.221 69.2 423.501 69.2C422.888 69.2 422.341 69.14 421.861 69.02C421.381 68.9133 420.921 68.7333 420.481 68.48L421.041 65.66H421.541L422.441 68.76L421.561 67.9C421.961 68.1 422.321 68.2467 422.641 68.34C422.975 68.42 423.335 68.46 423.721 68.46C424.335 68.46 424.888 68.34 425.381 68.1C425.888 67.86 426.295 67.5 426.601 67.02C426.921 66.54 427.081 65.9333 427.081 65.2C427.081 64.1467 426.768 63.3667 426.141 62.86C425.528 62.3533 424.755 62.1 423.821 62.1C423.301 62.1 422.835 62.18 422.421 62.34C422.021 62.4867 421.675 62.6733 421.381 62.9L421.041 62.66L421.501 56H428.201L428.121 57.68H421.701L422.301 57.12ZM436.126 69.2C435.166 69.2 434.319 68.9067 433.586 68.32C432.866 67.72 432.306 66.92 431.906 65.92C431.519 64.92 431.326 63.8133 431.326 62.6C431.326 61.76 431.432 60.9333 431.646 60.12C431.859 59.3067 432.179 58.58 432.606 57.94C433.032 57.2867 433.566 56.7667 434.206 56.38C434.846 55.9933 435.586 55.8 436.426 55.8C437.412 55.8 438.266 56.08 438.986 56.64C439.719 57.2 440.279 57.9667 440.666 58.94C441.066 59.9 441.266 61 441.266 62.24C441.266 63.1467 441.146 64.02 440.906 64.86C440.679 65.6867 440.339 66.4267 439.886 67.08C439.432 67.7333 438.886 68.2533 438.246 68.64C437.619 69.0133 436.912 69.2 436.126 69.2ZM436.306 68.46C436.906 68.46 437.426 68.22 437.866 67.74C438.306 67.26 438.646 66.58 438.886 65.7C439.139 64.82 439.266 63.7933 439.266 62.62C439.266 61.4067 439.146 60.3467 438.906 59.44C438.679 58.52 438.332 57.8067 437.866 57.3C437.412 56.7933 436.866 56.54 436.226 56.54C435.319 56.54 434.606 57.02 434.086 57.98C433.579 58.9267 433.326 60.28 433.326 62.04C433.326 63.2667 433.439 64.3667 433.666 65.34C433.892 66.3133 434.226 67.08 434.666 67.64C435.106 68.1867 435.652 68.46 436.306 68.46ZM464.333 68.44V69C463.853 68.9733 463.473 68.96 463.193 68.96C462.926 68.9467 462.699 68.94 462.513 68.94C462.326 68.9267 462.099 68.92 461.833 68.92C461.593 68.92 461.366 68.9267 461.153 68.94C460.939 68.94 460.699 68.9467 460.433 68.96C460.179 68.96 459.853 68.9733 459.453 69V68.44C459.986 68.36 460.359 68.2533 460.573 68.12C460.786 67.9867 460.906 67.7667 460.933 67.46C460.973 67.14 460.966 66.66 460.913 66.02L460.233 57.38L460.753 56.86L455.593 68.28H454.913L450.093 57.42L450.553 57.36L449.713 66.84C449.673 67.2533 449.673 67.56 449.713 67.76C449.753 67.96 449.886 68.1067 450.113 68.2C450.353 68.28 450.746 68.36 451.293 68.44V69C450.973 68.9867 450.706 68.9733 450.493 68.96C450.279 68.9467 450.079 68.94 449.893 68.94C449.706 68.9267 449.479 68.92 449.213 68.92C448.919 68.92 448.613 68.9267 448.293 68.94C447.973 68.9533 447.613 68.9733 447.213 69V68.44C447.599 68.3733 447.879 68.3067 448.053 68.24C448.226 68.1733 448.353 68.0667 448.433 67.92C448.526 67.76 448.586 67.5267 448.613 67.22C448.639 66.9133 448.679 66.46 448.733 65.86L449.413 58.54C449.479 57.94 449.506 57.48 449.493 57.16C449.479 56.8267 449.419 56.5867 449.313 56.44C449.206 56.2933 449.039 56.1933 448.813 56.14C448.599 56.0733 448.313 56.0133 447.953 55.96V55.4H451.373L456.033 65.78L455.673 65.82L460.273 55.4H463.653V55.96C463.133 56.0133 462.759 56.1067 462.533 56.24C462.319 56.36 462.193 56.58 462.153 56.9C462.126 57.22 462.139 57.7133 462.193 58.38L462.853 65.88C462.919 66.6 462.986 67.1333 463.053 67.48C463.119 67.8267 463.246 68.06 463.433 68.18C463.619 68.2867 463.919 68.3733 464.333 68.44ZM472.33 69.2C471.33 69.2 470.43 69.0267 469.63 68.68C468.844 68.3333 468.164 67.86 467.59 67.26C467.03 66.6467 466.597 65.9267 466.29 65.1C465.997 64.2733 465.85 63.38 465.85 62.42C465.85 61.46 465.997 60.5467 466.29 59.68C466.597 58.8133 467.03 58.04 467.59 57.36C468.15 56.68 468.83 56.1467 469.63 55.76C470.43 55.36 471.33 55.16 472.33 55.16C473.37 55.16 474.29 55.34 475.09 55.7C475.904 56.06 476.584 56.56 477.13 57.2C477.69 57.8267 478.11 58.5533 478.39 59.38C478.67 60.2067 478.81 61.0733 478.81 61.98C478.81 62.9667 478.657 63.9 478.35 64.78C478.057 65.6467 477.63 66.4133 477.07 67.08C476.524 67.7467 475.844 68.2667 475.03 68.64C474.23 69.0133 473.33 69.2 472.33 69.2ZM472.39 68.44C473.284 68.44 474.05 68.1867 474.69 67.68C475.344 67.16 475.844 66.44 476.19 65.52C476.537 64.6 476.71 63.54 476.71 62.34C476.71 61.42 476.61 60.5733 476.41 59.8C476.21 59.0267 475.917 58.3533 475.53 57.78C475.157 57.1933 474.697 56.74 474.15 56.42C473.604 56.0867 472.99 55.92 472.31 55.92C471.417 55.92 470.644 56.1667 469.99 56.66C469.337 57.1533 468.83 57.8467 468.47 58.74C468.124 59.6333 467.95 60.6933 467.95 61.92C467.95 62.8267 468.05 63.68 468.25 64.48C468.45 65.2667 468.744 65.9533 469.13 66.54C469.517 67.1267 469.984 67.5933 470.53 67.94C471.077 68.2733 471.697 68.44 472.39 68.44ZM484.678 69.2C483.918 69.2 483.204 69.1133 482.538 68.94C481.871 68.7667 481.218 68.5267 480.578 68.22L481.298 65H481.898L482.638 68.5L482.138 68.06L481.718 67.46C482.184 67.7 482.598 67.8933 482.958 68.04C483.318 68.1733 483.651 68.2733 483.958 68.34C484.278 68.3933 484.598 68.42 484.918 68.42C485.931 68.42 486.724 68.2 487.298 67.76C487.871 67.32 488.158 66.7533 488.158 66.06C488.158 65.5533 488.004 65.12 487.698 64.76C487.404 64.4 487.004 64.0733 486.498 63.78C486.004 63.4867 485.444 63.1867 484.818 62.88C484.138 62.5467 483.504 62.2067 482.918 61.86C482.344 61.5133 481.878 61.1067 481.518 60.64C481.171 60.16 480.998 59.5733 480.998 58.88C480.998 58.1733 481.184 57.54 481.558 56.98C481.931 56.42 482.471 55.98 483.178 55.66C483.898 55.3267 484.758 55.16 485.758 55.16C486.451 55.16 487.111 55.24 487.738 55.4C488.364 55.56 488.978 55.7867 489.578 56.08L488.918 59.14H488.318L487.578 55.82L488.498 56.84C488.071 56.6 487.684 56.4133 487.338 56.28C487.004 56.1467 486.691 56.06 486.398 56.02C486.104 55.9667 485.811 55.94 485.518 55.94C484.598 55.94 483.898 56.1333 483.418 56.52C482.938 56.8933 482.698 57.4133 482.698 58.08C482.698 58.5733 482.824 58.9867 483.078 59.32C483.344 59.64 483.704 59.9333 484.158 60.2C484.624 60.4667 485.151 60.74 485.738 61.02C486.471 61.38 487.151 61.7467 487.778 62.12C488.418 62.4933 488.931 62.9333 489.318 63.44C489.718 63.9333 489.918 64.5533 489.918 65.3C489.918 66.0333 489.704 66.6933 489.278 67.28C488.864 67.8667 488.264 68.3333 487.478 68.68C486.691 69.0267 485.758 69.2 484.678 69.2ZM491.348 59.64L491.688 55.4H502.868L503.208 59.64H502.588L501.188 56.22H493.368L491.968 59.64H491.348ZM496.288 55.78H498.248V66.32C498.248 66.72 498.255 67.0467 498.268 67.3C498.295 67.5533 498.342 67.7533 498.408 67.9C498.515 68.0733 498.675 68.1933 498.888 68.26C499.102 68.3133 499.415 68.3733 499.828 68.44V69C499.402 68.9733 499.062 68.96 498.808 68.96C498.555 68.9467 498.315 68.94 498.088 68.94C497.862 68.9267 497.582 68.92 497.248 68.92C496.928 68.92 496.655 68.9267 496.428 68.94C496.215 68.94 495.982 68.9467 495.728 68.96C495.475 68.96 495.142 68.9733 494.728 69V68.44C495.128 68.3733 495.435 68.3133 495.648 68.26C495.875 68.1933 496.028 68.0733 496.108 67.9C496.188 67.7667 496.235 67.5733 496.248 67.32C496.275 67.0667 496.288 66.7267 496.288 66.3V55.78ZM36.0095 86.08V94.32C36.0095 94.72 36.0161 95.0467 36.0295 95.3C36.0428 95.5533 36.0895 95.7533 36.1695 95.9C36.2628 96.0733 36.4161 96.1933 36.6295 96.26C36.8428 96.3133 37.1561 96.3733 37.5695 96.44V97C37.1561 96.9733 36.8228 96.96 36.5695 96.96C36.3161 96.9467 36.0761 96.94 35.8495 96.94C35.6361 96.9267 35.3628 96.92 35.0295 96.92C34.7095 96.92 34.4295 96.9267 34.1895 96.94C33.9628 96.94 33.7228 96.9467 33.4695 96.96C33.2295 96.96 32.8961 96.9733 32.4695 97V96.44C32.8828 96.3733 33.1961 96.3133 33.4095 96.26C33.6228 96.1933 33.7761 96.0733 33.8695 95.9C33.9495 95.7667 33.9961 95.5733 34.0095 95.32C34.0361 95.0667 34.0495 94.7267 34.0495 94.3V86.1C34.0495 85.6733 34.0361 85.3333 34.0095 85.08C33.9961 84.8267 33.9495 84.6333 33.8695 84.5C33.7761 84.3267 33.6228 84.2067 33.4095 84.14C33.1961 84.0733 32.8828 84.0133 32.4695 83.96V83.4C32.8961 83.4133 33.2295 83.4267 33.4695 83.44C33.7228 83.4533 33.9628 83.4667 34.1895 83.48C34.4295 83.48 34.7095 83.48 35.0295 83.48C35.3628 83.48 35.6361 83.48 35.8495 83.48C36.0761 83.4667 36.3161 83.4533 36.5695 83.44C36.8228 83.4267 37.1561 83.4133 37.5695 83.4V83.96C37.1561 84.0133 36.8428 84.0733 36.6295 84.14C36.4161 84.1933 36.2628 84.3133 36.1695 84.5C36.0895 84.6467 36.0428 84.8467 36.0295 85.1C36.0161 85.34 36.0095 85.6667 36.0095 86.08ZM50.7096 83.48C50.9896 83.48 51.2763 83.4733 51.5696 83.46C51.8763 83.4333 52.2296 83.4133 52.6296 83.4V83.96C52.2163 84.0133 51.9163 84.0733 51.7296 84.14C51.5563 84.1933 51.4229 84.3133 51.3296 84.5C51.2496 84.66 51.2029 84.9 51.1896 85.22C51.1763 85.54 51.1696 85.9733 51.1696 86.52V97H50.5096L41.6296 85.76L41.6496 93.86C41.6496 94.42 41.6563 94.86 41.6696 95.18C41.6829 95.5 41.7296 95.74 41.8096 95.9C41.9029 96.0733 42.0629 96.1933 42.2896 96.26C42.5296 96.3133 42.9963 96.3733 43.6896 96.44V97C42.9963 96.9733 42.4696 96.9533 42.1096 96.94C41.7629 96.9267 41.4429 96.92 41.1496 96.92C40.8563 96.92 40.5429 96.9267 40.2096 96.94C39.8896 96.9533 39.5296 96.9733 39.1296 97V96.44C39.5163 96.3733 39.8029 96.3133 39.9896 96.26C40.1763 96.2067 40.3096 96.1067 40.3896 95.96C40.4829 95.8 40.5363 95.56 40.5496 95.24C40.5763 94.92 40.5896 94.46 40.5896 93.86V86.54C40.5896 85.94 40.5763 85.48 40.5496 85.16C40.5363 84.8267 40.4829 84.5867 40.3896 84.44C40.2963 84.2933 40.1496 84.1933 39.9496 84.14C39.7629 84.0733 39.4896 84.0133 39.1296 83.96V83.4H42.2296L50.0896 93.5V86.54C50.0896 85.94 50.0763 85.48 50.0496 85.16C50.0363 84.84 49.9829 84.6 49.8896 84.44C49.8096 84.2933 49.6496 84.1933 49.4096 84.14C49.1829 84.0733 48.7363 84.0133 48.0696 83.96V83.4C48.7763 83.4133 49.3163 83.4333 49.6896 83.46C50.0629 83.4733 50.4029 83.48 50.7096 83.48ZM58.4082 97.2C57.6482 97.2 56.9349 97.1133 56.2682 96.94C55.6015 96.7667 54.9482 96.5267 54.3082 96.22L55.0282 93H55.6282L56.3682 96.5L55.8682 96.06L55.4482 95.46C55.9149 95.7 56.3282 95.8933 56.6882 96.04C57.0482 96.1733 57.3815 96.2733 57.6882 96.34C58.0082 96.3933 58.3282 96.42 58.6482 96.42C59.6615 96.42 60.4549 96.2 61.0282 95.76C61.6015 95.32 61.8882 94.7533 61.8882 94.06C61.8882 93.5533 61.7349 93.12 61.4282 92.76C61.1349 92.4 60.7349 92.0733 60.2282 91.78C59.7349 91.4867 59.1749 91.1867 58.5482 90.88C57.8682 90.5467 57.2349 90.2067 56.6482 89.86C56.0749 89.5133 55.6082 89.1067 55.2482 88.64C54.9015 88.16 54.7282 87.5733 54.7282 86.88C54.7282 86.1733 54.9149 85.54 55.2882 84.98C55.6615 84.42 56.2015 83.98 56.9082 83.66C57.6282 83.3267 58.4882 83.16 59.4882 83.16C60.1815 83.16 60.8415 83.24 61.4682 83.4C62.0949 83.56 62.7082 83.7867 63.3082 84.08L62.6482 87.14H62.0482L61.3082 83.82L62.2282 84.84C61.8015 84.6 61.4149 84.4133 61.0682 84.28C60.7349 84.1467 60.4215 84.06 60.1282 84.02C59.8349 83.9667 59.5415 83.94 59.2482 83.94C58.3282 83.94 57.6282 84.1333 57.1482 84.52C56.6682 84.8933 56.4282 85.4133 56.4282 86.08C56.4282 86.5733 56.5549 86.9867 56.8082 87.32C57.0749 87.64 57.4349 87.9333 57.8882 88.2C58.3549 88.4667 58.8815 88.74 59.4682 89.02C60.2015 89.38 60.8815 89.7467 61.5082 90.12C62.1482 90.4933 62.6615 90.9333 63.0482 91.44C63.4482 91.9333 63.6482 92.5533 63.6482 93.3C63.6482 94.0333 63.4349 94.6933 63.0082 95.28C62.5949 95.8667 61.9949 96.3333 61.2082 96.68C60.4215 97.0267 59.4882 97.2 58.4082 97.2ZM69.0587 84.12V94.32C69.0587 94.72 69.0653 95.0467 69.0787 95.3C69.092 95.5533 69.1387 95.7533 69.2187 95.9C69.312 96.0733 69.4653 96.1933 69.6787 96.26C69.892 96.3133 70.2053 96.3733 70.6187 96.44V97C70.2053 96.9733 69.8653 96.96 69.5987 96.96C69.3453 96.9467 69.1053 96.94 68.8787 96.94C68.6653 96.9267 68.3853 96.92 68.0387 96.92C67.732 96.92 67.4653 96.9267 67.2387 96.94C67.012 96.94 66.772 96.9467 66.5187 96.96C66.2787 96.96 65.9453 96.9733 65.5187 97V96.44C65.932 96.3733 66.2453 96.3133 66.4587 96.26C66.672 96.1933 66.8253 96.0733 66.9187 95.9C66.9987 95.7667 67.0453 95.5733 67.0587 95.32C67.0853 95.0667 67.0987 94.7267 67.0987 94.3V86.5C67.0987 85.94 67.0853 85.5067 67.0587 85.2C67.0453 84.88 66.9787 84.64 66.8587 84.48C66.7653 84.32 66.6053 84.2067 66.3787 84.14C66.152 84.0733 65.832 84.0133 65.4187 83.96V83.4H70.7187C71.932 83.4 72.9453 83.5467 73.7587 83.84C74.5853 84.12 75.2053 84.54 75.6187 85.1C76.0453 85.66 76.2587 86.3467 76.2587 87.16C76.2587 87.8133 76.0987 88.4067 75.7787 88.94C75.472 89.46 75.032 89.9067 74.4587 90.28C73.8987 90.64 73.232 90.92 72.4587 91.12C71.6987 91.3067 70.852 91.4 69.9187 91.4H68.8587L68.8387 90.58C69.0653 90.5933 69.2787 90.6133 69.4787 90.64C69.6787 90.6667 69.8853 90.68 70.0987 90.68C70.992 90.68 71.7387 90.5333 72.3387 90.24C72.952 89.9467 73.4187 89.5533 73.7387 89.06C74.0587 88.5667 74.2187 88 74.2187 87.36C74.2187 86.7067 74.072 86.14 73.7787 85.66C73.4853 85.18 73.052 84.8067 72.4787 84.54C71.9187 84.26 71.2387 84.12 70.4387 84.12H69.0587ZM81.1071 86.08V94.32C81.1071 94.72 81.1138 95.0467 81.1271 95.3C81.1404 95.5533 81.1871 95.7533 81.2671 95.9C81.3604 96.0733 81.5138 96.1933 81.7271 96.26C81.9404 96.3133 82.2538 96.3733 82.6671 96.44V97C82.2538 96.9733 81.9204 96.96 81.6671 96.96C81.4138 96.9467 81.1738 96.94 80.9471 96.94C80.7338 96.9267 80.4604 96.92 80.1271 96.92C79.8071 96.92 79.5271 96.9267 79.2871 96.94C79.0604 96.94 78.8204 96.9467 78.5671 96.96C78.3271 96.96 77.9938 96.9733 77.5671 97V96.44C77.9804 96.3733 78.2938 96.3133 78.5071 96.26C78.7204 96.1933 78.8738 96.0733 78.9671 95.9C79.0471 95.7667 79.0938 95.5733 79.1071 95.32C79.1338 95.0667 79.1471 94.7267 79.1471 94.3V86.1C79.1471 85.6733 79.1338 85.3333 79.1071 85.08C79.0938 84.8267 79.0471 84.6333 78.9671 84.5C78.8738 84.3267 78.7204 84.2067 78.5071 84.14C78.2938 84.0733 77.9804 84.0133 77.5671 83.96V83.4C77.9938 83.4133 78.3271 83.4267 78.5671 83.44C78.8204 83.4533 79.0604 83.4667 79.2871 83.48C79.5271 83.48 79.8071 83.48 80.1271 83.48C80.4604 83.48 80.7338 83.48 80.9471 83.48C81.1738 83.4667 81.4138 83.4533 81.6671 83.44C81.9204 83.4267 82.2538 83.4133 82.6671 83.4V83.96C82.2538 84.0133 81.9404 84.0733 81.7271 84.14C81.5138 84.1933 81.3604 84.3133 81.2671 84.5C81.1871 84.6467 81.1404 84.8467 81.1271 85.1C81.1138 85.34 81.1071 85.6667 81.1071 86.08ZM89.5473 90.36L91.5073 90.22L94.2473 94.42C94.6073 94.9667 94.9273 95.38 95.2073 95.66C95.4873 95.9267 95.7673 96.1133 96.0473 96.22C96.3273 96.3133 96.6473 96.3867 97.0073 96.44V97C96.5806 96.9867 96.2206 96.9733 95.9273 96.96C95.6339 96.9467 95.3539 96.94 95.0873 96.94C94.8339 96.94 94.5806 96.9467 94.3273 96.96C94.0873 96.9733 93.8339 96.9867 93.5673 97L89.5473 90.36ZM87.8073 84.12V93.9C87.8073 94.4333 87.8139 94.86 87.8273 95.18C87.8539 95.5 87.9073 95.74 87.9873 95.9C88.0939 96.0733 88.2606 96.1933 88.4873 96.26C88.7139 96.3133 89.0473 96.3733 89.4873 96.44V97C89.0606 96.9733 88.7206 96.96 88.4673 96.96C88.2139 96.9467 87.9673 96.94 87.7273 96.94C87.5006 96.9267 87.2073 96.92 86.8473 96.92C86.5139 96.92 86.2273 96.9267 85.9873 96.94C85.7606 96.94 85.5206 96.9467 85.2673 96.96C85.0139 96.96 84.6739 96.9733 84.2473 97V96.44C84.6739 96.3733 84.9939 96.3067 85.2073 96.24C85.4339 96.1733 85.5939 96.06 85.6873 95.9C85.7939 95.7267 85.8606 95.4867 85.8873 95.18C85.9139 94.86 85.9273 94.4267 85.9273 93.88V86.5C85.9273 85.94 85.9139 85.5067 85.8873 85.2C85.8739 84.88 85.8073 84.64 85.6873 84.48C85.5939 84.32 85.4339 84.2067 85.2073 84.14C84.9939 84.0733 84.7006 84.0133 84.3273 83.96V83.4H89.5073C90.6806 83.4 91.6739 83.5133 92.4873 83.74C93.3139 83.9667 93.9473 84.3267 94.3873 84.82C94.8273 85.3133 95.0473 85.9467 95.0473 86.72C95.0473 87.3467 94.9006 87.9067 94.6073 88.4C94.3139 88.8933 93.8939 89.3133 93.3473 89.66C92.8139 90.0067 92.1673 90.2733 91.4073 90.46C90.6473 90.6333 89.7873 90.72 88.8273 90.72H87.6473V89.84C87.8606 89.88 88.0873 89.9133 88.3273 89.94C88.5806 89.9533 88.8273 89.96 89.0673 89.96C90.0273 89.96 90.7939 89.84 91.3673 89.6C91.9539 89.36 92.3739 89.02 92.6273 88.58C92.8939 88.14 93.0273 87.6333 93.0273 87.06C93.0273 86.4333 92.8806 85.9067 92.5873 85.48C92.2939 85.04 91.8673 84.7067 91.3073 84.48C90.7473 84.24 90.0673 84.12 89.2673 84.12H87.8073ZM106.879 93H100.579V92.2H106.879V93ZM104.239 83.4L108.739 94.48C108.912 94.88 109.052 95.2 109.159 95.44C109.266 95.6667 109.372 95.8467 109.479 95.98C109.586 96.1 109.732 96.1933 109.919 96.26C110.106 96.3267 110.352 96.3867 110.659 96.44V97C110.326 96.9733 109.946 96.9533 109.519 96.94C109.092 96.9267 108.586 96.92 107.999 96.92C107.626 96.92 107.312 96.9267 107.059 96.94C106.806 96.94 106.566 96.9467 106.339 96.96C106.126 96.9733 105.886 96.9867 105.619 97V96.44C106.072 96.3467 106.412 96.26 106.639 96.18C106.866 96.1 106.979 95.9133 106.979 95.62C106.979 95.2733 106.812 94.6867 106.479 93.86L103.339 86.02L103.719 85.7L100.299 94.44C100.179 94.7333 100.092 94.98 100.039 95.18C99.9858 95.38 99.9591 95.5533 99.9591 95.7C99.9591 95.98 100.092 96.1533 100.359 96.22C100.639 96.2867 100.979 96.36 101.379 96.44V97C100.966 96.9733 100.592 96.9533 100.259 96.94C99.9391 96.9267 99.5725 96.92 99.1591 96.92C98.8791 96.92 98.5791 96.9267 98.2591 96.94C97.9391 96.9533 97.6058 96.9733 97.2591 97V96.44C97.6325 96.3733 97.9191 96.2933 98.1191 96.2C98.3191 96.1067 98.4791 95.9533 98.5991 95.74C98.7325 95.5133 98.8925 95.18 99.0791 94.74L103.679 83.4H104.239ZM110.215 87.64L110.555 83.4H121.735L122.075 87.64H121.455L120.055 84.22H112.235L110.835 87.64H110.215ZM115.155 83.78H117.115V94.32C117.115 94.72 117.122 95.0467 117.135 95.3C117.162 95.5533 117.209 95.7533 117.275 95.9C117.382 96.0733 117.542 96.1933 117.755 96.26C117.969 96.3133 118.282 96.3733 118.695 96.44V97C118.269 96.9733 117.929 96.96 117.675 96.96C117.422 96.9467 117.182 96.94 116.955 96.94C116.729 96.9267 116.449 96.92 116.115 96.92C115.795 96.92 115.522 96.9267 115.295 96.94C115.082 96.94 114.849 96.9467 114.595 96.96C114.342 96.96 114.009 96.9733 113.595 97V96.44C113.995 96.3733 114.302 96.3133 114.515 96.26C114.742 96.1933 114.895 96.0733 114.975 95.9C115.055 95.7667 115.102 95.5733 115.115 95.32C115.142 95.0667 115.155 94.7267 115.155 94.3V83.78ZM126.83 86.08V94.32C126.83 94.72 126.836 95.0467 126.85 95.3C126.863 95.5533 126.91 95.7533 126.99 95.9C127.083 96.0733 127.236 96.1933 127.45 96.26C127.663 96.3133 127.976 96.3733 128.39 96.44V97C127.976 96.9733 127.643 96.96 127.39 96.96C127.136 96.9467 126.896 96.94 126.67 96.94C126.456 96.9267 126.183 96.92 125.85 96.92C125.53 96.92 125.25 96.9267 125.01 96.94C124.783 96.94 124.543 96.9467 124.29 96.96C124.05 96.96 123.716 96.9733 123.29 97V96.44C123.703 96.3733 124.016 96.3133 124.23 96.26C124.443 96.1933 124.596 96.0733 124.69 95.9C124.77 95.7667 124.816 95.5733 124.83 95.32C124.856 95.0667 124.87 94.7267 124.87 94.3V86.1C124.87 85.6733 124.856 85.3333 124.83 85.08C124.816 84.8267 124.77 84.6333 124.69 84.5C124.596 84.3267 124.443 84.2067 124.23 84.14C124.016 84.0733 123.703 84.0133 123.29 83.96V83.4C123.716 83.4133 124.05 83.4267 124.29 83.44C124.543 83.4533 124.783 83.4667 125.01 83.48C125.25 83.48 125.53 83.48 125.85 83.48C126.183 83.48 126.456 83.48 126.67 83.48C126.896 83.4667 127.136 83.4533 127.39 83.44C127.643 83.4267 127.976 83.4133 128.39 83.4V83.96C127.976 84.0133 127.663 84.0733 127.45 84.14C127.236 84.1933 127.083 84.3133 126.99 84.5C126.91 84.6467 126.863 84.8467 126.85 85.1C126.836 85.34 126.83 85.6667 126.83 86.08ZM136.51 97.2C135.51 97.2 134.61 97.0267 133.81 96.68C133.023 96.3333 132.343 95.86 131.77 95.26C131.21 94.6467 130.777 93.9267 130.47 93.1C130.177 92.2733 130.03 91.38 130.03 90.42C130.03 89.46 130.177 88.5467 130.47 87.68C130.777 86.8133 131.21 86.04 131.77 85.36C132.33 84.68 133.01 84.1467 133.81 83.76C134.61 83.36 135.51 83.16 136.51 83.16C137.55 83.16 138.47 83.34 139.27 83.7C140.083 84.06 140.763 84.56 141.31 85.2C141.87 85.8267 142.29 86.5533 142.57 87.38C142.85 88.2067 142.99 89.0733 142.99 89.98C142.99 90.9667 142.837 91.9 142.53 92.78C142.237 93.6467 141.81 94.4133 141.25 95.08C140.703 95.7467 140.023 96.2667 139.21 96.64C138.41 97.0133 137.51 97.2 136.51 97.2ZM136.57 96.44C137.463 96.44 138.23 96.1867 138.87 95.68C139.523 95.16 140.023 94.44 140.37 93.52C140.717 92.6 140.89 91.54 140.89 90.34C140.89 89.42 140.79 88.5733 140.59 87.8C140.39 87.0267 140.097 86.3533 139.71 85.78C139.337 85.1933 138.877 84.74 138.33 84.42C137.783 84.0867 137.17 83.92 136.49 83.92C135.597 83.92 134.823 84.1667 134.17 84.66C133.517 85.1533 133.01 85.8467 132.65 86.74C132.303 87.6333 132.13 88.6933 132.13 89.92C132.13 90.8267 132.23 91.68 132.43 92.48C132.63 93.2667 132.923 93.9533 133.31 94.54C133.697 95.1267 134.163 95.5933 134.71 95.94C135.257 96.2733 135.877 96.44 136.57 96.44ZM156.217 83.48C156.497 83.48 156.784 83.4733 157.077 83.46C157.384 83.4333 157.737 83.4133 158.137 83.4V83.96C157.724 84.0133 157.424 84.0733 157.237 84.14C157.064 84.1933 156.931 84.3133 156.837 84.5C156.757 84.66 156.711 84.9 156.697 85.22C156.684 85.54 156.677 85.9733 156.677 86.52V97H156.017L147.137 85.76L147.157 93.86C147.157 94.42 147.164 94.86 147.177 95.18C147.191 95.5 147.237 95.74 147.317 95.9C147.411 96.0733 147.571 96.1933 147.797 96.26C148.037 96.3133 148.504 96.3733 149.197 96.44V97C148.504 96.9733 147.977 96.9533 147.617 96.94C147.271 96.9267 146.951 96.92 146.657 96.92C146.364 96.92 146.051 96.9267 145.717 96.94C145.397 96.9533 145.037 96.9733 144.637 97V96.44C145.024 96.3733 145.311 96.3133 145.497 96.26C145.684 96.2067 145.817 96.1067 145.897 95.96C145.991 95.8 146.044 95.56 146.057 95.24C146.084 94.92 146.097 94.46 146.097 93.86V86.54C146.097 85.94 146.084 85.48 146.057 85.16C146.044 84.8267 145.991 84.5867 145.897 84.44C145.804 84.2933 145.657 84.1933 145.457 84.14C145.271 84.0733 144.997 84.0133 144.637 83.96V83.4H147.737L155.597 93.5V86.54C155.597 85.94 155.584 85.48 155.557 85.16C155.544 84.84 155.491 84.6 155.397 84.44C155.317 84.2933 155.157 84.1933 154.917 84.14C154.691 84.0733 154.244 84.0133 153.577 83.96V83.4C154.284 83.4133 154.824 83.4333 155.197 83.46C155.571 83.4733 155.911 83.48 156.217 83.48ZM167.582 93H161.282V92.2H167.582V93ZM164.942 83.4L169.442 94.48C169.616 94.88 169.756 95.2 169.862 95.44C169.969 95.6667 170.076 95.8467 170.182 95.98C170.289 96.1 170.436 96.1933 170.622 96.26C170.809 96.3267 171.056 96.3867 171.362 96.44V97C171.029 96.9733 170.649 96.9533 170.222 96.94C169.796 96.9267 169.289 96.92 168.702 96.92C168.329 96.92 168.016 96.9267 167.762 96.94C167.509 96.94 167.269 96.9467 167.042 96.96C166.829 96.9733 166.589 96.9867 166.322 97V96.44C166.776 96.3467 167.116 96.26 167.342 96.18C167.569 96.1 167.682 95.9133 167.682 95.62C167.682 95.2733 167.516 94.6867 167.182 93.86L164.042 86.02L164.422 85.7L161.002 94.44C160.882 94.7333 160.796 94.98 160.742 95.18C160.689 95.38 160.662 95.5533 160.662 95.7C160.662 95.98 160.796 96.1533 161.062 96.22C161.342 96.2867 161.682 96.36 162.082 96.44V97C161.669 96.9733 161.296 96.9533 160.962 96.94C160.642 96.9267 160.276 96.92 159.862 96.92C159.582 96.92 159.282 96.9267 158.962 96.94C158.642 96.9533 158.309 96.9733 157.962 97V96.44C158.336 96.3733 158.622 96.2933 158.822 96.2C159.022 96.1067 159.182 95.9533 159.302 95.74C159.436 95.5133 159.596 95.18 159.782 94.74L164.382 83.4H164.942ZM175.834 86.1V96.24H180.174L181.514 93.04H182.134L181.854 97H172.294V96.44C172.694 96.3733 173 96.3067 173.214 96.24C173.427 96.1733 173.574 96.06 173.654 95.9C173.76 95.74 173.82 95.5067 173.834 95.2C173.86 94.88 173.874 94.4467 173.874 93.9V86.1C173.874 85.6733 173.86 85.3333 173.834 85.08C173.82 84.8267 173.774 84.6333 173.694 84.5C173.6 84.3267 173.447 84.2067 173.234 84.14C173.02 84.0733 172.707 84.0133 172.294 83.96V83.4C172.72 83.4133 173.054 83.4267 173.294 83.44C173.547 83.4533 173.787 83.4667 174.014 83.48C174.24 83.48 174.507 83.48 174.814 83.48C175.16 83.48 175.44 83.48 175.654 83.48C175.88 83.4667 176.12 83.4533 176.374 83.44C176.64 83.4267 176.98 83.4133 177.394 83.4V83.96C176.98 84.0133 176.667 84.0733 176.454 84.14C176.24 84.1933 176.087 84.3133 175.994 84.5C175.914 84.6467 175.867 84.8467 175.854 85.1C175.84 85.34 175.834 85.6733 175.834 86.1ZM205.249 83.48C205.516 83.48 205.809 83.4733 206.129 83.46C206.449 83.4333 206.816 83.4133 207.229 83.4V83.96C206.802 84.0267 206.482 84.1067 206.269 84.2C206.056 84.2933 205.882 84.4667 205.749 84.72C205.616 84.9733 205.442 85.3867 205.229 85.96L201.149 97H200.589L196.829 86.78H197.409L193.469 97H192.909L189.129 86.54C188.916 85.9667 188.742 85.52 188.609 85.2C188.476 84.88 188.336 84.64 188.189 84.48C188.056 84.32 187.889 84.2067 187.689 84.14C187.489 84.0733 187.216 84.0133 186.869 83.96V83.4C187.269 83.4133 187.682 83.4333 188.109 83.46C188.536 83.4733 189.022 83.48 189.569 83.48C190.036 83.48 190.409 83.48 190.689 83.48C190.969 83.4667 191.222 83.4533 191.449 83.44C191.676 83.4267 191.922 83.4133 192.189 83.4V83.96C191.802 84.0133 191.469 84.0867 191.189 84.18C190.909 84.2733 190.769 84.4733 190.769 84.78C190.769 84.9533 190.816 85.1867 190.909 85.48C191.016 85.7733 191.136 86.1267 191.269 86.54L194.149 94.74H193.349L197.329 84.24H197.989L201.749 94.72L201.029 94.74L204.109 85.96C204.216 85.68 204.296 85.44 204.349 85.24C204.416 85.04 204.449 84.8733 204.449 84.74C204.449 84.4333 204.309 84.24 204.029 84.16C203.762 84.08 203.456 84.0133 203.109 83.96V83.4C203.522 83.4133 203.882 83.4333 204.189 83.46C204.496 83.4733 204.849 83.48 205.249 83.48ZM214.108 97.2C213.108 97.2 212.208 97.0267 211.408 96.68C210.621 96.3333 209.941 95.86 209.368 95.26C208.808 94.6467 208.374 93.9267 208.068 93.1C207.774 92.2733 207.628 91.38 207.628 90.42C207.628 89.46 207.774 88.5467 208.068 87.68C208.374 86.8133 208.808 86.04 209.368 85.36C209.928 84.68 210.608 84.1467 211.408 83.76C212.208 83.36 213.108 83.16 214.108 83.16C215.148 83.16 216.068 83.34 216.868 83.7C217.681 84.06 218.361 84.56 218.908 85.2C219.468 85.8267 219.888 86.5533 220.168 87.38C220.448 88.2067 220.588 89.0733 220.588 89.98C220.588 90.9667 220.434 91.9 220.128 92.78C219.834 93.6467 219.408 94.4133 218.848 95.08C218.301 95.7467 217.621 96.2667 216.808 96.64C216.008 97.0133 215.108 97.2 214.108 97.2ZM214.168 96.44C215.061 96.44 215.828 96.1867 216.468 95.68C217.121 95.16 217.621 94.44 217.968 93.52C218.314 92.6 218.488 91.54 218.488 90.34C218.488 89.42 218.388 88.5733 218.188 87.8C217.988 87.0267 217.694 86.3533 217.308 85.78C216.934 85.1933 216.474 84.74 215.928 84.42C215.381 84.0867 214.768 83.92 214.088 83.92C213.194 83.92 212.421 84.1667 211.768 84.66C211.114 85.1533 210.608 85.8467 210.248 86.74C209.901 87.6333 209.728 88.6933 209.728 89.92C209.728 90.8267 209.828 91.68 210.028 92.48C210.228 93.2667 210.521 93.9533 210.908 94.54C211.294 95.1267 211.761 95.5933 212.308 95.94C212.854 96.2733 213.474 96.44 214.168 96.44ZM239.235 96.44V97C238.755 96.9733 238.375 96.96 238.095 96.96C237.828 96.9467 237.602 96.94 237.415 96.94C237.228 96.9267 237.002 96.92 236.735 96.92C236.495 96.92 236.268 96.9267 236.055 96.94C235.842 96.94 235.602 96.9467 235.335 96.96C235.082 96.96 234.755 96.9733 234.355 97V96.44C234.888 96.36 235.262 96.2533 235.475 96.12C235.688 95.9867 235.808 95.7667 235.835 95.46C235.875 95.14 235.868 94.66 235.815 94.02L235.135 85.38L235.655 84.86L230.495 96.28H229.815L224.995 85.42L225.455 85.36L224.615 94.84C224.575 95.2533 224.575 95.56 224.615 95.76C224.655 95.96 224.788 96.1067 225.015 96.2C225.255 96.28 225.648 96.36 226.195 96.44V97C225.875 96.9867 225.608 96.9733 225.395 96.96C225.182 96.9467 224.982 96.94 224.795 96.94C224.608 96.9267 224.382 96.92 224.115 96.92C223.822 96.92 223.515 96.9267 223.195 96.94C222.875 96.9533 222.515 96.9733 222.115 97V96.44C222.502 96.3733 222.782 96.3067 222.955 96.24C223.128 96.1733 223.255 96.0667 223.335 95.92C223.428 95.76 223.488 95.5267 223.515 95.22C223.542 94.9133 223.582 94.46 223.635 93.86L224.315 86.54C224.382 85.94 224.408 85.48 224.395 85.16C224.382 84.8267 224.322 84.5867 224.215 84.44C224.108 84.2933 223.942 84.1933 223.715 84.14C223.502 84.0733 223.215 84.0133 222.855 83.96V83.4H226.275L230.935 93.78L230.575 93.82L235.175 83.4H238.555V83.96C238.035 84.0133 237.662 84.1067 237.435 84.24C237.222 84.36 237.095 84.58 237.055 84.9C237.028 85.22 237.042 85.7133 237.095 86.38L237.755 93.88C237.822 94.6 237.888 95.1333 237.955 95.48C238.022 95.8267 238.148 96.06 238.335 96.18C238.522 96.2867 238.822 96.3733 239.235 96.44ZM243.133 90.34V89.54H245.893C246.373 89.54 246.746 89.5133 247.013 89.46C247.279 89.3933 247.479 89.2933 247.613 89.16C247.759 89.0267 247.866 88.84 247.933 88.6C248.013 88.3467 248.099 88.0333 248.193 87.66H248.773V92.22H248.193C248.099 91.86 248.013 91.56 247.933 91.32C247.866 91.0667 247.759 90.8667 247.613 90.72C247.479 90.5733 247.279 90.4733 247.013 90.42C246.746 90.3667 246.373 90.34 245.893 90.34H243.133ZM249.313 96.24L250.773 93.12H251.373L250.973 97H240.673V96.44C241.113 96.3733 241.439 96.3067 241.653 96.24C241.879 96.1733 242.039 96.06 242.133 95.9C242.226 95.74 242.279 95.5067 242.293 95.2C242.319 94.88 242.333 94.4467 242.333 93.9V86.5C242.333 85.9133 242.319 85.46 242.293 85.14C242.279 84.82 242.206 84.58 242.073 84.42C241.979 84.2733 241.826 84.1733 241.613 84.12C241.399 84.0533 241.086 84.0067 240.673 83.98V83.4H250.653L250.853 86.94H250.253L248.993 84.16H244.293V96.24H249.313ZM264.499 83.48C264.779 83.48 265.065 83.4733 265.359 83.46C265.665 83.4333 266.019 83.4133 266.419 83.4V83.96C266.005 84.0133 265.705 84.0733 265.519 84.14C265.345 84.1933 265.212 84.3133 265.119 84.5C265.039 84.66 264.992 84.9 264.979 85.22C264.965 85.54 264.959 85.9733 264.959 86.52V97H264.299L255.419 85.76L255.439 93.86C255.439 94.42 255.445 94.86 255.459 95.18C255.472 95.5 255.519 95.74 255.599 95.9C255.692 96.0733 255.852 96.1933 256.079 96.26C256.319 96.3133 256.785 96.3733 257.479 96.44V97C256.785 96.9733 256.259 96.9533 255.899 96.94C255.552 96.9267 255.232 96.92 254.939 96.92C254.645 96.92 254.332 96.9267 253.999 96.94C253.679 96.9533 253.319 96.9733 252.919 97V96.44C253.305 96.3733 253.592 96.3133 253.779 96.26C253.965 96.2067 254.099 96.1067 254.179 95.96C254.272 95.8 254.325 95.56 254.339 95.24C254.365 94.92 254.379 94.46 254.379 93.86V86.54C254.379 85.94 254.365 85.48 254.339 85.16C254.325 84.8267 254.272 84.5867 254.179 84.44C254.085 84.2933 253.939 84.1933 253.739 84.14C253.552 84.0733 253.279 84.0133 252.919 83.96V83.4H256.019L263.879 93.5V86.54C263.879 85.94 263.865 85.48 263.839 85.16C263.825 84.84 263.772 84.6 263.679 84.44C263.599 84.2933 263.439 84.1933 263.199 84.14C262.972 84.0733 262.525 84.0133 261.859 83.96V83.4C262.565 83.4133 263.105 83.4333 263.479 83.46C263.852 83.4733 264.192 83.48 264.499 83.48ZM271.758 87.64L272.098 83.4H283.278L283.618 87.64H282.998L281.598 84.22H273.778L272.378 87.64H271.758ZM276.698 83.78H278.658V94.32C278.658 94.72 278.665 95.0467 278.678 95.3C278.705 95.5533 278.752 95.7533 278.818 95.9C278.925 96.0733 279.085 96.1933 279.298 96.26C279.512 96.3133 279.825 96.3733 280.238 96.44V97C279.812 96.9733 279.472 96.96 279.218 96.96C278.965 96.9467 278.725 96.94 278.498 96.94C278.272 96.9267 277.992 96.92 277.658 96.92C277.338 96.92 277.065 96.9267 276.838 96.94C276.625 96.94 276.392 96.9467 276.138 96.96C275.885 96.96 275.552 96.9733 275.138 97V96.44C275.538 96.3733 275.845 96.3133 276.058 96.26C276.285 96.1933 276.438 96.0733 276.518 95.9C276.598 95.7667 276.645 95.5733 276.658 95.32C276.685 95.0667 276.698 94.7267 276.698 94.3V83.78ZM291.393 97.2C290.393 97.2 289.493 97.0267 288.693 96.68C287.906 96.3333 287.226 95.86 286.653 95.26C286.093 94.6467 285.659 93.9267 285.353 93.1C285.059 92.2733 284.913 91.38 284.913 90.42C284.913 89.46 285.059 88.5467 285.353 87.68C285.659 86.8133 286.093 86.04 286.653 85.36C287.213 84.68 287.893 84.1467 288.693 83.76C289.493 83.36 290.393 83.16 291.393 83.16C292.433 83.16 293.353 83.34 294.153 83.7C294.966 84.06 295.646 84.56 296.193 85.2C296.753 85.8267 297.173 86.5533 297.453 87.38C297.733 88.2067 297.873 89.0733 297.873 89.98C297.873 90.9667 297.719 91.9 297.413 92.78C297.119 93.6467 296.693 94.4133 296.133 95.08C295.586 95.7467 294.906 96.2667 294.093 96.64C293.293 97.0133 292.393 97.2 291.393 97.2ZM291.453 96.44C292.346 96.44 293.113 96.1867 293.753 95.68C294.406 95.16 294.906 94.44 295.253 93.52C295.599 92.6 295.773 91.54 295.773 90.34C295.773 89.42 295.673 88.5733 295.473 87.8C295.273 87.0267 294.979 86.3533 294.593 85.78C294.219 85.1933 293.759 84.74 293.213 84.42C292.666 84.0867 292.053 83.92 291.373 83.92C290.479 83.92 289.706 84.1667 289.053 84.66C288.399 85.1533 287.893 85.8467 287.533 86.74C287.186 87.6333 287.013 88.6933 287.013 89.92C287.013 90.8267 287.113 91.68 287.313 92.48C287.513 93.2667 287.806 93.9533 288.193 94.54C288.579 95.1267 289.046 95.5933 289.593 95.94C290.139 96.2733 290.759 96.44 291.453 96.44ZM307.181 86.1V96.24H311.521L312.861 93.04H313.481L313.201 97H303.641V96.44C304.041 96.3733 304.348 96.3067 304.561 96.24C304.775 96.1733 304.921 96.06 305.001 95.9C305.108 95.74 305.168 95.5067 305.181 95.2C305.208 94.88 305.221 94.4467 305.221 93.9V86.1C305.221 85.6733 305.208 85.3333 305.181 85.08C305.168 84.8267 305.121 84.6333 305.041 84.5C304.948 84.3267 304.795 84.2067 304.581 84.14C304.368 84.0733 304.055 84.0133 303.641 83.96V83.4C304.068 83.4133 304.401 83.4267 304.641 83.44C304.895 83.4533 305.135 83.4667 305.361 83.48C305.588 83.48 305.855 83.48 306.161 83.48C306.508 83.48 306.788 83.48 307.001 83.48C307.228 83.4667 307.468 83.4533 307.721 83.44C307.988 83.4267 308.328 83.4133 308.741 83.4V83.96C308.328 84.0133 308.015 84.0733 307.801 84.14C307.588 84.1933 307.435 84.3133 307.341 84.5C307.261 84.6467 307.215 84.8467 307.201 85.1C307.188 85.34 307.181 85.6733 307.181 86.1ZM321.08 97.2C320.08 97.2 319.18 97.0267 318.38 96.68C317.594 96.3333 316.914 95.86 316.34 95.26C315.78 94.6467 315.347 93.9267 315.04 93.1C314.747 92.2733 314.6 91.38 314.6 90.42C314.6 89.46 314.747 88.5467 315.04 87.68C315.347 86.8133 315.78 86.04 316.34 85.36C316.9 84.68 317.58 84.1467 318.38 83.76C319.18 83.36 320.08 83.16 321.08 83.16C322.12 83.16 323.04 83.34 323.84 83.7C324.654 84.06 325.334 84.56 325.88 85.2C326.44 85.8267 326.86 86.5533 327.14 87.38C327.42 88.2067 327.56 89.0733 327.56 89.98C327.56 90.9667 327.407 91.9 327.1 92.78C326.807 93.6467 326.38 94.4133 325.82 95.08C325.274 95.7467 324.594 96.2667 323.78 96.64C322.98 97.0133 322.08 97.2 321.08 97.2ZM321.14 96.44C322.034 96.44 322.8 96.1867 323.44 95.68C324.094 95.16 324.594 94.44 324.94 93.52C325.287 92.6 325.46 91.54 325.46 90.34C325.46 89.42 325.36 88.5733 325.16 87.8C324.96 87.0267 324.667 86.3533 324.28 85.78C323.907 85.1933 323.447 84.74 322.9 84.42C322.354 84.0867 321.74 83.92 321.06 83.92C320.167 83.92 319.394 84.1667 318.74 84.66C318.087 85.1533 317.58 85.8467 317.22 86.74C316.874 87.6333 316.7 88.6933 316.7 89.92C316.7 90.8267 316.8 91.68 317 92.48C317.2 93.2667 317.494 93.9533 317.88 94.54C318.267 95.1267 318.734 95.5933 319.28 95.94C319.827 96.2733 320.447 96.44 321.14 96.44ZM335.768 97.2C334.768 97.2 333.868 97.0267 333.068 96.68C332.281 96.3333 331.601 95.86 331.028 95.26C330.468 94.6467 330.034 93.9267 329.728 93.1C329.434 92.2733 329.288 91.38 329.288 90.42C329.288 89.46 329.434 88.5467 329.728 87.68C330.034 86.8133 330.468 86.04 331.028 85.36C331.588 84.68 332.268 84.1467 333.068 83.76C333.868 83.36 334.768 83.16 335.768 83.16C336.808 83.16 337.728 83.34 338.528 83.7C339.341 84.06 340.021 84.56 340.568 85.2C341.128 85.8267 341.548 86.5533 341.828 87.38C342.108 88.2067 342.248 89.0733 342.248 89.98C342.248 90.9667 342.094 91.9 341.788 92.78C341.494 93.6467 341.068 94.4133 340.508 95.08C339.961 95.7467 339.281 96.2667 338.468 96.64C337.668 97.0133 336.768 97.2 335.768 97.2ZM335.828 96.44C336.721 96.44 337.488 96.1867 338.128 95.68C338.781 95.16 339.281 94.44 339.628 93.52C339.974 92.6 340.148 91.54 340.148 90.34C340.148 89.42 340.048 88.5733 339.848 87.8C339.648 87.0267 339.354 86.3533 338.968 85.78C338.594 85.1933 338.134 84.74 337.588 84.42C337.041 84.0867 336.428 83.92 335.748 83.92C334.854 83.92 334.081 84.1667 333.428 84.66C332.774 85.1533 332.268 85.8467 331.908 86.74C331.561 87.6333 331.388 88.6933 331.388 89.92C331.388 90.8267 331.488 91.68 331.688 92.48C331.888 93.2667 332.181 93.9533 332.568 94.54C332.954 95.1267 333.421 95.5933 333.968 95.94C334.514 96.2733 335.134 96.44 335.828 96.44ZM347.195 91.5L346.155 91.46L352.455 85.6C352.722 85.3467 352.922 85.1533 353.055 85.02C353.202 84.8867 353.275 84.74 353.275 84.58C353.275 84.3933 353.175 84.2533 352.975 84.16C352.789 84.0667 352.515 84 352.155 83.96V83.4C352.569 83.4267 352.962 83.4467 353.335 83.46C353.709 83.4733 354.089 83.48 354.475 83.48C354.849 83.48 355.229 83.4733 355.615 83.46C356.002 83.4467 356.502 83.4267 357.115 83.4V83.96C356.675 84.0133 356.295 84.0933 355.975 84.2C355.669 84.2933 355.362 84.44 355.055 84.64C354.762 84.8267 354.422 85.0933 354.035 85.44L347.195 91.5ZM348.795 89.34L350.335 88.2L354.415 94.2C354.775 94.68 355.082 95.0667 355.335 95.36C355.589 95.64 355.815 95.8533 356.015 96C356.229 96.1333 356.455 96.2333 356.695 96.3C356.949 96.3533 357.242 96.4 357.575 96.44V97C357.029 96.9733 356.615 96.96 356.335 96.96C356.055 96.9467 355.795 96.94 355.555 96.94C355.315 96.94 355.069 96.9467 354.815 96.96C354.575 96.9733 354.329 96.9867 354.075 97L348.795 89.34ZM347.535 86.08V94.32C347.535 94.72 347.542 95.0467 347.555 95.3C347.582 95.5533 347.629 95.7533 347.695 95.9C347.802 96.0733 347.969 96.1933 348.195 96.26C348.422 96.3133 348.762 96.3733 349.215 96.44V97C348.789 96.9733 348.442 96.96 348.175 96.96C347.909 96.9467 347.655 96.94 347.415 96.94C347.175 96.9267 346.882 96.92 346.535 96.92C346.202 96.92 345.915 96.9267 345.675 96.94C345.449 96.94 345.202 96.9467 344.935 96.96C344.682 96.96 344.335 96.9733 343.895 97V96.44C344.322 96.3733 344.655 96.3133 344.895 96.26C345.135 96.1933 345.302 96.0733 345.395 95.9C345.475 95.7667 345.522 95.5733 345.535 95.32C345.562 95.0667 345.575 94.7267 345.575 94.3V86.1C345.575 85.6733 345.562 85.3333 345.535 85.08C345.522 84.8267 345.475 84.6333 345.395 84.5C345.302 84.3267 345.135 84.2067 344.895 84.14C344.655 84.0733 344.322 84.0133 343.895 83.96V83.4C344.335 83.4133 344.682 83.4267 344.935 83.44C345.202 83.4533 345.449 83.4667 345.675 83.48C345.915 83.48 346.202 83.48 346.535 83.48C346.882 83.48 347.175 83.48 347.415 83.48C347.655 83.4667 347.909 83.4533 348.175 83.44C348.442 83.4267 348.789 83.4133 349.215 83.4V83.96C348.762 84.0133 348.422 84.0733 348.195 84.14C347.969 84.1933 347.802 84.3133 347.695 84.5C347.629 84.6467 347.582 84.8467 347.555 85.1C347.542 85.34 347.535 85.6667 347.535 86.08ZM369.147 97.2C368.147 97.2 367.247 97.0267 366.447 96.68C365.66 96.3333 364.98 95.86 364.407 95.26C363.847 94.6467 363.413 93.9267 363.107 93.1C362.813 92.2733 362.667 91.38 362.667 90.42C362.667 89.46 362.813 88.5467 363.107 87.68C363.413 86.8133 363.847 86.04 364.407 85.36C364.967 84.68 365.647 84.1467 366.447 83.76C367.247 83.36 368.147 83.16 369.147 83.16C370.187 83.16 371.107 83.34 371.907 83.7C372.72 84.06 373.4 84.56 373.947 85.2C374.507 85.8267 374.927 86.5533 375.207 87.38C375.487 88.2067 375.627 89.0733 375.627 89.98C375.627 90.9667 375.473 91.9 375.167 92.78C374.873 93.6467 374.447 94.4133 373.887 95.08C373.34 95.7467 372.66 96.2667 371.847 96.64C371.047 97.0133 370.147 97.2 369.147 97.2ZM369.207 96.44C370.1 96.44 370.867 96.1867 371.507 95.68C372.16 95.16 372.66 94.44 373.007 93.52C373.353 92.6 373.527 91.54 373.527 90.34C373.527 89.42 373.427 88.5733 373.227 87.8C373.027 87.0267 372.733 86.3533 372.347 85.78C371.973 85.1933 371.513 84.74 370.967 84.42C370.42 84.0867 369.807 83.92 369.127 83.92C368.233 83.92 367.46 84.1667 366.807 84.66C366.153 85.1533 365.647 85.8467 365.287 86.74C364.94 87.6333 364.767 88.6933 364.767 89.92C364.767 90.8267 364.867 91.68 365.067 92.48C365.267 93.2667 365.56 93.9533 365.947 94.54C366.333 95.1267 366.8 95.5933 367.347 95.94C367.893 96.2733 368.513 96.44 369.207 96.44ZM388.534 86.24V91.12C388.534 93.12 388.141 94.6333 387.354 95.66C386.567 96.6867 385.281 97.2 383.494 97.2C382.214 97.2 381.194 96.96 380.434 96.48C379.674 96 379.127 95.3067 378.794 94.4C378.474 93.4933 378.314 92.3933 378.314 91.1V86.1C378.314 85.6733 378.301 85.3333 378.274 85.08C378.261 84.8267 378.214 84.6333 378.134 84.5C378.054 84.3267 377.907 84.2067 377.694 84.14C377.481 84.0733 377.174 84.0133 376.774 83.96V83.4C377.187 83.4133 377.514 83.4267 377.754 83.44C378.007 83.4533 378.241 83.4667 378.454 83.48C378.681 83.48 378.954 83.48 379.274 83.48C379.607 83.48 379.881 83.48 380.094 83.48C380.321 83.4667 380.561 83.4533 380.814 83.44C381.067 83.4267 381.407 83.4133 381.834 83.4V83.96C381.421 84.0133 381.107 84.0733 380.894 84.14C380.694 84.1933 380.541 84.3133 380.434 84.5C380.367 84.6467 380.321 84.8467 380.294 85.1C380.281 85.34 380.274 85.6733 380.274 86.1V90.8C380.274 91.9067 380.387 92.86 380.614 93.66C380.854 94.46 381.234 95.0733 381.754 95.5C382.287 95.9133 383.001 96.12 383.894 96.12C385.094 96.12 385.981 95.7533 386.554 95.02C387.141 94.2733 387.434 93.1067 387.434 91.52V86.24C387.434 85.7867 387.421 85.4267 387.394 85.16C387.381 84.8933 387.341 84.68 387.274 84.52C387.181 84.3333 387.027 84.2067 386.814 84.14C386.601 84.0733 386.301 84.0133 385.914 83.96V83.4C386.247 83.4133 386.521 83.4267 386.734 83.44C386.947 83.4533 387.154 83.4667 387.354 83.48C387.554 83.48 387.794 83.48 388.074 83.48C388.341 83.48 388.554 83.48 388.714 83.48C388.887 83.4667 389.067 83.4533 389.254 83.44C389.454 83.4267 389.721 83.4133 390.054 83.4V83.96C389.681 84.0267 389.394 84.0867 389.194 84.14C388.994 84.1933 388.847 84.3 388.754 84.46C388.661 84.6067 388.601 84.82 388.574 85.1C388.547 85.3667 388.534 85.7467 388.534 86.24ZM390.782 87.64L391.122 83.4H402.302L402.642 87.64H402.022L400.622 84.22H392.802L391.402 87.64H390.782ZM395.722 83.78H397.682V94.32C397.682 94.72 397.688 95.0467 397.702 95.3C397.728 95.5533 397.775 95.7533 397.842 95.9C397.948 96.0733 398.108 96.1933 398.322 96.26C398.535 96.3133 398.848 96.3733 399.262 96.44V97C398.835 96.9733 398.495 96.96 398.242 96.96C397.988 96.9467 397.748 96.94 397.522 96.94C397.295 96.9267 397.015 96.92 396.682 96.92C396.362 96.92 396.088 96.9267 395.862 96.94C395.648 96.94 395.415 96.9467 395.162 96.96C394.908 96.96 394.575 96.9733 394.162 97V96.44C394.562 96.3733 394.868 96.3133 395.082 96.26C395.308 96.1933 395.462 96.0733 395.542 95.9C395.622 95.7667 395.668 95.5733 395.682 95.32C395.708 95.0667 395.722 94.7267 395.722 94.3V83.78ZM410.417 90.72V89.9H413.057C413.564 89.9 413.964 89.88 414.257 89.84C414.551 89.7867 414.771 89.6933 414.917 89.56C415.077 89.4267 415.197 89.2333 415.277 88.98C415.357 88.7267 415.444 88.4067 415.537 88.02H416.117V92.6H415.537C415.444 92.2 415.357 91.88 415.277 91.64C415.197 91.3867 415.077 91.1933 414.917 91.06C414.771 90.9267 414.551 90.84 414.257 90.8C413.964 90.7467 413.564 90.72 413.057 90.72H410.417ZM407.977 83.4H417.757L417.957 86.94H417.357L416.097 84.16H411.517V94.32C411.517 94.72 411.524 95.0467 411.537 95.3C411.551 95.5533 411.597 95.7533 411.677 95.9C411.771 96.0733 411.924 96.1933 412.137 96.26C412.351 96.3133 412.664 96.3733 413.077 96.44V97C412.664 96.9733 412.324 96.96 412.057 96.96C411.804 96.9467 411.564 96.94 411.337 96.94C411.124 96.9267 410.844 96.92 410.497 96.92C410.191 96.92 409.924 96.9267 409.697 96.94C409.471 96.94 409.231 96.9467 408.977 96.96C408.737 96.96 408.404 96.9733 407.977 97V96.44C408.391 96.3733 408.704 96.3133 408.917 96.26C409.131 96.1933 409.284 96.0733 409.377 95.9C409.457 95.7667 409.504 95.5733 409.517 95.32C409.544 95.0667 409.557 94.7267 409.557 94.3V86.5C409.557 85.9133 409.544 85.46 409.517 85.14C409.491 84.82 409.417 84.58 409.297 84.42C409.204 84.2733 409.051 84.1733 408.837 84.12C408.637 84.0533 408.351 84.0067 407.977 83.98V83.4ZM425.729 97.2C424.729 97.2 423.829 97.0267 423.029 96.68C422.242 96.3333 421.562 95.86 420.989 95.26C420.429 94.6467 419.995 93.9267 419.689 93.1C419.395 92.2733 419.249 91.38 419.249 90.42C419.249 89.46 419.395 88.5467 419.689 87.68C419.995 86.8133 420.429 86.04 420.989 85.36C421.549 84.68 422.229 84.1467 423.029 83.76C423.829 83.36 424.729 83.16 425.729 83.16C426.769 83.16 427.689 83.34 428.489 83.7C429.302 84.06 429.982 84.56 430.529 85.2C431.089 85.8267 431.509 86.5533 431.789 87.38C432.069 88.2067 432.209 89.0733 432.209 89.98C432.209 90.9667 432.055 91.9 431.749 92.78C431.455 93.6467 431.029 94.4133 430.469 95.08C429.922 95.7467 429.242 96.2667 428.429 96.64C427.629 97.0133 426.729 97.2 425.729 97.2ZM425.789 96.44C426.682 96.44 427.449 96.1867 428.089 95.68C428.742 95.16 429.242 94.44 429.589 93.52C429.935 92.6 430.109 91.54 430.109 90.34C430.109 89.42 430.009 88.5733 429.809 87.8C429.609 87.0267 429.315 86.3533 428.929 85.78C428.555 85.1933 428.095 84.74 427.549 84.42C427.002 84.0867 426.389 83.92 425.709 83.92C424.815 83.92 424.042 84.1667 423.389 84.66C422.735 85.1533 422.229 85.8467 421.869 86.74C421.522 87.6333 421.349 88.6933 421.349 89.92C421.349 90.8267 421.449 91.68 421.649 92.48C421.849 93.2667 422.142 93.9533 422.529 94.54C422.915 95.1267 423.382 95.5933 423.929 95.94C424.475 96.2733 425.095 96.44 425.789 96.44ZM439.176 90.36L441.136 90.22L443.876 94.42C444.236 94.9667 444.556 95.38 444.836 95.66C445.116 95.9267 445.396 96.1133 445.676 96.22C445.956 96.3133 446.276 96.3867 446.636 96.44V97C446.21 96.9867 445.85 96.9733 445.556 96.96C445.263 96.9467 444.983 96.94 444.716 96.94C444.463 96.94 444.21 96.9467 443.956 96.96C443.716 96.9733 443.463 96.9867 443.196 97L439.176 90.36ZM437.436 84.12V93.9C437.436 94.4333 437.443 94.86 437.456 95.18C437.483 95.5 437.536 95.74 437.616 95.9C437.723 96.0733 437.89 96.1933 438.116 96.26C438.343 96.3133 438.676 96.3733 439.116 96.44V97C438.69 96.9733 438.35 96.96 438.096 96.96C437.843 96.9467 437.596 96.94 437.356 96.94C437.13 96.9267 436.836 96.92 436.476 96.92C436.143 96.92 435.856 96.9267 435.616 96.94C435.39 96.94 435.15 96.9467 434.896 96.96C434.643 96.96 434.303 96.9733 433.876 97V96.44C434.303 96.3733 434.623 96.3067 434.836 96.24C435.063 96.1733 435.223 96.06 435.316 95.9C435.423 95.7267 435.49 95.4867 435.516 95.18C435.543 94.86 435.556 94.4267 435.556 93.88V86.5C435.556 85.94 435.543 85.5067 435.516 85.2C435.503 84.88 435.436 84.64 435.316 84.48C435.223 84.32 435.063 84.2067 434.836 84.14C434.623 84.0733 434.33 84.0133 433.956 83.96V83.4H439.136C440.31 83.4 441.303 83.5133 442.116 83.74C442.943 83.9667 443.576 84.3267 444.016 84.82C444.456 85.3133 444.676 85.9467 444.676 86.72C444.676 87.3467 444.53 87.9067 444.236 88.4C443.943 88.8933 443.523 89.3133 442.976 89.66C442.443 90.0067 441.796 90.2733 441.036 90.46C440.276 90.6333 439.416 90.72 438.456 90.72H437.276V89.84C437.49 89.88 437.716 89.9133 437.956 89.94C438.21 89.9533 438.456 89.96 438.696 89.96C439.656 89.96 440.423 89.84 440.996 89.6C441.583 89.36 442.003 89.02 442.256 88.58C442.523 88.14 442.656 87.6333 442.656 87.06C442.656 86.4333 442.51 85.9067 442.216 85.48C441.923 85.04 441.496 84.7067 440.936 84.48C440.376 84.24 439.696 84.12 438.896 84.12H437.436ZM455.189 86.08V94.32C455.189 94.72 455.196 95.0467 455.209 95.3C455.222 95.5533 455.269 95.7533 455.349 95.9C455.442 96.0733 455.596 96.1933 455.809 96.26C456.022 96.3133 456.336 96.3733 456.749 96.44V97C456.336 96.9733 456.002 96.96 455.749 96.96C455.496 96.9467 455.256 96.94 455.029 96.94C454.816 96.9267 454.542 96.92 454.209 96.92C453.889 96.92 453.609 96.9267 453.369 96.94C453.142 96.94 452.902 96.9467 452.649 96.96C452.409 96.96 452.076 96.9733 451.649 97V96.44C452.062 96.3733 452.376 96.3133 452.589 96.26C452.802 96.1933 452.956 96.0733 453.049 95.9C453.129 95.7667 453.176 95.5733 453.189 95.32C453.216 95.0667 453.229 94.7267 453.229 94.3V86.1C453.229 85.6733 453.216 85.3333 453.189 85.08C453.176 84.8267 453.129 84.6333 453.049 84.5C452.956 84.3267 452.802 84.2067 452.589 84.14C452.376 84.0733 452.062 84.0133 451.649 83.96V83.4C452.076 83.4133 452.409 83.4267 452.649 83.44C452.902 83.4533 453.142 83.4667 453.369 83.48C453.609 83.48 453.889 83.48 454.209 83.48C454.542 83.48 454.816 83.48 455.029 83.48C455.256 83.4667 455.496 83.4533 455.749 83.44C456.002 83.4267 456.336 83.4133 456.749 83.4V83.96C456.336 84.0133 456.022 84.0733 455.809 84.14C455.596 84.1933 455.442 84.3133 455.349 84.5C455.269 84.6467 455.222 84.8467 455.209 85.1C455.196 85.34 455.189 85.6667 455.189 86.08ZM469.889 83.48C470.169 83.48 470.456 83.4733 470.749 83.46C471.056 83.4333 471.409 83.4133 471.809 83.4V83.96C471.396 84.0133 471.096 84.0733 470.909 84.14C470.736 84.1933 470.603 84.3133 470.509 84.5C470.429 84.66 470.383 84.9 470.369 85.22C470.356 85.54 470.349 85.9733 470.349 86.52V97H469.689L460.809 85.76L460.829 93.86C460.829 94.42 460.836 94.86 460.849 95.18C460.863 95.5 460.909 95.74 460.989 95.9C461.083 96.0733 461.243 96.1933 461.469 96.26C461.709 96.3133 462.176 96.3733 462.869 96.44V97C462.176 96.9733 461.649 96.9533 461.289 96.94C460.943 96.9267 460.623 96.92 460.329 96.92C460.036 96.92 459.723 96.9267 459.389 96.94C459.069 96.9533 458.709 96.9733 458.309 97V96.44C458.696 96.3733 458.983 96.3133 459.169 96.26C459.356 96.2067 459.489 96.1067 459.569 95.96C459.663 95.8 459.716 95.56 459.729 95.24C459.756 94.92 459.769 94.46 459.769 93.86V86.54C459.769 85.94 459.756 85.48 459.729 85.16C459.716 84.8267 459.663 84.5867 459.569 84.44C459.476 84.2933 459.329 84.1933 459.129 84.14C458.943 84.0733 458.669 84.0133 458.309 83.96V83.4H461.409L469.269 93.5V86.54C469.269 85.94 469.256 85.48 469.229 85.16C469.216 84.84 469.163 84.6 469.069 84.44C468.989 84.2933 468.829 84.1933 468.589 84.14C468.363 84.0733 467.916 84.0133 467.249 83.96V83.4C467.956 83.4133 468.496 83.4333 468.869 83.46C469.243 83.4733 469.583 83.48 469.889 83.48ZM477.609 86.74L477.089 86.4C477.516 85.6267 478.069 85 478.749 84.52C479.442 84.04 480.236 83.8 481.129 83.8C481.889 83.8 482.556 83.9467 483.129 84.24C483.716 84.5333 484.176 84.9467 484.509 85.48C484.842 86.0133 485.009 86.6333 485.009 87.34C485.009 87.9133 484.902 88.4467 484.689 88.94C484.476 89.4333 484.196 89.9067 483.849 90.36C483.516 90.8 483.149 91.22 482.749 91.62C482.349 92.02 481.956 92.4067 481.569 92.78L478.109 96.18L478.489 95.3H484.309L484.949 93.74H485.449L485.169 97H477.049V96.52L480.329 92.78C480.982 92.0467 481.502 91.4067 481.889 90.86C482.289 90.3 482.576 89.78 482.749 89.3C482.936 88.8067 483.029 88.3067 483.029 87.8C483.029 86.9067 482.789 86.2333 482.309 85.78C481.842 85.3133 481.242 85.08 480.509 85.08C479.856 85.08 479.289 85.24 478.809 85.56C478.329 85.8667 477.929 86.26 477.609 86.74ZM492.434 97.2C491.474 97.2 490.627 96.9067 489.894 96.32C489.174 95.72 488.614 94.92 488.214 93.92C487.827 92.92 487.634 91.8133 487.634 90.6C487.634 89.76 487.741 88.9333 487.954 88.12C488.167 87.3067 488.487 86.58 488.914 85.94C489.341 85.2867 489.874 84.7667 490.514 84.38C491.154 83.9933 491.894 83.8 492.734 83.8C493.721 83.8 494.574 84.08 495.294 84.64C496.027 85.2 496.587 85.9667 496.974 86.94C497.374 87.9 497.574 89 497.574 90.24C497.574 91.1467 497.454 92.02 497.214 92.86C496.987 93.6867 496.647 94.4267 496.194 95.08C495.741 95.7333 495.194 96.2533 494.554 96.64C493.927 97.0133 493.221 97.2 492.434 97.2ZM492.614 96.46C493.214 96.46 493.734 96.22 494.174 95.74C494.614 95.26 494.954 94.58 495.194 93.7C495.447 92.82 495.574 91.7933 495.574 90.62C495.574 89.4067 495.454 88.3467 495.214 87.44C494.987 86.52 494.641 85.8067 494.174 85.3C493.721 84.7933 493.174 84.54 492.534 84.54C491.627 84.54 490.914 85.02 490.394 85.98C489.887 86.9267 489.634 88.28 489.634 90.04C489.634 91.2667 489.747 92.3667 489.974 93.34C490.201 94.3133 490.534 95.08 490.974 95.64C491.414 96.1867 491.961 96.46 492.614 96.46ZM499.64 86.74L499.12 86.4C499.547 85.6267 500.1 85 500.78 84.52C501.474 84.04 502.267 83.8 503.16 83.8C503.92 83.8 504.587 83.9467 505.16 84.24C505.747 84.5333 506.207 84.9467 506.54 85.48C506.874 86.0133 507.04 86.6333 507.04 87.34C507.04 87.9133 506.934 88.4467 506.72 88.94C506.507 89.4333 506.227 89.9067 505.88 90.36C505.547 90.8 505.18 91.22 504.78 91.62C504.38 92.02 503.987 92.4067 503.6 92.78L500.14 96.18L500.52 95.3H506.34L506.98 93.74H507.48L507.2 97H499.08V96.52L502.36 92.78C503.014 92.0467 503.534 91.4067 503.92 90.86C504.32 90.3 504.607 89.78 504.78 89.3C504.967 88.8067 505.06 88.3067 505.06 87.8C505.06 86.9067 504.82 86.2333 504.34 85.78C503.874 85.3133 503.274 85.08 502.54 85.08C501.887 85.08 501.32 85.24 500.84 85.56C500.36 85.8667 499.96 86.26 499.64 86.74ZM509.425 86.74L508.905 86.4C509.332 85.6267 509.885 85 510.565 84.52C511.259 84.04 512.052 83.8 512.945 83.8C513.705 83.8 514.372 83.9467 514.945 84.24C515.532 84.5333 515.992 84.9467 516.325 85.48C516.659 86.0133 516.825 86.6333 516.825 87.34C516.825 87.9133 516.719 88.4467 516.505 88.94C516.292 89.4333 516.012 89.9067 515.665 90.36C515.332 90.8 514.965 91.22 514.565 91.62C514.165 92.02 513.772 92.4067 513.385 92.78L509.925 96.18L510.305 95.3H516.125L516.765 93.74H517.265L516.985 97H508.865V96.52L512.145 92.78C512.799 92.0467 513.319 91.4067 513.705 90.86C514.105 90.3 514.392 89.78 514.565 89.3C514.752 88.8067 514.845 88.3067 514.845 87.8C514.845 86.9067 514.605 86.2333 514.125 85.78C513.659 85.3133 513.059 85.08 512.325 85.08C511.672 85.08 511.105 85.24 510.625 85.56C510.145 85.8667 509.745 86.26 509.425 86.74Z" fill="#7D97C2"/>
</svg>
