<svg width="474" height="91" viewBox="0 0 474 91" fill="none" xmlns="http://www.w3.org/2000/svg">
<path d="M84.52 27.92V25.88H88.56C89.76 25.88 90.6933 25.8267 91.36 25.72C92.0533 25.6133 92.5733 25.4267 92.92 25.16C93.2933 24.8933 93.5733 24.52 93.76 24.04C93.9467 23.5333 94.1333 22.9067 94.32 22.16H95.84V31.64H94.32C94.1333 30.8933 93.9467 30.28 93.76 29.8C93.5733 29.32 93.2933 28.9467 92.92 28.68C92.5733 28.3867 92.0533 28.1867 91.36 28.08C90.6933 27.9733 89.76 27.92 88.56 27.92H84.52ZM96.6 39.08L100.44 33.16H101.96L101.16 41H79.52V39.48C80.48 39.3467 81.16 39.2267 81.56 39.12C81.9867 38.9867 82.28 38.7867 82.44 38.52C82.6267 38.2 82.7333 37.7333 82.76 37.12C82.8133 36.48 82.84 35.56 82.84 34.36V20.44C82.84 19.24 82.8133 18.3333 82.76 17.72C82.7333 17.08 82.6267 16.6 82.44 16.28C82.28 15.9867 81.9867 15.7867 81.56 15.68C81.16 15.5467 80.48 15.4267 79.52 15.32V13.8H100.56L100.96 21.28H99.44L96 15.72H88.84V39.08H96.6ZM113.064 27.48V34.56C113.064 35.6533 113.077 36.52 113.104 37.16C113.131 37.8 113.224 38.28 113.384 38.6C113.571 38.9467 113.824 39.1867 114.144 39.32C114.491 39.4267 114.971 39.5467 115.584 39.68V41C114.651 40.9467 113.931 40.92 113.424 40.92C112.944 40.8933 112.491 40.88 112.064 40.88C111.637 40.8533 111.024 40.84 110.224 40.84C109.451 40.84 108.837 40.8533 108.384 40.88C107.957 40.88 107.491 40.8933 106.984 40.92C106.504 40.92 105.797 40.9467 104.864 41V39.68C105.424 39.5467 105.877 39.4267 106.224 39.32C106.571 39.2133 106.824 39.0133 106.984 38.72C107.171 38.4 107.277 37.92 107.304 37.28C107.357 36.64 107.384 35.72 107.384 34.52V29.08C107.384 28.2267 107.357 27.56 107.304 27.08C107.277 26.6 107.171 26.2267 106.984 25.96C106.797 25.72 106.544 25.56 106.224 25.48C105.904 25.3733 105.451 25.2667 104.864 25.16V23.76C106.277 23.6267 107.584 23.4267 108.784 23.16C110.011 22.8933 111.157 22.5867 112.224 22.24L113.264 22.76C113.157 23.4267 113.091 24.1467 113.064 24.92C113.064 25.6933 113.064 26.5467 113.064 27.48ZM125.904 29.04V34.56C125.904 35.6533 125.917 36.52 125.944 37.16C125.971 37.8 126.064 38.28 126.224 38.6C126.411 38.9467 126.664 39.1867 126.984 39.32C127.331 39.4267 127.811 39.5467 128.424 39.68V41C127.491 40.9467 126.771 40.92 126.264 40.92C125.784 40.8933 125.331 40.88 124.904 40.88C124.477 40.8533 123.864 40.84 123.064 40.84C122.291 40.84 121.677 40.8533 121.224 40.88C120.797 40.88 120.331 40.8933 119.824 40.92C119.344 40.92 118.637 40.9467 117.704 41V39.68C118.264 39.5467 118.717 39.4267 119.064 39.32C119.411 39.2133 119.664 39.0133 119.824 38.72C120.011 38.4 120.117 37.92 120.144 37.28C120.197 36.64 120.224 35.72 120.224 34.52V31.84C120.224 30.6133 120.091 29.6 119.824 28.8C119.584 27.9733 119.184 27.36 118.624 26.96C118.091 26.5333 117.371 26.32 116.464 26.32C115.397 26.32 114.531 26.5067 113.864 26.88C113.224 27.2267 112.611 27.6533 112.024 28.16H111.064C111.837 27.1733 112.611 26.2267 113.384 25.32C114.184 24.4133 115.064 23.6667 116.024 23.08C116.984 22.4933 118.117 22.2 119.424 22.2C120.544 22.2 121.597 22.4533 122.584 22.96C123.571 23.4667 124.371 24.2267 124.984 25.24C125.597 26.2267 125.904 27.4933 125.904 29.04ZM137.611 41.4C135.904 41.4 134.571 40.9067 133.611 39.92C132.678 38.9067 132.211 37.5867 132.211 35.96V25.04H130.131V23.4C131.464 23.16 132.678 22.5333 133.771 21.52C134.864 20.5067 135.718 19.2267 136.331 17.68H137.891V22.84L143.771 22.6V25.04H137.891V34.04C137.891 35.7467 138.158 36.92 138.691 37.56C139.224 38.2 140.064 38.52 141.211 38.52C141.664 38.52 142.078 38.48 142.451 38.4C142.824 38.32 143.144 38.2267 143.411 38.12L143.971 39.72C142.904 40.2267 141.811 40.64 140.691 40.96C139.598 41.2533 138.571 41.4 137.611 41.4ZM152.733 30.4L151.813 31.04C152.773 29.1467 153.653 27.5733 154.453 26.32C155.253 25.0667 156.053 24.1333 156.853 23.52C157.679 22.9067 158.586 22.6 159.573 22.6C159.706 22.6 159.893 22.6133 160.133 22.64C160.373 22.6667 160.626 22.7067 160.893 22.76L160.053 28.12C158.346 28.12 156.839 28.2933 155.533 28.64C154.226 28.9867 153.293 29.5733 152.733 30.4ZM153.533 27.4V34.56C153.533 35.6533 153.546 36.52 153.573 37.16C153.599 37.8 153.693 38.28 153.853 38.6C154.039 38.9467 154.346 39.1867 154.773 39.32C155.199 39.4267 156.026 39.5467 157.253 39.68V41C156.266 40.9733 155.466 40.9467 154.853 40.92C154.266 40.8933 153.773 40.88 153.373 40.88C152.973 40.8533 152.573 40.84 152.173 40.84C151.773 40.84 151.279 40.84 150.693 40.84C149.919 40.84 149.306 40.8533 148.853 40.88C148.426 40.88 147.959 40.8933 147.453 40.92C146.973 40.92 146.266 40.9467 145.333 41V39.68C145.893 39.5467 146.346 39.4267 146.693 39.32C147.039 39.2133 147.293 39.0133 147.453 38.72C147.639 38.4 147.746 37.92 147.773 37.28C147.826 36.64 147.853 35.72 147.853 34.52V29C147.853 28.1467 147.826 27.48 147.773 27C147.746 26.52 147.639 26.1467 147.453 25.88C147.266 25.64 147.013 25.48 146.693 25.4C146.373 25.2933 145.919 25.1867 145.333 25.08V23.68C146.719 23.5467 147.999 23.36 149.173 23.12C150.346 22.8533 151.453 22.5467 152.493 22.2L153.693 22.84C153.613 23.5067 153.559 24.2133 153.533 24.96C153.533 25.68 153.533 26.4933 153.533 27.4ZM179.326 37.4C178.899 37.9333 178.299 38.5067 177.526 39.12C176.753 39.7333 175.833 40.2533 174.766 40.68C173.699 41.1067 172.486 41.32 171.126 41.32C169.179 41.32 167.553 40.92 166.246 40.12C164.966 39.2933 164.006 38.2 163.366 36.84C162.753 35.48 162.446 34.0133 162.446 32.44C162.446 30.5467 162.846 28.8267 163.646 27.28C164.473 25.7333 165.619 24.5067 167.086 23.6C168.579 22.6667 170.339 22.2 172.366 22.2C174.526 22.2 176.259 22.88 177.566 24.24C178.899 25.5733 179.566 27.32 179.566 29.48V31.52H166.566L166.726 29.84L173.966 29.48C173.966 28.4667 173.873 27.5467 173.686 26.72C173.526 25.8933 173.246 25.2267 172.846 24.72C172.473 24.2133 171.979 23.96 171.366 23.96C170.646 23.96 170.059 24.3333 169.606 25.08C169.179 25.8267 168.859 26.76 168.646 27.88C168.459 29 168.366 30.1467 168.366 31.32C168.366 33.3467 168.793 34.96 169.646 36.16C170.526 37.3333 171.899 37.92 173.766 37.92C174.779 37.92 175.659 37.7467 176.406 37.4C177.153 37.0533 177.779 36.6267 178.286 36.12L179.326 37.4ZM184.778 38.8L188.218 35.52C188.645 36.6667 189.151 37.64 189.738 38.44C190.351 39.2133 191.258 39.6 192.458 39.6C193.498 39.6 194.351 39.2933 195.018 38.68C195.685 38.04 196.165 37.1867 196.458 36.12C196.778 35.0533 196.938 33.8667 196.938 32.56C196.938 31.2267 196.791 30.0933 196.498 29.16C196.205 28.2267 195.751 27.52 195.138 27.04C194.551 26.5333 193.805 26.28 192.898 26.28C192.018 26.28 191.218 26.4667 190.498 26.84C189.805 27.2133 189.205 27.6267 188.698 28.08L188.778 26.72C189.365 25.9733 190.005 25.2533 190.698 24.56C191.391 23.8667 192.178 23.3067 193.058 22.88C193.965 22.4267 194.978 22.2 196.098 22.2C197.565 22.2 198.778 22.56 199.738 23.28C200.698 24 201.418 24.9733 201.898 26.2C202.378 27.4267 202.618 28.8 202.618 30.32C202.618 32.6133 202.098 34.5867 201.058 36.24C200.045 37.8933 198.685 39.1733 196.978 40.08C195.271 40.96 193.405 41.4 191.378 41.4C190.578 41.4 189.738 41.32 188.858 41.16C188.005 41 187.218 40.7333 186.498 40.36C185.778 39.9867 185.205 39.4667 184.778 38.8ZM189.658 27.48V43.16C189.658 44.2533 189.671 45.12 189.698 45.76C189.725 46.4 189.818 46.88 189.978 47.2C190.165 47.5467 190.471 47.7733 190.898 47.88C191.325 48.0133 192.151 48.1467 193.378 48.28V49.6C192.391 49.5733 191.591 49.5467 190.978 49.52C190.391 49.4933 189.898 49.4667 189.498 49.44C189.098 49.44 188.698 49.44 188.298 49.44C187.898 49.44 187.405 49.44 186.818 49.44C186.045 49.44 185.431 49.44 184.978 49.44C184.551 49.4667 184.085 49.48 183.578 49.48C183.098 49.5067 182.391 49.5467 181.458 49.6V48.28C182.018 48.1467 182.471 48.0267 182.818 47.92C183.165 47.8133 183.418 47.6133 183.578 47.32C183.765 47 183.871 46.52 183.898 45.88C183.951 45.24 183.978 44.32 183.978 43.12V29.08C183.978 28.2267 183.951 27.56 183.898 27.08C183.871 26.6 183.765 26.2267 183.578 25.96C183.391 25.72 183.138 25.56 182.818 25.48C182.498 25.3733 182.045 25.2667 181.458 25.16V23.76C182.871 23.6267 184.178 23.4267 185.378 23.16C186.605 22.8933 187.751 22.5867 188.818 22.24L189.858 22.76C189.751 23.4267 189.685 24.1467 189.658 24.92C189.658 25.6933 189.658 26.5467 189.658 27.48ZM212.577 30.4L211.657 31.04C212.617 29.1467 213.497 27.5733 214.297 26.32C215.097 25.0667 215.897 24.1333 216.697 23.52C217.523 22.9067 218.43 22.6 219.417 22.6C219.55 22.6 219.737 22.6133 219.977 22.64C220.217 22.6667 220.47 22.7067 220.737 22.76L219.897 28.12C218.19 28.12 216.683 28.2933 215.377 28.64C214.07 28.9867 213.137 29.5733 212.577 30.4ZM213.377 27.4V34.56C213.377 35.6533 213.39 36.52 213.417 37.16C213.443 37.8 213.537 38.28 213.697 38.6C213.883 38.9467 214.19 39.1867 214.617 39.32C215.043 39.4267 215.87 39.5467 217.097 39.68V41C216.11 40.9733 215.31 40.9467 214.697 40.92C214.11 40.8933 213.617 40.88 213.217 40.88C212.817 40.8533 212.417 40.84 212.017 40.84C211.617 40.84 211.123 40.84 210.537 40.84C209.763 40.84 209.15 40.8533 208.697 40.88C208.27 40.88 207.803 40.8933 207.297 40.92C206.817 40.92 206.11 40.9467 205.177 41V39.68C205.737 39.5467 206.19 39.4267 206.537 39.32C206.883 39.2133 207.137 39.0133 207.297 38.72C207.483 38.4 207.59 37.92 207.617 37.28C207.67 36.64 207.697 35.72 207.697 34.52V29C207.697 28.1467 207.67 27.48 207.617 27C207.59 26.52 207.483 26.1467 207.297 25.88C207.11 25.64 206.857 25.48 206.537 25.4C206.217 25.2933 205.763 25.1867 205.177 25.08V23.68C206.563 23.5467 207.843 23.36 209.017 23.12C210.19 22.8533 211.297 22.5467 212.337 22.2L213.537 22.84C213.457 23.5067 213.403 24.2133 213.377 24.96C213.377 25.68 213.377 26.4933 213.377 27.4ZM239.17 37.4C238.743 37.9333 238.143 38.5067 237.37 39.12C236.596 39.7333 235.676 40.2533 234.61 40.68C233.543 41.1067 232.33 41.32 230.97 41.32C229.023 41.32 227.396 40.92 226.09 40.12C224.81 39.2933 223.85 38.2 223.21 36.84C222.596 35.48 222.29 34.0133 222.29 32.44C222.29 30.5467 222.69 28.8267 223.49 27.28C224.316 25.7333 225.463 24.5067 226.93 23.6C228.423 22.6667 230.183 22.2 232.21 22.2C234.37 22.2 236.103 22.88 237.41 24.24C238.743 25.5733 239.41 27.32 239.41 29.48V31.52H226.41L226.57 29.84L233.81 29.48C233.81 28.4667 233.716 27.5467 233.53 26.72C233.37 25.8933 233.09 25.2267 232.69 24.72C232.316 24.2133 231.823 23.96 231.21 23.96C230.49 23.96 229.903 24.3333 229.45 25.08C229.023 25.8267 228.703 26.76 228.49 27.88C228.303 29 228.21 30.1467 228.21 31.32C228.21 33.3467 228.636 34.96 229.49 36.16C230.37 37.3333 231.743 37.92 233.61 37.92C234.623 37.92 235.503 37.7467 236.25 37.4C236.996 37.0533 237.623 36.6267 238.13 36.12L239.17 37.4ZM249.822 27.48V34.56C249.822 35.6533 249.835 36.52 249.862 37.16C249.889 37.8 249.982 38.28 250.142 38.6C250.329 38.9467 250.582 39.1867 250.902 39.32C251.249 39.4267 251.729 39.5467 252.342 39.68V41C251.409 40.9467 250.689 40.92 250.182 40.92C249.702 40.8933 249.249 40.88 248.822 40.88C248.395 40.8533 247.782 40.84 246.982 40.84C246.209 40.84 245.595 40.8533 245.142 40.88C244.715 40.88 244.249 40.8933 243.742 40.92C243.262 40.92 242.555 40.9467 241.622 41V39.68C242.182 39.5467 242.635 39.4267 242.982 39.32C243.329 39.2133 243.582 39.0133 243.742 38.72C243.929 38.4 244.035 37.92 244.062 37.28C244.115 36.64 244.142 35.72 244.142 34.52V29.08C244.142 28.2267 244.115 27.56 244.062 27.08C244.035 26.6 243.929 26.2267 243.742 25.96C243.555 25.72 243.302 25.56 242.982 25.48C242.662 25.3733 242.209 25.2667 241.622 25.16V23.76C243.035 23.6267 244.342 23.4267 245.542 23.16C246.769 22.8933 247.915 22.5867 248.982 22.24L250.022 22.76C249.915 23.4267 249.849 24.1467 249.822 24.92C249.822 25.6933 249.822 26.5467 249.822 27.48ZM262.662 29.04V34.56C262.662 35.6533 262.675 36.52 262.702 37.16C262.729 37.8 262.822 38.28 262.982 38.6C263.169 38.9467 263.422 39.1867 263.742 39.32C264.089 39.4267 264.569 39.5467 265.182 39.68V41C264.249 40.9467 263.529 40.92 263.022 40.92C262.542 40.8933 262.089 40.88 261.662 40.88C261.235 40.8533 260.622 40.84 259.822 40.84C259.049 40.84 258.435 40.8533 257.982 40.88C257.555 40.88 257.089 40.8933 256.582 40.92C256.102 40.92 255.395 40.9467 254.462 41V39.68C255.022 39.5467 255.475 39.4267 255.822 39.32C256.169 39.2133 256.422 39.0133 256.582 38.72C256.769 38.4 256.875 37.92 256.902 37.28C256.955 36.64 256.982 35.72 256.982 34.52V31.84C256.982 30.6133 256.849 29.6 256.582 28.8C256.342 27.9733 255.942 27.36 255.382 26.96C254.849 26.5333 254.129 26.32 253.222 26.32C252.155 26.32 251.289 26.5067 250.622 26.88C249.982 27.2267 249.369 27.6533 248.782 28.16H247.822C248.595 27.1733 249.369 26.2267 250.142 25.32C250.942 24.4133 251.822 23.6667 252.782 23.08C253.742 22.4933 254.875 22.2 256.182 22.2C257.302 22.2 258.355 22.4533 259.342 22.96C260.329 23.4667 261.129 24.2267 261.742 25.24C262.355 26.2267 262.662 27.4933 262.662 29.04ZM284.209 37.4C283.782 37.9333 283.182 38.5067 282.409 39.12C281.635 39.7333 280.715 40.2533 279.649 40.68C278.582 41.1067 277.369 41.32 276.009 41.32C274.062 41.32 272.435 40.92 271.129 40.12C269.849 39.2933 268.889 38.2 268.249 36.84C267.635 35.48 267.329 34.0133 267.329 32.44C267.329 30.5467 267.729 28.8267 268.529 27.28C269.355 25.7333 270.502 24.5067 271.969 23.6C273.462 22.6667 275.222 22.2 277.249 22.2C279.409 22.2 281.142 22.88 282.449 24.24C283.782 25.5733 284.449 27.32 284.449 29.48V31.52H271.449L271.609 29.84L278.849 29.48C278.849 28.4667 278.755 27.5467 278.569 26.72C278.409 25.8933 278.129 25.2267 277.729 24.72C277.355 24.2133 276.862 23.96 276.249 23.96C275.529 23.96 274.942 24.3333 274.489 25.08C274.062 25.8267 273.742 26.76 273.529 27.88C273.342 29 273.249 30.1467 273.249 31.32C273.249 33.3467 273.675 34.96 274.529 36.16C275.409 37.3333 276.782 37.92 278.649 37.92C279.662 37.92 280.542 37.7467 281.289 37.4C282.035 37.0533 282.662 36.6267 283.169 36.12L284.209 37.4ZM306.381 22.2V35.12C306.381 36.2133 306.448 37.0667 306.581 37.68C306.714 38.2667 306.954 38.68 307.301 38.92C307.674 39.1333 308.208 39.24 308.901 39.24V40.56L300.701 41.4V28.48C300.701 27.3867 300.634 26.5467 300.501 25.96C300.368 25.3467 300.114 24.9333 299.741 24.72C299.394 24.48 298.874 24.36 298.181 24.36V23.04L306.381 22.2ZM301.341 35.44L302.301 35.6C301.661 36.5867 300.981 37.52 300.261 38.4C299.568 39.28 298.768 40 297.861 40.56C296.954 41.12 295.874 41.4 294.621 41.4C292.861 41.4 291.381 40.84 290.181 39.72C288.981 38.5733 288.381 36.8533 288.381 34.56V28.48C288.381 27.3867 288.314 26.5467 288.181 25.96C288.048 25.3467 287.794 24.9333 287.421 24.72C287.074 24.48 286.554 24.36 285.861 24.36V23.04L294.061 22.2V32.68C294.061 33.7467 294.168 34.6267 294.381 35.32C294.621 35.9867 294.994 36.48 295.501 36.8C296.008 37.12 296.674 37.28 297.501 37.28C298.461 37.28 299.248 37.1067 299.861 36.76C300.474 36.3867 300.968 35.9467 301.341 35.44ZM318.436 30.4L317.516 31.04C318.476 29.1467 319.356 27.5733 320.156 26.32C320.956 25.0667 321.756 24.1333 322.556 23.52C323.383 22.9067 324.289 22.6 325.276 22.6C325.409 22.6 325.596 22.6133 325.836 22.64C326.076 22.6667 326.329 22.7067 326.596 22.76L325.756 28.12C324.049 28.12 322.543 28.2933 321.236 28.64C319.929 28.9867 318.996 29.5733 318.436 30.4ZM319.236 27.4V34.56C319.236 35.6533 319.249 36.52 319.276 37.16C319.303 37.8 319.396 38.28 319.556 38.6C319.743 38.9467 320.049 39.1867 320.476 39.32C320.903 39.4267 321.729 39.5467 322.956 39.68V41C321.969 40.9733 321.169 40.9467 320.556 40.92C319.969 40.8933 319.476 40.88 319.076 40.88C318.676 40.8533 318.276 40.84 317.876 40.84C317.476 40.84 316.983 40.84 316.396 40.84C315.623 40.84 315.009 40.8533 314.556 40.88C314.129 40.88 313.663 40.8933 313.156 40.92C312.676 40.92 311.969 40.9467 311.036 41V39.68C311.596 39.5467 312.049 39.4267 312.396 39.32C312.743 39.2133 312.996 39.0133 313.156 38.72C313.343 38.4 313.449 37.92 313.476 37.28C313.529 36.64 313.556 35.72 313.556 34.52V29C313.556 28.1467 313.529 27.48 313.476 27C313.449 26.52 313.343 26.1467 313.156 25.88C312.969 25.64 312.716 25.48 312.396 25.4C312.076 25.2933 311.623 25.1867 311.036 25.08V23.68C312.423 23.5467 313.703 23.36 314.876 23.12C316.049 22.8533 317.156 22.5467 318.196 22.2L319.396 22.84C319.316 23.5067 319.263 24.2133 319.236 24.96C319.236 25.68 319.236 26.4933 319.236 27.4ZM372.308 39.48V41C371.241 40.9467 370.401 40.92 369.788 40.92C369.174 40.8933 368.614 40.88 368.108 40.88C367.628 40.8533 367.001 40.84 366.228 40.84C365.588 40.84 365.028 40.8533 364.548 40.88C364.094 40.88 363.561 40.8933 362.948 40.92C362.361 40.92 361.534 40.9467 360.468 41V39.48C361.534 39.32 362.281 39.1467 362.708 38.96C363.161 38.7733 363.414 38.4 363.468 37.84C363.548 37.28 363.534 36.3733 363.428 35.12L362.268 18.92H363.188L353.588 39.56H351.668L342.508 19.24L343.748 19.12L342.108 36.28C342.028 37.1067 342.028 37.72 342.108 38.12C342.214 38.52 342.521 38.8133 343.028 39C343.534 39.16 344.388 39.32 345.588 39.48V41C344.788 40.9733 344.108 40.9467 343.548 40.92C342.988 40.8933 342.454 40.88 341.948 40.88C341.468 40.8533 340.948 40.84 340.388 40.84C339.801 40.84 339.188 40.8533 338.548 40.88C337.908 40.9067 337.188 40.9467 336.388 41V39.48C337.161 39.3467 337.708 39.24 338.028 39.16C338.374 39.08 338.628 38.8933 338.788 38.6C338.974 38.28 339.094 37.7867 339.148 37.12C339.228 36.4533 339.321 35.52 339.428 34.32L340.868 20.48C341.001 19.28 341.054 18.36 341.028 17.72C341.001 17.0533 340.881 16.5733 340.668 16.28C340.454 15.9867 340.121 15.7867 339.668 15.68C339.241 15.5467 338.668 15.4267 337.948 15.32V13.8H346.668L355.228 31.92L354.268 31.96L362.548 13.8H371.108V15.32C370.068 15.4267 369.321 15.6 368.868 15.84C368.441 16.08 368.188 16.52 368.108 17.16C368.054 17.8 368.081 18.7867 368.188 20.12L369.388 34.36C369.521 35.8267 369.641 36.9067 369.748 37.6C369.881 38.2667 370.134 38.72 370.508 38.96C370.881 39.1733 371.481 39.3467 372.308 39.48ZM380.028 27.92V25.88H384.068C385.268 25.88 386.201 25.8267 386.868 25.72C387.561 25.6133 388.081 25.4267 388.428 25.16C388.801 24.8933 389.081 24.52 389.268 24.04C389.454 23.5333 389.641 22.9067 389.828 22.16H391.348V31.64H389.828C389.641 30.8933 389.454 30.28 389.268 29.8C389.081 29.32 388.801 28.9467 388.428 28.68C388.081 28.3867 387.561 28.1867 386.868 28.08C386.201 27.9733 385.268 27.92 384.068 27.92H380.028ZM392.108 39.08L395.948 33.16H397.468L396.668 41H375.028V39.48C375.988 39.3467 376.668 39.2267 377.068 39.12C377.494 38.9867 377.788 38.7867 377.948 38.52C378.134 38.2 378.241 37.7333 378.268 37.12C378.321 36.48 378.348 35.56 378.348 34.36V20.44C378.348 19.24 378.321 18.3333 378.268 17.72C378.241 17.08 378.134 16.6 377.948 16.28C377.788 15.9867 377.494 15.7867 377.068 15.68C376.668 15.5467 375.988 15.4267 375.028 15.32V13.8H396.068L396.468 21.28H394.948L391.508 15.72H384.348V39.08H392.108Z" fill="white"/>
<path d="M64.4841 65.1C64.8174 65.1 65.1841 65.0917 65.5841 65.075C65.9841 65.0417 66.4424 65.0167 66.9591 65V65.7C66.4257 65.7833 66.0257 65.8833 65.7591 66C65.4924 66.1167 65.2758 66.3333 65.1091 66.65C64.9424 66.9667 64.7257 67.4833 64.4591 68.2L59.3591 82H58.6591L53.9591 69.225H54.6841L49.7591 82H49.0591L44.3341 68.925C44.0674 68.2083 43.8507 67.65 43.6841 67.25C43.5174 66.85 43.3424 66.55 43.1591 66.35C42.9924 66.15 42.7841 66.0083 42.5341 65.925C42.2841 65.8417 41.9424 65.7667 41.5091 65.7V65C42.0091 65.0167 42.5257 65.0417 43.0591 65.075C43.5924 65.0917 44.2007 65.1 44.8841 65.1C45.4674 65.1 45.9341 65.1 46.2841 65.1C46.6341 65.0833 46.9507 65.0667 47.2341 65.05C47.5174 65.0333 47.8257 65.0167 48.1591 65V65.7C47.6757 65.7667 47.2591 65.8583 46.9091 65.975C46.5591 66.0917 46.3841 66.3417 46.3841 66.725C46.3841 66.9417 46.4424 67.2333 46.5591 67.6C46.6924 67.9667 46.8424 68.4083 47.0091 68.925L50.6091 79.175H49.6091L54.5841 66.05H55.4091L60.1091 79.15L59.2091 79.175L63.0591 68.2C63.1924 67.85 63.2924 67.55 63.3591 67.3C63.4424 67.05 63.4841 66.8417 63.4841 66.675C63.4841 66.2917 63.3091 66.05 62.9591 65.95C62.6257 65.85 62.2424 65.7667 61.8091 65.7V65C62.3257 65.0167 62.7757 65.0417 63.1591 65.075C63.5424 65.0917 63.9841 65.1 64.4841 65.1ZM75.5573 82.25C74.3073 82.25 73.1823 82.0333 72.1823 81.6C71.199 81.1667 70.349 80.575 69.6323 79.825C68.9323 79.0583 68.3907 78.1583 68.0073 77.125C67.6407 76.0917 67.4573 74.975 67.4573 73.775C67.4573 72.575 67.6407 71.4333 68.0073 70.35C68.3907 69.2667 68.9323 68.3 69.6323 67.45C70.3323 66.6 71.1823 65.9333 72.1823 65.45C73.1823 64.95 74.3073 64.7 75.5573 64.7C76.8573 64.7 78.0073 64.925 79.0073 65.375C80.024 65.825 80.874 66.45 81.5573 67.25C82.2573 68.0333 82.7823 68.9417 83.1323 69.975C83.4823 71.0083 83.6573 72.0917 83.6573 73.225C83.6573 74.4583 83.4657 75.625 83.0823 76.725C82.7157 77.8083 82.1823 78.7667 81.4823 79.6C80.799 80.4333 79.949 81.0833 78.9323 81.55C77.9323 82.0167 76.8073 82.25 75.5573 82.25ZM75.6323 81.3C76.749 81.3 77.7073 80.9833 78.5073 80.35C79.324 79.7 79.949 78.8 80.3823 77.65C80.8157 76.5 81.0323 75.175 81.0323 73.675C81.0323 72.525 80.9073 71.4667 80.6573 70.5C80.4073 69.5333 80.0407 68.6917 79.5573 67.975C79.0907 67.2417 78.5157 66.675 77.8323 66.275C77.149 65.8583 76.3823 65.65 75.5323 65.65C74.4157 65.65 73.449 65.9583 72.6323 66.575C71.8157 67.1917 71.1823 68.0583 70.7323 69.175C70.299 70.2917 70.0823 71.6167 70.0823 73.15C70.0823 74.2833 70.2073 75.35 70.4573 76.35C70.7073 77.3333 71.074 78.1917 71.5573 78.925C72.0407 79.6583 72.624 80.2417 73.3073 80.675C73.9907 81.0917 74.7657 81.3 75.6323 81.3ZM106.967 81.3V82C106.367 81.9667 105.892 81.95 105.542 81.95C105.208 81.9333 104.925 81.925 104.692 81.925C104.458 81.9083 104.175 81.9 103.842 81.9C103.542 81.9 103.258 81.9083 102.992 81.925C102.725 81.925 102.425 81.9333 102.092 81.95C101.775 81.95 101.367 81.9667 100.867 82V81.3C101.533 81.2 102 81.0667 102.267 80.9C102.533 80.7333 102.683 80.4583 102.717 80.075C102.767 79.675 102.758 79.075 102.692 78.275L101.842 67.475L102.492 66.825L96.0417 81.1H95.1917L89.1667 67.525L89.7417 67.45L88.6917 79.3C88.6417 79.8167 88.6417 80.2 88.6917 80.45C88.7417 80.7 88.9084 80.8833 89.1917 81C89.4917 81.1 89.9834 81.2 90.6667 81.3V82C90.2667 81.9833 89.9334 81.9667 89.6667 81.95C89.4 81.9333 89.15 81.925 88.9167 81.925C88.6834 81.9083 88.4 81.9 88.0667 81.9C87.7 81.9 87.3167 81.9083 86.9167 81.925C86.5167 81.9417 86.0667 81.9667 85.5667 82V81.3C86.05 81.2167 86.4 81.1333 86.6167 81.05C86.8334 80.9667 86.9917 80.8333 87.0917 80.65C87.2084 80.45 87.2834 80.1583 87.3167 79.775C87.35 79.3917 87.4 78.825 87.4667 78.075L88.3167 68.925C88.4 68.175 88.4334 67.6 88.4167 67.2C88.4 66.7833 88.325 66.4833 88.1917 66.3C88.0584 66.1167 87.85 65.9917 87.5667 65.925C87.3 65.8417 86.9417 65.7667 86.4917 65.7V65H90.7667L96.5917 77.975L96.1417 78.025L101.892 65H106.117V65.7C105.467 65.7667 105 65.8833 104.717 66.05C104.45 66.2 104.292 66.475 104.242 66.875C104.208 67.275 104.225 67.8917 104.292 68.725L105.117 78.1C105.2 79 105.283 79.6667 105.367 80.1C105.45 80.5333 105.608 80.825 105.842 80.975C106.075 81.1083 106.45 81.2167 106.967 81.3ZM111.839 73.675V72.675H115.289C115.889 72.675 116.355 72.6417 116.689 72.575C117.022 72.4917 117.272 72.3667 117.439 72.2C117.622 72.0333 117.755 71.8 117.839 71.5C117.939 71.1833 118.047 70.7917 118.164 70.325H118.889V76.025H118.164C118.047 75.575 117.939 75.2 117.839 74.9C117.755 74.5833 117.622 74.3333 117.439 74.15C117.272 73.9667 117.022 73.8417 116.689 73.775C116.355 73.7083 115.889 73.675 115.289 73.675H111.839ZM119.564 81.05L121.389 77.15H122.139L121.639 82H108.764V81.3C109.314 81.2167 109.722 81.1333 109.989 81.05C110.272 80.9667 110.472 80.825 110.589 80.625C110.705 80.425 110.772 80.1333 110.789 79.75C110.822 79.35 110.839 78.8083 110.839 78.125V68.875C110.839 68.1417 110.822 67.575 110.789 67.175C110.772 66.775 110.68 66.475 110.514 66.275C110.397 66.0917 110.205 65.9667 109.939 65.9C109.672 65.8167 109.28 65.7583 108.764 65.725V65H121.239L121.489 69.425H120.739L119.164 65.95H113.289V81.05H119.564ZM138.546 65.1C138.896 65.1 139.255 65.0917 139.621 65.075C140.005 65.0417 140.446 65.0167 140.946 65V65.7C140.43 65.7667 140.055 65.8417 139.821 65.925C139.605 65.9917 139.438 66.1417 139.321 66.375C139.221 66.575 139.163 66.875 139.146 67.275C139.13 67.675 139.121 68.2167 139.121 68.9V82H138.296L127.196 67.95L127.221 78.075C127.221 78.775 127.23 79.325 127.246 79.725C127.263 80.125 127.321 80.425 127.421 80.625C127.538 80.8417 127.738 80.9917 128.021 81.075C128.321 81.1417 128.905 81.2167 129.771 81.3V82C128.905 81.9667 128.246 81.9417 127.796 81.925C127.363 81.9083 126.963 81.9 126.596 81.9C126.23 81.9 125.838 81.9083 125.421 81.925C125.021 81.9417 124.571 81.9667 124.071 82V81.3C124.555 81.2167 124.913 81.1417 125.146 81.075C125.38 81.0083 125.546 80.8833 125.646 80.7C125.763 80.5 125.83 80.2 125.846 79.8C125.88 79.4 125.896 78.825 125.896 78.075V68.925C125.896 68.175 125.88 67.6 125.846 67.2C125.83 66.7833 125.763 66.4833 125.646 66.3C125.53 66.1167 125.346 65.9917 125.096 65.925C124.863 65.8417 124.521 65.7667 124.071 65.7V65H127.946L137.771 77.625V68.925C137.771 68.175 137.755 67.6 137.721 67.2C137.705 66.8 137.638 66.5 137.521 66.3C137.421 66.1167 137.221 65.9917 136.921 65.925C136.638 65.8417 136.08 65.7667 135.246 65.7V65C136.13 65.0167 136.805 65.0417 137.271 65.075C137.738 65.0917 138.163 65.1 138.546 65.1ZM152.471 68.375V81.05H157.896L159.571 77.05H160.346L159.996 82H148.046V81.3C148.546 81.2167 148.929 81.1333 149.196 81.05C149.462 80.9667 149.646 80.825 149.746 80.625C149.879 80.425 149.954 80.1333 149.971 79.75C150.004 79.35 150.021 78.8083 150.021 78.125V68.375C150.021 67.8417 150.004 67.4167 149.971 67.1C149.954 66.7833 149.896 66.5417 149.796 66.375C149.679 66.1583 149.487 66.0083 149.221 65.925C148.954 65.8417 148.562 65.7667 148.046 65.7V65C148.579 65.0167 148.996 65.0333 149.296 65.05C149.612 65.0667 149.912 65.0833 150.196 65.1C150.479 65.1 150.812 65.1 151.196 65.1C151.629 65.1 151.979 65.1 152.246 65.1C152.529 65.0833 152.829 65.0667 153.146 65.05C153.479 65.0333 153.904 65.0167 154.421 65V65.7C153.904 65.7667 153.512 65.8417 153.246 65.925C152.979 65.9917 152.787 66.1417 152.671 66.375C152.571 66.5583 152.512 66.8083 152.496 67.125C152.479 67.425 152.471 67.8417 152.471 68.375ZM164.964 73.675V72.675H168.414C169.014 72.675 169.48 72.6417 169.814 72.575C170.147 72.4917 170.397 72.3667 170.564 72.2C170.747 72.0333 170.88 71.8 170.964 71.5C171.064 71.1833 171.172 70.7917 171.289 70.325H172.014V76.025H171.289C171.172 75.575 171.064 75.2 170.964 74.9C170.88 74.5833 170.747 74.3333 170.564 74.15C170.397 73.9667 170.147 73.8417 169.814 73.775C169.48 73.7083 169.014 73.675 168.414 73.675H164.964ZM172.689 81.05L174.514 77.15H175.264L174.764 82H161.889V81.3C162.439 81.2167 162.847 81.1333 163.114 81.05C163.397 80.9667 163.597 80.825 163.714 80.625C163.83 80.425 163.897 80.1333 163.914 79.75C163.947 79.35 163.964 78.8083 163.964 78.125V68.875C163.964 68.1417 163.947 67.575 163.914 67.175C163.897 66.775 163.805 66.475 163.639 66.275C163.522 66.0917 163.33 65.9667 163.064 65.9C162.797 65.8167 162.405 65.7583 161.889 65.725V65H174.364L174.614 69.425H173.864L172.289 65.95H166.414V81.05H172.689ZM188.421 77H180.546V76H188.421V77ZM185.121 65L190.746 78.85C190.963 79.35 191.138 79.75 191.271 80.05C191.405 80.3333 191.538 80.5583 191.671 80.725C191.805 80.875 191.988 80.9917 192.221 81.075C192.455 81.1583 192.763 81.2333 193.146 81.3V82C192.73 81.9667 192.255 81.9417 191.721 81.925C191.188 81.9083 190.555 81.9 189.821 81.9C189.355 81.9 188.963 81.9083 188.646 81.925C188.33 81.925 188.03 81.9333 187.746 81.95C187.48 81.9667 187.18 81.9833 186.846 82V81.3C187.413 81.1833 187.838 81.075 188.121 80.975C188.405 80.875 188.546 80.6417 188.546 80.275C188.546 79.8417 188.338 79.1083 187.921 78.075L183.996 68.275L184.471 67.875L180.196 78.8C180.046 79.1667 179.938 79.475 179.871 79.725C179.805 79.975 179.771 80.1917 179.771 80.375C179.771 80.725 179.938 80.9417 180.271 81.025C180.621 81.1083 181.046 81.2 181.546 81.3V82C181.03 81.9667 180.563 81.9417 180.146 81.925C179.746 81.9083 179.288 81.9 178.771 81.9C178.421 81.9 178.046 81.9083 177.646 81.925C177.246 81.9417 176.83 81.9667 176.396 82V81.3C176.863 81.2167 177.221 81.1167 177.471 81C177.721 80.8833 177.921 80.6917 178.071 80.425C178.238 80.1417 178.438 79.725 178.671 79.175L184.421 65H185.121ZM194.31 65H198.735V82H194.31V81.3C194.81 81.2167 195.194 81.1333 195.46 81.05C195.727 80.9667 195.919 80.825 196.035 80.625C196.152 80.425 196.219 80.1333 196.235 79.75C196.269 79.35 196.285 78.8083 196.285 78.125V68.875C196.285 68.1417 196.269 67.575 196.235 67.175C196.202 66.775 196.11 66.475 195.96 66.275C195.844 66.0917 195.652 65.9667 195.385 65.9C195.135 65.8167 194.777 65.7583 194.31 65.725V65ZM197.51 82V65H201.285C202.685 65 203.952 65.1667 205.085 65.5C206.219 65.8167 207.202 66.3083 208.035 66.975C208.869 67.625 209.502 68.4667 209.935 69.5C210.385 70.5167 210.61 71.725 210.61 73.125C210.61 74.3583 210.385 75.5167 209.935 76.6C209.485 77.6667 208.835 78.6083 207.985 79.425C207.152 80.225 206.144 80.8583 204.96 81.325C203.794 81.775 202.477 82 201.01 82H197.51ZM198.735 67.875V81.075H201.035C202.502 81.075 203.752 80.7917 204.785 80.225C205.819 79.6417 206.61 78.8 207.16 77.7C207.71 76.5833 207.985 75.2333 207.985 73.65C207.985 71.0667 207.41 69.1333 206.26 67.85C205.11 66.5667 203.41 65.925 201.16 65.925H198.735V67.875ZM215.745 73.675V72.675H219.195C219.795 72.675 220.261 72.6417 220.595 72.575C220.928 72.4917 221.178 72.3667 221.345 72.2C221.528 72.0333 221.661 71.8 221.745 71.5C221.845 71.1833 221.953 70.7917 222.07 70.325H222.795V76.025H222.07C221.953 75.575 221.845 75.2 221.745 74.9C221.661 74.5833 221.528 74.3333 221.345 74.15C221.178 73.9667 220.928 73.8417 220.595 73.775C220.261 73.7083 219.795 73.675 219.195 73.675H215.745ZM223.47 81.05L225.295 77.15H226.045L225.545 82H212.67V81.3C213.22 81.2167 213.628 81.1333 213.895 81.05C214.178 80.9667 214.378 80.825 214.495 80.625C214.611 80.425 214.678 80.1333 214.695 79.75C214.728 79.35 214.745 78.8083 214.745 78.125V68.875C214.745 68.1417 214.728 67.575 214.695 67.175C214.678 66.775 214.586 66.475 214.42 66.275C214.303 66.0917 214.111 65.9667 213.845 65.9C213.578 65.8167 213.186 65.7583 212.67 65.725V65H225.145L225.395 69.425H224.645L223.07 65.95H217.195V81.05H223.47ZM234.627 73.7L237.077 73.525L240.502 78.775C240.952 79.4583 241.352 79.975 241.702 80.325C242.052 80.6583 242.402 80.8917 242.752 81.025C243.102 81.1417 243.502 81.2333 243.952 81.3V82C243.419 81.9833 242.969 81.9667 242.602 81.95C242.236 81.9333 241.886 81.925 241.552 81.925C241.236 81.925 240.919 81.9333 240.602 81.95C240.302 81.9667 239.986 81.9833 239.652 82L234.627 73.7ZM232.452 65.9V78.125C232.452 78.7917 232.461 79.325 232.477 79.725C232.511 80.125 232.577 80.425 232.677 80.625C232.811 80.8417 233.019 80.9917 233.302 81.075C233.586 81.1417 234.002 81.2167 234.552 81.3V82C234.019 81.9667 233.594 81.95 233.277 81.95C232.961 81.9333 232.652 81.925 232.352 81.925C232.069 81.9083 231.702 81.9 231.252 81.9C230.836 81.9 230.477 81.9083 230.177 81.925C229.894 81.925 229.594 81.9333 229.277 81.95C228.961 81.95 228.536 81.9667 228.002 82V81.3C228.536 81.2167 228.936 81.1333 229.202 81.05C229.486 80.9667 229.686 80.825 229.802 80.625C229.936 80.4083 230.019 80.1083 230.052 79.725C230.086 79.325 230.102 78.7833 230.102 78.1V68.875C230.102 68.175 230.086 67.6333 230.052 67.25C230.036 66.85 229.952 66.55 229.802 66.35C229.686 66.15 229.486 66.0083 229.202 65.925C228.936 65.8417 228.569 65.7667 228.102 65.7V65H234.577C236.044 65 237.286 65.1417 238.302 65.425C239.336 65.7083 240.127 66.1583 240.677 66.775C241.227 67.3917 241.502 68.1833 241.502 69.15C241.502 69.9333 241.319 70.6333 240.952 71.25C240.586 71.8667 240.061 72.3917 239.377 72.825C238.711 73.2583 237.902 73.5917 236.952 73.825C236.002 74.0417 234.927 74.15 233.727 74.15H232.252V73.05C232.519 73.1 232.802 73.1417 233.102 73.175C233.419 73.1917 233.727 73.2 234.027 73.2C235.227 73.2 236.186 73.05 236.902 72.75C237.636 72.45 238.161 72.025 238.477 71.475C238.811 70.925 238.977 70.2917 238.977 69.575C238.977 68.7917 238.794 68.1333 238.427 67.6C238.061 67.05 237.527 66.6333 236.827 66.35C236.127 66.05 235.277 65.9 234.277 65.9H232.452ZM250.342 82.25C249.392 82.25 248.501 82.1417 247.667 81.925C246.834 81.7083 246.017 81.4083 245.217 81.025L246.117 77H246.867L247.792 81.375L247.167 80.825L246.642 80.075C247.226 80.375 247.742 80.6167 248.192 80.8C248.642 80.9667 249.059 81.0917 249.442 81.175C249.842 81.2417 250.242 81.275 250.642 81.275C251.909 81.275 252.901 81 253.617 80.45C254.334 79.9 254.692 79.1917 254.692 78.325C254.692 77.6917 254.501 77.15 254.117 76.7C253.751 76.25 253.251 75.8417 252.617 75.475C252.001 75.1083 251.301 74.7333 250.517 74.35C249.667 73.9333 248.876 73.5083 248.142 73.075C247.426 72.6417 246.842 72.1333 246.392 71.55C245.959 70.95 245.742 70.2167 245.742 69.35C245.742 68.4667 245.976 67.675 246.442 66.975C246.909 66.275 247.584 65.725 248.467 65.325C249.367 64.9083 250.442 64.7 251.692 64.7C252.559 64.7 253.384 64.8 254.167 65C254.951 65.2 255.717 65.4833 256.467 65.85L255.642 69.675H254.892L253.967 65.525L255.117 66.8C254.584 66.5 254.101 66.2667 253.667 66.1C253.251 65.9333 252.859 65.825 252.492 65.775C252.126 65.7083 251.759 65.675 251.392 65.675C250.242 65.675 249.367 65.9167 248.767 66.4C248.167 66.8667 247.867 67.5167 247.867 68.35C247.867 68.9667 248.026 69.4833 248.342 69.9C248.676 70.3 249.126 70.6667 249.692 71C250.276 71.3333 250.934 71.675 251.667 72.025C252.584 72.475 253.434 72.9333 254.217 73.4C255.017 73.8667 255.659 74.4167 256.142 75.05C256.642 75.6667 256.892 76.4417 256.892 77.375C256.892 78.2917 256.626 79.1167 256.092 79.85C255.576 80.5833 254.826 81.1667 253.842 81.6C252.859 82.0333 251.692 82.25 250.342 82.25ZM258.839 69.9C259.472 69.4 259.972 68.85 260.339 68.25C260.706 67.65 260.889 67.0417 260.889 66.425L260.989 66.75C260.772 66.8167 260.589 66.85 260.439 66.85C260.006 66.85 259.656 66.7167 259.389 66.45C259.139 66.1667 259.014 65.8583 259.014 65.525C259.014 65.1417 259.131 64.7917 259.364 64.475C259.614 64.1583 259.989 64 260.489 64C260.922 64 261.297 64.1667 261.614 64.5C261.947 64.8333 262.114 65.3083 262.114 65.925C262.114 66.8083 261.839 67.65 261.289 68.45C260.756 69.25 260.072 69.9333 259.239 70.5L258.839 69.9ZM269.434 82.25C268.484 82.25 267.592 82.1417 266.759 81.925C265.926 81.7083 265.109 81.4083 264.309 81.025L265.209 77H265.959L266.884 81.375L266.259 80.825L265.734 80.075C266.317 80.375 266.834 80.6167 267.284 80.8C267.734 80.9667 268.151 81.0917 268.534 81.175C268.934 81.2417 269.334 81.275 269.734 81.275C271.001 81.275 271.992 81 272.709 80.45C273.426 79.9 273.784 79.1917 273.784 78.325C273.784 77.6917 273.592 77.15 273.209 76.7C272.842 76.25 272.342 75.8417 271.709 75.475C271.092 75.1083 270.392 74.7333 269.609 74.35C268.759 73.9333 267.967 73.5083 267.234 73.075C266.517 72.6417 265.934 72.1333 265.484 71.55C265.051 70.95 264.834 70.2167 264.834 69.35C264.834 68.4667 265.067 67.675 265.534 66.975C266.001 66.275 266.676 65.725 267.559 65.325C268.459 64.9083 269.534 64.7 270.784 64.7C271.651 64.7 272.476 64.8 273.259 65C274.042 65.2 274.809 65.4833 275.559 65.85L274.734 69.675H273.984L273.059 65.525L274.209 66.8C273.676 66.5 273.192 66.2667 272.759 66.1C272.342 65.9333 271.951 65.825 271.584 65.775C271.217 65.7083 270.851 65.675 270.484 65.675C269.334 65.675 268.459 65.9167 267.859 66.4C267.259 66.8667 266.959 67.5167 266.959 68.35C266.959 68.9667 267.117 69.4833 267.434 69.9C267.767 70.3 268.217 70.6667 268.784 71C269.367 71.3333 270.026 71.675 270.759 72.025C271.676 72.475 272.526 72.9333 273.309 73.4C274.109 73.8667 274.751 74.4167 275.234 75.05C275.734 75.6667 275.984 76.4417 275.984 77.375C275.984 78.2917 275.717 79.1167 275.184 79.85C274.667 80.5833 273.917 81.1667 272.934 81.6C271.951 82.0333 270.784 82.25 269.434 82.25ZM283.524 74.75C283.524 73.3333 283.707 71.9833 284.074 70.7C284.457 69.4167 284.99 68.1917 285.674 67.025C286.374 65.8583 287.19 64.75 288.124 63.7L288.649 64.15C287.515 65.9333 286.732 67.7083 286.299 69.475C285.882 71.225 285.674 72.9833 285.674 74.75C285.674 76.5 285.882 78.2583 286.299 80.025C286.732 81.7917 287.515 83.5667 288.649 85.35L288.124 85.8C287.19 84.75 286.374 83.6417 285.674 82.475C284.99 81.3083 284.457 80.0833 284.074 78.8C283.707 77.5167 283.524 76.1667 283.524 74.75ZM295.533 82.25C294.583 82.25 293.691 82.1417 292.858 81.925C292.024 81.7083 291.208 81.4083 290.408 81.025L291.308 77H292.058L292.983 81.375L292.358 80.825L291.833 80.075C292.416 80.375 292.933 80.6167 293.383 80.8C293.833 80.9667 294.249 81.0917 294.633 81.175C295.033 81.2417 295.433 81.275 295.833 81.275C297.099 81.275 298.091 81 298.808 80.45C299.524 79.9 299.883 79.1917 299.883 78.325C299.883 77.6917 299.691 77.15 299.308 76.7C298.941 76.25 298.441 75.8417 297.808 75.475C297.191 75.1083 296.491 74.7333 295.708 74.35C294.858 73.9333 294.066 73.5083 293.333 73.075C292.616 72.6417 292.033 72.1333 291.583 71.55C291.149 70.95 290.933 70.2167 290.933 69.35C290.933 68.4667 291.166 67.675 291.633 66.975C292.099 66.275 292.774 65.725 293.658 65.325C294.558 64.9083 295.633 64.7 296.883 64.7C297.749 64.7 298.574 64.8 299.358 65C300.141 65.2 300.908 65.4833 301.658 65.85L300.833 69.675H300.083L299.158 65.525L300.308 66.8C299.774 66.5 299.291 66.2667 298.858 66.1C298.441 65.9333 298.049 65.825 297.683 65.775C297.316 65.7083 296.949 65.675 296.583 65.675C295.433 65.675 294.558 65.9167 293.958 66.4C293.358 66.8667 293.058 67.5167 293.058 68.35C293.058 68.9667 293.216 69.4833 293.533 69.9C293.866 70.3 294.316 70.6667 294.883 71C295.466 71.3333 296.124 71.675 296.858 72.025C297.774 72.475 298.624 72.9333 299.408 73.4C300.208 73.8667 300.849 74.4167 301.333 75.05C301.833 75.6667 302.083 76.4417 302.083 77.375C302.083 78.2917 301.816 79.1167 301.283 79.85C300.766 80.5833 300.016 81.1667 299.033 81.6C298.049 82.0333 296.883 82.25 295.533 82.25ZM319.971 68.35V78.65C319.971 79.15 319.979 79.5583 319.996 79.875C320.012 80.1917 320.071 80.4417 320.171 80.625C320.287 80.8417 320.479 80.9917 320.746 81.075C321.012 81.1417 321.404 81.2167 321.921 81.3V82C321.404 81.9667 320.987 81.95 320.671 81.95C320.354 81.9333 320.054 81.925 319.771 81.925C319.487 81.9083 319.129 81.9 318.696 81.9C318.312 81.9 317.979 81.9083 317.696 81.925C317.429 81.925 317.137 81.9333 316.821 81.95C316.504 81.95 316.079 81.9667 315.546 82V81.3C316.062 81.2167 316.454 81.1417 316.721 81.075C316.987 80.9917 317.179 80.8417 317.296 80.625C317.396 80.4583 317.454 80.2167 317.471 79.9C317.504 79.5833 317.521 79.1583 317.521 78.625V73.7H308.721V78.65C308.721 79.15 308.729 79.5583 308.746 79.875C308.762 80.1917 308.821 80.4417 308.921 80.625C309.037 80.8417 309.229 80.9917 309.496 81.075C309.762 81.1417 310.154 81.2167 310.671 81.3V82C310.154 81.9667 309.729 81.95 309.396 81.95C309.079 81.9333 308.779 81.925 308.496 81.925C308.229 81.9083 307.879 81.9 307.446 81.9C307.062 81.9 306.729 81.9083 306.446 81.925C306.162 81.925 305.862 81.9333 305.546 81.95C305.246 81.95 304.829 81.9667 304.296 82V81.3C304.812 81.2167 305.204 81.1417 305.471 81.075C305.737 80.9917 305.929 80.8417 306.046 80.625C306.146 80.4583 306.204 80.2167 306.221 79.9C306.254 79.5833 306.271 79.1583 306.271 78.625V68.375C306.271 67.8417 306.254 67.4167 306.221 67.1C306.204 66.7833 306.146 66.5417 306.046 66.375C305.929 66.1583 305.737 66.0083 305.471 65.925C305.204 65.8417 304.812 65.7667 304.296 65.7V65C304.829 65.0167 305.246 65.0333 305.546 65.05C305.862 65.0667 306.162 65.0833 306.446 65.1C306.729 65.1 307.062 65.1 307.446 65.1C307.879 65.1 308.229 65.1 308.496 65.1C308.779 65.0833 309.079 65.0667 309.396 65.05C309.729 65.0333 310.154 65.0167 310.671 65V65.7C310.154 65.7667 309.762 65.8417 309.496 65.925C309.229 65.9917 309.037 66.1417 308.921 66.375C308.821 66.5583 308.762 66.8083 308.746 67.125C308.729 67.425 308.721 67.8333 308.721 68.35V72.675H317.521V68.375C317.521 67.8417 317.504 67.4167 317.471 67.1C317.454 66.7833 317.396 66.5417 317.296 66.375C317.179 66.1583 316.987 66.0083 316.721 65.925C316.454 65.8417 316.062 65.7667 315.546 65.7V65C316.079 65.0167 316.504 65.0333 316.821 65.05C317.137 65.0667 317.429 65.0833 317.696 65.1C317.979 65.1 318.312 65.1 318.696 65.1C319.129 65.1 319.487 65.1 319.771 65.1C320.054 65.0833 320.354 65.0667 320.671 65.05C320.987 65.0333 321.404 65.0167 321.921 65V65.7C321.404 65.7667 321.012 65.8417 320.746 65.925C320.479 65.9917 320.287 66.1417 320.171 66.375C320.071 66.5583 320.012 66.8083 319.996 67.125C319.979 67.425 319.971 67.8333 319.971 68.35ZM332.076 82.25C330.826 82.25 329.701 82.0333 328.701 81.6C327.718 81.1667 326.868 80.575 326.151 79.825C325.451 79.0583 324.909 78.1583 324.526 77.125C324.159 76.0917 323.976 74.975 323.976 73.775C323.976 72.575 324.159 71.4333 324.526 70.35C324.909 69.2667 325.451 68.3 326.151 67.45C326.851 66.6 327.701 65.9333 328.701 65.45C329.701 64.95 330.826 64.7 332.076 64.7C333.376 64.7 334.526 64.925 335.526 65.375C336.543 65.825 337.393 66.45 338.076 67.25C338.776 68.0333 339.301 68.9417 339.651 69.975C340.001 71.0083 340.176 72.0917 340.176 73.225C340.176 74.4583 339.984 75.625 339.601 76.725C339.234 77.8083 338.701 78.7667 338.001 79.6C337.318 80.4333 336.468 81.0833 335.451 81.55C334.451 82.0167 333.326 82.25 332.076 82.25ZM332.151 81.3C333.268 81.3 334.226 80.9833 335.026 80.35C335.843 79.7 336.468 78.8 336.901 77.65C337.334 76.5 337.551 75.175 337.551 73.675C337.551 72.525 337.426 71.4667 337.176 70.5C336.926 69.5333 336.559 68.6917 336.076 67.975C335.609 67.2417 335.034 66.675 334.351 66.275C333.668 65.8583 332.901 65.65 332.051 65.65C330.934 65.65 329.968 65.9583 329.151 66.575C328.334 67.1917 327.701 68.0583 327.251 69.175C326.818 70.2917 326.601 71.6167 326.601 73.15C326.601 74.2833 326.726 75.35 326.976 76.35C327.226 77.3333 327.593 78.1917 328.076 78.925C328.559 79.6583 329.143 80.2417 329.826 80.675C330.509 81.0917 331.284 81.3 332.151 81.3ZM348.885 73.7L351.335 73.525L354.76 78.775C355.21 79.4583 355.61 79.975 355.96 80.325C356.31 80.6583 356.66 80.8917 357.01 81.025C357.36 81.1417 357.76 81.2333 358.21 81.3V82C357.677 81.9833 357.227 81.9667 356.86 81.95C356.494 81.9333 356.144 81.925 355.81 81.925C355.494 81.925 355.177 81.9333 354.86 81.95C354.56 81.9667 354.244 81.9833 353.91 82L348.885 73.7ZM346.71 65.9V78.125C346.71 78.7917 346.719 79.325 346.735 79.725C346.769 80.125 346.835 80.425 346.935 80.625C347.069 80.8417 347.277 80.9917 347.56 81.075C347.844 81.1417 348.26 81.2167 348.81 81.3V82C348.277 81.9667 347.852 81.95 347.535 81.95C347.219 81.9333 346.91 81.925 346.61 81.925C346.327 81.9083 345.96 81.9 345.51 81.9C345.094 81.9 344.735 81.9083 344.435 81.925C344.152 81.925 343.852 81.9333 343.535 81.95C343.219 81.95 342.794 81.9667 342.26 82V81.3C342.794 81.2167 343.194 81.1333 343.46 81.05C343.744 80.9667 343.944 80.825 344.06 80.625C344.194 80.4083 344.277 80.1083 344.31 79.725C344.344 79.325 344.36 78.7833 344.36 78.1V68.875C344.36 68.175 344.344 67.6333 344.31 67.25C344.294 66.85 344.21 66.55 344.06 66.35C343.944 66.15 343.744 66.0083 343.46 65.925C343.194 65.8417 342.827 65.7667 342.36 65.7V65H348.835C350.302 65 351.544 65.1417 352.56 65.425C353.594 65.7083 354.385 66.1583 354.935 66.775C355.485 67.3917 355.76 68.1833 355.76 69.15C355.76 69.9333 355.577 70.6333 355.21 71.25C354.844 71.8667 354.319 72.3917 353.635 72.825C352.969 73.2583 352.16 73.5917 351.21 73.825C350.26 74.0417 349.185 74.15 347.985 74.15H346.51V73.05C346.777 73.1 347.06 73.1417 347.36 73.175C347.677 73.1917 347.985 73.2 348.285 73.2C349.485 73.2 350.444 73.05 351.16 72.75C351.894 72.45 352.419 72.025 352.735 71.475C353.069 70.925 353.235 70.2917 353.235 69.575C353.235 68.7917 353.052 68.1333 352.685 67.6C352.319 67.05 351.785 66.6333 351.085 66.35C350.385 66.05 349.535 65.9 348.535 65.9H346.71ZM358.29 70.3L358.715 65H372.69L373.115 70.3H372.34L370.59 66.025H360.815L359.065 70.3H358.29ZM364.465 65.475H366.915V78.65C366.915 79.15 366.923 79.5583 366.94 79.875C366.973 80.1917 367.031 80.4417 367.115 80.625C367.248 80.8417 367.448 80.9917 367.715 81.075C367.981 81.1417 368.373 81.2167 368.89 81.3V82C368.356 81.9667 367.931 81.95 367.615 81.95C367.298 81.9333 366.998 81.925 366.715 81.925C366.431 81.9083 366.081 81.9 365.665 81.9C365.265 81.9 364.923 81.9083 364.64 81.925C364.373 81.925 364.081 81.9333 363.765 81.95C363.448 81.95 363.031 81.9667 362.515 82V81.3C363.015 81.2167 363.398 81.1417 363.665 81.075C363.948 80.9917 364.14 80.8417 364.24 80.625C364.34 80.4583 364.398 80.2167 364.415 79.9C364.448 79.5833 364.465 79.1583 364.465 78.625V65.475ZM379.058 68.375V81.05H384.483L386.158 77.05H386.933L386.583 82H374.633V81.3C375.133 81.2167 375.516 81.1333 375.783 81.05C376.049 80.9667 376.233 80.825 376.333 80.625C376.466 80.425 376.541 80.1333 376.558 79.75C376.591 79.35 376.608 78.8083 376.608 78.125V68.375C376.608 67.8417 376.591 67.4167 376.558 67.1C376.541 66.7833 376.483 66.5417 376.383 66.375C376.266 66.1583 376.074 66.0083 375.808 65.925C375.541 65.8417 375.149 65.7667 374.633 65.7V65C375.166 65.0167 375.583 65.0333 375.883 65.05C376.199 65.0667 376.499 65.0833 376.783 65.1C377.066 65.1 377.399 65.1 377.783 65.1C378.216 65.1 378.566 65.1 378.833 65.1C379.116 65.0833 379.416 65.0667 379.733 65.05C380.066 65.0333 380.491 65.0167 381.008 65V65.7C380.491 65.7667 380.099 65.8417 379.833 65.925C379.566 65.9917 379.374 66.1417 379.258 66.375C379.158 66.5583 379.099 66.8083 379.083 67.125C379.066 67.425 379.058 67.8417 379.058 68.375ZM392.9 68.35V78.65C392.9 79.15 392.909 79.5583 392.925 79.875C392.942 80.1917 393 80.4417 393.1 80.625C393.217 80.8417 393.409 80.9917 393.675 81.075C393.942 81.1417 394.334 81.2167 394.85 81.3V82C394.334 81.9667 393.917 81.95 393.6 81.95C393.284 81.9333 392.984 81.925 392.7 81.925C392.434 81.9083 392.092 81.9 391.675 81.9C391.275 81.9 390.925 81.9083 390.625 81.925C390.342 81.925 390.042 81.9333 389.725 81.95C389.425 81.95 389.009 81.9667 388.475 82V81.3C388.992 81.2167 389.384 81.1417 389.65 81.075C389.917 80.9917 390.109 80.8417 390.225 80.625C390.325 80.4583 390.384 80.2167 390.4 79.9C390.434 79.5833 390.45 79.1583 390.45 78.625V68.375C390.45 67.8417 390.434 67.4167 390.4 67.1C390.384 66.7833 390.325 66.5417 390.225 66.375C390.109 66.1583 389.917 66.0083 389.65 65.925C389.384 65.8417 388.992 65.7667 388.475 65.7V65C389.009 65.0167 389.425 65.0333 389.725 65.05C390.042 65.0667 390.342 65.0833 390.625 65.1C390.925 65.1 391.275 65.1 391.675 65.1C392.092 65.1 392.434 65.1 392.7 65.1C392.984 65.0833 393.284 65.0667 393.6 65.05C393.917 65.0333 394.334 65.0167 394.85 65V65.7C394.334 65.7667 393.942 65.8417 393.675 65.925C393.409 65.9917 393.217 66.1417 393.1 66.375C393 66.5583 392.942 66.8083 392.925 67.125C392.909 67.425 392.9 67.8333 392.9 68.35ZM402.076 82.25C401.126 82.25 400.234 82.1417 399.401 81.925C398.567 81.7083 397.751 81.4083 396.951 81.025L397.851 77H398.601L399.526 81.375L398.901 80.825L398.376 80.075C398.959 80.375 399.476 80.6167 399.926 80.8C400.376 80.9667 400.792 81.0917 401.176 81.175C401.576 81.2417 401.976 81.275 402.376 81.275C403.642 81.275 404.634 81 405.351 80.45C406.067 79.9 406.426 79.1917 406.426 78.325C406.426 77.6917 406.234 77.15 405.851 76.7C405.484 76.25 404.984 75.8417 404.351 75.475C403.734 75.1083 403.034 74.7333 402.251 74.35C401.401 73.9333 400.609 73.5083 399.876 73.075C399.159 72.6417 398.576 72.1333 398.126 71.55C397.692 70.95 397.476 70.2167 397.476 69.35C397.476 68.4667 397.709 67.675 398.176 66.975C398.642 66.275 399.317 65.725 400.201 65.325C401.101 64.9083 402.176 64.7 403.426 64.7C404.292 64.7 405.117 64.8 405.901 65C406.684 65.2 407.451 65.4833 408.201 65.85L407.376 69.675H406.626L405.701 65.525L406.851 66.8C406.317 66.5 405.834 66.2667 405.401 66.1C404.984 65.9333 404.592 65.825 404.226 65.775C403.859 65.7083 403.492 65.675 403.126 65.675C401.976 65.675 401.101 65.9167 400.501 66.4C399.901 66.8667 399.601 67.5167 399.601 68.35C399.601 68.9667 399.759 69.4833 400.076 69.9C400.409 70.3 400.859 70.6667 401.426 71C402.009 71.3333 402.667 71.675 403.401 72.025C404.317 72.475 405.167 72.9333 405.951 73.4C406.751 73.8667 407.392 74.4167 407.876 75.05C408.376 75.6667 408.626 76.4417 408.626 77.375C408.626 78.2917 408.359 79.1167 407.826 79.85C407.309 80.5833 406.559 81.1667 405.576 81.6C404.592 82.0333 403.426 82.25 402.076 82.25ZM410.414 70.3L410.839 65H424.814L425.239 70.3H424.464L422.714 66.025H412.939L411.189 70.3H410.414ZM416.589 65.475H419.039V78.65C419.039 79.15 419.047 79.5583 419.064 79.875C419.097 80.1917 419.155 80.4417 419.239 80.625C419.372 80.8417 419.572 80.9917 419.839 81.075C420.105 81.1417 420.497 81.2167 421.014 81.3V82C420.48 81.9667 420.055 81.95 419.739 81.95C419.422 81.9333 419.122 81.925 418.839 81.925C418.555 81.9083 418.205 81.9 417.789 81.9C417.389 81.9 417.047 81.9083 416.764 81.925C416.497 81.925 416.205 81.9333 415.889 81.95C415.572 81.95 415.155 81.9667 414.639 82V81.3C415.139 81.2167 415.522 81.1417 415.789 81.075C416.072 80.9917 416.264 80.8417 416.364 80.625C416.464 80.4583 416.522 80.2167 416.539 79.9C416.572 79.5833 416.589 79.1583 416.589 78.625V65.475ZM431.557 74.75C431.557 76.1667 431.365 77.5167 430.982 78.8C430.598 80.0833 430.057 81.3083 429.357 82.475C428.673 83.6417 427.865 84.75 426.932 85.8L426.432 85.35C427.565 83.5667 428.34 81.7917 428.757 80.025C429.173 78.2583 429.382 76.5 429.382 74.75C429.382 72.9833 429.173 71.225 428.757 69.475C428.34 67.7083 427.565 65.9333 426.432 64.15L426.932 63.7C427.865 64.75 428.673 65.8583 429.357 67.025C430.057 68.1917 430.598 69.4167 430.982 70.7C431.365 71.9833 431.557 73.3333 431.557 74.75Z" fill="#7D97C2"/>
</svg>
