<svg width="476" height="91" viewBox="0 0 476 91" fill="none" xmlns="http://www.w3.org/2000/svg">
<path d="M153.006 28.16C153.006 25.9467 153.34 23.9333 154.006 22.12C154.673 20.28 155.646 18.7067 156.926 17.4C158.206 16.0667 159.766 15.04 161.606 14.32C163.446 13.5733 165.54 13.2 167.886 13.2C169.38 13.2 170.833 13.3333 172.246 13.6C173.66 13.84 175.033 14.2267 176.366 14.76L174.206 22.12H172.686L170.406 14.92L174.646 15.24L173.646 16.96C172.766 16.3467 171.806 15.8933 170.766 15.6C169.753 15.28 168.78 15.12 167.846 15.12C166.353 15.12 165.073 15.4533 164.006 16.12C162.966 16.7867 162.113 17.6933 161.446 18.84C160.78 19.9867 160.286 21.2933 159.966 22.76C159.646 24.2 159.486 25.72 159.486 27.32C159.486 29.5867 159.793 31.64 160.406 33.48C161.046 35.32 162.006 36.7867 163.286 37.88C164.566 38.9467 166.193 39.48 168.166 39.48C169.34 39.48 170.446 39.2667 171.486 38.84C172.553 38.4133 173.553 37.84 174.486 37.12L174.246 38.76L170.406 40.2L172.686 32.72H174.206L176.326 39.96C174.78 40.4667 173.26 40.8267 171.766 41.04C170.3 41.28 168.98 41.4 167.806 41.4C164.74 41.4 162.1 40.8933 159.886 39.88C157.673 38.8667 155.966 37.3733 154.766 35.4C153.593 33.4267 153.006 31.0133 153.006 28.16ZM183.903 27.92V25.88H187.943C189.143 25.88 190.076 25.8267 190.743 25.72C191.436 25.6133 191.956 25.4267 192.303 25.16C192.676 24.8933 192.956 24.52 193.143 24.04C193.329 23.5333 193.516 22.9067 193.703 22.16H195.223V31.64H193.703C193.516 30.8933 193.329 30.28 193.143 29.8C192.956 29.32 192.676 28.9467 192.303 28.68C191.956 28.3867 191.436 28.1867 190.743 28.08C190.076 27.9733 189.143 27.92 187.943 27.92H183.903ZM195.983 39.08L199.823 33.16H201.343L200.543 41H178.903V39.48C179.863 39.3467 180.543 39.2267 180.943 39.12C181.369 38.9867 181.663 38.7867 181.823 38.52C182.009 38.2 182.116 37.7333 182.143 37.12C182.196 36.48 182.223 35.56 182.223 34.36V20.44C182.223 19.24 182.196 18.3333 182.143 17.72C182.116 17.08 182.009 16.6 181.823 16.28C181.663 15.9867 181.369 15.7867 180.943 15.68C180.543 15.5467 179.863 15.4267 178.903 15.32V13.8H199.943L200.343 21.28H198.823L195.383 15.72H188.223V39.08H195.983ZM217.976 41.4C215.95 41.4 214.096 41.1067 212.416 40.52C210.736 39.9067 209.283 39.0267 208.056 37.88C206.856 36.7333 205.923 35.3333 205.256 33.68C204.59 32 204.256 30.0933 204.256 27.96C204.256 25.6667 204.616 23.6133 205.336 21.8C206.056 19.9867 207.043 18.44 208.296 17.16C209.576 15.88 211.043 14.9067 212.696 14.24C214.35 13.5467 216.096 13.2 217.936 13.2C219.963 13.2 221.816 13.5067 223.496 14.12C225.176 14.7333 226.616 15.6267 227.816 16.8C229.043 17.9733 229.976 19.4 230.616 21.08C231.283 22.76 231.616 24.6667 231.616 26.8C231.616 29.0933 231.256 31.1467 230.536 32.96C229.816 34.7467 228.83 36.28 227.576 37.56C226.323 38.8133 224.87 39.7733 223.216 40.44C221.563 41.08 219.816 41.4 217.976 41.4ZM218.176 39.48C219.83 39.48 221.176 38.96 222.216 37.92C223.256 36.8533 224.016 35.4267 224.496 33.64C224.976 31.8533 225.216 29.8533 225.216 27.64C225.216 25.9867 225.07 24.4133 224.776 22.92C224.51 21.4267 224.083 20.0933 223.496 18.92C222.91 17.7467 222.136 16.8267 221.176 16.16C220.243 15.4667 219.11 15.12 217.776 15.12C216.123 15.12 214.776 15.64 213.736 16.68C212.696 17.6933 211.923 19.08 211.416 20.84C210.936 22.6 210.696 24.5867 210.696 26.8C210.696 28.4533 210.83 30.04 211.096 31.56C211.39 33.08 211.83 34.44 212.416 35.64C213.03 36.8133 213.803 37.7467 214.736 38.44C215.696 39.1333 216.843 39.48 218.176 39.48ZM266.251 19.16V29.04C266.251 32.9067 265.438 35.9333 263.811 38.12C262.184 40.3067 259.544 41.4 255.891 41.4C253.118 41.4 250.891 40.9733 249.211 40.12C247.531 39.2667 246.318 37.96 245.571 36.2C244.824 34.44 244.451 32.1867 244.451 29.44V20.48C244.451 19.28 244.424 18.36 244.371 17.72C244.344 17.08 244.238 16.6 244.051 16.28C243.891 15.9867 243.624 15.7867 243.251 15.68C242.878 15.5467 242.304 15.4267 241.531 15.32V13.8C242.598 13.8267 243.424 13.8533 244.011 13.88C244.624 13.9067 245.158 13.9333 245.611 13.96C246.064 13.96 246.624 13.96 247.291 13.96C248.064 13.96 248.691 13.96 249.171 13.96C249.678 13.9333 250.238 13.9067 250.851 13.88C251.464 13.8533 252.304 13.8267 253.371 13.8V15.32C252.544 15.4267 251.944 15.5467 251.571 15.68C251.224 15.7867 250.958 16.0267 250.771 16.4C250.611 16.72 250.518 17.2 250.491 17.84C250.464 18.48 250.451 19.36 250.451 20.48V28.64C250.451 30.7733 250.638 32.5867 251.011 34.08C251.411 35.5467 252.064 36.6667 252.971 37.44C253.904 38.1867 255.144 38.56 256.691 38.56C258.718 38.56 260.318 37.9067 261.491 36.6C262.664 35.2667 263.251 33.0133 263.251 29.84V19.16C263.251 18.44 263.224 17.8667 263.171 17.44C263.144 16.9867 263.064 16.6267 262.931 16.36C262.771 15.9867 262.491 15.7467 262.091 15.64C261.691 15.5333 261.118 15.4267 260.371 15.32V13.8C261.091 13.8267 261.678 13.8533 262.131 13.88C262.584 13.9067 263.024 13.9333 263.451 13.96C263.904 13.96 264.438 13.96 265.051 13.96C265.611 13.96 266.064 13.96 266.411 13.96C266.758 13.9333 267.131 13.9067 267.531 13.88C267.931 13.8533 268.478 13.8267 269.171 13.8V15.32C268.504 15.4 267.984 15.4933 267.611 15.6C267.238 15.68 266.944 15.8533 266.731 16.12C266.544 16.36 266.411 16.72 266.331 17.2C266.278 17.6533 266.251 18.3067 266.251 19.16ZM288.582 33.68H276.262V31.64H288.582V33.68ZM284.302 13.8L293.022 34.32C293.502 35.4133 293.875 36.28 294.142 36.92C294.435 37.56 294.702 38.0533 294.942 38.4C295.208 38.72 295.528 38.96 295.902 39.12C296.302 39.2533 296.848 39.3733 297.542 39.48V41C296.742 40.9467 295.862 40.9067 294.902 40.88C293.942 40.8533 292.622 40.84 290.942 40.84C289.795 40.84 288.888 40.8533 288.222 40.88C287.582 40.88 287.035 40.8933 286.582 40.92C286.155 40.9467 285.675 40.9733 285.142 41V39.48C285.915 39.3467 286.555 39.2 287.062 39.04C287.595 38.8533 287.862 38.4667 287.862 37.88C287.862 37.16 287.528 35.9733 286.862 34.32L281.662 21.68H282.022L276.502 35.48C276.262 36.0667 276.075 36.56 275.942 36.96C275.835 37.36 275.782 37.6933 275.782 37.96C275.782 38.5467 276.062 38.92 276.622 39.08C277.182 39.24 277.795 39.3733 278.462 39.48V41C277.662 40.9467 276.902 40.9067 276.182 40.88C275.488 40.8533 274.728 40.84 273.902 40.84C273.128 40.84 272.395 40.8533 271.702 40.88C271.035 40.9067 270.302 40.9467 269.502 41V39.48C270.328 39.3467 270.942 39.1867 271.342 39C271.768 38.8133 272.128 38.4667 272.422 37.96C272.715 37.4267 273.088 36.6 273.542 35.48L282.702 13.8H284.302ZM304.45 27.92V25.88H308.49C309.69 25.88 310.623 25.8267 311.29 25.72C311.983 25.6133 312.503 25.4267 312.85 25.16C313.223 24.8933 313.503 24.52 313.69 24.04C313.876 23.5333 314.063 22.9067 314.25 22.16H315.77V31.64H314.25C314.063 30.8933 313.876 30.28 313.69 29.8C313.503 29.32 313.223 28.9467 312.85 28.68C312.503 28.3867 311.983 28.1867 311.29 28.08C310.623 27.9733 309.69 27.92 308.49 27.92H304.45ZM316.53 39.08L320.37 33.16H321.89L321.09 41H299.45V39.48C300.41 39.3467 301.09 39.2267 301.49 39.12C301.916 38.9867 302.21 38.7867 302.37 38.52C302.556 38.2 302.663 37.7333 302.69 37.12C302.743 36.48 302.77 35.56 302.77 34.36V20.44C302.77 19.24 302.743 18.3333 302.69 17.72C302.663 17.08 302.556 16.6 302.37 16.28C302.21 15.9867 301.916 15.7867 301.49 15.68C301.09 15.5467 300.41 15.4267 299.45 15.32V13.8H320.49L320.89 21.28H319.37L315.93 15.72H308.77V39.08H316.53Z" fill="white"/>
<path d="M15.2834 70.3L15.7084 65H29.6834L30.1084 70.3H29.3334L27.5834 66.025H17.8084L16.0584 70.3H15.2834ZM21.4584 65.475H23.9084V78.65C23.9084 79.15 23.9167 79.5583 23.9334 79.875C23.9667 80.1917 24.0251 80.4417 24.1084 80.625C24.2417 80.8417 24.4417 80.9917 24.7084 81.075C24.9751 81.1417 25.3667 81.2167 25.8834 81.3V82C25.3501 81.9667 24.9251 81.95 24.6084 81.95C24.2917 81.9333 23.9917 81.925 23.7084 81.925C23.4251 81.9083 23.0751 81.9 22.6584 81.9C22.2584 81.9 21.9167 81.9083 21.6334 81.925C21.3667 81.925 21.0751 81.9333 20.7584 81.95C20.4417 81.95 20.0251 81.9667 19.5084 82V81.3C20.0084 81.2167 20.3917 81.1417 20.6584 81.075C20.9417 80.9917 21.1334 80.8417 21.2334 80.625C21.3334 80.4583 21.3917 80.2167 21.4084 79.9C21.4417 79.5833 21.4584 79.1583 21.4584 78.625V65.475ZM39.8264 82.25C38.5764 82.25 37.4514 82.0333 36.4514 81.6C35.468 81.1667 34.618 80.575 33.9014 79.825C33.2014 79.0583 32.6597 78.1583 32.2764 77.125C31.9097 76.0917 31.7264 74.975 31.7264 73.775C31.7264 72.575 31.9097 71.4333 32.2764 70.35C32.6597 69.2667 33.2014 68.3 33.9014 67.45C34.6014 66.6 35.4514 65.9333 36.4514 65.45C37.4514 64.95 38.5764 64.7 39.8264 64.7C41.1264 64.7 42.2764 64.925 43.2764 65.375C44.293 65.825 45.143 66.45 45.8264 67.25C46.5264 68.0333 47.0514 68.9417 47.4014 69.975C47.7514 71.0083 47.9264 72.0917 47.9264 73.225C47.9264 74.4583 47.7347 75.625 47.3514 76.725C46.9847 77.8083 46.4514 78.7667 45.7514 79.6C45.068 80.4333 44.218 81.0833 43.2014 81.55C42.2014 82.0167 41.0764 82.25 39.8264 82.25ZM39.9014 81.3C41.018 81.3 41.9764 80.9833 42.7764 80.35C43.593 79.7 44.218 78.8 44.6514 77.65C45.0847 76.5 45.3014 75.175 45.3014 73.675C45.3014 72.525 45.1764 71.4667 44.9264 70.5C44.6764 69.5333 44.3097 68.6917 43.8264 67.975C43.3597 67.2417 42.7847 66.675 42.1014 66.275C41.418 65.8583 40.6514 65.65 39.8014 65.65C38.6847 65.65 37.718 65.9583 36.9014 66.575C36.0847 67.1917 35.4514 68.0583 35.0014 69.175C34.568 70.2917 34.3514 71.6167 34.3514 73.15C34.3514 74.2833 34.4764 75.35 34.7264 76.35C34.9764 77.3333 35.343 78.1917 35.8264 78.925C36.3097 79.6583 36.893 80.2417 37.5764 80.675C38.2597 81.0917 39.0347 81.3 39.9014 81.3ZM54.5357 65.9V78.65C54.5357 79.15 54.5441 79.5583 54.5607 79.875C54.5774 80.1917 54.6357 80.4417 54.7357 80.625C54.8524 80.8417 55.0441 80.9917 55.3107 81.075C55.5774 81.1417 55.9691 81.2167 56.4857 81.3V82C55.9691 81.9667 55.5441 81.95 55.2107 81.95C54.8941 81.9333 54.5941 81.925 54.3107 81.925C54.0441 81.9083 53.6941 81.9 53.2607 81.9C52.8774 81.9 52.5441 81.9083 52.2607 81.925C51.9774 81.925 51.6774 81.9333 51.3607 81.95C51.0607 81.95 50.6441 81.9667 50.1107 82V81.3C50.6274 81.2167 51.0191 81.1417 51.2857 81.075C51.5524 80.9917 51.7441 80.8417 51.8607 80.625C51.9607 80.4583 52.0191 80.2167 52.0357 79.9C52.0691 79.5833 52.0857 79.1583 52.0857 78.625V68.875C52.0857 68.175 52.0691 67.6333 52.0357 67.25C52.0191 66.85 51.9357 66.55 51.7857 66.35C51.6691 66.15 51.4691 66.0083 51.1857 65.925C50.9024 65.8417 50.5024 65.7667 49.9857 65.7V65H56.6107C58.1274 65 59.3941 65.1833 60.4107 65.55C61.4441 65.9 62.2191 66.425 62.7357 67.125C63.2691 67.825 63.5357 68.6833 63.5357 69.7C63.5357 70.5167 63.3357 71.2583 62.9357 71.925C62.5524 72.575 62.0024 73.1333 61.2857 73.6C60.5857 74.05 59.7524 74.4 58.7857 74.65C57.8357 74.8833 56.7774 75 55.6107 75H54.2857L54.2607 73.975C54.5441 73.9917 54.8107 74.0167 55.0607 74.05C55.3107 74.0833 55.5691 74.1 55.8357 74.1C56.9524 74.1 57.8857 73.9167 58.6357 73.55C59.4024 73.1833 59.9857 72.6917 60.3857 72.075C60.7857 71.4583 60.9857 70.75 60.9857 69.95C60.9857 69.1333 60.8024 68.425 60.4357 67.825C60.0691 67.225 59.5274 66.7583 58.8107 66.425C58.1107 66.075 57.2607 65.9 56.2607 65.9H54.5357ZM72.8227 67.15L72.4227 73.55L71.9227 73.225C72.2727 72.9583 72.6227 72.7167 72.9727 72.5C73.3393 72.2833 73.7477 72.1167 74.1977 72C74.6477 71.8667 75.1727 71.8 75.7727 71.8C76.856 71.8 77.7977 72 78.5977 72.4C79.4143 72.7833 80.0477 73.3333 80.4977 74.05C80.9477 74.7667 81.1727 75.6333 81.1727 76.65C81.1727 77.5667 80.981 78.375 80.5977 79.075C80.231 79.7583 79.7227 80.3417 79.0727 80.825C78.4393 81.2917 77.7143 81.65 76.8977 81.9C76.081 82.1333 75.2227 82.25 74.3227 82.25C73.556 82.25 72.8727 82.175 72.2727 82.025C71.6727 81.8917 71.0977 81.6667 70.5477 81.35L71.2477 77.825H71.8727L72.9977 81.7L71.8977 80.625C72.3977 80.875 72.8477 81.0583 73.2477 81.175C73.6643 81.275 74.1143 81.325 74.5977 81.325C75.3643 81.325 76.056 81.175 76.6727 80.875C77.306 80.575 77.8143 80.125 78.1977 79.525C78.5977 78.925 78.7977 78.1667 78.7977 77.25C78.7977 75.9333 78.406 74.9583 77.6227 74.325C76.856 73.6917 75.8893 73.375 74.7227 73.375C74.0727 73.375 73.4893 73.475 72.9727 73.675C72.4727 73.8583 72.0393 74.0917 71.6727 74.375L71.2477 74.075L71.8227 65.75H80.1977L80.0977 67.85H72.0727L72.8227 67.15ZM90.1027 82.25C88.9027 82.25 87.8444 81.8833 86.9277 81.15C86.0277 80.4 85.3277 79.4 84.8277 78.15C84.3444 76.9 84.1027 75.5167 84.1027 74C84.1027 72.95 84.2361 71.9167 84.5027 70.9C84.7694 69.8833 85.1694 68.975 85.7027 68.175C86.2361 67.3583 86.9027 66.7083 87.7027 66.225C88.5027 65.7417 89.4277 65.5 90.4777 65.5C91.7111 65.5 92.7777 65.85 93.6777 66.55C94.5944 67.25 95.2944 68.2083 95.7777 69.425C96.2777 70.625 96.5277 72 96.5277 73.55C96.5277 74.6833 96.3777 75.775 96.0777 76.825C95.7944 77.8583 95.3694 78.7833 94.8027 79.6C94.2361 80.4167 93.5527 81.0667 92.7527 81.55C91.9694 82.0167 91.0861 82.25 90.1027 82.25ZM90.3277 81.325C91.0777 81.325 91.7277 81.025 92.2777 80.425C92.8277 79.825 93.2527 78.975 93.5527 77.875C93.8694 76.775 94.0277 75.4917 94.0277 74.025C94.0277 72.5083 93.8777 71.1833 93.5777 70.05C93.2944 68.9 92.8611 68.0083 92.2777 67.375C91.7111 66.7417 91.0277 66.425 90.2277 66.425C89.0944 66.425 88.2027 67.025 87.5527 68.225C86.9194 69.4083 86.6027 71.1 86.6027 73.3C86.6027 74.8333 86.7444 76.2083 87.0277 77.425C87.3111 78.6417 87.7277 79.6 88.2777 80.3C88.8277 80.9833 89.5111 81.325 90.3277 81.325ZM108.537 68.35V78.65C108.537 79.15 108.545 79.5583 108.562 79.875C108.578 80.1917 108.637 80.4417 108.737 80.625C108.853 80.8417 109.045 80.9917 109.312 81.075C109.578 81.1417 109.97 81.2167 110.487 81.3V82C109.97 81.9667 109.553 81.95 109.237 81.95C108.92 81.9333 108.62 81.925 108.337 81.925C108.07 81.9083 107.728 81.9 107.312 81.9C106.912 81.9 106.562 81.9083 106.262 81.925C105.978 81.925 105.678 81.9333 105.362 81.95C105.062 81.95 104.645 81.9667 104.112 82V81.3C104.628 81.2167 105.02 81.1417 105.287 81.075C105.553 80.9917 105.745 80.8417 105.862 80.625C105.962 80.4583 106.02 80.2167 106.037 79.9C106.07 79.5833 106.087 79.1583 106.087 78.625V68.375C106.087 67.8417 106.07 67.4167 106.037 67.1C106.02 66.7833 105.962 66.5417 105.862 66.375C105.745 66.1583 105.553 66.0083 105.287 65.925C105.02 65.8417 104.628 65.7667 104.112 65.7V65C104.645 65.0167 105.062 65.0333 105.362 65.05C105.678 65.0667 105.978 65.0833 106.262 65.1C106.562 65.1 106.912 65.1 107.312 65.1C107.728 65.1 108.07 65.1 108.337 65.1C108.62 65.0833 108.92 65.0667 109.237 65.05C109.553 65.0333 109.97 65.0167 110.487 65V65.7C109.97 65.7667 109.578 65.8417 109.312 65.925C109.045 65.9917 108.853 66.1417 108.737 66.375C108.637 66.5583 108.578 66.8083 108.562 67.125C108.545 67.425 108.537 67.8333 108.537 68.35ZM126.912 65.1C127.262 65.1 127.62 65.0917 127.987 65.075C128.37 65.0417 128.812 65.0167 129.312 65V65.7C128.795 65.7667 128.42 65.8417 128.187 65.925C127.97 65.9917 127.804 66.1417 127.687 66.375C127.587 66.575 127.529 66.875 127.512 67.275C127.495 67.675 127.487 68.2167 127.487 68.9V82H126.662L115.562 67.95L115.587 78.075C115.587 78.775 115.595 79.325 115.612 79.725C115.629 80.125 115.687 80.425 115.787 80.625C115.904 80.8417 116.104 80.9917 116.387 81.075C116.687 81.1417 117.27 81.2167 118.137 81.3V82C117.27 81.9667 116.612 81.9417 116.162 81.925C115.729 81.9083 115.329 81.9 114.962 81.9C114.595 81.9 114.204 81.9083 113.787 81.925C113.387 81.9417 112.937 81.9667 112.437 82V81.3C112.92 81.2167 113.279 81.1417 113.512 81.075C113.745 81.0083 113.912 80.8833 114.012 80.7C114.129 80.5 114.195 80.2 114.212 79.8C114.245 79.4 114.262 78.825 114.262 78.075V68.925C114.262 68.175 114.245 67.6 114.212 67.2C114.195 66.7833 114.129 66.4833 114.012 66.3C113.895 66.1167 113.712 65.9917 113.462 65.925C113.229 65.8417 112.887 65.7667 112.437 65.7V65H116.312L126.137 77.625V68.925C126.137 68.175 126.12 67.6 126.087 67.2C126.07 66.8 126.004 66.5 125.887 66.3C125.787 66.1167 125.587 65.9917 125.287 65.925C125.004 65.8417 124.445 65.7667 123.612 65.7V65C124.495 65.0167 125.17 65.0417 125.637 65.075C126.104 65.0917 126.529 65.1 126.912 65.1ZM134.31 74.15V73.125H137.61C138.243 73.125 138.743 73.1 139.11 73.05C139.477 72.9833 139.752 72.8667 139.935 72.7C140.135 72.5333 140.285 72.2917 140.385 71.975C140.485 71.6583 140.593 71.2583 140.71 70.775H141.435V76.5H140.71C140.593 76 140.485 75.6 140.385 75.3C140.285 74.9833 140.135 74.7417 139.935 74.575C139.752 74.4083 139.477 74.3 139.11 74.25C138.743 74.1833 138.243 74.15 137.61 74.15H134.31ZM131.26 65H143.485L143.735 69.425H142.985L141.41 65.95H135.685V78.65C135.685 79.15 135.693 79.5583 135.71 79.875C135.727 80.1917 135.785 80.4417 135.885 80.625C136.002 80.8417 136.193 80.9917 136.46 81.075C136.727 81.1417 137.118 81.2167 137.635 81.3V82C137.118 81.9667 136.693 81.95 136.36 81.95C136.043 81.9333 135.743 81.925 135.46 81.925C135.193 81.9083 134.843 81.9 134.41 81.9C134.027 81.9 133.693 81.9083 133.41 81.925C133.127 81.925 132.827 81.9333 132.51 81.95C132.21 81.95 131.793 81.9667 131.26 82V81.3C131.777 81.2167 132.168 81.1417 132.435 81.075C132.702 80.9917 132.893 80.8417 133.01 80.625C133.11 80.4583 133.168 80.2167 133.185 79.9C133.218 79.5833 133.235 79.1583 133.235 78.625V68.875C133.235 68.1417 133.218 67.575 133.185 67.175C133.152 66.775 133.06 66.475 132.91 66.275C132.793 66.0917 132.602 65.9667 132.335 65.9C132.085 65.8167 131.727 65.7583 131.26 65.725V65ZM149.796 68.375V81.05H155.221L156.896 77.05H157.671L157.321 82H145.371V81.3C145.871 81.2167 146.255 81.1333 146.521 81.05C146.788 80.9667 146.971 80.825 147.071 80.625C147.205 80.425 147.28 80.1333 147.296 79.75C147.33 79.35 147.346 78.8083 147.346 78.125V68.375C147.346 67.8417 147.33 67.4167 147.296 67.1C147.28 66.7833 147.221 66.5417 147.121 66.375C147.005 66.1583 146.813 66.0083 146.546 65.925C146.28 65.8417 145.888 65.7667 145.371 65.7V65C145.905 65.0167 146.321 65.0333 146.621 65.05C146.938 65.0667 147.238 65.0833 147.521 65.1C147.805 65.1 148.138 65.1 148.521 65.1C148.955 65.1 149.305 65.1 149.571 65.1C149.855 65.0833 150.155 65.0667 150.471 65.05C150.805 65.0333 151.23 65.0167 151.746 65V65.7C151.23 65.7667 150.838 65.8417 150.571 65.925C150.305 65.9917 150.113 66.1417 149.996 66.375C149.896 66.5583 149.838 66.8083 149.821 67.125C149.805 67.425 149.796 67.8417 149.796 68.375ZM173.289 68.55V74.65C173.289 77.15 172.798 79.0417 171.814 80.325C170.831 81.6083 169.223 82.25 166.989 82.25C165.389 82.25 164.114 81.95 163.164 81.35C162.214 80.75 161.531 79.8833 161.114 78.75C160.714 77.6167 160.514 76.2417 160.514 74.625V68.375C160.514 67.8417 160.498 67.4167 160.464 67.1C160.448 66.7833 160.389 66.5417 160.289 66.375C160.189 66.1583 160.006 66.0083 159.739 65.925C159.473 65.8417 159.089 65.7667 158.589 65.7V65C159.106 65.0167 159.514 65.0333 159.814 65.05C160.131 65.0667 160.423 65.0833 160.689 65.1C160.973 65.1 161.314 65.1 161.714 65.1C162.131 65.1 162.473 65.1 162.739 65.1C163.023 65.0833 163.323 65.0667 163.639 65.05C163.956 65.0333 164.381 65.0167 164.914 65V65.7C164.398 65.7667 164.006 65.8417 163.739 65.925C163.489 65.9917 163.298 66.1417 163.164 66.375C163.081 66.5583 163.023 66.8083 162.989 67.125C162.973 67.425 162.964 67.8417 162.964 68.375V74.25C162.964 75.6333 163.106 76.825 163.389 77.825C163.689 78.825 164.164 79.5917 164.814 80.125C165.481 80.6417 166.373 80.9 167.489 80.9C168.989 80.9 170.098 80.4417 170.814 79.525C171.548 78.5917 171.914 77.1333 171.914 75.15V68.55C171.914 67.9833 171.898 67.5333 171.864 67.2C171.848 66.8667 171.798 66.6 171.714 66.4C171.598 66.1667 171.406 66.0083 171.139 65.925C170.873 65.8417 170.498 65.7667 170.014 65.7V65C170.431 65.0167 170.773 65.0333 171.039 65.05C171.306 65.0667 171.564 65.0833 171.814 65.1C172.064 65.1 172.364 65.1 172.714 65.1C173.048 65.1 173.314 65.1 173.514 65.1C173.731 65.0833 173.956 65.0667 174.189 65.05C174.439 65.0333 174.773 65.0167 175.189 65V65.7C174.723 65.7833 174.364 65.8583 174.114 65.925C173.864 65.9917 173.681 66.125 173.564 66.325C173.448 66.5083 173.373 66.775 173.339 67.125C173.306 67.4583 173.289 67.9333 173.289 68.55ZM179.599 73.675V72.675H183.049C183.649 72.675 184.115 72.6417 184.449 72.575C184.782 72.4917 185.032 72.3667 185.199 72.2C185.382 72.0333 185.515 71.8 185.599 71.5C185.699 71.1833 185.807 70.7917 185.924 70.325H186.649V76.025H185.924C185.807 75.575 185.699 75.2 185.599 74.9C185.515 74.5833 185.382 74.3333 185.199 74.15C185.032 73.9667 184.782 73.8417 184.449 73.775C184.115 73.7083 183.649 73.675 183.049 73.675H179.599ZM187.324 81.05L189.149 77.15H189.899L189.399 82H176.524V81.3C177.074 81.2167 177.482 81.1333 177.749 81.05C178.032 80.9667 178.232 80.825 178.349 80.625C178.465 80.425 178.532 80.1333 178.549 79.75C178.582 79.35 178.599 78.8083 178.599 78.125V68.875C178.599 68.1417 178.582 67.575 178.549 67.175C178.532 66.775 178.44 66.475 178.274 66.275C178.157 66.0917 177.965 65.9667 177.699 65.9C177.432 65.8167 177.04 65.7583 176.524 65.725V65H188.999L189.249 69.425H188.499L186.924 65.95H181.049V81.05H187.324ZM206.306 65.1C206.656 65.1 207.015 65.0917 207.381 65.075C207.765 65.0417 208.206 65.0167 208.706 65V65.7C208.19 65.7667 207.815 65.8417 207.581 65.925C207.365 65.9917 207.198 66.1417 207.081 66.375C206.981 66.575 206.923 66.875 206.906 67.275C206.89 67.675 206.881 68.2167 206.881 68.9V82H206.056L194.956 67.95L194.981 78.075C194.981 78.775 194.99 79.325 195.006 79.725C195.023 80.125 195.081 80.425 195.181 80.625C195.298 80.8417 195.498 80.9917 195.781 81.075C196.081 81.1417 196.665 81.2167 197.531 81.3V82C196.665 81.9667 196.006 81.9417 195.556 81.925C195.123 81.9083 194.723 81.9 194.356 81.9C193.99 81.9 193.598 81.9083 193.181 81.925C192.781 81.9417 192.331 81.9667 191.831 82V81.3C192.315 81.2167 192.673 81.1417 192.906 81.075C193.14 81.0083 193.306 80.8833 193.406 80.7C193.523 80.5 193.59 80.2 193.606 79.8C193.64 79.4 193.656 78.825 193.656 78.075V68.925C193.656 68.175 193.64 67.6 193.606 67.2C193.59 66.7833 193.523 66.4833 193.406 66.3C193.29 66.1167 193.106 65.9917 192.856 65.925C192.623 65.8417 192.281 65.7667 191.831 65.7V65H195.706L205.531 77.625V68.925C205.531 68.175 205.515 67.6 205.481 67.2C205.465 66.8 205.398 66.5 205.281 66.3C205.181 66.1167 204.981 65.9917 204.681 65.925C204.398 65.8417 203.84 65.7667 203.006 65.7V65C203.89 65.0167 204.565 65.0417 205.031 65.075C205.498 65.0917 205.923 65.1 206.306 65.1ZM210.23 70.3L210.655 65H224.63L225.055 70.3H224.28L222.53 66.025H212.755L211.005 70.3H210.23ZM216.405 65.475H218.855V78.65C218.855 79.15 218.863 79.5583 218.88 79.875C218.913 80.1917 218.971 80.4417 219.055 80.625C219.188 80.8417 219.388 80.9917 219.655 81.075C219.921 81.1417 220.313 81.2167 220.83 81.3V82C220.296 81.9667 219.871 81.95 219.555 81.95C219.238 81.9333 218.938 81.925 218.655 81.925C218.371 81.9083 218.021 81.9 217.605 81.9C217.205 81.9 216.863 81.9083 216.58 81.925C216.313 81.925 216.021 81.9333 215.705 81.95C215.388 81.95 214.971 81.9667 214.455 82V81.3C214.955 81.2167 215.338 81.1417 215.605 81.075C215.888 80.9917 216.08 80.8417 216.18 80.625C216.28 80.4583 216.338 80.2167 216.355 79.9C216.388 79.5833 216.405 79.1583 216.405 78.625V65.475ZM230.998 68.35V78.65C230.998 79.15 231.006 79.5583 231.023 79.875C231.039 80.1917 231.098 80.4417 231.198 80.625C231.314 80.8417 231.506 80.9917 231.773 81.075C232.039 81.1417 232.431 81.2167 232.948 81.3V82C232.431 81.9667 232.014 81.95 231.698 81.95C231.381 81.9333 231.081 81.925 230.798 81.925C230.531 81.9083 230.189 81.9 229.773 81.9C229.373 81.9 229.023 81.9083 228.723 81.925C228.439 81.925 228.139 81.9333 227.823 81.95C227.523 81.95 227.106 81.9667 226.573 82V81.3C227.089 81.2167 227.481 81.1417 227.748 81.075C228.014 80.9917 228.206 80.8417 228.323 80.625C228.423 80.4583 228.481 80.2167 228.498 79.9C228.531 79.5833 228.548 79.1583 228.548 78.625V68.375C228.548 67.8417 228.531 67.4167 228.498 67.1C228.481 66.7833 228.423 66.5417 228.323 66.375C228.206 66.1583 228.014 66.0083 227.748 65.925C227.481 65.8417 227.089 65.7667 226.573 65.7V65C227.106 65.0167 227.523 65.0333 227.823 65.05C228.139 65.0667 228.439 65.0833 228.723 65.1C229.023 65.1 229.373 65.1 229.773 65.1C230.189 65.1 230.531 65.1 230.798 65.1C231.081 65.0833 231.381 65.0667 231.698 65.05C232.014 65.0333 232.431 65.0167 232.948 65V65.7C232.431 65.7667 232.039 65.8417 231.773 65.925C231.506 65.9917 231.314 66.1417 231.198 66.375C231.098 66.5583 231.039 66.8083 231.023 67.125C231.006 67.425 230.998 67.8333 230.998 68.35ZM246.123 77H238.248V76H246.123V77ZM242.823 65L248.448 78.85C248.665 79.35 248.84 79.75 248.973 80.05C249.106 80.3333 249.24 80.5583 249.373 80.725C249.506 80.875 249.69 80.9917 249.923 81.075C250.156 81.1583 250.465 81.2333 250.848 81.3V82C250.431 81.9667 249.956 81.9417 249.423 81.925C248.89 81.9083 248.256 81.9 247.523 81.9C247.056 81.9 246.665 81.9083 246.348 81.925C246.031 81.925 245.731 81.9333 245.448 81.95C245.181 81.9667 244.881 81.9833 244.548 82V81.3C245.115 81.1833 245.54 81.075 245.823 80.975C246.106 80.875 246.248 80.6417 246.248 80.275C246.248 79.8417 246.04 79.1083 245.623 78.075L241.698 68.275L242.173 67.875L237.898 78.8C237.748 79.1667 237.64 79.475 237.573 79.725C237.506 79.975 237.473 80.1917 237.473 80.375C237.473 80.725 237.64 80.9417 237.973 81.025C238.323 81.1083 238.748 81.2 239.248 81.3V82C238.731 81.9667 238.265 81.9417 237.848 81.925C237.448 81.9083 236.99 81.9 236.473 81.9C236.123 81.9 235.748 81.9083 235.348 81.925C234.948 81.9417 234.531 81.9667 234.098 82V81.3C234.565 81.2167 234.923 81.1167 235.173 81C235.423 80.8833 235.623 80.6917 235.773 80.425C235.94 80.1417 236.14 79.725 236.373 79.175L242.123 65H242.823ZM256.437 68.375V81.05H261.862L263.537 77.05H264.312L263.962 82H252.012V81.3C252.512 81.2167 252.895 81.1333 253.162 81.05C253.429 80.9667 253.612 80.825 253.712 80.625C253.845 80.425 253.92 80.1333 253.937 79.75C253.97 79.35 253.987 78.8083 253.987 78.125V68.375C253.987 67.8417 253.97 67.4167 253.937 67.1C253.92 66.7833 253.862 66.5417 253.762 66.375C253.645 66.1583 253.454 66.0083 253.187 65.925C252.92 65.8417 252.529 65.7667 252.012 65.7V65C252.545 65.0167 252.962 65.0333 253.262 65.05C253.579 65.0667 253.879 65.0833 254.162 65.1C254.445 65.1 254.779 65.1 255.162 65.1C255.595 65.1 255.945 65.1 256.212 65.1C256.495 65.0833 256.795 65.0667 257.112 65.05C257.445 65.0333 257.87 65.0167 258.387 65V65.7C257.87 65.7667 257.479 65.8417 257.212 65.925C256.945 65.9917 256.754 66.1417 256.637 66.375C256.537 66.5583 256.479 66.8083 256.462 67.125C256.445 67.425 256.437 67.8417 256.437 68.375ZM293.206 65.1C293.54 65.1 293.906 65.0917 294.306 65.075C294.706 65.0417 295.165 65.0167 295.681 65V65.7C295.148 65.7833 294.748 65.8833 294.481 66C294.215 66.1167 293.998 66.3333 293.831 66.65C293.665 66.9667 293.448 67.4833 293.181 68.2L288.081 82H287.381L282.681 69.225H283.406L278.481 82H277.781L273.056 68.925C272.79 68.2083 272.573 67.65 272.406 67.25C272.24 66.85 272.065 66.55 271.881 66.35C271.715 66.15 271.506 66.0083 271.256 65.925C271.006 65.8417 270.665 65.7667 270.231 65.7V65C270.731 65.0167 271.248 65.0417 271.781 65.075C272.315 65.0917 272.923 65.1 273.606 65.1C274.19 65.1 274.656 65.1 275.006 65.1C275.356 65.0833 275.673 65.0667 275.956 65.05C276.24 65.0333 276.548 65.0167 276.881 65V65.7C276.398 65.7667 275.981 65.8583 275.631 65.975C275.281 66.0917 275.106 66.3417 275.106 66.725C275.106 66.9417 275.165 67.2333 275.281 67.6C275.415 67.9667 275.565 68.4083 275.731 68.925L279.331 79.175H278.331L283.306 66.05H284.131L288.831 79.15L287.931 79.175L291.781 68.2C291.915 67.85 292.015 67.55 292.081 67.3C292.165 67.05 292.206 66.8417 292.206 66.675C292.206 66.2917 292.031 66.05 291.681 65.95C291.348 65.85 290.965 65.7667 290.531 65.7V65C291.048 65.0167 291.498 65.0417 291.881 65.075C292.265 65.0917 292.706 65.1 293.206 65.1ZM304.279 82.25C303.029 82.25 301.904 82.0333 300.904 81.6C299.921 81.1667 299.071 80.575 298.354 79.825C297.654 79.0583 297.113 78.1583 296.729 77.125C296.363 76.0917 296.179 74.975 296.179 73.775C296.179 72.575 296.363 71.4333 296.729 70.35C297.113 69.2667 297.654 68.3 298.354 67.45C299.054 66.6 299.904 65.9333 300.904 65.45C301.904 64.95 303.029 64.7 304.279 64.7C305.579 64.7 306.729 64.925 307.729 65.375C308.746 65.825 309.596 66.45 310.279 67.25C310.979 68.0333 311.504 68.9417 311.854 69.975C312.204 71.0083 312.379 72.0917 312.379 73.225C312.379 74.4583 312.188 75.625 311.804 76.725C311.438 77.8083 310.904 78.7667 310.204 79.6C309.521 80.4333 308.671 81.0833 307.654 81.55C306.654 82.0167 305.529 82.25 304.279 82.25ZM304.354 81.3C305.471 81.3 306.429 80.9833 307.229 80.35C308.046 79.7 308.671 78.8 309.104 77.65C309.538 76.5 309.754 75.175 309.754 73.675C309.754 72.525 309.629 71.4667 309.379 70.5C309.129 69.5333 308.763 68.6917 308.279 67.975C307.813 67.2417 307.238 66.675 306.554 66.275C305.871 65.8583 305.104 65.65 304.254 65.65C303.138 65.65 302.171 65.9583 301.354 66.575C300.538 67.1917 299.904 68.0583 299.454 69.175C299.021 70.2917 298.804 71.6167 298.804 73.15C298.804 74.2833 298.929 75.35 299.179 76.35C299.429 77.3333 299.796 78.1917 300.279 78.925C300.763 79.6583 301.346 80.2417 302.029 80.675C302.713 81.0917 303.488 81.3 304.354 81.3ZM335.689 81.3V82C335.089 81.9667 334.614 81.95 334.264 81.95C333.931 81.9333 333.647 81.925 333.414 81.925C333.181 81.9083 332.897 81.9 332.564 81.9C332.264 81.9 331.981 81.9083 331.714 81.925C331.447 81.925 331.147 81.9333 330.814 81.95C330.497 81.95 330.089 81.9667 329.589 82V81.3C330.256 81.2 330.722 81.0667 330.989 80.9C331.256 80.7333 331.406 80.4583 331.439 80.075C331.489 79.675 331.481 79.075 331.414 78.275L330.564 67.475L331.214 66.825L324.764 81.1H323.914L317.889 67.525L318.464 67.45L317.414 79.3C317.364 79.8167 317.364 80.2 317.414 80.45C317.464 80.7 317.631 80.8833 317.914 81C318.214 81.1 318.706 81.2 319.389 81.3V82C318.989 81.9833 318.656 81.9667 318.389 81.95C318.122 81.9333 317.872 81.925 317.639 81.925C317.406 81.9083 317.122 81.9 316.789 81.9C316.422 81.9 316.039 81.9083 315.639 81.925C315.239 81.9417 314.789 81.9667 314.289 82V81.3C314.772 81.2167 315.122 81.1333 315.339 81.05C315.556 80.9667 315.714 80.8333 315.814 80.65C315.931 80.45 316.006 80.1583 316.039 79.775C316.072 79.3917 316.122 78.825 316.189 78.075L317.039 68.925C317.122 68.175 317.156 67.6 317.139 67.2C317.122 66.7833 317.047 66.4833 316.914 66.3C316.781 66.1167 316.572 65.9917 316.289 65.925C316.022 65.8417 315.664 65.7667 315.214 65.7V65H319.489L325.314 77.975L324.864 78.025L330.614 65H334.839V65.7C334.189 65.7667 333.722 65.8833 333.439 66.05C333.172 66.2 333.014 66.475 332.964 66.875C332.931 67.275 332.947 67.8917 333.014 68.725L333.839 78.1C333.922 79 334.006 79.6667 334.089 80.1C334.172 80.5333 334.331 80.825 334.564 80.975C334.797 81.1083 335.172 81.2167 335.689 81.3ZM340.561 73.675V72.675H344.011C344.611 72.675 345.077 72.6417 345.411 72.575C345.744 72.4917 345.994 72.3667 346.161 72.2C346.344 72.0333 346.477 71.8 346.561 71.5C346.661 71.1833 346.769 70.7917 346.886 70.325H347.611V76.025H346.886C346.769 75.575 346.661 75.2 346.561 74.9C346.477 74.5833 346.344 74.3333 346.161 74.15C345.994 73.9667 345.744 73.8417 345.411 73.775C345.077 73.7083 344.611 73.675 344.011 73.675H340.561ZM348.286 81.05L350.111 77.15H350.861L350.361 82H337.486V81.3C338.036 81.2167 338.444 81.1333 338.711 81.05C338.994 80.9667 339.194 80.825 339.311 80.625C339.427 80.425 339.494 80.1333 339.511 79.75C339.544 79.35 339.561 78.8083 339.561 78.125V68.875C339.561 68.1417 339.544 67.575 339.511 67.175C339.494 66.775 339.402 66.475 339.236 66.275C339.119 66.0917 338.927 65.9667 338.661 65.9C338.394 65.8167 338.002 65.7583 337.486 65.725V65H349.961L350.211 69.425H349.461L347.886 65.95H342.011V81.05H348.286ZM367.268 65.1C367.618 65.1 367.977 65.0917 368.343 65.075C368.727 65.0417 369.168 65.0167 369.668 65V65.7C369.152 65.7667 368.777 65.8417 368.543 65.925C368.327 65.9917 368.16 66.1417 368.043 66.375C367.943 66.575 367.885 66.875 367.868 67.275C367.852 67.675 367.843 68.2167 367.843 68.9V82H367.018L355.918 67.95L355.943 78.075C355.943 78.775 355.952 79.325 355.968 79.725C355.985 80.125 356.043 80.425 356.143 80.625C356.26 80.8417 356.46 80.9917 356.743 81.075C357.043 81.1417 357.627 81.2167 358.493 81.3V82C357.627 81.9667 356.968 81.9417 356.518 81.925C356.085 81.9083 355.685 81.9 355.318 81.9C354.952 81.9 354.56 81.9083 354.143 81.925C353.743 81.9417 353.293 81.9667 352.793 82V81.3C353.277 81.2167 353.635 81.1417 353.868 81.075C354.102 81.0083 354.268 80.8833 354.368 80.7C354.485 80.5 354.552 80.2 354.568 79.8C354.602 79.4 354.618 78.825 354.618 78.075V68.925C354.618 68.175 354.602 67.6 354.568 67.2C354.552 66.7833 354.485 66.4833 354.368 66.3C354.252 66.1167 354.068 65.9917 353.818 65.925C353.585 65.8417 353.243 65.7667 352.793 65.7V65H356.668L366.493 77.625V68.925C366.493 68.175 366.477 67.6 366.443 67.2C366.427 66.8 366.36 66.5 366.243 66.3C366.143 66.1167 365.943 65.9917 365.643 65.925C365.36 65.8417 364.802 65.7667 363.968 65.7V65C364.852 65.0167 365.527 65.0417 365.993 65.075C366.46 65.0917 366.885 65.1 367.268 65.1ZM381.193 68.35V78.65C381.193 79.15 381.201 79.5583 381.218 79.875C381.235 80.1917 381.293 80.4417 381.393 80.625C381.51 80.8417 381.701 80.9917 381.968 81.075C382.235 81.1417 382.626 81.2167 383.143 81.3V82C382.626 81.9667 382.21 81.95 381.893 81.95C381.576 81.9333 381.276 81.925 380.993 81.925C380.726 81.9083 380.385 81.9 379.968 81.9C379.568 81.9 379.218 81.9083 378.918 81.925C378.635 81.925 378.335 81.9333 378.018 81.95C377.718 81.95 377.301 81.9667 376.768 82V81.3C377.285 81.2167 377.676 81.1417 377.943 81.075C378.21 80.9917 378.401 80.8417 378.518 80.625C378.618 80.4583 378.676 80.2167 378.693 79.9C378.726 79.5833 378.743 79.1583 378.743 78.625V68.375C378.743 67.8417 378.726 67.4167 378.693 67.1C378.676 66.7833 378.618 66.5417 378.518 66.375C378.401 66.1583 378.21 66.0083 377.943 65.925C377.676 65.8417 377.285 65.7667 376.768 65.7V65C377.301 65.0167 377.718 65.0333 378.018 65.05C378.335 65.0667 378.635 65.0833 378.918 65.1C379.218 65.1 379.568 65.1 379.968 65.1C380.385 65.1 380.726 65.1 380.993 65.1C381.276 65.0833 381.576 65.0667 381.893 65.05C382.21 65.0333 382.626 65.0167 383.143 65V65.7C382.626 65.7667 382.235 65.8417 381.968 65.925C381.701 65.9917 381.51 66.1417 381.393 66.375C381.293 66.5583 381.235 66.8083 381.218 67.125C381.201 67.425 381.193 67.8333 381.193 68.35ZM399.568 65.1C399.918 65.1 400.276 65.0917 400.643 65.075C401.026 65.0417 401.468 65.0167 401.968 65V65.7C401.451 65.7667 401.076 65.8417 400.843 65.925C400.626 65.9917 400.46 66.1417 400.343 66.375C400.243 66.575 400.185 66.875 400.168 67.275C400.151 67.675 400.143 68.2167 400.143 68.9V82H399.318L388.218 67.95L388.243 78.075C388.243 78.775 388.251 79.325 388.268 79.725C388.285 80.125 388.343 80.425 388.443 80.625C388.56 80.8417 388.76 80.9917 389.043 81.075C389.343 81.1417 389.926 81.2167 390.793 81.3V82C389.926 81.9667 389.268 81.9417 388.818 81.925C388.385 81.9083 387.985 81.9 387.618 81.9C387.251 81.9 386.86 81.9083 386.443 81.925C386.043 81.9417 385.593 81.9667 385.093 82V81.3C385.576 81.2167 385.935 81.1417 386.168 81.075C386.401 81.0083 386.568 80.8833 386.668 80.7C386.785 80.5 386.851 80.2 386.868 79.8C386.901 79.4 386.918 78.825 386.918 78.075V68.925C386.918 68.175 386.901 67.6 386.868 67.2C386.851 66.7833 386.785 66.4833 386.668 66.3C386.551 66.1167 386.368 65.9917 386.118 65.925C385.885 65.8417 385.543 65.7667 385.093 65.7V65H388.968L398.793 77.625V68.925C398.793 68.175 398.776 67.6 398.743 67.2C398.726 66.8 398.66 66.5 398.543 66.3C398.443 66.1167 398.243 65.9917 397.943 65.925C397.66 65.8417 397.101 65.7667 396.268 65.7V65C397.151 65.0167 397.826 65.0417 398.293 65.075C398.76 65.0917 399.185 65.1 399.568 65.1ZM409.218 69.175L408.568 68.75C409.101 67.7833 409.793 67 410.643 66.4C411.509 65.8 412.501 65.5 413.618 65.5C414.568 65.5 415.401 65.6833 416.118 66.05C416.851 66.4167 417.426 66.9333 417.843 67.6C418.259 68.2667 418.468 69.0417 418.468 69.925C418.468 70.6417 418.334 71.3083 418.068 71.925C417.801 72.5417 417.451 73.1333 417.018 73.7C416.601 74.25 416.143 74.775 415.643 75.275C415.143 75.775 414.651 76.2583 414.168 76.725L409.843 80.975L410.318 79.875H417.593L418.393 77.925H419.018L418.668 82H408.518V81.4L412.618 76.725C413.434 75.8083 414.084 75.0083 414.568 74.325C415.068 73.625 415.426 72.975 415.643 72.375C415.876 71.7583 415.993 71.1333 415.993 70.5C415.993 69.3833 415.693 68.5417 415.093 67.975C414.509 67.3917 413.759 67.1 412.843 67.1C412.026 67.1 411.318 67.3 410.718 67.7C410.118 68.0833 409.618 68.575 409.218 69.175ZM427.749 82.25C426.549 82.25 425.491 81.8833 424.574 81.15C423.674 80.4 422.974 79.4 422.474 78.15C421.991 76.9 421.749 75.5167 421.749 74C421.749 72.95 421.883 71.9167 422.149 70.9C422.416 69.8833 422.816 68.975 423.349 68.175C423.883 67.3583 424.549 66.7083 425.349 66.225C426.149 65.7417 427.074 65.5 428.124 65.5C429.358 65.5 430.424 65.85 431.324 66.55C432.241 67.25 432.941 68.2083 433.424 69.425C433.924 70.625 434.174 72 434.174 73.55C434.174 74.6833 434.024 75.775 433.724 76.825C433.441 77.8583 433.016 78.7833 432.449 79.6C431.883 80.4167 431.199 81.0667 430.399 81.55C429.616 82.0167 428.733 82.25 427.749 82.25ZM427.974 81.325C428.724 81.325 429.374 81.025 429.924 80.425C430.474 79.825 430.899 78.975 431.199 77.875C431.516 76.775 431.674 75.4917 431.674 74.025C431.674 72.5083 431.524 71.1833 431.224 70.05C430.941 68.9 430.508 68.0083 429.924 67.375C429.358 66.7417 428.674 66.425 427.874 66.425C426.741 66.425 425.849 67.025 425.199 68.225C424.566 69.4083 424.249 71.1 424.249 73.3C424.249 74.8333 424.391 76.2083 424.674 77.425C424.958 78.6417 425.374 79.6 425.924 80.3C426.474 80.9833 427.158 81.325 427.974 81.325ZM436.757 69.175L436.107 68.75C436.64 67.7833 437.332 67 438.182 66.4C439.049 65.8 440.04 65.5 441.157 65.5C442.107 65.5 442.94 65.6833 443.657 66.05C444.39 66.4167 444.965 66.9333 445.382 67.6C445.799 68.2667 446.007 69.0417 446.007 69.925C446.007 70.6417 445.874 71.3083 445.607 71.925C445.34 72.5417 444.99 73.1333 444.557 73.7C444.14 74.25 443.682 74.775 443.182 75.275C442.682 75.775 442.19 76.2583 441.707 76.725L437.382 80.975L437.857 79.875H445.132L445.932 77.925H446.557L446.207 82H436.057V81.4L440.157 76.725C440.974 75.8083 441.624 75.0083 442.107 74.325C442.607 73.625 442.965 72.975 443.182 72.375C443.415 71.7583 443.532 71.1333 443.532 70.5C443.532 69.3833 443.232 68.5417 442.632 67.975C442.049 67.3917 441.299 67.1 440.382 67.1C439.565 67.1 438.857 67.3 438.257 67.7C437.657 68.0833 437.157 68.575 436.757 69.175ZM459.263 66.425L453.838 73.25L453.663 72.825C453.847 72.7917 454.047 72.7667 454.263 72.75C454.48 72.7167 454.713 72.7 454.963 72.7C455.813 72.7 456.597 72.8583 457.313 73.175C458.03 73.475 458.597 73.9333 459.013 74.55C459.447 75.15 459.663 75.9167 459.663 76.85C459.663 77.7 459.48 78.4583 459.113 79.125C458.747 79.7917 458.247 80.3583 457.613 80.825C456.98 81.2917 456.255 81.65 455.438 81.9C454.622 82.1333 453.755 82.25 452.838 82.25C451.955 82.25 451.205 82.1667 450.588 82C449.972 81.8167 449.405 81.6 448.888 81.35L449.713 77.825H450.338L451.363 81.725L450.263 80.6C450.713 80.8667 451.163 81.0583 451.613 81.175C452.063 81.275 452.572 81.325 453.138 81.325C453.905 81.325 454.597 81.1833 455.213 80.9C455.83 80.6 456.322 80.1583 456.688 79.575C457.055 78.975 457.238 78.25 457.238 77.4C457.238 76.5833 457.072 75.925 456.738 75.425C456.405 74.9083 455.972 74.5333 455.438 74.3C454.905 74.0667 454.33 73.95 453.713 73.95C453.48 73.95 453.263 73.9583 453.063 73.975C452.88 73.9917 452.722 74.025 452.588 74.075L452.263 73.6L457.413 67.05L457.588 67.725H450.813L450.038 69.6H449.413L449.638 65.75H459.238L459.263 66.425Z" fill="#7D97C2"/>
</svg>
