<svg width="2420" height="212" viewBox="0 0 2420 212" fill="none" xmlns="http://www.w3.org/2000/svg">
<path d="M107.995 102.5V97.4C122.995 99 135.595 101.9 145.795 106.1C156.195 110.1 163.995 115.6 169.195 122.6C174.595 129.6 177.295 138.5 177.295 149.3C177.295 163.3 173.295 174.7 165.295 183.5C157.295 192.3 146.195 198.8 131.995 203C117.995 207 101.995 209 83.9945 209H0.294532V197.6C6.29453 196.6 10.5945 195.7 13.1945 194.9C15.9945 193.9 17.9945 192.4 19.1945 190.4C20.5945 188 21.4945 184.3 21.8945 179.3C22.2945 174.1 22.4945 167.4 22.4945 159.2V54.8C22.4945 45.8 22.2945 39 21.8945 34.4C21.4945 29.6 20.5945 26 19.1945 23.6C17.9945 21.4 15.9945 19.9 13.1945 19.1C10.5945 18.1 6.29453 17.2 0.294532 16.4V5H77.9945C95.9945 5 111.595 6.19999 124.795 8.59999C138.195 11 148.495 15.4 155.695 21.8C163.095 28.2 166.795 37.6 166.795 50C166.795 58.6 164.595 66.4 160.195 73.4C155.995 80.2 149.495 86 140.695 90.8C132.095 95.6 121.195 99.5 107.995 102.5ZM73.4945 18.8H65.6945V95H74.3945C84.9945 95 93.5945 93.1 100.195 89.3C106.995 85.3 111.995 80.3 115.195 74.3C118.395 68.3 119.995 62 119.995 55.4C119.995 43.2 115.495 34.1 106.495 28.1C97.4945 21.9 86.4945 18.8 73.4945 18.8ZM65.6945 195.2H82.7945C97.1945 195.2 108.595 191.6 116.995 184.4C125.395 177 129.595 166.6 129.595 153.2C129.595 145.4 127.895 138.1 124.495 131.3C121.295 124.5 116.295 119.1 109.495 115.1C102.895 110.9 94.3945 108.8 83.9945 108.8H65.6945V195.2ZM239.064 110.9V95.6H269.364C278.364 95.6 285.364 95.2 290.364 94.4C295.564 93.6 299.464 92.2 302.064 90.2C304.864 88.2 306.964 85.4 308.364 81.8C309.764 78 311.164 73.3 312.564 67.7H323.964V138.8H312.564C311.164 133.2 309.764 128.6 308.364 125C306.964 121.4 304.864 118.6 302.064 116.6C299.464 114.4 295.564 112.9 290.364 112.1C285.364 111.3 278.364 110.9 269.364 110.9H239.064ZM329.664 194.6L358.464 150.2H369.864L363.864 209H201.564V197.6C208.764 196.6 213.864 195.7 216.864 194.9C220.064 193.9 222.264 192.4 223.464 190.4C224.864 188 225.664 184.5 225.864 179.9C226.264 175.1 226.464 168.2 226.464 159.2V54.8C226.464 45.8 226.264 39 225.864 34.4C225.664 29.6 224.864 26 223.464 23.6C222.264 21.4 220.064 19.9 216.864 19.1C213.864 18.1 208.764 17.2 201.564 16.4V5H359.364L362.364 61.1H350.964L325.164 19.4H271.464V194.6H329.664ZM522.503 18.8V159.2C522.503 167.4 522.603 173.9 522.803 178.7C523.003 183.5 523.703 187.1 524.903 189.5C526.303 192.1 528.303 193.9 530.903 194.9C533.703 195.7 538.203 196.6 544.403 197.6V209C536.403 208.6 530.103 208.4 525.503 208.4C520.903 208.2 516.703 208.1 512.903 208.1C509.303 207.9 504.603 207.8 498.803 207.8C494.003 207.8 489.803 207.9 486.203 208.1C482.803 208.1 478.803 208.2 474.203 208.4C469.803 208.4 463.603 208.6 455.603 209V197.6C461.403 196.6 465.703 195.7 468.503 194.9C471.303 194.1 473.303 192.6 474.503 190.4C475.903 188 476.703 184.4 476.903 179.6C477.303 174.8 477.503 167.9 477.503 158.9V54.8C477.503 45.8 477.303 39 476.903 34.4C476.703 29.6 475.803 26 474.203 23.6C472.803 21.4 470.603 19.9 467.603 19.1C464.603 18.1 460.103 17.2 454.103 16.4V5H540.803C559.203 5 575.103 6.79999 588.503 10.4C601.903 13.8 612.303 19.6 619.703 27.8C627.103 35.8 630.803 46.8 630.803 60.8C630.803 71.6 628.103 81.1 622.703 89.3C617.503 97.3 610.203 104 600.803 109.4C591.603 114.6 581.003 118.5 569.003 121.1C557.003 123.7 544.303 125 530.903 125H518.903L519.203 110.3C521.403 110.5 523.603 110.7 525.803 110.9C528.003 111.1 530.503 111.2 533.303 111.2C545.303 111.2 554.903 108.9 562.103 104.3C569.503 99.7 574.903 93.8 578.303 86.6C581.703 79.4 583.403 71.8 583.403 63.8C583.403 54 581.303 45.8 577.103 39.2C572.903 32.6 567.203 27.6 560.003 24.2C553.003 20.6 545.103 18.8 536.303 18.8H522.503ZM762.241 154.1H669.841V138.8H762.241V154.1ZM730.141 5L795.541 158.9C799.141 167.1 801.941 173.6 803.941 178.4C806.141 183.2 808.141 186.9 809.941 189.5C811.941 191.9 814.341 193.7 817.141 194.9C820.141 195.9 824.241 196.8 829.441 197.6V209C823.441 208.6 816.841 208.3 809.641 208.1C802.441 207.9 792.541 207.8 779.941 207.8C771.341 207.8 764.541 207.9 759.541 208.1C754.741 208.1 750.641 208.2 747.241 208.4C744.041 208.6 740.441 208.8 736.441 209V197.6C742.241 196.6 747.041 195.5 750.841 194.3C754.841 192.9 756.841 190 756.841 185.6C756.841 180.2 754.341 171.3 749.341 158.9L710.341 64.1H713.041L671.641 167.6C669.841 172 668.441 175.7 667.441 178.7C666.641 181.7 666.241 184.2 666.241 186.2C666.241 190.6 668.341 193.4 672.541 194.6C676.741 195.8 681.341 196.8 686.341 197.6V209C680.341 208.6 674.641 208.3 669.241 208.1C664.041 207.9 658.341 207.8 652.141 207.8C646.341 207.8 640.841 207.9 635.641 208.1C630.641 208.3 625.141 208.6 619.141 209V197.6C625.341 196.6 629.941 195.4 632.941 194C636.141 192.6 638.841 190 641.041 186.2C643.241 182.2 646.041 176 649.441 167.6L718.141 5H730.141ZM922.952 109.7L968.852 107.9L1012.65 175.1C1015.65 179.5 1018.75 183.2 1021.95 186.2C1025.15 189.2 1028.75 191.6 1032.75 193.4C1036.75 195.2 1041.35 196.6 1046.55 197.6V209C1037.95 208.6 1030.85 208.3 1025.25 208.1C1019.85 207.9 1014.65 207.8 1009.65 207.8C1004.25 207.8 999.252 207.9 994.652 208.1C990.252 208.3 985.552 208.6 980.552 209L922.952 109.7ZM909.452 18.8V159.2C909.452 167.4 909.552 173.9 909.752 178.7C909.952 183.5 910.652 187.1 911.852 189.5C913.252 192.1 915.352 193.9 918.152 194.9C920.952 195.7 925.552 196.6 931.952 197.6V209C923.752 208.6 917.452 208.4 913.052 208.4C908.852 208.2 904.952 208.1 901.352 208.1C897.952 207.9 893.252 207.8 887.252 207.8C882.252 207.8 877.952 207.9 874.352 208.1C870.952 208.1 867.052 208.2 862.652 208.4C858.252 208.4 851.952 208.6 843.752 209V197.6C849.752 196.6 854.152 195.7 856.952 194.9C859.752 194.1 861.752 192.6 862.952 190.4C864.352 188 865.152 184.4 865.352 179.6C865.752 174.8 865.952 167.9 865.952 158.9V54.8C865.952 45.8 865.752 39 865.352 34.4C865.152 29.6 864.352 26 862.952 23.6C861.752 21.4 859.852 19.9 857.252 19.1C854.852 18.1 851.352 17.2 846.752 16.4V5H928.952C945.952 5 961.152 6.4 974.552 9.2C987.952 11.8 998.552 16.7 1006.35 23.9C1014.15 31.1 1018.05 41.5 1018.05 55.1C1018.05 65.5 1015.35 74.6 1009.95 82.4C1004.75 90 997.552 96.3 988.352 101.3C979.352 106.3 968.952 110 957.152 112.4C945.352 114.8 932.852 116 919.652 116H906.152V100.7C909.152 101.1 912.352 101.5 915.752 101.9C919.152 102.1 922.452 102.2 925.652 102.2C936.252 102.2 944.952 100.5 951.752 97.1C958.552 93.7 963.552 89 966.752 83C969.952 77 971.552 70.1 971.552 62.3C971.552 52.5 969.352 44.4 964.952 38C960.752 31.6 955.052 26.8 947.852 23.6C940.852 20.4 933.052 18.8 924.452 18.8H909.452ZM1044.57 70.4L1052.07 5H1227.87L1235.37 70.4H1223.37L1193.37 20.9H1086.57L1056.57 70.4H1044.57ZM1117.47 9.49999H1162.47V159.2C1162.47 167.4 1162.57 173.9 1162.77 178.7C1162.97 183.5 1163.67 187.1 1164.87 189.5C1166.27 192.1 1168.27 193.9 1170.87 194.9C1173.67 195.7 1178.17 196.6 1184.37 197.6V209C1176.37 208.6 1170.07 208.4 1165.47 208.4C1160.87 208.2 1156.67 208.1 1152.87 208.1C1149.27 207.9 1144.57 207.8 1138.77 207.8C1133.97 207.8 1129.77 207.9 1126.17 208.1C1122.77 208.1 1118.77 208.2 1114.17 208.4C1109.77 208.4 1103.57 208.6 1095.57 209V197.6C1101.37 196.6 1105.67 195.7 1108.47 194.9C1111.27 194.1 1113.27 192.6 1114.47 190.4C1115.87 188 1116.67 184.4 1116.87 179.6C1117.27 174.8 1117.47 167.9 1117.47 158.9V9.49999ZM1414.83 212C1399.63 212 1385.73 209.8 1373.13 205.4C1360.53 200.8 1349.63 194.2 1340.43 185.6C1331.43 177 1324.43 166.5 1319.43 154.1C1314.43 141.5 1311.93 127.2 1311.93 111.2C1311.93 94 1314.63 78.6 1320.03 65C1325.43 51.4 1332.83 39.8 1342.23 30.2C1351.83 20.6 1362.83 13.3 1375.23 8.29999C1387.63 3.09999 1400.73 0.499984 1414.53 0.499984C1429.73 0.499984 1443.63 2.79998 1456.23 7.39998C1468.83 12 1479.63 18.7 1488.63 27.5C1497.83 36.3 1504.83 47 1509.63 59.6C1514.63 72.2 1517.13 86.5 1517.13 102.5C1517.13 119.7 1514.43 135.1 1509.03 148.7C1503.63 162.1 1496.23 173.6 1486.83 183.2C1477.43 192.6 1466.53 199.8 1454.13 204.8C1441.73 209.6 1428.63 212 1414.83 212ZM1416.33 197.6C1428.73 197.6 1438.83 193.7 1446.63 185.9C1454.43 177.9 1460.13 167.2 1463.73 153.8C1467.33 140.4 1469.13 125.4 1469.13 108.8C1469.13 96.4 1468.03 84.6 1465.83 73.4C1463.83 62.2 1460.63 52.2 1456.23 43.4C1451.83 34.6 1446.03 27.7 1438.83 22.7C1431.83 17.5 1423.33 14.9 1413.33 14.9C1400.93 14.9 1390.83 18.8 1383.03 26.6C1375.23 34.2 1369.43 44.6 1365.63 57.8C1362.03 71 1360.23 85.9 1360.23 102.5C1360.23 114.9 1361.23 126.8 1363.23 138.2C1365.43 149.6 1368.73 159.8 1373.13 168.8C1377.73 177.6 1383.53 184.6 1390.53 189.8C1397.73 195 1406.33 197.6 1416.33 197.6ZM1576.43 117.2V101.3H1617.53C1624.93 101.3 1630.83 100.9 1635.23 100.1C1639.83 99.3 1643.33 97.9 1645.73 95.9C1648.33 93.7 1650.33 90.8 1651.73 87.2C1653.13 83.6 1654.53 79 1655.93 73.4H1667.33V145.1H1655.93C1654.53 139.7 1653.13 135.2 1651.73 131.6C1650.33 128 1648.33 125.2 1645.73 123.2C1643.33 121 1639.83 119.5 1635.23 118.7C1630.83 117.7 1624.93 117.2 1617.53 117.2H1576.43ZM1540.43 5H1695.23L1698.23 61.1H1686.83L1661.03 19.4H1607.33V159.2C1607.33 167.4 1607.43 173.9 1607.63 178.7C1607.83 183.5 1608.53 187.1 1609.73 189.5C1611.13 192.1 1613.13 193.9 1615.73 194.9C1618.53 195.7 1623.03 196.6 1629.23 197.6V209C1621.23 208.6 1614.93 208.4 1610.33 208.4C1605.73 208.2 1601.53 208.1 1597.73 208.1C1594.13 207.9 1589.43 207.8 1583.63 207.8C1578.83 207.8 1574.63 207.9 1571.03 208.1C1567.63 208.1 1563.63 208.2 1559.03 208.4C1554.63 208.4 1548.43 208.6 1540.43 209V197.6C1546.23 196.6 1550.53 195.7 1553.33 194.9C1556.13 194.1 1558.13 192.6 1559.33 190.4C1560.73 188 1561.53 184.4 1561.73 179.6C1562.13 174.8 1562.33 167.9 1562.33 158.9V54.8C1562.33 45.8 1562.13 39 1561.73 34.4C1561.53 29.6 1560.73 26 1559.33 23.6C1558.13 21.4 1556.13 19.9 1553.33 19.1C1550.53 18.1 1546.23 17.2 1540.43 16.4V5ZM1879.19 212C1863.99 212 1850.09 209.8 1837.49 205.4C1824.89 200.8 1813.99 194.2 1804.79 185.6C1795.79 177 1788.79 166.5 1783.79 154.1C1778.79 141.5 1776.29 127.2 1776.29 111.2C1776.29 94 1778.99 78.6 1784.39 65C1789.79 51.4 1797.19 39.8 1806.59 30.2C1816.19 20.6 1827.19 13.3 1839.59 8.29999C1851.99 3.09999 1865.09 0.499984 1878.89 0.499984C1894.09 0.499984 1907.99 2.79998 1920.59 7.39998C1933.19 12 1943.99 18.7 1952.99 27.5C1962.19 36.3 1969.19 47 1973.99 59.6C1978.99 72.2 1981.49 86.5 1981.49 102.5C1981.49 119.7 1978.79 135.1 1973.39 148.7C1967.99 162.1 1960.59 173.6 1951.19 183.2C1941.79 192.6 1930.89 199.8 1918.49 204.8C1906.09 209.6 1892.99 212 1879.19 212ZM1880.69 197.6C1893.09 197.6 1903.19 193.7 1910.99 185.9C1918.79 177.9 1924.49 167.2 1928.09 153.8C1931.69 140.4 1933.49 125.4 1933.49 108.8C1933.49 96.4 1932.39 84.6 1930.19 73.4C1928.19 62.2 1924.99 52.2 1920.59 43.4C1916.19 34.6 1910.39 27.7 1903.19 22.7C1896.19 17.5 1887.69 14.9 1877.69 14.9C1865.29 14.9 1855.19 18.8 1847.39 26.6C1839.59 34.2 1833.79 44.6 1829.99 57.8C1826.39 71 1824.59 85.9 1824.59 102.5C1824.59 114.9 1825.59 126.8 1827.59 138.2C1829.79 149.6 1833.09 159.8 1837.49 168.8C1842.09 177.6 1847.89 184.6 1854.89 189.8C1862.09 195 1870.69 197.6 1880.69 197.6ZM2181.19 45.2V119.3C2181.19 148.3 2175.09 171 2162.89 187.4C2150.69 203.8 2130.89 212 2103.49 212C2082.69 212 2065.99 208.8 2053.39 202.4C2040.79 196 2031.69 186.2 2026.09 173C2020.49 159.8 2017.69 142.9 2017.69 122.3V55.1C2017.69 46.1 2017.49 39.2 2017.09 34.4C2016.89 29.6 2016.09 26 2014.69 23.6C2013.49 21.4 2011.49 19.9 2008.69 19.1C2005.89 18.1 2001.59 17.2 1995.79 16.4V5C2003.79 5.2 2009.99 5.39999 2014.39 5.59999C2018.99 5.79999 2022.99 5.99998 2026.39 6.19998C2029.79 6.19998 2033.99 6.19998 2038.99 6.19998C2044.79 6.19998 2049.49 6.19998 2053.09 6.19998C2056.89 5.99998 2061.09 5.79999 2065.69 5.59999C2070.29 5.39999 2076.59 5.2 2084.59 5V16.4C2078.39 17.2 2073.89 18.1 2071.09 19.1C2068.49 19.9 2066.49 21.7 2065.09 24.5C2063.89 26.9 2063.19 30.5 2062.99 35.3C2062.79 40.1 2062.69 46.7 2062.69 55.1V116.3C2062.69 132.3 2064.09 145.9 2066.89 157.1C2069.89 168.1 2074.79 176.5 2081.59 182.3C2088.59 187.9 2097.89 190.7 2109.49 190.7C2124.69 190.7 2136.69 185.8 2145.49 176C2154.29 166 2158.69 149.1 2158.69 125.3V45.2C2158.69 39.8 2158.49 35.5 2158.09 32.3C2157.89 28.9 2157.29 26.2 2156.29 24.2C2155.09 21.4 2152.99 19.6 2149.99 18.8C2146.99 18 2142.69 17.2 2137.09 16.4V5C2142.49 5.2 2146.89 5.39999 2150.29 5.59999C2153.69 5.79999 2156.99 5.99998 2160.19 6.19998C2163.59 6.19998 2167.59 6.19998 2172.19 6.19998C2176.39 6.19998 2179.79 6.19998 2182.39 6.19998C2184.99 5.99998 2187.79 5.79999 2190.79 5.59999C2193.79 5.39999 2197.89 5.2 2203.09 5V16.4C2198.09 17 2194.19 17.7 2191.39 18.5C2188.59 19.1 2186.39 20.4 2184.79 22.4C2183.39 24.2 2182.39 26.9 2181.79 30.5C2181.39 33.9 2181.19 38.8 2181.19 45.2ZM2296.1 109.7L2342 107.9L2385.8 175.1C2388.8 179.5 2391.9 183.2 2395.1 186.2C2398.3 189.2 2401.9 191.6 2405.9 193.4C2409.9 195.2 2414.5 196.6 2419.7 197.6V209C2411.1 208.6 2404 208.3 2398.4 208.1C2393 207.9 2387.8 207.8 2382.8 207.8C2377.4 207.8 2372.4 207.9 2367.8 208.1C2363.4 208.3 2358.7 208.6 2353.7 209L2296.1 109.7ZM2282.6 18.8V159.2C2282.6 167.4 2282.7 173.9 2282.9 178.7C2283.1 183.5 2283.8 187.1 2285 189.5C2286.4 192.1 2288.5 193.9 2291.3 194.9C2294.1 195.7 2298.7 196.6 2305.1 197.6V209C2296.9 208.6 2290.6 208.4 2286.2 208.4C2282 208.2 2278.1 208.1 2274.5 208.1C2271.1 207.9 2266.4 207.8 2260.4 207.8C2255.4 207.8 2251.1 207.9 2247.5 208.1C2244.1 208.1 2240.2 208.2 2235.8 208.4C2231.4 208.4 2225.1 208.6 2216.9 209V197.6C2222.9 196.6 2227.3 195.7 2230.1 194.9C2232.9 194.1 2234.9 192.6 2236.1 190.4C2237.5 188 2238.3 184.4 2238.5 179.6C2238.9 174.8 2239.1 167.9 2239.1 158.9V54.8C2239.1 45.8 2238.9 39 2238.5 34.4C2238.3 29.6 2237.5 26 2236.1 23.6C2234.9 21.4 2233 19.9 2230.4 19.1C2228 18.1 2224.5 17.2 2219.9 16.4V5H2302.1C2319.1 5 2334.3 6.4 2347.7 9.2C2361.1 11.8 2371.7 16.7 2379.5 23.9C2387.3 31.1 2391.2 41.5 2391.2 55.1C2391.2 65.5 2388.5 74.6 2383.1 82.4C2377.9 90 2370.7 96.3 2361.5 101.3C2352.5 106.3 2342.1 110 2330.3 112.4C2318.5 114.8 2306 116 2292.8 116H2279.3V100.7C2282.3 101.1 2285.5 101.5 2288.9 101.9C2292.3 102.1 2295.6 102.2 2298.8 102.2C2309.4 102.2 2318.1 100.5 2324.9 97.1C2331.7 93.7 2336.7 89 2339.9 83C2343.1 77 2344.7 70.1 2344.7 62.3C2344.7 52.5 2342.5 44.4 2338.1 38C2333.9 31.6 2328.2 26.8 2321 23.6C2314 20.4 2306.2 18.8 2297.6 18.8H2282.6Z" fill="#F9F7F3"/>
</svg>
