<svg width="1699" height="567" viewBox="0 0 1699 567" fill="none" xmlns="http://www.w3.org/2000/svg">
<path d="M112.2 121.7V110H204.3V121.1C201.7 121.7 198.9 122.5 195.9 123.5C192.9 124.3 190.4 126 188.4 128.6C186.4 131 185.4 135.1 185.4 140.9V200C171.2 203.8 158.2 206.8 146.4 209C134.8 211 123.4 212 112.2 212C87.8 212 67.2 207.7 50.4 199.1C33.8 190.5 21.2 178.6 12.6 163.4C4.2 148.2 8.49366e-07 130.9 8.49366e-07 111.5C8.49366e-07 90.1 4.8 71.1 14.4 54.5C24 37.7 37.7 24.5 55.5 14.9C73.3 5.29999 94.5 0.499984 119.1 0.499984C127.5 0.499984 137.3 1.29999 148.5 2.89999C159.7 4.29999 171.7 7.09999 184.5 11.3L168.6 65.3H157.2L140.1 11.6L160.5 26.9C155.1 23.9 149 21.4 142.2 19.4C135.4 17.2 128.1 16.1 120.3 16.1C107.5 16.1 96.5 18.8 87.3 24.2C78.3 29.6 70.9 36.7 65.1 45.5C59.3 54.3 55 63.9 52.2 74.3C49.4 84.7 48 94.9 48 104.9C48 123.5 50.3 139.7 54.9 153.5C59.5 167.1 66.7 177.7 76.5 185.3C86.5 192.7 99.5 196.4 115.5 196.4C121.7 196.4 126.8 195.8 130.8 194.6C134.8 193.2 137.8 190.8 139.8 187.4C141.8 184 142.8 179.2 142.8 173V143.9C142.8 137.1 141.6 132.3 139.2 129.5C137 126.5 133.6 124.6 129 123.8C124.6 122.8 119 122.1 112.2 121.7ZM261.9 110.9V95.6H292.2C301.2 95.6 308.2 95.2 313.2 94.4C318.4 93.6 322.3 92.2 324.9 90.2C327.7 88.2 329.8 85.4 331.2 81.8C332.6 78 334 73.3 335.4 67.7H346.8V138.8H335.4C334 133.2 332.6 128.6 331.2 125C329.8 121.4 327.7 118.6 324.9 116.6C322.3 114.4 318.4 112.9 313.2 112.1C308.2 111.3 301.2 110.9 292.2 110.9H261.9ZM352.5 194.6L381.3 150.2H392.7L386.7 209H224.4V197.6C231.6 196.6 236.7 195.7 239.7 194.9C242.9 193.9 245.1 192.4 246.3 190.4C247.7 188 248.5 184.5 248.7 179.9C249.1 175.1 249.3 168.2 249.3 159.2V54.8C249.3 45.8 249.1 39 248.7 34.4C248.5 29.6 247.7 26 246.3 23.6C245.1 21.4 242.9 19.9 239.7 19.1C236.7 18.1 231.6 17.2 224.4 16.4V5H382.2L385.2 61.1H373.8L348 19.4H294.3V194.6H352.5ZM409.98 70.4L417.48 5H593.28L600.78 70.4H588.78L558.78 20.9H451.98L421.98 70.4H409.98ZM482.88 9.49999H527.88V159.2C527.88 167.4 527.98 173.9 528.18 178.7C528.38 183.5 529.08 187.1 530.28 189.5C531.68 192.1 533.68 193.9 536.28 194.9C539.08 195.7 543.58 196.6 549.78 197.6V209C541.78 208.6 535.48 208.4 530.88 208.4C526.28 208.2 522.08 208.1 518.28 208.1C514.68 207.9 509.98 207.8 504.18 207.8C499.38 207.8 495.18 207.9 491.58 208.1C488.18 208.1 484.18 208.2 479.58 208.4C475.18 208.4 468.98 208.6 460.98 209V197.6C466.78 196.6 471.08 195.7 473.88 194.9C476.68 194.1 478.68 192.6 479.88 190.4C481.28 188 482.08 184.4 482.28 179.6C482.68 174.8 482.88 167.9 482.88 158.9V9.49999ZM743.644 54.8V159.2C743.644 167.4 743.744 173.9 743.944 178.7C744.144 183.5 744.844 187.1 746.044 189.5C747.444 192.1 749.444 193.9 752.044 194.9C754.844 195.7 759.344 196.6 765.544 197.6V209C757.544 208.6 751.244 208.4 746.644 208.4C742.244 208.2 738.244 208.1 734.644 208.1C731.044 207.9 726.544 207.8 721.144 207.8C715.944 207.8 711.444 207.9 707.644 208.1C704.044 208.1 699.944 208.2 695.344 208.4C690.944 208.4 684.744 208.6 676.744 209V197.6C682.544 196.6 686.844 195.7 689.644 194.9C692.444 194.1 694.444 192.6 695.644 190.4C697.044 188 697.844 184.4 698.044 179.6C698.444 174.8 698.644 167.9 698.644 158.9V55.1C698.644 46.1 698.444 39.2 698.044 34.4C697.844 29.6 697.044 26 695.644 23.6C694.444 21.4 692.444 19.9 689.644 19.1C686.844 18.1 682.544 17.2 676.744 16.4V5C684.744 5.2 690.944 5.39999 695.344 5.59999C699.944 5.79999 704.044 5.99998 707.644 6.19998C711.444 6.19998 715.944 6.19998 721.144 6.19998C726.544 6.19998 731.044 6.19998 734.644 6.19998C738.244 5.99998 742.244 5.79999 746.644 5.59999C751.244 5.39999 757.544 5.2 765.544 5V16.4C759.344 17.2 754.844 18.1 752.044 19.1C749.444 19.9 747.444 21.7 746.044 24.5C744.844 26.9 744.144 30.5 743.944 35.3C743.744 40.1 743.644 46.6 743.644 54.8ZM966.265 6.19998C971.865 6.19998 976.965 6.09998 981.565 5.89999C986.365 5.49999 991.765 5.2 997.765 5V16.4C991.565 17.2 987.065 18.1 984.265 19.1C981.665 19.9 979.665 21.7 978.265 24.5C977.065 26.9 976.365 30.5 976.165 35.3C975.965 40.1 975.865 46.6 975.865 54.8V209H961.465L830.965 53.3L831.265 158.9C831.265 167.3 831.365 173.9 831.565 178.7C831.765 183.5 832.465 187.1 833.665 189.5C835.065 192.1 837.465 193.9 840.865 194.9C844.265 195.7 851.065 196.6 861.265 197.6V209C850.865 208.6 842.865 208.3 837.265 208.1C831.865 207.9 826.565 207.8 821.365 207.8C815.565 207.8 810.065 207.9 804.865 208.1C799.865 208.3 794.365 208.6 788.365 209V197.6C794.165 196.6 798.465 195.7 801.265 194.9C804.065 194.1 806.065 192.6 807.265 190.4C808.665 188 809.465 184.4 809.665 179.6C810.065 174.8 810.265 167.9 810.265 158.9V55.1C810.265 46.1 810.065 39.2 809.665 34.4C809.465 29.4 808.665 25.8 807.265 23.6C805.865 21.4 803.665 19.9 800.665 19.1C797.865 18.1 793.765 17.2 788.365 16.4V5H849.265L954.865 132.2V55.1C954.865 46.1 954.665 39.2 954.265 34.4C954.065 29.6 953.265 26 951.865 23.6C950.665 21.4 948.265 19.9 944.665 19.1C941.265 18.1 934.665 17.2 924.865 16.4V5C935.465 5.2 943.565 5.49999 949.165 5.89999C954.965 6.09998 960.665 6.19998 966.265 6.19998ZM621.586 567C614.786 567 609.086 564.6 604.486 559.8C599.886 554.8 597.586 548.9 597.586 542.1C597.586 535.3 599.886 529.6 604.486 525C609.086 520.2 614.786 517.8 621.586 517.8C628.186 517.8 633.786 520.2 638.386 525C642.986 529.6 645.286 535.3 645.286 542.1C645.286 548.9 642.986 554.8 638.386 559.8C633.786 564.6 628.186 567 621.586 567ZM634.688 425.4L642.188 360H817.988L825.488 425.4H813.488L783.488 375.9H676.688L646.688 425.4H634.688ZM707.588 364.5H752.588V514.2C752.588 522.4 752.688 528.9 752.888 533.7C753.088 538.5 753.788 542.1 754.988 544.5C756.388 547.1 758.388 548.9 760.988 549.9C763.788 550.7 768.288 551.6 774.488 552.6V564C766.488 563.6 760.188 563.4 755.588 563.4C750.988 563.2 746.788 563.1 742.988 563.1C739.388 562.9 734.688 562.8 728.888 562.8C724.088 562.8 719.888 562.9 716.288 563.1C712.888 563.1 708.888 563.2 704.288 563.4C699.888 563.4 693.688 563.6 685.688 564V552.6C691.488 551.6 695.788 550.7 698.588 549.9C701.388 549.1 703.388 547.6 704.588 545.4C705.988 543 706.788 539.4 706.988 534.6C707.388 529.8 707.588 522.9 707.588 513.9V364.5ZM944.892 567C929.692 567 915.792 564.8 903.192 560.4C890.592 555.8 879.692 549.2 870.492 540.6C861.492 532 854.492 521.5 849.492 509.1C844.492 496.5 841.992 482.2 841.992 466.2C841.992 449 844.692 433.6 850.092 420C855.492 406.4 862.892 394.8 872.292 385.2C881.892 375.6 892.892 368.3 905.292 363.3C917.692 358.1 930.792 355.5 944.592 355.5C959.792 355.5 973.692 357.8 986.292 362.4C998.892 367 1009.69 373.7 1018.69 382.5C1027.89 391.3 1034.89 402 1039.69 414.6C1044.69 427.2 1047.19 441.5 1047.19 457.5C1047.19 474.7 1044.49 490.1 1039.09 503.7C1033.69 517.1 1026.29 528.6 1016.89 538.2C1007.49 547.6 996.592 554.8 984.192 559.8C971.792 564.6 958.692 567 944.892 567ZM946.392 552.6C958.792 552.6 968.892 548.7 976.692 540.9C984.492 532.9 990.192 522.2 993.792 508.8C997.392 495.4 999.192 480.4 999.192 463.8C999.192 451.4 998.092 439.6 995.892 428.4C993.892 417.2 990.692 407.2 986.292 398.4C981.892 389.6 976.092 382.7 968.892 377.7C961.892 372.5 953.392 369.9 943.392 369.9C930.992 369.9 920.892 373.8 913.092 381.6C905.292 389.2 899.492 399.6 895.692 412.8C892.092 426 890.292 440.9 890.292 457.5C890.292 469.9 891.292 481.8 893.292 493.2C895.492 504.6 898.792 514.8 903.192 523.8C907.792 532.6 913.592 539.6 920.592 544.8C927.792 550 936.392 552.6 946.392 552.6ZM1246.89 400.2V474.3C1246.89 503.3 1240.79 526 1228.59 542.4C1216.39 558.8 1196.59 567 1169.19 567C1148.39 567 1131.69 563.8 1119.09 557.4C1106.49 551 1097.39 541.2 1091.79 528C1086.19 514.8 1083.39 497.9 1083.39 477.3V410.1C1083.39 401.1 1083.19 394.2 1082.79 389.4C1082.59 384.6 1081.79 381 1080.39 378.6C1079.19 376.4 1077.19 374.9 1074.39 374.1C1071.59 373.1 1067.29 372.2 1061.49 371.4V360C1069.49 360.2 1075.69 360.4 1080.09 360.6C1084.69 360.8 1088.69 361 1092.09 361.2C1095.49 361.2 1099.69 361.2 1104.69 361.2C1110.49 361.2 1115.19 361.2 1118.79 361.2C1122.59 361 1126.79 360.8 1131.39 360.6C1135.99 360.4 1142.29 360.2 1150.29 360V371.4C1144.09 372.2 1139.59 373.1 1136.79 374.1C1134.19 374.9 1132.19 376.7 1130.79 379.5C1129.59 381.9 1128.89 385.5 1128.69 390.3C1128.49 395.1 1128.39 401.7 1128.39 410.1V471.3C1128.39 487.3 1129.79 500.9 1132.59 512.1C1135.59 523.1 1140.49 531.5 1147.29 537.3C1154.29 542.9 1163.59 545.7 1175.19 545.7C1190.39 545.7 1202.39 540.8 1211.19 531C1219.99 521 1224.39 504.1 1224.39 480.3V400.2C1224.39 394.8 1224.19 390.5 1223.79 387.3C1223.59 383.9 1222.99 381.2 1221.99 379.2C1220.79 376.4 1218.69 374.6 1215.69 373.8C1212.69 373 1208.39 372.2 1202.79 371.4V360C1208.19 360.2 1212.59 360.4 1215.99 360.6C1219.39 360.8 1222.69 361 1225.89 361.2C1229.29 361.2 1233.29 361.2 1237.89 361.2C1242.09 361.2 1245.49 361.2 1248.09 361.2C1250.69 361 1253.49 360.8 1256.49 360.6C1259.49 360.4 1263.59 360.2 1268.79 360V371.4C1263.79 372 1259.89 372.7 1257.09 373.5C1254.29 374.1 1252.09 375.4 1250.49 377.4C1249.09 379.2 1248.09 381.9 1247.49 385.5C1247.09 388.9 1246.89 393.8 1246.89 400.2ZM1283.2 467.7C1283.2 451.1 1285.7 436 1290.7 422.4C1295.7 408.6 1303 396.8 1312.6 387C1322.2 377 1333.9 369.3 1347.7 363.9C1361.5 358.3 1377.2 355.5 1394.8 355.5C1406 355.5 1416.9 356.5 1427.5 358.5C1438.1 360.3 1448.4 363.2 1458.4 367.2L1442.2 422.4H1430.8L1413.7 368.4L1445.5 370.8L1438 383.7C1431.4 379.1 1424.2 375.7 1416.4 373.5C1408.8 371.1 1401.5 369.9 1394.5 369.9C1383.3 369.9 1373.7 372.4 1365.7 377.4C1357.9 382.4 1351.5 389.2 1346.5 397.8C1341.5 406.4 1337.8 416.2 1335.4 427.2C1333 438 1331.8 449.4 1331.8 461.4C1331.8 478.4 1334.1 493.8 1338.7 507.6C1343.5 521.4 1350.7 532.4 1360.3 540.6C1369.9 548.6 1382.1 552.6 1396.9 552.6C1405.7 552.6 1414 551 1421.8 547.8C1429.8 544.6 1437.3 540.3 1444.3 534.9L1442.5 547.2L1413.7 558L1430.8 501.9H1442.2L1458.1 556.2C1446.5 560 1435.1 562.7 1423.9 564.3C1412.9 566.1 1403 567 1394.2 567C1371.2 567 1351.4 563.2 1334.8 555.6C1318.2 548 1305.4 536.8 1296.4 522C1287.6 507.2 1283.2 489.1 1283.2 467.7ZM1676.33 409.8V514.2C1676.33 522.4 1676.43 528.9 1676.63 533.7C1676.83 538.5 1677.53 542.1 1678.73 544.5C1680.13 547.1 1682.13 548.9 1684.73 549.9C1687.53 550.7 1692.03 551.6 1698.23 552.6V564C1690.23 563.6 1683.93 563.4 1679.33 563.4C1674.73 563.2 1670.53 563.1 1666.73 563.1C1663.13 562.9 1658.43 562.8 1652.63 562.8C1647.83 562.8 1643.63 562.9 1640.03 563.1C1636.63 563.1 1632.63 563.2 1628.03 563.4C1623.63 563.4 1617.43 563.6 1609.43 564V552.6C1615.23 551.6 1619.53 550.7 1622.33 549.9C1625.13 549.1 1627.13 547.6 1628.33 545.4C1629.73 543 1630.53 539.4 1630.73 534.6C1631.13 529.8 1631.33 522.9 1631.33 513.9V466.8H1544.33V514.2C1544.33 522.4 1544.43 528.9 1544.63 533.7C1544.83 538.5 1545.53 542.1 1546.73 544.5C1548.13 547.1 1550.13 548.9 1552.73 549.9C1555.53 550.7 1560.03 551.6 1566.23 552.6V564C1558.23 563.6 1551.93 563.4 1547.33 563.4C1542.73 563.2 1538.53 563.1 1534.73 563.1C1531.13 562.9 1526.43 562.8 1520.63 562.8C1515.83 562.8 1511.63 562.9 1508.03 563.1C1504.63 563.1 1500.63 563.2 1496.03 563.4C1491.63 563.4 1485.43 563.6 1477.43 564V552.6C1483.23 551.6 1487.53 550.7 1490.33 549.9C1493.13 549.1 1495.13 547.6 1496.33 545.4C1497.73 543 1498.53 539.4 1498.73 534.6C1499.13 529.8 1499.33 522.9 1499.33 513.9V410.1C1499.33 401.1 1499.13 394.2 1498.73 389.4C1498.53 384.6 1497.73 381 1496.33 378.6C1495.13 376.4 1493.13 374.9 1490.33 374.1C1487.53 373.1 1483.23 372.2 1477.43 371.4V360C1485.43 360.2 1491.63 360.4 1496.03 360.6C1500.63 360.8 1504.63 361 1508.03 361.2C1511.63 361.2 1515.83 361.2 1520.63 361.2C1526.43 361.2 1531.13 361.2 1534.73 361.2C1538.53 361 1542.73 360.8 1547.33 360.6C1551.93 360.4 1558.23 360.2 1566.23 360V371.4C1560.03 372.2 1555.53 373.1 1552.73 374.1C1550.13 374.9 1548.13 376.7 1546.73 379.5C1545.53 381.9 1544.83 385.5 1544.63 390.3C1544.43 395.1 1544.33 401.6 1544.33 409.8V451.2H1631.33V410.1C1631.33 401.1 1631.13 394.2 1630.73 389.4C1630.53 384.6 1629.73 381 1628.33 378.6C1627.13 376.4 1625.13 374.9 1622.33 374.1C1619.53 373.1 1615.23 372.2 1609.43 371.4V360C1617.43 360.2 1623.63 360.4 1628.03 360.6C1632.63 360.8 1636.63 361 1640.03 361.2C1643.63 361.2 1647.83 361.2 1652.63 361.2C1658.43 361.2 1663.13 361.2 1666.73 361.2C1670.53 361 1674.73 360.8 1679.33 360.6C1683.93 360.4 1690.23 360.2 1698.23 360V371.4C1692.03 372.2 1687.53 373.1 1684.73 374.1C1682.13 374.9 1680.13 376.7 1678.73 379.5C1677.53 381.9 1676.83 385.5 1676.63 390.3C1676.43 395.1 1676.33 401.6 1676.33 409.8Z" fill="#182C4D"/>
</svg>
