<svg width="2062" height="204" viewBox="0 0 2062 204" fill="none" xmlns="http://www.w3.org/2000/svg">
<path d="M271.155 1.19998C276.955 1.19998 282.455 1.09998 287.655 0.899986C292.855 0.499991 298.655 0.199995 305.055 -2.14577e-06V11.4C298.655 12.4 293.855 13.6 290.655 15C287.455 16.2 284.855 18.8 282.855 22.8C280.855 26.6 278.255 32.8 275.055 41.4L214.755 204H202.755L148.455 67.8H157.455L101.955 204H89.9547L34.4547 50.1C31.4547 41.5 28.8547 34.8 26.6547 30C24.6547 25.2 22.6547 21.6 20.6547 19.2C18.6547 16.8 16.0547 15.1 12.8547 14.1C9.85469 13.1 5.75469 12.2 0.554688 11.4V-2.14577e-06C6.55469 0.199995 13.0547 0.499991 20.0547 0.899986C27.2547 1.09998 36.7547 1.19998 48.5547 1.19998C59.3547 1.19998 67.5547 1.19998 73.1547 1.19998C78.7547 0.999985 83.2547 0.799988 86.6547 0.59999C90.2547 0.399993 94.0547 0.199995 98.0547 -2.14577e-06V11.4C92.6547 12.2 87.8547 13.3 83.6547 14.7C79.6547 15.9 77.6547 18.7 77.6547 23.1C77.6547 25.7 78.3547 29.2 79.7547 33.6C81.3547 38 83.1547 43.5 85.1547 50.1L118.455 150.9L103.455 150.6L159.555 12H176.355L228.555 150.6L214.755 150.9L253.455 41.4C255.055 37.2 256.255 33.6 257.055 30.6C258.055 27.4 258.555 24.8 258.555 22.8C258.555 18.2 256.455 15.4 252.255 14.4C248.255 13.2 243.555 12.2 238.155 11.4V-2.14577e-06C244.755 0.199995 250.455 0.499991 255.255 0.899986C260.255 1.09998 265.555 1.19998 271.155 1.19998ZM516.972 49.8V154.2C516.972 162.4 517.072 168.9 517.272 173.7C517.472 178.5 518.172 182.1 519.372 184.5C520.772 187.1 522.772 188.9 525.372 189.9C528.172 190.7 532.672 191.6 538.872 192.6V204C530.872 203.6 524.572 203.4 519.972 203.4C515.372 203.2 511.172 203.1 507.372 203.1C503.772 202.9 499.072 202.8 493.272 202.8C488.472 202.8 484.272 202.9 480.672 203.1C477.272 203.1 473.272 203.2 468.672 203.4C464.272 203.4 458.072 203.6 450.072 204V192.6C455.872 191.6 460.172 190.7 462.972 189.9C465.772 189.1 467.772 187.6 468.972 185.4C470.372 183 471.172 179.4 471.372 174.6C471.772 169.8 471.972 162.9 471.972 153.9V106.8H384.972V154.2C384.972 162.4 385.072 168.9 385.272 173.7C385.472 178.5 386.172 182.1 387.372 184.5C388.772 187.1 390.772 188.9 393.372 189.9C396.172 190.7 400.672 191.6 406.872 192.6V204C398.872 203.6 392.572 203.4 387.972 203.4C383.372 203.2 379.172 203.1 375.372 203.1C371.772 202.9 367.072 202.8 361.272 202.8C356.472 202.8 352.272 202.9 348.672 203.1C345.272 203.1 341.272 203.2 336.672 203.4C332.272 203.4 326.072 203.6 318.072 204V192.6C323.872 191.6 328.172 190.7 330.972 189.9C333.772 189.1 335.772 187.6 336.972 185.4C338.372 183 339.172 179.4 339.372 174.6C339.772 169.8 339.972 162.9 339.972 153.9V50.1C339.972 41.1 339.772 34.2 339.372 29.4C339.172 24.6 338.372 21 336.972 18.6C335.772 16.4 333.772 14.9 330.972 14.1C328.172 13.1 323.872 12.2 318.072 11.4V-2.14577e-06C326.072 0.199995 332.272 0.399993 336.672 0.59999C341.272 0.799988 345.272 0.999985 348.672 1.19998C352.272 1.19998 356.472 1.19998 361.272 1.19998C367.072 1.19998 371.772 1.19998 375.372 1.19998C379.172 0.999985 383.372 0.799988 387.972 0.59999C392.572 0.399993 398.872 0.199995 406.872 -2.14577e-06V11.4C400.672 12.2 396.172 13.1 393.372 14.1C390.772 14.9 388.772 16.7 387.372 19.5C386.172 21.9 385.472 25.5 385.272 30.3C385.072 35.1 384.972 41.6 384.972 49.8V91.2H471.972V50.1C471.972 41.1 471.772 34.2 471.372 29.4C471.172 24.6 470.372 21 468.972 18.6C467.772 16.4 465.772 14.9 462.972 14.1C460.172 13.1 455.872 12.2 450.072 11.4V-2.14577e-06C458.072 0.199995 464.272 0.399993 468.672 0.59999C473.272 0.799988 477.272 0.999985 480.672 1.19998C484.272 1.19998 488.472 1.19998 493.272 1.19998C499.072 1.19998 503.772 1.19998 507.372 1.19998C511.172 0.999985 515.372 0.799988 519.972 0.59999C524.572 0.399993 530.872 0.199995 538.872 -2.14577e-06V11.4C532.672 12.2 528.172 13.1 525.372 14.1C522.772 14.9 520.772 16.7 519.372 19.5C518.172 21.9 517.472 25.5 517.272 30.3C517.072 35.1 516.972 41.6 516.972 49.8ZM628.429 49.8V154.2C628.429 162.4 628.529 168.9 628.729 173.7C628.929 178.5 629.629 182.1 630.829 184.5C632.229 187.1 634.229 188.9 636.829 189.9C639.629 190.7 644.129 191.6 650.329 192.6V204C642.329 203.6 636.029 203.4 631.429 203.4C627.029 203.2 623.029 203.1 619.429 203.1C615.829 202.9 611.329 202.8 605.929 202.8C600.729 202.8 596.229 202.9 592.429 203.1C588.829 203.1 584.729 203.2 580.129 203.4C575.729 203.4 569.529 203.6 561.529 204V192.6C567.329 191.6 571.629 190.7 574.429 189.9C577.229 189.1 579.229 187.6 580.429 185.4C581.829 183 582.629 179.4 582.829 174.6C583.229 169.8 583.429 162.9 583.429 153.9V50.1C583.429 41.1 583.229 34.2 582.829 29.4C582.629 24.6 581.829 21 580.429 18.6C579.229 16.4 577.229 14.9 574.429 14.1C571.629 13.1 567.329 12.2 561.529 11.4V-2.14577e-06C569.529 0.199995 575.729 0.399993 580.129 0.59999C584.729 0.799988 588.829 0.999985 592.429 1.19998C596.229 1.19998 600.729 1.19998 605.929 1.19998C611.329 1.19998 615.829 1.19998 619.429 1.19998C623.029 0.999985 627.029 0.799988 631.429 0.59999C636.029 0.399993 642.329 0.199995 650.329 -2.14577e-06V11.4C644.129 12.2 639.629 13.1 636.829 14.1C634.229 14.9 632.229 16.7 630.829 19.5C629.629 21.9 628.929 25.5 628.729 30.3C628.529 35.1 628.429 41.6 628.429 49.8ZM666.25 65.4L673.75 -2.14577e-06H849.55L857.05 65.4H845.05L815.05 15.9H708.25L678.25 65.4H666.25ZM739.15 4.49999H784.15V154.2C784.15 162.4 784.25 168.9 784.45 173.7C784.65 178.5 785.35 182.1 786.55 184.5C787.95 187.1 789.95 188.9 792.55 189.9C795.35 190.7 799.85 191.6 806.05 192.6V204C798.05 203.6 791.75 203.4 787.15 203.4C782.55 203.2 778.35 203.1 774.55 203.1C770.95 202.9 766.25 202.8 760.45 202.8C755.65 202.8 751.45 202.9 747.85 203.1C744.45 203.1 740.45 203.2 735.85 203.4C731.45 203.4 725.25 203.6 717.25 204V192.6C723.05 191.6 727.35 190.7 730.15 189.9C732.95 189.1 734.95 187.6 736.15 185.4C737.55 183 738.35 179.4 738.55 174.6C738.95 169.8 739.15 162.9 739.15 153.9V4.49999ZM910.455 105.9V90.6H940.755C949.755 90.6 956.755 90.2 961.755 89.4C966.955 88.6 970.855 87.2 973.455 85.2C976.255 83.2 978.355 80.4 979.755 76.8C981.155 73 982.555 68.3 983.955 62.7H995.355V133.8H983.955C982.555 128.2 981.155 123.6 979.755 120C978.355 116.4 976.255 113.6 973.455 111.6C970.855 109.4 966.955 107.9 961.755 107.1C956.755 106.3 949.755 105.9 940.755 105.9H910.455ZM1001.05 189.6L1029.85 145.2H1041.25L1035.25 204H872.955V192.6C880.155 191.6 885.255 190.7 888.255 189.9C891.455 188.9 893.655 187.4 894.855 185.4C896.255 183 897.055 179.5 897.255 174.9C897.655 170.1 897.855 163.2 897.855 154.2V49.8C897.855 40.8 897.655 34 897.255 29.4C897.055 24.6 896.255 21 894.855 18.6C893.655 16.4 891.455 14.9 888.255 14.1C885.255 13.1 880.155 12.2 872.955 11.4V-2.14577e-06H1030.75L1033.75 56.1H1022.35L996.555 14.4H942.855V189.6H1001.05ZM1192.39 50.1V189.6H1239.49L1267.99 142.2H1279.99L1273.99 204H1125.49V192.6C1131.29 191.6 1135.59 190.7 1138.39 189.9C1141.19 188.9 1143.19 187.4 1144.39 185.4C1145.79 183 1146.59 179.5 1146.79 174.9C1147.19 170.1 1147.39 163.2 1147.39 154.2V50.1C1147.39 41.1 1147.19 34.2 1146.79 29.4C1146.59 24.6 1145.79 21 1144.39 18.6C1143.19 16.4 1141.19 14.9 1138.39 14.1C1135.59 13.1 1131.29 12.2 1125.49 11.4V-2.14577e-06C1133.49 0.199995 1139.69 0.399993 1144.09 0.59999C1148.69 0.799988 1152.69 0.999985 1156.09 1.19998C1159.69 1.19998 1163.89 1.19998 1168.69 1.19998C1174.49 1.19998 1179.19 1.19998 1182.79 1.19998C1186.59 0.999985 1190.79 0.799988 1195.39 0.59999C1199.99 0.399993 1206.29 0.199995 1214.29 -2.14577e-06V11.4C1208.09 12.2 1203.59 13.1 1200.79 14.1C1198.19 14.9 1196.19 16.7 1194.79 19.5C1193.59 21.9 1192.89 25.5 1192.69 30.3C1192.49 35.1 1192.39 41.7 1192.39 50.1ZM1432.17 149.1H1339.77V133.8H1432.17V149.1ZM1400.07 -2.14577e-06L1465.47 153.9C1469.07 162.1 1471.87 168.6 1473.87 173.4C1476.07 178.2 1478.07 181.9 1479.87 184.5C1481.87 186.9 1484.27 188.7 1487.07 189.9C1490.07 190.9 1494.17 191.8 1499.37 192.6V204C1493.37 203.6 1486.77 203.3 1479.57 203.1C1472.37 202.9 1462.47 202.8 1449.87 202.8C1441.27 202.8 1434.47 202.9 1429.47 203.1C1424.67 203.1 1420.57 203.2 1417.17 203.4C1413.97 203.6 1410.37 203.8 1406.37 204V192.6C1412.17 191.6 1416.97 190.5 1420.77 189.3C1424.77 187.9 1426.77 185 1426.77 180.6C1426.77 175.2 1424.27 166.3 1419.27 153.9L1380.27 59.1H1382.97L1341.57 162.6C1339.77 167 1338.37 170.7 1337.37 173.7C1336.57 176.7 1336.17 179.2 1336.17 181.2C1336.17 185.6 1338.27 188.4 1342.47 189.6C1346.67 190.8 1351.27 191.8 1356.27 192.6V204C1350.27 203.6 1344.57 203.3 1339.17 203.1C1333.97 202.9 1328.27 202.8 1322.07 202.8C1316.27 202.8 1310.77 202.9 1305.57 203.1C1300.57 203.3 1295.07 203.6 1289.07 204V192.6C1295.27 191.6 1299.87 190.4 1302.87 189C1306.07 187.6 1308.77 185 1310.97 181.2C1313.17 177.2 1315.97 171 1319.37 162.6L1388.07 -2.14577e-06H1400.07ZM1621.38 97.5V92.4C1636.38 94 1648.98 96.9 1659.18 101.1C1669.58 105.1 1677.38 110.6 1682.58 117.6C1687.98 124.6 1690.68 133.5 1690.68 144.3C1690.68 158.3 1686.68 169.7 1678.68 178.5C1670.68 187.3 1659.58 193.8 1645.38 198C1631.38 202 1615.38 204 1597.38 204H1513.68V192.6C1519.68 191.6 1523.98 190.7 1526.58 189.9C1529.38 188.9 1531.38 187.4 1532.58 185.4C1533.98 183 1534.88 179.3 1535.28 174.3C1535.68 169.1 1535.88 162.4 1535.88 154.2V49.8C1535.88 40.8 1535.68 34 1535.28 29.4C1534.88 24.6 1533.98 21 1532.58 18.6C1531.38 16.4 1529.38 14.9 1526.58 14.1C1523.98 13.1 1519.68 12.2 1513.68 11.4V-2.14577e-06H1591.38C1609.38 -2.14577e-06 1624.98 1.19999 1638.18 3.59999C1651.58 5.99999 1661.88 10.4 1669.08 16.8C1676.48 23.2 1680.18 32.6 1680.18 45C1680.18 53.6 1677.98 61.4 1673.58 68.4C1669.38 75.2 1662.88 81 1654.08 85.8C1645.48 90.6 1634.58 94.5 1621.38 97.5ZM1586.88 13.8H1579.08V90H1587.78C1598.38 90 1606.98 88.1 1613.58 84.3C1620.38 80.3 1625.38 75.3 1628.58 69.3C1631.78 63.3 1633.38 57 1633.38 50.4C1633.38 38.2 1628.88 29.1 1619.88 23.1C1610.88 16.9 1599.88 13.8 1586.88 13.8ZM1579.08 190.2H1596.18C1610.58 190.2 1621.98 186.6 1630.38 179.4C1638.78 172 1642.98 161.6 1642.98 148.2C1642.98 140.4 1641.28 133.1 1637.88 126.3C1634.68 119.5 1629.68 114.1 1622.88 110.1C1616.28 105.9 1607.78 103.8 1597.38 103.8H1579.08V190.2ZM1752.45 105.9V90.6H1782.75C1791.75 90.6 1798.75 90.2 1803.75 89.4C1808.95 88.6 1812.85 87.2 1815.45 85.2C1818.25 83.2 1820.35 80.4 1821.75 76.8C1823.15 73 1824.55 68.3 1825.95 62.7H1837.35V133.8H1825.95C1824.55 128.2 1823.15 123.6 1821.75 120C1820.35 116.4 1818.25 113.6 1815.45 111.6C1812.85 109.4 1808.95 107.9 1803.75 107.1C1798.75 106.3 1791.75 105.9 1782.75 105.9H1752.45ZM1843.05 189.6L1871.85 145.2H1883.25L1877.25 204H1714.95V192.6C1722.15 191.6 1727.25 190.7 1730.25 189.9C1733.45 188.9 1735.65 187.4 1736.85 185.4C1738.25 183 1739.05 179.5 1739.25 174.9C1739.65 170.1 1739.85 163.2 1739.85 154.2V49.8C1739.85 40.8 1739.65 34 1739.25 29.4C1739.05 24.6 1738.25 21 1736.85 18.6C1735.65 16.4 1733.45 14.9 1730.25 14.1C1727.25 13.1 1722.15 12.2 1714.95 11.4V-2.14577e-06H1872.75L1875.75 56.1H1864.35L1838.55 14.4H1784.85V189.6H1843.05ZM1974.33 50.1V189.6H2021.43L2049.93 142.2H2061.93L2055.93 204H1907.43V192.6C1913.23 191.6 1917.53 190.7 1920.33 189.9C1923.13 188.9 1925.13 187.4 1926.33 185.4C1927.73 183 1928.53 179.5 1928.73 174.9C1929.13 170.1 1929.33 163.2 1929.33 154.2V50.1C1929.33 41.1 1929.13 34.2 1928.73 29.4C1928.53 24.6 1927.73 21 1926.33 18.6C1925.13 16.4 1923.13 14.9 1920.33 14.1C1917.53 13.1 1913.23 12.2 1907.43 11.4V-2.14577e-06C1915.43 0.199995 1921.63 0.399993 1926.03 0.59999C1930.63 0.799988 1934.63 0.999985 1938.03 1.19998C1941.63 1.19998 1945.83 1.19998 1950.63 1.19998C1956.43 1.19998 1961.13 1.19998 1964.73 1.19998C1968.53 0.999985 1972.73 0.799988 1977.33 0.59999C1981.93 0.399993 1988.23 0.199995 1996.23 -2.14577e-06V11.4C1990.03 12.2 1985.53 13.1 1982.73 14.1C1980.13 14.9 1978.13 16.7 1976.73 19.5C1975.53 21.9 1974.83 25.5 1974.63 30.3C1974.43 35.1 1974.33 41.7 1974.33 50.1Z" fill="#F7F7F7"/>
</svg>
