<svg width="537" height="935" viewBox="0 0 537 935" fill="none" xmlns="http://www.w3.org/2000/svg">
<path d="M276.1 684.608C276.1 679.292 276.008 674.25 275.825 669.483C275.458 664.717 275.183 659.4 275 653.533L285.45 653.533C286.367 659.4 287.467 663.8 288.75 666.733C289.85 669.667 292.233 672.05 295.9 673.883C299.383 675.717 305.067 678.1 312.95 681.033L462 736.308L462 747.308L337.15 797.083L337.15 788.833L462 839.708L462 850.708L320.925 901.583C313.042 904.333 306.9 906.717 302.5 908.733C298.1 910.567 294.8 912.4 292.6 914.233C290.4 916.067 288.842 918.45 287.925 921.383C287.008 924.133 286.183 927.892 285.45 932.658L275 932.658C275.183 927.158 275.458 921.2 275.825 914.783C276.008 908.183 276.1 899.475 276.1 888.658C276.1 878.758 276.1 871.242 276.1 866.108C275.917 860.975 275.733 856.85 275.55 853.733C275.367 850.433 275.183 846.95 275 843.283L285.45 843.283C286.183 848.233 287.192 852.633 288.475 856.483C289.575 860.15 292.142 861.983 296.175 861.983C298.558 861.983 301.767 861.342 305.8 860.058C309.833 858.592 314.875 856.942 320.925 855.108L413.325 824.583L413.05 838.333L286 786.908L286 771.508L413.05 723.658L413.325 736.308L312.95 700.833C309.1 699.367 305.8 698.267 303.05 697.533C300.117 696.617 297.733 696.158 295.9 696.158C291.683 696.158 289.117 698.083 288.2 701.933C287.1 705.6 286.183 709.908 285.45 714.858L275 714.858C275.183 708.808 275.458 703.583 275.825 699.183C276.008 694.6 276.1 689.742 276.1 684.608ZM372.075 607.226L358.05 607.226L358.05 579.451C358.05 571.201 357.683 564.784 356.95 560.201C356.217 555.434 354.933 551.859 353.1 549.476C351.267 546.909 348.7 544.984 345.4 543.701C341.917 542.417 337.608 541.134 332.475 539.851L332.475 529.401L397.65 529.401L397.65 539.851C392.517 541.134 388.3 542.417 385 543.701C381.7 544.984 379.133 546.909 377.3 549.476C375.283 551.859 373.908 555.434 373.175 560.201C372.442 564.784 372.075 571.201 372.075 579.451L372.075 607.226ZM448.8 524.176L408.1 497.776L408.1 487.326L462 492.826L462 641.601L451.55 641.601C450.633 635.001 449.808 630.326 449.075 627.576C448.158 624.642 446.783 622.626 444.95 621.526C442.75 620.242 439.542 619.509 435.325 619.326C430.925 618.959 424.6 618.776 416.35 618.776L320.65 618.776C312.4 618.776 306.167 618.959 301.95 619.326C297.55 619.509 294.25 620.242 292.05 621.526C290.033 622.626 288.658 624.642 287.925 627.576C287.008 630.326 286.183 635.001 285.45 641.601L275 641.601L275 496.951L326.425 494.201L326.425 504.651L288.2 528.301L288.2 577.526L448.8 577.526L448.8 524.176ZM275 410.107L275 348.782L462 348.782L462 410.107L451.55 410.107C450.633 404.79 449.808 400.848 449.075 398.282C448.158 395.715 446.783 393.882 444.95 392.782C442.75 391.498 439.542 390.765 435.325 390.582C430.925 390.215 424.6 390.032 416.35 390.032L320.65 390.032C312.4 390.032 306.167 390.215 301.95 390.582C297.55 390.765 294.25 391.498 292.05 392.782C290.033 393.882 288.658 395.715 287.925 398.282C287.008 400.848 286.183 404.79 285.45 410.107L275 410.107ZM462 370.232L275 370.232L275 328.982C275 314.498 276.65 300.84 279.95 288.007C283.25 274.99 288.475 263.44 295.625 253.357C302.775 243.273 312.125 235.39 323.675 229.707C335.042 223.84 348.883 220.907 365.2 220.907C377.483 220.907 389.4 223.565 400.95 228.882C412.5 234.015 422.858 241.348 432.025 250.882C441.192 260.415 448.525 271.782 454.025 284.982C459.342 298.182 462 312.848 462 328.982L462 370.232ZM312.675 348.782L448.8 348.782L448.8 330.357C448.8 315.873 446.233 303.865 441.1 294.332C435.967 284.615 427.808 277.373 416.625 272.607C405.258 267.657 390.408 265.182 372.075 265.182C344.575 265.182 323.767 270.498 309.65 281.132C295.35 291.765 288.2 306.615 288.2 325.682L288.2 348.782L312.675 348.782ZM464.75 104.685C464.75 118.618 462.733 131.36 458.7 142.91C454.483 154.46 448.433 164.451 440.55 172.885C432.667 181.135 423.042 187.551 411.675 192.135C400.125 196.718 387.017 199.01 372.35 199.01C356.583 199.01 342.467 196.535 330 191.585C317.533 186.635 306.9 179.851 298.1 171.235C289.3 162.435 282.608 152.351 278.025 140.985C273.258 129.618 270.875 117.61 270.875 104.96C270.875 91.0264 272.983 78.2848 277.2 66.7348C281.417 55.1848 287.558 45.2848 295.625 37.0348C303.692 28.6014 313.5 22.1848 325.05 17.7847C336.6 13.2014 349.708 10.9097 364.375 10.9097C380.142 10.9097 394.258 13.3847 406.725 18.3347C419.008 23.2848 429.55 30.0681 438.35 38.6847C446.967 47.3014 453.567 57.2931 458.15 68.6598C462.55 80.0264 464.75 92.0347 464.75 104.685ZM451.55 103.31C451.55 91.9431 447.975 82.6847 440.825 75.5347C433.492 68.3848 423.683 63.1598 411.4 59.8598C399.117 56.5598 385.367 54.9098 370.15 54.9098C358.783 54.9098 347.967 55.9181 337.7 57.9348C327.433 59.7681 318.267 62.7014 310.2 66.7348C302.133 70.7681 295.808 76.0848 291.225 82.6848C286.458 89.1014 284.075 96.8931 284.075 106.06C284.075 117.426 287.65 126.685 294.8 133.835C301.767 140.985 311.3 146.301 323.4 149.785C335.5 153.085 349.158 154.735 364.375 154.735C375.742 154.735 386.65 153.818 397.1 151.985C407.55 149.968 416.9 146.943 425.15 142.91C433.217 138.693 439.633 133.376 444.4 126.96C449.167 120.36 451.55 112.476 451.55 103.31Z" fill="#F0F6FF"/>
<path d="M65.1 673.692C65.1 668.376 65.0083 663.334 64.825 658.567C64.4583 653.801 64.1833 648.484 64 642.617L74.45 642.617C75.3666 648.484 76.4666 652.884 77.75 655.817C78.85 658.751 81.2333 661.134 84.9 662.967C88.3833 664.801 94.0666 667.184 101.95 670.117L251 725.392L251 736.392L126.15 786.167L126.15 777.917L251 828.792L251 839.792L109.925 890.667C102.042 893.417 95.9 895.801 91.5 897.817C87.1 899.651 83.8 901.484 81.6 903.317C79.4 905.151 77.8417 907.534 76.925 910.467C76.0083 913.217 75.1833 916.976 74.45 921.742L64 921.742C64.1833 916.242 64.4583 910.284 64.825 903.867C65.0083 897.267 65.1 888.559 65.1 877.742C65.1 867.842 65.1 860.326 65.1 855.192C64.9166 850.059 64.7333 845.934 64.55 842.817C64.3667 839.517 64.1833 836.034 64 832.367L74.45 832.367C75.1833 837.317 76.1917 841.717 77.475 845.567C78.575 849.234 81.1417 851.067 85.175 851.067C87.5583 851.067 90.7667 850.426 94.8 849.142C98.8333 847.676 103.875 846.026 109.925 844.192L202.325 813.667L202.05 827.417L75 775.992L75 760.592L202.05 712.742L202.325 725.392L101.95 689.917C98.1 688.45 94.8 687.351 92.05 686.617C89.1166 685.701 86.7333 685.242 84.9 685.242C80.6833 685.242 78.1166 687.167 77.2 691.017C76.1 694.684 75.1833 698.992 74.45 703.942L64 703.942C64.1833 697.892 64.4583 692.667 64.825 688.267C65.0083 683.684 65.1 678.825 65.1 673.692ZM109.65 448.36L205.35 448.36C212.867 448.36 218.825 448.268 223.225 448.085C227.625 447.901 230.925 447.26 233.125 446.16C235.508 444.876 237.158 443.043 238.075 440.66C238.808 438.093 239.633 433.968 240.55 428.285L251 428.285C250.633 435.618 250.45 441.393 250.45 445.61C250.267 449.826 250.175 453.676 250.175 457.16C249.992 460.46 249.9 464.768 249.9 470.085C249.9 474.485 249.992 478.335 250.175 481.635C250.175 484.751 250.267 488.418 250.45 492.635C250.45 496.668 250.633 502.351 251 509.685L240.55 509.685C239.633 504.368 238.808 500.426 238.075 497.86C237.342 495.293 235.967 493.46 233.95 492.36C231.75 491.076 228.45 490.343 224.05 490.16C219.65 489.793 213.325 489.61 205.075 489.61L161.9 489.61L161.9 569.36L205.35 569.36C212.867 569.36 218.825 569.268 223.225 569.085C227.625 568.901 230.925 568.26 233.125 567.16C235.508 565.876 237.158 564.043 238.075 561.66C238.808 559.093 239.633 554.968 240.55 549.285L251 549.285C250.633 556.618 250.45 562.393 250.45 566.61C250.267 570.826 250.175 574.676 250.175 578.16C249.992 581.46 249.9 585.768 249.9 591.085C249.9 595.485 249.992 599.335 250.175 602.635C250.175 605.751 250.267 609.418 250.45 613.635C250.45 617.668 250.633 623.351 251 630.685L240.55 630.685C239.633 625.368 238.808 621.426 238.075 618.86C237.342 616.293 235.967 614.46 233.95 613.36C231.75 612.076 228.45 611.343 224.05 611.16C219.65 610.793 213.325 610.61 205.075 610.61L109.925 610.61C101.675 610.61 95.35 610.793 90.95 611.16C86.55 611.343 83.25 612.076 81.05 613.36C79.0333 614.46 77.6583 616.293 76.925 618.86C76.0083 621.426 75.1833 625.368 74.45 630.685L64 630.685C64.1833 623.351 64.3666 617.668 64.55 613.635C64.7333 609.418 64.9166 605.751 65.1 602.635C65.1 599.335 65.1 595.485 65.1 591.085C65.1 585.768 65.1 581.46 65.1 578.16C64.9166 574.676 64.7333 570.826 64.55 566.61C64.3666 562.393 64.1833 556.618 64 549.285L74.45 549.285C75.1833 554.968 76.0083 559.093 76.925 561.66C77.6583 564.043 79.3083 565.876 81.875 567.16C84.075 568.26 87.375 568.901 91.775 569.085C96.175 569.268 102.133 569.36 109.65 569.36L147.6 569.36L147.6 489.61L109.925 489.61C101.675 489.61 95.35 489.793 90.95 490.16C86.55 490.343 83.25 491.076 81.05 492.36C79.0333 493.46 77.6583 495.293 76.925 497.86C76.0083 500.426 75.1833 504.368 74.45 509.685L64 509.685C64.1833 502.351 64.3666 496.668 64.55 492.635C64.7333 488.418 64.9166 484.751 65.1 481.635C65.1 478.335 65.1 474.485 65.1 470.085C65.1 464.768 65.1 460.46 65.1 457.16C64.9166 453.676 64.7333 449.826 64.55 445.61C64.3666 441.393 64.1833 435.618 64 428.285L74.45 428.285C75.1833 433.968 76.0083 438.093 76.925 440.66C77.6583 443.043 79.3083 444.876 81.875 446.16C84.075 447.26 87.375 447.901 91.775 448.085C96.175 448.268 102.133 448.36 109.65 448.36ZM200.675 284.041L200.675 368.741L186.65 368.741L186.65 284.041L200.675 284.041ZM64 313.466L205.075 253.516C212.592 250.216 218.55 247.649 222.95 245.816C227.35 243.799 230.742 241.966 233.125 240.316C235.325 238.482 236.975 236.282 238.075 233.716C238.992 230.966 239.817 227.207 240.55 222.441L251 222.441C250.633 227.941 250.358 233.991 250.175 240.591C249.992 247.191 249.9 256.266 249.9 267.816C249.9 275.699 249.992 281.932 250.175 286.516C250.175 290.916 250.267 294.674 250.45 297.791C250.633 300.724 250.817 304.024 251 307.691L240.55 307.691C239.633 302.374 238.625 297.974 237.525 294.491C236.242 290.824 233.583 288.991 229.55 288.991C224.6 288.991 216.442 291.282 205.075 295.866L118.175 331.616L118.175 329.141L213.05 367.091C217.083 368.741 220.475 370.024 223.225 370.941C225.975 371.674 228.267 372.041 230.1 372.041C234.133 372.041 236.7 370.116 237.8 366.266C238.9 362.416 239.817 358.199 240.55 353.616L251 353.616C250.633 359.116 250.358 364.341 250.175 369.291C249.992 374.057 249.9 379.282 249.9 384.966C249.9 390.282 249.992 395.324 250.175 400.091C250.358 404.674 250.633 409.716 251 415.216L240.55 415.216C239.633 409.532 238.533 405.316 237.25 402.566C235.967 399.632 233.583 397.157 230.1 395.141C226.433 393.124 220.75 390.557 213.05 387.441L64 324.466L64 313.466ZM123.95 232.029L64 225.154L64 64.0043L123.95 57.1293L123.95 68.1293L78.575 95.6293L78.575 193.529L123.95 221.029L123.95 232.029ZM68.125 165.204L68.125 123.954L205.35 123.954C212.867 123.954 218.825 123.863 223.225 123.679C227.625 123.496 230.925 122.854 233.125 121.754C235.508 120.471 237.158 118.638 238.075 116.254C238.808 113.688 239.633 109.563 240.55 103.879L251 103.879C250.633 111.213 250.45 116.988 250.45 121.204C250.267 125.421 250.175 129.271 250.175 132.754C249.992 136.054 249.9 140.363 249.9 145.679C249.9 150.079 249.992 153.929 250.175 157.229C250.175 160.346 250.267 164.013 250.45 168.229C250.45 172.263 250.633 177.946 251 185.279L240.55 185.279C239.633 179.963 238.808 176.021 238.075 173.454C237.342 170.888 235.967 169.054 233.95 167.954C231.75 166.671 228.45 165.938 224.05 165.754C219.65 165.388 213.325 165.204 205.075 165.204L68.125 165.204Z" fill="#F0F6FF"/>
</svg>
