<svg width="582" height="1072" viewBox="0 0 582 1072" fill="none" xmlns="http://www.w3.org/2000/svg">
<path d="M413.7 946.894L402 946.894L402 854.794L413.1 854.794C413.7 857.394 414.5 860.194 415.5 863.194C416.3 866.194 418 868.694 420.6 870.694C423 872.694 427.1 873.694 432.9 873.694L492 873.694C495.8 887.894 498.8 900.894 501 912.694C503 924.294 504 935.694 504 946.894C504 971.294 499.7 991.894 491.1 1008.69C482.5 1025.29 470.6 1037.89 455.4 1046.49C440.2 1054.89 422.9 1059.09 403.5 1059.09C382.1 1059.09 363.1 1054.29 346.5 1044.69C329.7 1035.09 316.5 1021.39 306.9 1003.59C297.3 985.794 292.5 964.594 292.5 939.994C292.5 931.594 293.3 921.794 294.9 910.594C296.3 899.394 299.1 887.394 303.3 874.594L357.3 890.494L357.3 901.894L303.6 918.994L318.9 898.594C315.9 903.994 313.4 910.094 311.4 916.894C309.2 923.694 308.1 930.994 308.1 938.794C308.1 951.594 310.8 962.594 316.2 971.794C321.6 980.794 328.7 988.194 337.5 993.994C346.3 999.794 355.9 1004.09 366.3 1006.89C376.7 1009.69 386.9 1011.09 396.9 1011.09C415.5 1011.09 431.7 1008.79 445.5 1004.19C459.1 999.594 469.7 992.394 477.3 982.594C484.7 972.594 488.4 959.594 488.4 943.594C488.4 937.394 487.8 932.294 486.6 928.294C485.2 924.294 482.8 921.294 479.4 919.294C476 917.294 471.2 916.294 465 916.294L435.9 916.294C429.1 916.294 424.3 917.494 421.5 919.894C418.5 922.094 416.6 925.494 415.8 930.094C414.8 934.494 414.1 940.094 413.7 946.894ZM401.7 755.494L399.9 709.594L467.1 665.794C471.5 662.794 475.2 659.694 478.2 656.494C481.2 653.294 483.6 649.694 485.4 645.694C487.2 641.694 488.6 637.094 489.6 631.894L501 631.894C500.6 640.494 500.3 647.594 500.1 653.194C499.9 658.594 499.8 663.794 499.8 668.794C499.8 674.194 499.9 679.194 500.1 683.794C500.3 688.194 500.6 692.894 501 697.894L401.7 755.494ZM310.8 768.994L451.2 768.994C459.4 768.994 465.9 768.894 470.7 768.694C475.5 768.494 479.1 767.794 481.5 766.594C484.1 765.194 485.9 763.094 486.9 760.294C487.7 757.494 488.6 752.894 489.6 746.494L501 746.494C500.6 754.694 500.4 760.994 500.4 765.394C500.2 769.594 500.1 773.494 500.1 777.094C499.9 780.494 499.8 785.194 499.8 791.194C499.8 796.194 499.9 800.494 500.1 804.094C500.1 807.494 500.2 811.394 500.4 815.794C500.4 820.194 500.6 826.494 501 834.694L489.6 834.694C488.6 828.694 487.7 824.294 486.9 821.494C486.1 818.694 484.6 816.694 482.4 815.494C480 814.094 476.4 813.294 471.6 813.094C466.8 812.694 459.9 812.494 450.9 812.494L346.8 812.494C337.8 812.494 331 812.694 326.4 813.094C321.6 813.294 318 814.094 315.6 815.494C313.4 816.694 311.9 818.594 311.1 821.194C310.1 823.594 309.2 827.094 308.4 831.694L297 831.694L297 749.494C297 732.494 298.4 717.294 301.2 703.894C303.8 690.494 308.7 679.894 315.9 672.094C323.1 664.294 333.5 660.394 347.1 660.394C357.5 660.394 366.6 663.094 374.4 668.494C382 673.694 388.3 680.894 393.3 690.094C398.3 699.094 402 709.494 404.4 721.294C406.8 733.094 408 745.594 408 758.794L408 772.294L392.7 772.294C393.1 769.294 393.5 766.094 393.9 762.694C394.1 759.294 394.2 755.994 394.2 752.794C394.2 742.194 392.5 733.494 389.1 726.694C385.7 719.894 381 714.894 375 711.694C369 708.494 362.1 706.894 354.3 706.894C344.5 706.894 336.4 709.094 330 713.494C323.6 717.694 318.8 723.394 315.6 730.594C312.4 737.594 310.8 745.394 310.8 753.994L310.8 768.994ZM504 520.549C504 535.749 501.8 549.649 497.4 562.249C492.8 574.849 486.2 585.749 477.6 594.949C469 603.949 458.5 610.949 446.1 615.949C433.5 620.949 419.2 623.449 403.2 623.449C386 623.449 370.6 620.749 357 615.349C343.4 609.949 331.8 602.549 322.2 593.149C312.6 583.549 305.3 572.549 300.3 560.149C295.1 547.749 292.5 534.649 292.5 520.849C292.5 505.649 294.8 491.749 299.4 479.149C304 466.549 310.7 455.749 319.5 446.749C328.3 437.549 339 430.549 351.6 425.749C364.2 420.749 378.5 418.249 394.5 418.249C411.7 418.249 427.1 420.949 440.7 426.349C454.1 431.749 465.6 439.149 475.2 448.549C484.6 457.949 491.8 468.849 496.8 481.249C501.6 493.649 504 506.749 504 520.549ZM489.6 519.049C489.6 506.649 485.7 496.549 477.9 488.749C469.9 480.949 459.2 475.249 445.8 471.649C432.4 468.049 417.4 466.249 400.8 466.249C388.4 466.249 376.6 467.349 365.4 469.549C354.2 471.549 344.2 474.749 335.4 479.149C326.6 483.549 319.7 489.349 314.7 496.549C309.5 503.549 306.9 512.049 306.9 522.049C306.9 534.449 310.8 544.549 318.6 552.349C326.2 560.149 336.6 565.949 349.8 569.749C363 573.349 377.9 575.149 394.5 575.149C406.9 575.149 418.8 574.149 430.2 572.149C441.6 569.949 451.8 566.649 460.8 562.249C469.6 557.649 476.6 551.849 481.8 544.849C487 537.649 489.6 529.049 489.6 519.049ZM337.2 218.548L411.3 218.548C440.3 218.548 463 224.648 479.4 236.848C495.8 249.048 504 268.848 504 296.248C504 317.048 500.8 333.748 494.4 346.348C488 358.948 478.2 368.048 465 373.648C451.8 379.248 434.9 382.048 414.3 382.048L347.1 382.048C338.1 382.048 331.2 382.248 326.4 382.648C321.6 382.848 318 383.648 315.6 385.048C313.4 386.248 311.9 388.248 311.1 391.048C310.1 393.848 309.2 398.148 308.4 403.948L297 403.948C297.2 395.948 297.4 389.748 297.6 385.348C297.8 380.748 298 376.748 298.2 373.348C298.2 369.948 298.2 365.748 298.2 360.748C298.2 354.948 298.2 350.248 298.2 346.648C298 342.848 297.8 338.648 297.6 334.048C297.4 329.448 297.2 323.148 297 315.148L308.4 315.148C309.2 321.348 310.1 325.848 311.1 328.648C311.9 331.248 313.7 333.248 316.5 334.648C318.9 335.848 322.5 336.548 327.3 336.748C332.1 336.948 338.7 337.048 347.1 337.048L408.3 337.048C424.3 337.048 437.9 335.648 449.1 332.848C460.1 329.848 468.5 324.948 474.3 318.148C479.9 311.148 482.7 301.848 482.7 290.248C482.7 275.048 477.8 263.048 468 254.248C458 245.448 441.1 241.048 417.3 241.048L337.2 241.048C331.8 241.048 327.5 241.248 324.3 241.648C320.9 241.848 318.2 242.448 316.2 243.448C313.4 244.648 311.6 246.748 310.8 249.748C310 252.748 309.2 257.048 308.4 262.648L297 262.648C297.2 257.248 297.4 252.848 297.6 249.448C297.8 246.048 298 242.748 298.2 239.548C298.2 236.148 298.2 232.148 298.2 227.548C298.2 223.348 298.2 219.948 298.2 217.348C298 214.748 297.8 211.948 297.6 208.948C297.4 205.948 297.2 201.848 297 196.648L308.4 196.648C309 201.648 309.7 205.548 310.5 208.348C311.1 211.148 312.4 213.348 314.4 214.948C316.2 216.348 318.9 217.348 322.5 217.948C325.9 218.348 330.8 218.548 337.2 218.548ZM310.8 114.438L451.2 114.438C459.4 114.438 465.9 114.338 470.7 114.138C475.5 113.938 479.1 113.238 481.5 112.038C484.1 110.638 485.9 108.638 486.9 106.038C487.7 103.238 488.6 98.7383 489.6 92.5383L501 92.5383C500.6 100.538 500.4 106.838 500.4 111.438C500.2 116.038 500.1 120.238 500.1 124.038C499.9 127.638 499.8 132.338 499.8 138.138C499.8 142.938 499.9 147.138 500.1 150.738C500.1 154.138 500.2 158.138 500.4 162.738C500.4 167.138 500.6 173.338 501 181.338L489.6 181.338C488.6 175.538 487.7 171.238 486.9 168.438C486.1 165.638 484.6 163.638 482.4 162.438C480 161.038 476.4 160.238 471.6 160.038C466.8 159.638 459.9 159.438 450.9 159.438L346.8 159.438C337.8 159.438 331 159.638 326.4 160.038C321.6 160.238 318 161.138 315.6 162.738C313.4 164.138 311.9 166.338 311.1 169.338C310.1 172.338 309.2 176.838 308.4 182.838L297 182.838L297 96.1383C297 77.7383 298.8 61.8383 302.4 48.4383C305.8 35.0383 311.6 24.6383 319.8 17.2383C327.8 9.83827 338.8 6.13827 352.8 6.13827C363.6 6.13827 373.1 8.83827 381.3 14.2383C389.3 19.4383 396 26.7383 401.4 36.1383C406.6 45.3383 410.5 55.9383 413.1 67.9383C415.7 79.9383 417 92.6383 417 106.038L417 118.038L402.3 117.738C402.5 115.538 402.7 113.338 402.9 111.138C403.1 108.938 403.2 106.438 403.2 103.638C403.2 91.6383 400.9 82.0383 396.3 74.8383C391.7 67.4383 385.8 62.0383 378.6 58.6383C371.4 55.2383 363.8 53.5383 355.8 53.5383C346 53.5383 337.8 55.6383 331.2 59.8383C324.6 64.0383 319.6 69.7383 316.2 76.9383C312.6 83.9383 310.8 91.8383 310.8 100.638L310.8 114.438Z" fill="#1A2A45" fill-opacity="0.71"/>
<path d="M135.4 952.242L70 944.742L70 768.942L135.4 761.442L135.4 773.442L85.9 803.442L85.9 910.242L135.4 940.242L135.4 952.242ZM74.5 879.342L74.5 834.342L224.2 834.342C232.4 834.342 238.9 834.242 243.7 834.042C248.5 833.842 252.1 833.142 254.5 831.942C257.1 830.542 258.9 828.542 259.9 825.942C260.7 823.142 261.6 818.642 262.6 812.442L274 812.442C273.6 820.442 273.4 826.742 273.4 831.342C273.2 835.942 273.1 840.142 273.1 843.942C272.9 847.542 272.8 852.242 272.8 858.042C272.8 862.842 272.9 867.042 273.1 870.642C273.1 874.042 273.2 878.042 273.4 882.642C273.4 887.042 273.6 893.242 274 901.242L262.6 901.242C261.6 895.442 260.7 891.142 259.9 888.342C259.1 885.542 257.6 883.542 255.4 882.342C253 880.942 249.4 880.142 244.6 879.942C239.8 879.542 232.9 879.342 223.9 879.342L74.5 879.342ZM119.8 546.637L224.2 546.637C232.4 546.637 238.9 546.537 243.7 546.337C248.5 546.137 252.1 545.437 254.5 544.237C257.1 542.837 258.9 540.837 259.9 538.237C260.7 535.437 261.6 530.937 262.6 524.737L274 524.737C273.6 532.737 273.4 539.037 273.4 543.637C273.2 548.237 273.1 552.437 273.1 556.237C272.9 559.837 272.8 564.537 272.8 570.337C272.8 575.137 272.9 579.337 273.1 582.937C273.1 586.337 273.2 590.337 273.4 594.937C273.4 599.337 273.6 605.537 274 613.537L262.6 613.537C261.6 607.737 260.7 603.437 259.9 600.637C259.1 597.837 257.6 595.837 255.4 594.637C253 593.237 249.4 592.437 244.6 592.237C239.8 591.837 232.9 591.637 223.9 591.637L176.8 591.637L176.8 678.637L224.2 678.637C232.4 678.637 238.9 678.537 243.7 678.337C248.5 678.137 252.1 677.437 254.5 676.237C257.1 674.837 258.9 672.837 259.9 670.237C260.7 667.437 261.6 662.937 262.6 656.737L274 656.737C273.6 664.737 273.4 671.037 273.4 675.637C273.2 680.237 273.1 684.437 273.1 688.237C272.9 691.837 272.8 696.537 272.8 702.337C272.8 707.137 272.9 711.337 273.1 714.937C273.1 718.337 273.2 722.337 273.4 726.937C273.4 731.337 273.6 737.537 274 745.537L262.6 745.537C261.6 739.737 260.7 735.437 259.9 732.637C259.1 729.837 257.6 727.837 255.4 726.637C253 725.237 249.4 724.437 244.6 724.237C239.8 723.837 232.9 723.637 223.9 723.637L120.1 723.637C111.1 723.637 104.2 723.837 99.4 724.237C94.6 724.437 91 725.237 88.6 726.637C86.4 727.837 84.9 729.837 84.1 732.637C83.1 735.437 82.2 739.737 81.4 745.537L70 745.537C70.2 737.537 70.4 731.337 70.6 726.937C70.8 722.337 71 718.337 71.2 714.937C71.2 711.337 71.2 707.137 71.2 702.337C71.2 696.537 71.2 691.837 71.2 688.237C71 684.437 70.8 680.237 70.6 675.637C70.4 671.037 70.2 664.737 70 656.737L81.4 656.737C82.2 662.937 83.1 667.437 84.1 670.237C84.9 672.837 86.7 674.837 89.5 676.237C91.9 677.437 95.5 678.137 100.3 678.337C105.1 678.537 111.6 678.637 119.8 678.637L161.2 678.637L161.2 591.637L120.1 591.637C111.1 591.637 104.2 591.837 99.4 592.237C94.6 592.437 91 593.237 88.6 594.637C86.4 595.837 84.9 597.837 84.1 600.637C83.1 603.437 82.2 607.737 81.4 613.537L70 613.537C70.2 605.537 70.4 599.337 70.6 594.937C70.8 590.337 71 586.337 71.2 582.937C71.2 579.337 71.2 575.137 71.2 570.337C71.2 564.537 71.2 559.837 71.2 556.237C71 552.437 70.8 548.237 70.6 543.637C70.4 539.037 70.2 532.737 70 524.737L81.4 524.737C82.2 530.937 83.1 535.437 84.1 538.237C84.9 540.837 86.7 542.837 89.5 544.237C91.9 545.437 95.5 546.137 100.3 546.337C105.1 546.537 111.6 546.637 119.8 546.637ZM175.9 464.58L160.6 464.58L160.6 434.28C160.6 425.28 160.2 418.28 159.4 413.28C158.6 408.08 157.2 404.18 155.2 401.58C153.2 398.78 150.4 396.68 146.8 395.28C143 393.88 138.3 392.48 132.7 391.08L132.7 379.68L203.8 379.68L203.8 391.08C198.2 392.48 193.6 393.88 190 395.28C186.4 396.68 183.6 398.78 181.6 401.58C179.4 404.18 177.9 408.08 177.1 413.28C176.3 418.28 175.9 425.28 175.9 434.28L175.9 464.58ZM259.6 373.98L215.2 345.18L215.2 333.78L274 339.78L274 502.08L262.6 502.08C261.6 494.88 260.7 489.78 259.9 486.78C258.9 483.58 257.4 481.38 255.4 480.18C253 478.78 249.5 477.98 244.9 477.78C240.1 477.38 233.2 477.18 224.2 477.18L119.8 477.18C110.8 477.18 104 477.38 99.4 477.78C94.6 477.98 91 478.78 88.6 480.18C86.4 481.38 84.9 483.58 84.1 486.78C83.1 489.78 82.2 494.88 81.4 502.08L70 502.08L70 344.28L126.1 341.28L126.1 352.68L84.4 378.48L84.4 432.18L259.6 432.18L259.6 373.98Z" fill="#1A2A45" fill-opacity="0.71"/>
</svg>
