<svg width="184" height="92" viewBox="0 0 184 92" fill="none" xmlns="http://www.w3.org/2000/svg">
<g clip-path="url(#clip0_1018_120)">
<path d="M25.8442 23.8987C25.5679 24.0765 25.4099 24.195 25.3606 24.2542C25.3113 24.3036 25.2422 24.3826 25.1435 24.4913C25.0448 24.5999 24.9362 24.7579 24.8079 24.9554C24.6796 25.1529 24.5513 25.4097 24.4033 25.7158C24.2651 26.022 24.1072 26.4071 23.9493 26.8614C23.6927 27.6317 23.4065 28.4908 23.0709 29.429C22.7354 30.3672 22.3998 31.335 22.0642 32.3324C21.7287 33.3298 21.3833 34.3272 21.0378 35.3345C20.6924 36.3418 20.3667 37.2899 20.0706 38.1886L19.0738 40.4599H18.837C18.4126 39.3242 18.0079 38.2281 17.6428 37.1911C17.2677 36.1443 16.9125 35.1469 16.5769 34.1791C16.2413 33.2113 15.9058 32.283 15.59 31.3745C15.2741 30.4659 14.9485 29.5673 14.6228 28.6883C14.3662 29.4191 14.0997 30.1795 13.8135 30.9795C13.5273 31.7794 13.2411 32.5892 12.9647 33.4088C12.6785 34.2285 12.3923 35.0383 12.116 35.8382C11.8297 36.6381 11.5534 37.4084 11.2869 38.1491L10.2408 40.4698H9.95458C9.46111 39.186 9.00712 37.9713 8.57287 36.8159C8.13862 35.6604 7.72411 34.5544 7.31946 33.4878C6.91482 32.4213 6.52992 31.3843 6.14501 30.3869C5.76998 29.3796 5.38508 28.3822 5.01004 27.3848C4.90148 27.0885 4.80279 26.8219 4.71396 26.6046C4.62514 26.3874 4.54618 26.18 4.4771 25.9923C4.40801 25.8047 4.32906 25.6171 4.2501 25.4492C4.17115 25.2714 4.08232 25.0937 3.9935 24.906C3.94415 24.8073 3.87507 24.6888 3.79611 24.5505C3.70729 24.4123 3.58886 24.274 3.43095 24.1357C3.27304 23.9975 3.08552 23.879 2.85853 23.7802C2.6414 23.6815 2.35519 23.6222 2.00977 23.6025V23.3457H8.6913V23.5827C8.61235 23.5827 8.47418 23.6025 8.28666 23.6321C8.09914 23.6617 7.90175 23.721 7.6945 23.8C7.48724 23.879 7.3096 23.9975 7.16155 24.1555C7.01351 24.3135 6.93456 24.5308 6.93456 24.7974C6.93456 24.9357 7.01351 25.2714 7.18129 25.7849C7.34907 26.2985 7.5662 26.9206 7.83267 27.6613C8.09914 28.3921 8.39522 29.2019 8.72091 30.0709C9.0466 30.9399 9.37228 31.7991 9.6881 32.6385C10.0138 33.4878 10.3197 34.2779 10.5961 35.0086C10.8823 35.7394 11.1093 36.3517 11.2869 36.8257C11.3363 36.6974 11.4547 36.3715 11.6422 35.8382C11.8297 35.3049 12.0666 34.6433 12.3528 33.8433C12.639 33.0434 12.9549 32.1448 13.3003 31.1375C13.6457 30.1302 13.9911 29.0834 14.3464 27.9971C14.1096 27.365 13.8924 26.812 13.7049 26.3281C13.5174 25.8442 13.3101 25.3801 13.093 24.9159C13.0338 24.7875 12.945 24.6591 12.8463 24.511C12.7476 24.3728 12.5996 24.2345 12.4219 24.0962C12.2443 23.958 12.0173 23.8494 11.7508 23.7605C11.4843 23.6716 11.1586 23.6222 10.7836 23.6025V23.3457H18.1955V23.5827C18.0968 23.6025 17.929 23.6222 17.6823 23.6518C17.4355 23.6815 17.1888 23.7407 16.9519 23.8296C16.7052 23.9185 16.4881 24.037 16.2907 24.195C16.0933 24.353 15.9946 24.5505 15.9946 24.7875C15.9946 24.8863 16.0834 25.2023 16.2512 25.7454C16.4289 26.2886 16.646 26.9503 16.9125 27.7403C17.1789 28.5205 17.4849 29.3697 17.8106 30.2882C18.1461 31.2066 18.4619 32.0855 18.758 32.9348C19.0541 33.7841 19.3304 34.5346 19.5772 35.2062C19.8239 35.8777 20.0016 36.3616 20.1101 36.6677C20.1595 36.5591 20.2384 36.3221 20.3568 35.9666C20.4753 35.6111 20.6233 35.1765 20.8108 34.663C20.9885 34.1495 21.1859 33.5767 21.403 32.9447C21.6201 32.3126 21.8274 31.6707 22.0445 31.0091C22.2616 30.3573 22.4689 29.6956 22.686 29.0439C22.9031 28.3921 23.0907 27.7798 23.2683 27.207C23.4854 26.4762 23.6137 25.9528 23.6433 25.6171C23.6729 25.2813 23.6927 25.0443 23.6927 24.8863C23.6927 24.6493 23.6236 24.4518 23.4756 24.3036C23.3275 24.1555 23.1597 24.0271 22.9525 23.9284C22.7452 23.8296 22.5281 23.7506 22.2912 23.6913C22.0544 23.6321 21.8372 23.6025 21.6497 23.5827V23.3457H26.8607V23.5827C26.466 23.6321 26.1304 23.7407 25.8541 23.9185L25.8442 23.8987Z" fill="#203A52"/>
<path d="M39.0002 40.4006V40.1636C39.5825 40.1142 40.076 40.0056 40.4707 39.8476C40.8655 39.6797 41.1221 39.4921 41.2504 39.2946C41.28 39.2452 41.3096 39.1563 41.3294 39.0082C41.3491 38.8601 41.3689 38.7021 41.3886 38.5144C41.4083 38.3268 41.4182 38.1293 41.4281 37.9219C41.4281 37.7145 41.4379 37.517 41.4379 37.3294C41.4577 36.806 41.4577 36.2727 41.4577 35.7197V31.9769H32.1016V37.0726C32.1016 37.5269 32.1016 37.9713 32.1213 38.3959C32.141 38.8206 32.2101 39.1267 32.3384 39.2946C32.5259 39.5612 32.7924 39.7686 33.1477 39.9069C33.4931 40.0451 33.8386 40.134 34.1642 40.1636V40.4006H27.1768V40.1636C27.5715 40.1044 27.9466 39.9957 28.3117 39.8476C28.6769 39.6995 28.9532 39.5118 29.1408 39.2946C29.2 39.2156 29.2592 39.0872 29.2987 38.8996C29.3381 38.7218 29.3677 38.5045 29.3974 38.2675C29.4171 38.0305 29.4368 37.7738 29.4566 37.4972C29.4763 37.2207 29.4763 36.9541 29.4763 36.7072C29.4763 36.4899 29.4763 36.1838 29.4862 35.8085C29.4862 35.4333 29.5059 35.0185 29.5059 34.5642C29.5059 34.11 29.5158 33.6557 29.5158 33.1817V26.3182C29.5158 26.0318 29.5059 25.7652 29.4763 25.5282C29.4467 25.2911 29.4171 25.064 29.3677 24.8665C29.3184 24.669 29.2493 24.511 29.1506 24.4024C28.9335 24.1357 28.6572 23.9382 28.3315 23.8197C28.0058 23.7012 27.6406 23.6222 27.2261 23.5728V23.3358H34.2827V23.5728C34.0655 23.6024 33.8287 23.6518 33.5721 23.7111C33.3155 23.7703 33.0885 23.879 32.8812 24.0073C32.674 24.1456 32.5062 24.3234 32.3582 24.5604C32.2101 24.7974 32.141 25.0936 32.1213 25.459C32.1016 26.0121 32.0917 26.6046 32.0818 27.2465C32.0818 27.8884 32.0719 28.5007 32.0719 29.0833V31.4732H41.4281V27.6613C41.4281 27.2465 41.4281 26.7823 41.4083 26.2589C41.3886 25.9627 41.3689 25.6467 41.3491 25.3208C41.3294 24.9949 41.2504 24.7282 41.1221 24.5307C40.8359 24.1061 40.5102 23.8395 40.1549 23.7407C39.7898 23.6419 39.4246 23.5827 39.0693 23.5629V23.3259H46.195V23.5629C45.8199 23.6123 45.4449 23.7209 45.0797 23.879C44.7146 24.0468 44.4481 24.2838 44.2704 24.5999C44.2112 24.7085 44.1619 24.8665 44.1323 25.064C44.1027 25.2615 44.073 25.4788 44.0632 25.7257C44.0434 25.9726 44.0434 26.2194 44.0434 26.4762V34.2285C44.0434 34.6729 44.0434 35.1271 44.0533 35.6012C44.0533 36.0752 44.0632 36.5986 44.0632 37.1615C44.0632 37.6158 44.073 38.0404 44.1027 38.4255C44.1224 38.8107 44.1816 39.0773 44.2803 39.2156C44.4876 39.5316 44.7639 39.7489 45.1093 39.8772C45.4548 40.0056 45.8397 40.0945 46.2443 40.134V40.371H38.9706L39.0002 40.4006Z" fill="#203A52"/>
<path d="M48.5438 40.4007V40.1636C48.9386 40.1044 49.3037 39.9958 49.6492 39.8575C49.9847 39.7192 50.2808 39.5119 50.5177 39.2452C50.5966 39.1465 50.6558 39.0181 50.6953 38.8403C50.7348 38.6626 50.7644 38.4651 50.794 38.228C50.8137 37.991 50.8335 37.7441 50.8434 37.4775C50.8532 37.2109 50.8532 36.964 50.8532 36.7072C50.8532 36.49 50.8532 36.1838 50.8631 35.8085C50.8631 35.4333 50.8828 35.0185 50.8828 34.5642C50.8828 34.11 50.8927 33.6557 50.8927 33.1817V26.3182C50.8927 26.0318 50.8828 25.7652 50.8532 25.5282C50.8335 25.2813 50.794 25.064 50.7447 24.8665C50.6953 24.669 50.6262 24.511 50.5275 24.4024C50.3104 24.1357 50.0341 23.9382 49.7084 23.8197C49.3827 23.7012 49.0175 23.6222 48.603 23.5728V23.3358H55.6892V23.5728C55.3536 23.6222 54.9983 23.7111 54.6233 23.8296C54.2483 23.958 53.9522 24.2049 53.7449 24.59C53.6068 24.8566 53.5278 25.2023 53.5179 25.6072C53.5179 26.0219 53.4982 26.4071 53.4785 26.7725C53.4785 27.1675 53.4785 27.5625 53.4686 27.9477C53.4686 28.3328 53.4587 28.7278 53.4587 29.1228V37.0627C53.4587 37.517 53.4587 37.9614 53.4785 38.3861C53.4982 38.8107 53.5673 39.1168 53.6956 39.2847C53.8831 39.5514 54.1891 39.7587 54.5937 39.897C55.0082 40.0353 55.3734 40.1241 55.7089 40.1538V40.3908H48.5339L48.5438 40.4007Z" fill="#203A52"/>
<path d="M74.4607 27.7896C74.3324 27.5032 74.1844 27.207 74.0067 26.9008C73.8291 26.5947 73.6514 26.3083 73.4738 26.0318C73.2961 25.7651 73.1185 25.5182 72.9408 25.2812C72.7632 25.0541 72.6151 24.8862 72.4868 24.7677C72.1513 24.4517 71.796 24.2443 71.4111 24.1357C71.0262 24.0369 70.5327 23.9777 69.9307 23.9579C69.6346 23.9579 69.3681 23.9579 69.151 23.948C68.9339 23.948 68.7069 23.9382 68.4898 23.9382H66.9304C66.9304 24.3332 66.9304 24.8665 66.9205 25.5479C66.9205 26.2293 66.9107 26.9403 66.9107 27.681V36.9442C66.9107 37.3985 66.9205 37.8429 66.9501 38.2576C66.9699 38.6724 67.0488 38.9687 67.1771 39.1464C67.414 39.4921 67.7495 39.7291 68.1838 39.8574C68.618 39.9858 69.0128 40.0747 69.3583 40.1438V40.3808H61.6602V40.1438C62.0747 40.0945 62.4695 40.0155 62.8445 39.9068C63.2195 39.7982 63.5946 39.5316 63.9597 39.1267C64.0387 39.0477 64.0979 38.9193 64.1374 38.7316C64.1769 38.5539 64.2065 38.3465 64.2361 38.1194C64.2558 37.8922 64.2755 37.6453 64.2854 37.3688C64.2953 37.0923 64.2953 36.8356 64.2953 36.5887C64.2953 36.3714 64.2953 36.0751 64.3052 35.7097C64.3052 35.3444 64.3249 34.9395 64.3249 34.5049C64.3249 34.0605 64.3348 33.6063 64.3348 33.1322V23.948H62.7754C62.5682 23.948 62.351 23.948 62.124 23.9579C61.897 23.9579 61.6306 23.9678 61.3345 23.9678C60.7325 23.9875 60.239 24.0567 59.8541 24.1851C59.4692 24.3134 59.104 24.5307 58.7783 24.8467C58.65 24.9553 58.502 25.1232 58.3441 25.3405C58.1763 25.5578 58.0085 25.8046 57.821 26.0614C57.6434 26.3182 57.4657 26.6046 57.2979 26.9008C57.1302 27.1971 57.0019 27.4933 56.9032 27.7797L56.686 27.7106L57.3966 23.2074C57.7618 23.2864 58.0974 23.3456 58.4033 23.395C58.7092 23.4444 59.1534 23.474 59.7455 23.4938C60.3476 23.5135 60.8805 23.5234 61.3542 23.5333C61.828 23.5333 62.2819 23.5432 62.7261 23.5432H67.2265C67.7002 23.5432 68.1542 23.5432 68.5983 23.5333C69.0424 23.5333 69.4964 23.5135 69.9702 23.5135C70.4439 23.5135 70.9768 23.5036 71.5789 23.5036C72.1019 23.4839 72.5263 23.4444 72.8717 23.3753C73.2073 23.3061 73.5626 23.2173 73.9277 23.0988L74.6877 27.7205L74.4706 27.7896H74.4607Z" fill="#203A52"/>
<path d="M89.8271 40.4007H75.3291V40.1636C75.7239 40.1044 76.089 39.9958 76.4345 39.8575C76.77 39.7193 77.0562 39.5217 77.2734 39.265C77.3523 39.1662 77.4115 39.028 77.4609 38.8502C77.5102 38.6725 77.5497 38.4552 77.5892 38.2182C77.6286 37.9812 77.6583 37.7343 77.6681 37.4676C77.6879 37.2109 77.6879 36.9541 77.6879 36.6974C77.6879 36.4801 77.6879 36.174 77.6977 35.7987C77.6977 35.4234 77.7175 35.0086 77.7175 34.5544C77.7175 34.1001 77.7273 33.6458 77.7273 33.1718V27.1774C77.7273 26.891 77.7273 26.6046 77.7175 26.2985C77.7175 26.0022 77.6977 25.7158 77.6681 25.4492C77.6484 25.1825 77.6089 24.9357 77.5497 24.7283C77.4905 24.511 77.4214 24.3629 77.3227 24.2641C77.0858 24.0074 76.8292 23.8494 76.5628 23.7802C76.2963 23.7111 75.9509 23.642 75.5166 23.5827V23.3457H88.5935L90.2022 27.2564L89.9653 27.3749C88.6823 25.7751 87.4881 24.7085 86.363 24.1555C86.0965 24.0271 85.5932 23.9185 84.8727 23.8197C84.1424 23.721 83.264 23.6815 82.2179 23.6815C81.8823 23.6815 81.5468 23.6913 81.1915 23.721C80.8362 23.7407 80.5796 23.7703 80.4217 23.8C80.3921 24.0567 80.3625 24.5703 80.3427 25.3603C80.323 26.1503 80.3032 27.0688 80.3032 28.1057V29.6265C80.3032 30.0413 80.3032 30.377 80.3131 30.6338C80.3131 30.8906 80.323 31.098 80.323 31.2362V31.493H80.7967C81.0336 31.493 81.3099 31.493 81.6159 31.4732C81.9218 31.4535 82.2278 31.4337 82.5436 31.414C82.8495 31.3942 83.1061 31.3547 83.3134 31.3053C83.7871 31.1967 84.1819 31.0486 84.4977 30.8511C84.8135 30.6634 85.0701 30.4363 85.2675 30.1598C85.4649 29.8931 85.6228 29.5771 85.7412 29.2216C85.8597 28.8661 85.9682 28.4711 86.0571 28.0267H86.3433V35.4925H86.0571C85.9288 34.9889 85.7412 34.4655 85.4748 33.9322C85.2083 33.3989 84.9418 32.994 84.6556 32.7274C84.399 32.5102 84.1029 32.3225 83.7476 32.1843C83.3923 32.046 82.9778 31.9571 82.5041 31.9275C82.2672 31.9077 82.0699 31.8979 81.9119 31.888C81.754 31.888 81.5961 31.8781 81.4382 31.8781H80.3526C80.323 32.0954 80.3032 32.4213 80.3032 32.8459V35.6901C80.3032 35.9468 80.3032 36.1838 80.3131 36.411C80.3131 36.6381 80.323 36.8356 80.323 36.9936C80.3427 37.4973 80.3625 37.9812 80.4019 38.4256C80.4414 38.8798 80.5302 39.2156 80.6783 39.4329C80.8164 39.6501 81.1619 39.8081 81.6948 39.9069C82.2278 40.0056 82.8199 40.0451 83.4516 40.0451C83.718 40.0451 84.0635 40.0451 84.478 40.0254C84.8925 40.0056 85.3366 39.9661 85.7906 39.9069C86.2939 39.8476 86.7578 39.7193 87.192 39.5415C87.6164 39.3637 88.0309 39.107 88.4257 38.7712C88.8205 38.4354 89.2054 38.0305 89.5705 37.5466C89.9456 37.0627 90.3206 36.4801 90.7154 35.8086L90.972 35.8777L89.7877 40.4007H89.8271Z" fill="#203A52"/>
<path d="M112.191 40.4007H96.9824V40.1636C97.3772 40.1044 97.772 39.9958 98.1569 39.8575C98.5418 39.7192 98.8477 39.5217 99.0649 39.265C99.1438 39.1662 99.2129 39.028 99.2622 38.8502C99.3215 38.6724 99.3609 38.4552 99.3905 38.2182C99.4201 37.9812 99.4498 37.7343 99.4695 37.4676C99.4892 37.2109 99.509 36.9541 99.509 36.6973C99.509 36.4801 99.509 36.1739 99.5188 35.7987C99.5188 35.4234 99.5386 35.0086 99.5386 34.5544C99.5386 34.1001 99.5484 33.6458 99.5484 33.1718V26.3676C99.5484 26.0812 99.5386 25.8146 99.509 25.5775C99.4794 25.3405 99.4498 25.1134 99.4004 24.9258C99.3511 24.7381 99.282 24.59 99.1833 24.4715C98.9662 24.2049 98.6701 23.9975 98.295 23.8592C97.92 23.721 97.5351 23.6222 97.1206 23.5728V23.3358H104.681V23.5728C104.473 23.6025 104.227 23.6518 103.95 23.7111C103.664 23.7703 103.397 23.879 103.141 24.0172C102.884 24.1555 102.667 24.3629 102.49 24.6196C102.312 24.8764 102.213 25.222 102.193 25.6467C102.174 26.1997 102.164 26.7034 102.154 27.1675C102.154 27.6218 102.134 28.076 102.134 28.5204C102.134 28.9648 102.124 29.4191 102.124 29.8931V34.2087C102.124 34.6235 102.124 35.0383 102.134 35.4728C102.134 35.9073 102.144 36.3912 102.144 36.9344C102.164 37.438 102.184 37.9219 102.203 38.3762C102.223 38.8304 102.312 39.1761 102.45 39.3934C102.509 39.4724 102.638 39.5514 102.825 39.6304C103.013 39.7094 103.24 39.7785 103.516 39.8279C103.782 39.8871 104.078 39.9266 104.394 39.9661C104.71 40.0056 105.026 40.0254 105.342 40.0254C105.47 40.0254 105.667 40.0254 105.944 40.0155C106.22 40.0155 106.526 39.9958 106.852 39.9661C107.187 39.9464 107.523 39.9069 107.868 39.8575C108.214 39.8081 108.52 39.7489 108.796 39.6699C109.428 39.4921 109.951 39.265 110.375 38.9786C110.79 38.6922 111.155 38.3663 111.451 37.991C111.747 37.6158 112.004 37.2207 112.211 36.7862C112.418 36.3517 112.615 35.8974 112.803 35.4234L113.04 35.4925L112.161 40.371L112.191 40.4007Z" fill="#203A52"/>
<path d="M123.462 40.4006V40.1636C123.462 40.1636 123.62 40.1438 123.807 40.1142C123.985 40.0846 124.182 40.0253 124.38 39.9463C124.577 39.8673 124.755 39.7587 124.903 39.6106C125.051 39.4723 125.13 39.2847 125.13 39.0674C125.13 38.9292 125.09 38.6922 125.001 38.3663C124.913 38.0404 124.794 37.6454 124.636 37.1812C124.478 36.7171 124.301 36.1937 124.093 35.6308C123.886 35.058 123.669 34.4654 123.432 33.8532H117.135C116.899 34.4556 116.672 35.0283 116.445 35.5715C116.228 36.1147 116.001 36.6677 115.783 37.2207C115.448 38.07 115.29 38.6724 115.29 39.018C115.29 39.2254 115.349 39.3933 115.477 39.5316C115.606 39.6698 115.764 39.7785 115.961 39.8673C116.158 39.9562 116.376 40.0155 116.603 40.055C116.83 40.0945 117.047 40.134 117.254 40.1636V40.4006H112.211V40.1439C112.625 40.0945 112.971 39.9858 113.267 39.8081C113.563 39.6303 113.731 39.5118 113.78 39.4526C113.888 39.3439 114.076 39.0773 114.323 38.6724C114.579 38.2576 114.885 37.6552 115.25 36.8454C115.586 36.1048 115.951 35.2555 116.366 34.3074C116.78 33.3594 117.195 32.3817 117.629 31.3843C118.063 30.377 118.497 29.3697 118.922 28.3525C119.346 27.3353 119.751 26.3774 120.126 25.4985L119.889 24.9751C120.175 24.8467 120.432 24.6986 120.659 24.5208C120.886 24.3431 121.093 24.1653 121.261 23.9777C121.439 23.7901 121.577 23.6024 121.695 23.4345C121.814 23.2568 121.902 23.1185 121.971 23.0099H122.159C122.652 24.3233 123.116 25.5676 123.56 26.7428C124.005 27.918 124.429 29.0537 124.824 30.14C125.228 31.2263 125.613 32.283 125.998 33.3001C126.373 34.3173 126.758 35.3246 127.133 36.322C127.311 36.8158 127.469 37.2207 127.617 37.5466C127.765 37.8725 127.933 38.2379 128.13 38.6527C128.16 38.7119 128.229 38.8304 128.347 38.9884C128.456 39.1464 128.604 39.3044 128.781 39.4723C128.959 39.6402 129.186 39.7883 129.452 39.9068C129.719 40.0352 130.035 40.1043 130.4 40.1241V40.4105H123.481L123.462 40.4006ZM120.363 26.0318C120.264 26.2392 120.126 26.5651 119.948 26.9996C119.771 27.444 119.544 27.9773 119.277 28.6093C119.011 29.2413 118.715 29.9524 118.389 30.7523C118.063 31.5522 117.718 32.4113 117.333 33.3495H123.235C122.968 32.6385 122.692 31.9274 122.416 31.2164C122.139 30.5054 121.873 29.824 121.606 29.1623C121.35 28.5105 121.113 27.9081 120.896 27.365C120.679 26.8218 120.501 26.3774 120.363 26.0219V26.0318Z" fill="#203A52"/>
<path d="M145.559 37.2701C145.382 37.7244 145.155 38.1293 144.868 38.4749C144.582 38.8206 144.266 39.1168 143.921 39.3637C143.575 39.6106 143.23 39.7982 142.875 39.9167C142.273 40.134 141.602 40.2723 140.861 40.3216C140.121 40.371 139.401 40.3908 138.71 40.3908H130.538V40.1538C130.933 40.0945 131.308 39.9859 131.663 39.8476C132.018 39.7094 132.305 39.5118 132.532 39.2551C132.611 39.1563 132.67 39.0181 132.719 38.8403C132.769 38.6626 132.808 38.4453 132.848 38.2083C132.887 37.9713 132.917 37.7244 132.926 37.4577C132.946 37.201 132.946 36.9442 132.946 36.6875C132.946 36.4702 132.946 36.1641 132.956 35.7888C132.956 35.4135 132.976 34.9987 132.976 34.5445C132.976 34.0902 132.986 33.6359 132.986 33.1619V29.4882C132.986 29.1426 132.986 28.7871 132.976 28.4217C132.966 28.0563 132.966 27.6415 132.966 27.1675C132.966 26.8811 132.966 26.5947 132.946 26.2984C132.926 26.0022 132.907 25.7257 132.867 25.459C132.828 25.1924 132.778 24.9455 132.729 24.7381C132.67 24.5209 132.601 24.3727 132.502 24.274C132.265 24.0172 132.028 23.8493 131.791 23.7604C131.555 23.6716 131.219 23.6024 130.795 23.5629V23.3259H138.779C139.381 23.3259 139.953 23.3654 140.496 23.4346C141.039 23.5037 141.562 23.6321 142.075 23.8296C142.885 24.1258 143.546 24.59 144.069 25.2023C144.592 25.8145 144.849 26.6046 144.849 27.5526C144.849 28.5994 144.513 29.4389 143.842 30.0808C143.171 30.7227 142.302 31.1473 141.227 31.3744V31.4732C141.799 31.5325 142.352 31.6707 142.904 31.888C143.457 32.1052 143.951 32.3916 144.385 32.757C144.819 33.1224 145.164 33.5471 145.431 34.0507C145.697 34.5544 145.826 35.1173 145.826 35.7493C145.826 36.3221 145.737 36.8356 145.569 37.2899L145.559 37.2701ZM141.523 25.4393C141.118 24.827 140.615 24.3826 140.023 24.116C139.312 23.8 138.404 23.6419 137.299 23.6419C136.963 23.6419 136.667 23.6617 136.4 23.6913C136.134 23.7209 135.927 23.7604 135.789 23.8098C135.769 23.9086 135.759 23.9876 135.739 24.0666C135.719 24.1456 135.71 24.2443 135.7 24.3629C135.7 24.4814 135.68 24.6295 135.68 24.7974C135.68 24.9751 135.66 25.2023 135.641 25.4887C135.621 26.0417 135.611 26.654 135.601 27.3156C135.601 27.9773 135.591 28.6093 135.591 29.2117V31.4831H136.914C137.279 31.4831 137.565 31.4831 137.792 31.4633C139.213 31.3843 140.289 30.9794 141.029 30.2585C141.76 29.5277 142.135 28.6291 142.135 27.5526C142.135 26.7626 141.937 26.0614 141.533 25.4393H141.523ZM142.825 34.6926C142.677 34.2877 142.47 33.9223 142.214 33.5767C141.957 33.2409 141.641 32.9446 141.286 32.6978C140.93 32.4509 140.536 32.2632 140.111 32.1151C139.766 32.0065 139.42 31.9275 139.085 31.888C138.749 31.8485 138.345 31.8287 137.891 31.8287H135.591V34.7914C135.591 35.2358 135.591 35.6407 135.601 36.0159C135.601 36.3912 135.611 36.7072 135.611 36.9738C135.631 37.5762 135.65 38.07 135.69 38.4552C135.729 38.8403 135.848 39.1662 136.035 39.4131C136.173 39.5908 136.391 39.7291 136.677 39.8476C136.963 39.9661 137.368 40.0254 137.91 40.0254C138.364 40.0254 138.868 39.9957 139.401 39.9266C139.934 39.8674 140.457 39.6995 140.96 39.4328C141.621 39.0872 142.135 38.623 142.5 38.0503C142.865 37.4775 143.043 36.7862 143.043 35.9764C143.043 35.5221 142.964 35.0876 142.816 34.6827L142.825 34.6926Z" fill="#203A52"/>
<path d="M162.732 40.4007H148.234V40.1636C148.629 40.1044 148.994 39.9958 149.339 39.8575C149.675 39.7193 149.961 39.5217 150.178 39.265C150.257 39.1662 150.316 39.028 150.366 38.8502C150.415 38.6725 150.454 38.4552 150.494 38.2182C150.533 37.9812 150.563 37.7343 150.573 37.4676C150.593 37.2109 150.593 36.9541 150.593 36.6974C150.593 36.4801 150.593 36.174 150.603 35.7987C150.603 35.4234 150.622 35.0086 150.622 34.5544C150.622 34.1001 150.632 33.6458 150.632 33.1718V27.1774C150.632 26.891 150.632 26.6046 150.622 26.2985C150.622 26.0022 150.603 25.7158 150.573 25.4492C150.553 25.1825 150.514 24.9357 150.454 24.7283C150.395 24.511 150.326 24.3629 150.227 24.2641C149.991 24.0074 149.734 23.8494 149.468 23.7802C149.201 23.7111 148.856 23.642 148.421 23.5827V23.3457H161.498L163.107 27.2564L162.87 27.3749C161.587 25.7751 160.393 24.7085 159.268 24.1555C159.001 24.0271 158.498 23.9185 157.778 23.8197C157.047 23.721 156.169 23.6815 155.123 23.6815C154.787 23.6815 154.452 23.6913 154.096 23.721C153.741 23.7407 153.484 23.7703 153.326 23.8C153.297 24.0567 153.267 24.5703 153.248 25.3603C153.228 26.1503 153.208 27.0688 153.208 28.1057V29.6265C153.208 30.0413 153.208 30.377 153.218 30.6338C153.218 30.8906 153.228 31.098 153.228 31.2362V31.493H153.702C153.938 31.493 154.215 31.493 154.521 31.4732C154.827 31.4535 155.133 31.4337 155.448 31.414C155.754 31.3942 156.011 31.3547 156.218 31.3053C156.692 31.1967 157.087 31.0486 157.403 30.8511C157.718 30.6634 157.975 30.4363 158.172 30.1598C158.37 29.8931 158.528 29.5771 158.646 29.2216C158.764 28.8661 158.873 28.4711 158.962 28.0267H159.248V35.4925H158.962C158.834 34.9889 158.646 34.4655 158.38 33.9322C158.113 33.3989 157.847 32.994 157.56 32.7274C157.304 32.5102 157.008 32.3225 156.652 32.1843C156.297 32.046 155.883 31.9571 155.409 31.9275C155.172 31.9077 154.975 31.8979 154.817 31.888C154.659 31.888 154.501 31.8781 154.343 31.8781H153.257C153.228 32.0954 153.208 32.4213 153.208 32.8459V35.6901C153.208 35.9468 153.208 36.1838 153.218 36.411C153.218 36.6381 153.228 36.8356 153.228 36.9936C153.248 37.4973 153.267 37.9812 153.307 38.4256C153.346 38.8798 153.435 39.2156 153.583 39.4329C153.721 39.6501 154.067 39.8081 154.6 39.9069C155.133 40.0056 155.725 40.0451 156.356 40.0451C156.623 40.0451 156.968 40.0451 157.383 40.0254C157.797 40.0056 158.241 39.9661 158.695 39.9069C159.199 39.8476 159.663 39.7193 160.097 39.5415C160.521 39.3637 160.936 39.107 161.33 38.7712C161.725 38.4354 162.11 38.0305 162.475 37.5466C162.85 37.0627 163.225 36.4801 163.62 35.8086L163.877 35.8777L162.692 40.4007H162.732Z" fill="#203A52"/>
<path d="M180.122 40.4007H164.913V40.1636C165.308 40.1044 165.703 39.9958 166.088 39.8575C166.472 39.7192 166.778 39.5217 166.995 39.265C167.074 39.1662 167.144 39.028 167.193 38.8502C167.252 38.6724 167.292 38.4552 167.321 38.2182C167.351 37.9812 167.38 37.7343 167.4 37.4676C167.42 37.2109 167.44 36.9541 167.44 36.6973C167.44 36.4801 167.44 36.1739 167.449 35.7987C167.449 35.4234 167.469 35.0086 167.469 34.5544C167.469 34.1001 167.479 33.6458 167.479 33.1718V26.3676C167.479 26.0812 167.469 25.8146 167.44 25.5775C167.41 25.3405 167.38 25.1134 167.331 24.9258C167.282 24.7381 167.213 24.59 167.114 24.4715C166.897 24.2049 166.601 23.9975 166.226 23.8592C165.851 23.721 165.466 23.6222 165.051 23.5728V23.3358H172.611V23.5728C172.404 23.6025 172.157 23.6518 171.881 23.7111C171.595 23.7703 171.328 23.879 171.072 24.0172C170.815 24.1555 170.598 24.3629 170.42 24.6196C170.243 24.8764 170.144 25.222 170.124 25.6467C170.104 26.1997 170.094 26.7034 170.085 27.1675C170.085 27.6218 170.065 28.076 170.065 28.5204C170.065 28.9648 170.055 29.4191 170.055 29.8931V34.2087C170.055 34.6235 170.055 35.0383 170.065 35.4728C170.065 35.9073 170.075 36.3912 170.075 36.9344C170.094 37.438 170.114 37.9219 170.134 38.3762C170.154 38.8304 170.243 39.1761 170.381 39.3934C170.44 39.4724 170.568 39.5514 170.756 39.6304C170.943 39.7094 171.17 39.7785 171.447 39.8279C171.713 39.8871 172.009 39.9266 172.325 39.9661C172.641 40.0056 172.957 40.0254 173.272 40.0254C173.401 40.0254 173.598 40.0254 173.874 40.0155C174.151 40.0155 174.457 39.9958 174.782 39.9661C175.118 39.9464 175.454 39.9069 175.799 39.8575C176.144 39.8081 176.45 39.7489 176.727 39.6699C177.358 39.4921 177.881 39.265 178.306 38.9786C178.72 38.6922 179.085 38.3663 179.382 37.991C179.678 37.6158 179.934 37.2207 180.141 36.7862C180.349 36.3517 180.546 35.8974 180.734 35.4234L180.97 35.4925L180.092 40.371L180.122 40.4007Z" fill="#203A52"/>
<path d="M15.5209 68.8421V68.605C16.1032 68.5557 16.5966 68.447 16.9914 68.289C17.3862 68.1211 17.6428 67.9335 17.7711 67.736C17.8007 67.6866 17.8303 67.5977 17.85 67.4496C17.8698 67.3015 17.8895 67.1435 17.9092 66.9558C17.929 66.7682 17.9388 66.5707 17.9487 66.3633C17.9487 66.1559 17.9586 65.9584 17.9586 65.7708C17.9783 65.2474 17.9783 64.7141 17.9783 64.1611V60.4183H8.63207V65.514C8.63207 65.9683 8.63207 66.4127 8.65181 66.8373C8.67155 67.262 8.74063 67.5681 8.86893 67.736C9.05645 68.0026 9.32292 68.21 9.67822 68.3483C10.0236 68.4865 10.3691 68.5754 10.6948 68.605V68.8421H3.70728V68.605C4.10205 68.5458 4.47708 68.4372 4.84225 68.289C5.20741 68.1409 5.48375 67.9533 5.67127 67.736C5.73049 67.657 5.7897 67.5286 5.82918 67.341C5.86866 67.1632 5.89827 66.946 5.92787 66.709C5.94761 66.4719 5.96735 66.2152 5.98709 65.9387C6.00683 65.6622 6.00683 65.3955 6.00683 65.1486C6.00683 64.9314 6.00683 64.6252 6.0167 64.25C6.0167 63.8747 6.03644 63.4599 6.03644 63.0056C6.03644 62.5514 6.04631 62.0971 6.04631 61.6231V54.7695C6.04631 54.4831 6.03644 54.2165 6.00683 53.9795C5.97722 53.7424 5.94761 53.5153 5.89827 53.3178C5.84892 53.1203 5.77983 52.9623 5.68114 52.8536C5.46402 52.587 5.18767 52.3895 4.86199 52.271C4.5363 52.1525 4.17113 52.0735 3.75662 52.0241V51.7871H10.8132V52.0241C10.5961 52.0537 10.3592 52.1031 10.1026 52.1624C9.846 52.2216 9.619 52.3302 9.41175 52.4586C9.20449 52.5969 9.03671 52.7746 8.88867 53.0117C8.74063 53.2487 8.67155 53.5449 8.65181 53.9103C8.63207 54.4634 8.6222 55.0559 8.61233 55.6978C8.61233 56.3397 8.60246 56.952 8.60246 57.5346V59.9245H17.9586V56.1126C17.9586 55.6978 17.9586 55.2336 17.9388 54.7102C17.9191 54.414 17.8994 54.098 17.8796 53.7721C17.8599 53.4462 17.7809 53.1795 17.6526 52.982C17.3664 52.5574 17.0407 52.2907 16.6854 52.192C16.3203 52.0932 15.9551 52.034 15.5998 52.0142V51.7772H22.7255V52.0142C22.3504 52.0636 21.9754 52.1722 21.6102 52.3303C21.2451 52.4981 20.9786 52.7351 20.801 53.0512C20.7417 53.1598 20.6924 53.3178 20.6628 53.5153C20.6332 53.7128 20.6036 53.9301 20.5937 54.177C20.574 54.4239 20.574 54.6707 20.574 54.9275V62.6798C20.574 63.1242 20.574 63.5784 20.5838 64.0524C20.5838 64.5265 20.5937 65.0499 20.5937 65.6128C20.5937 66.067 20.6036 66.4917 20.6332 66.8768C20.6529 67.262 20.7121 67.5286 20.8108 67.6669C21.0181 67.9829 21.2944 68.2002 21.6398 68.3285C21.9853 68.4569 22.3702 68.5458 22.7748 68.5853V68.8223H15.5011L15.5209 68.8421Z" fill="#203A52"/>
<path d="M42.1681 63.6969C41.6943 64.7733 41.0528 65.7016 40.2337 66.4917C39.4244 67.2817 38.4769 67.894 37.3913 68.3186C36.3057 68.7433 35.1608 68.9605 33.9469 68.9605C32.733 68.9605 31.6079 68.7531 30.5321 68.3285C29.4564 67.9137 28.5188 67.3212 27.7095 66.5509C26.9002 65.7806 26.2686 64.8721 25.8047 63.8055C25.3409 62.739 25.104 61.5638 25.104 60.2898C25.104 58.927 25.3507 57.7123 25.8343 56.626C26.3278 55.5397 26.9792 54.6312 27.8082 53.8807C28.6372 53.1301 29.6044 52.5573 30.7197 52.1525C31.8349 51.7476 33.0093 51.55 34.2331 51.55C35.5754 51.55 36.7794 51.7871 37.8453 52.2611C38.9112 52.7351 39.8192 53.3671 40.5594 54.1671C41.2996 54.967 41.872 55.8854 42.2668 56.9322C42.6615 57.979 42.8589 59.0653 42.8589 60.201C42.8589 61.465 42.6221 62.6303 42.1483 63.7068L42.1681 63.6969ZM39.5823 57.2976C39.3356 56.3199 38.9704 55.4311 38.4671 54.6312C37.9736 53.8313 37.3518 53.1894 36.6116 52.6857C35.8714 52.192 34.9931 51.9352 33.9864 51.9352C32.9797 51.9352 32.0717 52.1821 31.3217 52.6857C30.5716 53.1795 29.9597 53.8313 29.4761 54.6213C28.9925 55.4114 28.6372 56.31 28.4102 57.3075C28.1832 58.3148 28.0648 59.3221 28.0648 60.3491C28.0648 61.3762 28.1931 62.4625 28.4398 63.45C28.6964 64.4474 29.0715 65.3263 29.5649 66.0769C30.0584 66.8373 30.69 67.4397 31.4401 67.9038C32.1902 68.3581 33.0587 68.5951 34.0555 68.5951C35.0523 68.5951 35.9109 68.3384 36.6511 67.8347C37.3814 67.3311 37.9933 66.6793 38.4868 65.8794C38.9803 65.0795 39.3454 64.1808 39.5922 63.1932C39.8389 62.2057 39.9573 61.1984 39.9573 60.2108C39.9573 59.2233 39.8389 58.2753 39.5922 57.2976H39.5823Z" fill="#203A52"/>
<path d="M56.7747 66.2053C56.4687 66.8077 56.0443 67.3213 55.4917 67.7459C54.9489 68.1705 54.2975 68.4866 53.5375 68.6939C52.7776 68.9013 51.9486 69.0001 51.0505 69.0001C50.2807 69.0001 49.6095 68.9507 49.0569 68.8618C48.5042 68.7631 48.0502 68.6544 47.685 68.5162C47.3199 68.3779 47.0534 68.2594 46.8659 68.1508C46.6882 68.0422 46.5698 67.9829 46.5204 67.9829C46.4711 67.9829 46.3724 68.0817 46.2145 68.2693C46.0566 68.4569 45.9184 68.6446 45.7901 68.8125H45.573L45.5039 64.092H45.7408C45.8789 64.5166 46.0665 64.9314 46.2836 65.3363C46.5007 65.7412 46.7474 66.1164 47.004 66.472C47.2606 66.8275 47.537 67.1435 47.8331 67.4101C48.1291 67.6768 48.4055 67.8842 48.672 68.0224C48.9384 68.1607 49.2937 68.3088 49.7378 68.4471C50.182 68.5853 50.6063 68.6643 51.0209 68.6643C52.1854 68.6643 53.1329 68.3483 53.8632 67.7064C54.5936 67.0645 54.9489 66.2053 54.9489 65.1091C54.9489 64.6648 54.8798 64.2796 54.7317 63.9438C54.5837 63.6081 54.3962 63.3217 54.1494 63.0748C53.9027 62.8279 53.6165 62.6205 53.2809 62.4428C52.9454 62.265 52.5901 62.107 52.215 61.9687C51.84 61.8305 51.5045 61.712 51.2182 61.6132C50.932 61.5145 50.6656 61.4256 50.4287 61.3367C50.182 61.2478 49.9352 61.159 49.6688 61.08C49.4122 60.9911 49.0963 60.8824 48.7312 60.7343C48.3167 60.5763 47.9219 60.359 47.5469 60.0825C47.1718 59.806 46.8363 59.4801 46.5501 59.1147C46.2638 58.7395 46.0368 58.3346 45.8592 57.8803C45.6816 57.426 45.6026 56.952 45.6026 56.4483C45.6026 55.5991 45.7605 54.8584 46.0665 54.2461C46.3823 53.6338 46.7968 53.1203 47.3199 52.7055C47.8429 52.2908 48.4548 51.9945 49.1358 51.797C49.8168 51.5995 50.5471 51.5007 51.3071 51.5007C52.0177 51.5007 52.6296 51.56 53.1329 51.6785C53.6362 51.797 54.0507 51.9254 54.3764 52.0735C54.7021 52.2118 54.9489 52.35 55.1068 52.4685C55.2647 52.587 55.3634 52.6463 55.3831 52.6463C55.4324 52.6463 55.5311 52.5475 55.6792 52.3599C55.8272 52.1723 55.9654 51.9846 56.0937 51.7871H56.3503V56.1718H56.0937C55.9062 55.6484 55.6594 55.1349 55.3634 54.6214C55.0673 54.1079 54.712 53.6536 54.3172 53.2487C53.9224 52.8438 53.4685 52.5179 52.9651 52.2611C52.4618 52.0044 51.8992 51.8859 51.2873 51.8859C50.7939 51.8859 50.3399 51.955 49.9056 52.1031C49.4714 52.2414 49.0963 52.4587 48.7707 52.745C48.445 53.0314 48.1982 53.3771 48.0107 53.8017C47.8331 54.2165 47.7344 54.7004 47.7344 55.2337C47.7344 56.0731 47.991 56.7446 48.4943 57.2483C48.9976 57.7519 49.649 58.1568 50.4583 58.4531C50.7741 58.5815 51.0702 58.6901 51.3465 58.7888C51.6229 58.8876 51.8894 58.9765 52.1657 59.0654C52.4322 59.1542 52.7085 59.2431 52.9849 59.3419C53.2612 59.4406 53.5474 59.5394 53.8435 59.648C54.9192 60.043 55.7483 60.6158 56.3404 61.3663C56.9326 62.1169 57.2287 63.055 57.2287 64.171C57.2287 64.9314 57.0708 65.6128 56.7648 66.2053H56.7747Z" fill="#203A52"/>
<path d="M73.5821 58.295C73.3946 58.769 73.1479 59.1838 72.832 59.5492C72.5261 59.9146 72.1609 60.2207 71.7563 60.4873C71.3418 60.7441 70.9273 60.9614 70.5029 61.1194C70.0588 61.2774 69.585 61.3959 69.0817 61.4749C68.5784 61.5539 68.0652 61.6132 67.552 61.6527C67.0388 61.6922 66.5354 61.7119 66.0518 61.7119H64.7688V63.9438C64.7688 64.2104 64.7688 64.4573 64.7787 64.6943C64.7787 64.9214 64.7885 65.1683 64.7885 65.4448C64.8083 65.9485 64.8182 66.383 64.8379 66.7484C64.8576 67.1138 64.9366 67.4101 65.0945 67.6471C65.2228 67.8545 65.4695 68.0618 65.8248 68.2594C66.19 68.4667 66.6933 68.5852 67.3447 68.6149V68.8519H59.7651V68.6149C60.1598 68.5556 60.5349 68.4569 60.9 68.3285C61.2652 68.2001 61.5514 68.0125 61.7488 67.7557C61.8277 67.6569 61.887 67.5187 61.9363 67.3311C61.9857 67.1434 62.0153 66.9262 62.0449 66.6892C62.0646 66.4521 62.0844 66.1954 62.1041 65.9287C62.1238 65.6621 62.1238 65.3955 62.1238 65.1486C62.1238 64.9313 62.1238 64.6252 62.1337 64.2499C62.1337 63.8746 62.1534 63.4599 62.1534 63.0056C62.1534 62.5513 62.1633 62.0971 62.1633 61.623V55.6286C62.1633 55.3422 62.1633 55.0558 62.1534 54.7596C62.1436 54.4633 62.1337 54.1868 62.1041 53.93C62.0844 53.6733 62.0449 53.4363 61.9857 53.219C61.9264 53.0017 61.8574 52.8536 61.7587 52.7548C61.5218 52.4981 61.2159 52.3302 60.8507 52.2413C60.4757 52.1524 60.0809 52.0833 59.6565 52.0142V51.7772H60.2289C60.525 51.7772 60.8803 51.7772 61.2849 51.7673C61.6896 51.7574 62.1238 51.7574 62.5976 51.7574C63.0713 51.7574 63.545 51.7574 64.0089 51.7475C64.4727 51.7475 64.9169 51.7377 65.3215 51.7377H66.3874C67.4335 51.7377 68.3514 51.787 69.1607 51.8957C69.9699 51.9944 70.72 52.2512 71.4306 52.6462C72.1215 53.0215 72.7037 53.5646 73.1577 54.2559C73.6117 54.9472 73.8486 55.7767 73.8486 56.7248C73.8486 57.3074 73.7499 57.8407 73.5624 58.3147L73.5821 58.295ZM70.6114 54.1473C70.1476 53.4363 69.5357 52.903 68.7758 52.5376C68.4007 52.3598 67.9961 52.2413 67.5717 52.1821C67.1473 52.1228 66.7032 52.0833 66.2492 52.0833C65.9136 52.0833 65.657 52.0932 65.4794 52.1228C65.3018 52.1426 65.1537 52.1623 65.0452 52.1821C65.0254 52.2808 65.0057 52.3598 64.9859 52.429C64.9662 52.4981 64.9465 52.587 64.9267 52.7055C64.907 52.8141 64.8971 52.9721 64.8774 53.1696C64.8576 53.3671 64.8478 53.6436 64.828 54.009C64.8083 54.5621 64.7984 55.2336 64.7885 56.0236C64.7885 56.8137 64.7787 57.584 64.7787 58.3444V61.3761C65.4301 61.3761 66.0321 61.3564 66.6045 61.3169C67.1769 61.2774 67.7 61.1688 68.1935 61.0009C69.2001 60.6552 69.9798 60.0825 70.5128 59.2825C71.0457 58.4826 71.322 57.584 71.322 56.5964C71.322 55.678 71.0852 54.8682 70.6213 54.1572L70.6114 54.1473Z" fill="#203A52"/>
<path d="M75.9015 68.8421V68.6051C76.2962 68.5458 76.6614 68.4372 77.0068 68.2989C77.3424 68.1607 77.6385 67.9533 77.8753 67.6866C77.9543 67.5879 78.0135 67.4595 78.053 67.2817C78.0925 67.104 78.1221 66.9065 78.1517 66.6695C78.1714 66.4325 78.1912 66.1856 78.201 65.9189C78.2109 65.6523 78.2109 65.4054 78.2109 65.1486C78.2109 64.9314 78.2109 64.6252 78.2208 64.25C78.2208 63.8747 78.2405 63.4599 78.2405 63.0057C78.2405 62.5514 78.2504 62.0971 78.2504 61.6231V54.7695C78.2504 54.4831 78.2405 54.2165 78.2109 53.9795C78.1912 53.7326 78.1517 53.5153 78.1023 53.3178C78.053 53.1203 77.9839 52.9623 77.8852 52.8537C77.6681 52.587 77.3917 52.3895 77.066 52.271C76.7404 52.1525 76.3752 52.0735 75.9607 52.0241V51.7871H83.0469V52.0241C82.7113 52.0735 82.356 52.1624 81.981 52.2809C81.6059 52.4093 81.3099 52.6562 81.1026 53.0413C80.9644 53.3079 80.8855 53.6536 80.8756 54.0585C80.8756 54.4732 80.8559 54.8584 80.8361 55.2238C80.8361 55.6188 80.8361 56.0138 80.8263 56.399C80.8263 56.7841 80.8164 57.1791 80.8164 57.5741V65.514C80.8164 65.9683 80.8164 66.4127 80.8361 66.8373C80.8559 67.262 80.925 67.5681 81.0533 67.736C81.2408 68.0027 81.5467 68.21 81.9514 68.3483C82.3659 68.4865 82.731 68.5754 83.0666 68.6051V68.8421H75.8916H75.9015Z" fill="#203A52"/>
<path d="M102.292 56.231C102.164 55.9446 102.016 55.6484 101.838 55.3422C101.66 55.0361 101.483 54.7497 101.305 54.4732C101.127 54.2065 100.95 53.9596 100.772 53.7226C100.594 53.4955 100.446 53.3276 100.318 53.2091C99.9826 52.8931 99.6273 52.6857 99.2424 52.5771C98.8575 52.4783 98.364 52.4191 97.762 52.3993C97.4659 52.3993 97.1994 52.3993 96.9823 52.3894C96.7652 52.3894 96.5382 52.3796 96.321 52.3796H94.7617C94.7617 52.7746 94.7617 53.3079 94.7518 53.9893C94.7518 54.6707 94.742 55.3817 94.742 56.1224V65.3856C94.742 65.8398 94.7518 66.2842 94.7814 66.699C94.8012 67.1138 94.8801 67.4101 95.0084 67.5878C95.2453 67.9335 95.5809 68.1705 96.0151 68.2988C96.4494 68.4272 96.8441 68.5161 97.1895 68.5852V68.8222H89.4915V68.5852C89.906 68.5359 90.3008 68.4569 90.6758 68.3482C91.0508 68.2396 91.4259 67.973 91.791 67.5681C91.87 67.4891 91.9292 67.3607 91.9687 67.173C92.0082 66.9953 92.0378 66.7879 92.0674 66.5608C92.0871 66.3336 92.1068 66.0867 92.1167 65.8102C92.1266 65.5337 92.1266 65.2769 92.1266 65.0301C92.1266 64.8128 92.1266 64.5165 92.1365 64.1511C92.1365 63.7857 92.1562 63.3809 92.1562 62.9463C92.1562 62.5019 92.1661 62.0477 92.1661 61.5736V52.3796H90.6067C90.3995 52.3796 90.1823 52.3796 89.9553 52.3894C89.7283 52.3894 89.4619 52.3993 89.1658 52.3993C88.5638 52.4191 88.0703 52.4882 87.6854 52.6166C87.3005 52.745 86.9353 52.9622 86.6096 53.2782C86.4813 53.3869 86.3333 53.5547 86.1754 53.772C86.0076 53.9893 85.8398 54.2362 85.6523 54.4929C85.4747 54.7497 85.297 55.0361 85.1292 55.3323C84.9615 55.6286 84.8332 55.9249 84.7345 56.2113L84.5173 56.1421L85.2279 51.6389C85.5931 51.7179 85.9286 51.7772 86.2346 51.8265C86.5405 51.8759 86.9847 51.9055 87.5768 51.9253C88.1789 51.945 88.7118 51.9549 89.1855 51.9648C89.6592 51.9648 90.1132 51.9747 90.5574 51.9747H95.0578C95.5315 51.9747 95.9855 51.9747 96.4296 51.9648C96.8737 51.9648 97.3277 51.945 97.8014 51.945C98.2752 51.945 98.8081 51.9352 99.4101 51.9352C99.9332 51.9154 100.358 51.8759 100.703 51.8068C101.039 51.7377 101.394 51.6488 101.759 51.5303L102.519 56.152L102.302 56.2211L102.292 56.231Z" fill="#203A52"/>
<path d="M113.158 68.842V68.605C113.158 68.605 113.316 68.5853 113.503 68.5556C113.681 68.526 113.878 68.4667 114.076 68.3877C114.273 68.3087 114.451 68.2001 114.599 68.052C114.747 67.9137 114.826 67.7261 114.826 67.5088C114.826 67.3706 114.786 67.1336 114.698 66.8077C114.609 66.4818 114.49 66.0868 114.332 65.6226C114.175 65.1585 113.997 64.6351 113.79 64.0722C113.582 63.4994 113.365 62.9069 113.128 62.2946H106.832C106.595 62.897 106.368 63.4698 106.141 64.0129C105.924 64.5561 105.697 65.1091 105.48 65.6621C105.144 66.5114 104.986 67.1138 104.986 67.4595C104.986 67.6668 105.045 67.8347 105.174 67.973C105.302 68.1112 105.46 68.2199 105.657 68.3087C105.855 68.3976 106.072 68.4569 106.299 68.4964C106.526 68.5359 106.743 68.5754 106.95 68.605V68.842H101.907V68.5853C102.321 68.5359 102.667 68.4272 102.963 68.2495C103.259 68.0717 103.427 67.9532 103.476 67.894C103.585 67.7853 103.772 67.5187 104.019 67.1138C104.276 66.699 104.582 66.0966 104.947 65.2868C105.282 64.5462 105.647 63.6969 106.062 62.7488C106.476 61.8008 106.891 60.8231 107.325 59.8257C107.759 58.8184 108.194 57.8111 108.618 56.7939C109.043 55.7768 109.447 54.8188 109.822 53.9399L109.585 53.4165C109.872 53.2881 110.128 53.14 110.355 52.9622C110.582 52.7845 110.789 52.6067 110.957 52.4191C111.135 52.2315 111.273 52.0438 111.391 51.8759C111.51 51.6982 111.599 51.5599 111.668 51.4513H111.855C112.349 52.7647 112.813 54.009 113.257 55.1842C113.701 56.3594 114.125 57.4951 114.52 58.5814C114.925 59.6677 115.31 60.7244 115.694 61.7415C116.069 62.7587 116.454 63.766 116.829 64.7634C117.007 65.2572 117.165 65.6621 117.313 65.988C117.461 66.3139 117.629 66.6793 117.826 67.0941C117.856 67.1533 117.925 67.2718 118.043 67.4298C118.152 67.5878 118.3 67.7458 118.478 67.9137C118.655 68.0816 118.882 68.2297 119.149 68.3482C119.415 68.4766 119.731 68.5458 120.096 68.5655V68.8519H113.178L113.158 68.842ZM110.059 54.4732C109.96 54.6806 109.822 55.0065 109.645 55.441C109.467 55.8854 109.24 56.4187 108.973 57.0507C108.707 57.6827 108.411 58.3938 108.085 59.1937C107.759 59.9936 107.414 60.8528 107.029 61.7909H112.931C112.665 61.0799 112.388 60.3689 112.112 59.6578C111.836 58.9468 111.569 58.2654 111.303 57.6037C111.046 56.9519 110.809 56.3495 110.592 55.8064C110.375 55.2632 110.197 54.8188 110.059 54.4633V54.4732Z" fill="#203A52"/>
<path d="M135.779 68.8421H120.57V68.605C120.965 68.5458 121.36 68.4372 121.745 68.2989C122.129 68.1606 122.435 67.9631 122.652 67.7064C122.731 67.6076 122.801 67.4694 122.85 67.2916C122.909 67.1138 122.949 66.8966 122.978 66.6596C123.008 66.4226 123.037 66.1757 123.057 65.909C123.077 65.6523 123.097 65.3955 123.097 65.1387C123.097 64.9215 123.097 64.6153 123.106 64.2401C123.106 63.8648 123.126 63.45 123.126 62.9958C123.126 62.5415 123.136 62.0872 123.136 61.6132V54.809C123.136 54.5226 123.126 54.256 123.097 54.019C123.067 53.7819 123.037 53.5548 122.988 53.3672C122.939 53.1795 122.87 53.0314 122.771 52.9129C122.554 52.6463 122.258 52.4389 121.883 52.3006C121.508 52.1624 121.123 52.0636 120.708 52.0142V51.7772H128.268V52.0142C128.061 52.0439 127.814 52.0932 127.538 52.1525C127.252 52.2117 126.985 52.3204 126.729 52.4586C126.472 52.5969 126.255 52.8043 126.077 53.061C125.9 53.3178 125.801 53.6634 125.781 54.0881C125.761 54.6411 125.751 55.1448 125.742 55.6089C125.742 56.0632 125.722 56.5175 125.722 56.9618C125.722 57.4062 125.712 57.8605 125.712 58.3345V62.6501C125.712 63.0649 125.712 63.4797 125.722 63.9142C125.722 64.3487 125.732 64.8326 125.732 65.3758C125.751 65.8794 125.771 66.3633 125.791 66.8176C125.811 67.2719 125.9 67.6175 126.038 67.8348C126.097 67.9138 126.225 67.9928 126.413 68.0718C126.6 68.1508 126.827 68.2199 127.104 68.2693C127.37 68.3285 127.666 68.368 127.982 68.4075C128.298 68.447 128.614 68.4668 128.929 68.4668C129.058 68.4668 129.255 68.4668 129.531 68.4569C129.808 68.4569 130.114 68.4372 130.439 68.4075C130.775 68.3878 131.111 68.3483 131.456 68.2989C131.801 68.2495 132.107 68.1903 132.384 68.1113C133.015 67.9335 133.538 67.7064 133.963 67.42C134.377 67.1336 134.742 66.8077 135.039 66.4324C135.335 66.0572 135.591 65.6621 135.798 65.2276C136.006 64.7931 136.203 64.3388 136.391 63.8648L136.627 63.9339L135.749 68.8124L135.779 68.8421Z" fill="#203A52"/>
<path d="M138.078 68.8421V68.6051C138.473 68.5458 138.838 68.4372 139.184 68.2989C139.519 68.1607 139.815 67.9533 140.052 67.6866C140.131 67.5879 140.19 67.4595 140.23 67.2817C140.269 67.104 140.299 66.9065 140.328 66.6695C140.348 66.4325 140.368 66.1856 140.378 65.9189C140.388 65.6523 140.388 65.4054 140.388 65.1486C140.388 64.9314 140.388 64.6252 140.398 64.25C140.398 63.8747 140.417 63.4599 140.417 63.0057C140.417 62.5514 140.427 62.0971 140.427 61.6231V54.7695C140.427 54.4831 140.417 54.2165 140.388 53.9795C140.368 53.7326 140.328 53.5153 140.279 53.3178C140.23 53.1203 140.161 52.9623 140.062 52.8537C139.845 52.587 139.568 52.3895 139.243 52.271C138.917 52.1525 138.552 52.0735 138.137 52.0241V51.7871H145.224V52.0241C144.888 52.0735 144.533 52.1624 144.158 52.2809C143.783 52.4093 143.487 52.6562 143.279 53.0413C143.141 53.3079 143.062 53.6536 143.052 54.0585C143.052 54.4732 143.033 54.8584 143.013 55.2238C143.013 55.6188 143.013 56.0138 143.003 56.399C143.003 56.7841 142.993 57.1791 142.993 57.5741V65.514C142.993 65.9683 142.993 66.4127 143.013 66.8373C143.033 67.262 143.102 67.5681 143.23 67.736C143.418 68.0027 143.723 68.21 144.128 68.3483C144.543 68.4865 144.908 68.5754 145.243 68.6051V68.8421H138.068H138.078Z" fill="#203A52"/>
<path d="M164.459 56.231C164.331 55.9446 164.183 55.6484 164.005 55.3422C163.827 55.0361 163.65 54.7497 163.472 54.4732C163.294 54.2065 163.117 53.9596 162.939 53.7226C162.761 53.4955 162.613 53.3276 162.485 53.2091C162.15 52.8931 161.794 52.6857 161.409 52.5771C161.024 52.4783 160.531 52.4191 159.929 52.3993C159.633 52.3993 159.366 52.3993 159.149 52.3894C158.932 52.3894 158.705 52.3796 158.488 52.3796H156.929C156.929 52.7746 156.929 53.3079 156.919 53.9893C156.919 54.6707 156.909 55.3817 156.909 56.1224V65.3856C156.909 65.8398 156.919 66.2842 156.948 66.699C156.968 67.1138 157.047 67.4101 157.175 67.5878C157.412 67.9335 157.748 68.1705 158.182 68.2988C158.616 68.4272 159.011 68.5161 159.357 68.5852V68.8222H151.658V68.5852C152.073 68.5359 152.468 68.4569 152.843 68.3482C153.218 68.2396 153.593 67.973 153.958 67.5681C154.037 67.4891 154.096 67.3607 154.136 67.173C154.175 66.9953 154.205 66.7879 154.234 66.5608C154.254 66.3336 154.274 66.0867 154.284 65.8102C154.294 65.5337 154.294 65.2769 154.294 65.0301C154.294 64.8128 154.294 64.5165 154.303 64.1511C154.303 63.7857 154.323 63.3809 154.323 62.9463C154.323 62.5019 154.333 62.0477 154.333 61.5736V52.3796H152.774C152.566 52.3796 152.349 52.3796 152.122 52.3894C151.895 52.3894 151.629 52.3993 151.333 52.3993C150.731 52.4191 150.237 52.4882 149.852 52.6166C149.467 52.745 149.102 52.9622 148.777 53.2782C148.648 53.3869 148.5 53.5547 148.342 53.772C148.175 53.9893 148.007 54.2362 147.819 54.4929C147.642 54.7497 147.464 55.0361 147.296 55.3323C147.128 55.6286 147 55.9249 146.901 56.2113L146.684 56.1421L147.395 51.6389C147.76 51.7179 148.096 51.7772 148.402 51.8265C148.708 51.8759 149.152 51.9055 149.744 51.9253C150.346 51.945 150.879 51.9549 151.353 51.9648C151.826 51.9648 152.28 51.9747 152.724 51.9747H157.225C157.698 51.9747 158.152 51.9747 158.597 51.9648C159.041 51.9648 159.495 51.945 159.968 51.945C160.442 51.945 160.975 51.9352 161.577 51.9352C162.1 51.9154 162.525 51.8759 162.87 51.8068C163.206 51.7377 163.561 51.6488 163.926 51.5303L164.686 56.152L164.469 56.2211L164.459 56.231Z" fill="#203A52"/>
<path d="M179.855 52.3401C179.539 52.4981 179.243 52.7055 178.977 52.9524C178.71 53.2091 178.454 53.5054 178.207 53.851C177.96 54.1967 177.694 54.5917 177.417 55.0361C177.23 55.3324 176.963 55.7471 176.628 56.2607C176.292 56.7742 175.937 57.3075 175.582 57.8605C175.226 58.4135 174.881 58.9468 174.555 59.4504C174.22 59.9541 173.963 60.3491 173.776 60.6355V65.3955C173.776 65.8497 173.785 66.304 173.815 66.7385C173.835 67.1731 173.914 67.4792 174.042 67.6471C174.279 67.9927 174.585 68.2199 174.97 68.3384C175.355 68.4569 175.71 68.5359 176.055 68.5951V68.8321H168.762V68.5951C169.177 68.5458 169.532 68.4766 169.838 68.368C170.144 68.2594 170.469 68.0125 170.825 67.6175C170.904 67.5385 170.963 67.4002 171.002 67.2126C171.042 67.0249 171.071 66.8077 171.101 66.5707C171.121 66.3336 171.141 66.0769 171.15 65.8102C171.15 65.5436 171.16 65.277 171.16 65.0301C171.18 64.5857 171.19 64.0623 171.2 63.45C171.2 62.8377 171.21 62.1069 171.21 61.2379C171.18 61.1885 171.081 61.0404 170.923 60.7836C170.765 60.5269 170.568 60.2207 170.341 59.8455C170.114 59.4702 169.857 59.0554 169.581 58.6011C169.305 58.1469 169.028 57.6926 168.762 57.2581C168.496 56.8236 168.239 56.4187 168.002 56.0335C167.765 55.6582 167.568 55.3422 167.41 55.1052C167.114 54.6509 166.837 54.2263 166.591 53.851C166.344 53.4758 166.097 53.1499 165.841 52.8832C165.584 52.6166 165.337 52.3993 165.091 52.2413C164.844 52.0833 164.568 51.9944 164.252 51.9846V51.7476H171.427V51.9846C171.19 52.0043 170.953 52.0241 170.716 52.0537C170.479 52.0833 170.262 52.1327 170.055 52.2117C169.848 52.2808 169.68 52.3796 169.561 52.4981C169.433 52.6166 169.374 52.7746 169.374 52.982C169.374 53.1894 169.492 53.4955 169.719 53.9202C169.946 54.3448 170.193 54.7596 170.44 55.1842C170.617 55.4706 170.815 55.8163 171.052 56.2113C171.289 56.6063 171.545 57.0408 171.831 57.4951C172.118 57.9494 172.404 58.4036 172.7 58.8777C172.996 59.3517 173.262 59.806 173.519 60.2306C173.726 59.9343 173.973 59.5492 174.279 59.085C174.575 58.6209 174.881 58.1469 175.187 57.663C175.493 57.1791 175.789 56.7149 176.065 56.2804C176.342 55.836 176.549 55.4904 176.697 55.2336C176.776 55.1052 176.865 54.9571 176.954 54.7991C177.052 54.6312 177.141 54.4633 177.23 54.2757C177.319 54.0979 177.388 53.9103 177.457 53.7227C177.516 53.535 177.556 53.3573 177.556 53.1993C177.556 52.9524 177.496 52.745 177.368 52.6067C177.24 52.4685 177.082 52.35 176.884 52.271C176.687 52.192 176.47 52.1327 176.233 52.0932C175.996 52.0537 175.769 52.0142 175.542 51.9846V51.7476H181.01V51.9846C180.566 52.0438 180.191 52.1623 179.875 52.3203L179.855 52.3401Z" fill="#203A52"/>
</g>
<defs>
<clipPath id="clip0_1018_120">
<rect width="179" height="46" fill="white" transform="translate(2 23)"/>
</clipPath>
</defs>
</svg>
