<svg width="149" height="46" viewBox="0 0 149 46" fill="none" xmlns="http://www.w3.org/2000/svg">
<g clip-path="url(#clip0_60_126)">
<path d="M2.1303 9.66697V22.0941H8.21932C9.24135 22.0941 10.1685 21.9835 11.0094 21.7581C11.846 21.537 12.5618 21.1712 13.157 20.6651C13.7521 20.159 14.2221 19.5126 14.5628 18.713C14.9035 17.9135 15.0759 16.9565 15.0759 15.838C15.0759 14.7195 14.9035 13.7668 14.5628 12.9843C14.2221 12.2017 13.7521 11.5638 13.157 11.0747C12.5618 10.5856 11.846 10.2284 11.0094 10.003C10.1728 9.7818 9.24135 9.66697 8.21932 9.66697H2.1303ZM0 8.53568C0 8.31453 0.0776221 8.11039 0.232866 7.92751C0.388111 7.74463 0.620977 7.65532 0.935778 7.65532H8.21501C9.40522 7.65532 10.548 7.78716 11.6433 8.0551C12.7343 8.32303 13.6917 8.76959 14.5153 9.39903C15.339 10.0285 15.9902 10.8663 16.4731 11.9168C16.9561 12.9673 17.1976 14.2602 17.1976 15.7997C17.1976 17.1182 17.0208 18.2494 16.6672 19.2021C16.3093 20.1548 15.822 20.9543 15.1967 21.5965C14.5714 22.2387 13.834 22.7363 12.9845 23.0893C12.1349 23.438 11.225 23.6847 10.2591 23.8251L17.0726 36.8434C17.1588 37.0092 17.1976 37.1794 17.1976 37.3452C17.1976 37.6259 17.0984 37.8726 16.9001 38.081C16.7017 38.2894 16.4171 38.3957 16.0505 38.3957C15.7961 38.3957 15.5546 38.2256 15.3261 37.8896C15.0975 37.5536 14.8991 37.2346 14.731 36.9242L8.04683 24.0335H2.1303V37.426C2.1303 37.7322 2.02249 37.9662 1.81118 38.1193C1.59988 38.2724 1.34976 38.3489 1.06515 38.3489C0.81072 38.3489 0.564917 38.2724 0.340675 38.1193C0.116433 37.9662 0 37.7365 0 37.426L0 8.53568Z" fill="#22334F"/>
<path d="M26.1768 8.5353C26.1768 8.22909 26.2889 8.00368 26.5174 7.86333C26.746 7.72298 26.9875 7.65494 27.2419 7.65494C27.5265 7.65494 27.7723 7.72724 27.9879 7.86333C28.1992 8.00368 28.3071 8.22909 28.3071 8.5353V37.4597C28.3071 37.7659 28.1992 37.9998 27.9879 38.1529C27.7766 38.3103 27.5265 38.3868 27.2419 38.3868C26.9875 38.3868 26.7417 38.3103 26.5174 38.1529C26.2932 37.9998 26.1768 37.7659 26.1768 37.4597V8.5353Z" fill="#22334F"/>
<path d="M83.0177 7.65561C83.3281 7.65561 83.5567 7.75343 83.699 7.94906C83.8413 8.1447 83.9103 8.37011 83.9103 8.62103C83.9103 8.87196 83.837 9.11437 83.699 9.33553C83.5567 9.56093 83.3281 9.67151 83.0177 9.67151H75.6867V37.4603C75.6867 37.7666 75.5746 38.0005 75.346 38.1536C75.1218 38.3067 74.8803 38.3832 74.6215 38.3832C74.3369 38.3832 74.0911 38.3067 73.8755 38.1536C73.6642 38.0005 73.5564 37.7666 73.5564 37.4603V9.67151H66.1392C65.8545 9.67151 65.6346 9.56519 65.4794 9.35679C65.3198 9.1484 65.2422 8.91449 65.2422 8.66356C65.2422 8.41264 65.3198 8.17872 65.4794 7.97033C65.6346 7.76193 65.8545 7.65561 66.1392 7.65561H83.022H83.0177Z" fill="#22334F"/>
<path d="M105.923 16.412C105.923 14.0771 105.358 12.3674 104.233 11.2829C103.107 10.1984 101.529 9.65828 99.4979 9.65828C97.4668 9.65828 95.8971 10.2027 94.7845 11.2829C93.6719 12.3632 93.1156 14.0771 93.1156 16.412V29.6302C93.1156 31.965 93.6719 33.6747 94.7845 34.7592C95.8971 35.8437 97.4711 36.3839 99.4979 36.3839C101.525 36.3839 103.107 35.8395 104.233 34.7592C105.363 33.6747 105.923 31.965 105.923 29.6302V16.412ZM99.4936 38.387C98.2818 38.387 97.1606 38.2254 96.1343 37.9064C95.1036 37.5875 94.211 37.0814 93.4477 36.3839C92.6887 35.6906 92.085 34.7848 91.6538 33.6747C91.2139 32.5647 90.9983 31.2165 90.9983 29.6302V16.412C90.9983 14.8256 91.2182 13.4774 91.6538 12.3674C92.0893 11.2574 92.6887 10.3515 93.4477 9.65828C94.211 8.96505 95.1036 8.45469 96.1343 8.13572C97.1649 7.81675 98.2818 7.65514 99.4936 7.65514C100.705 7.65514 101.792 7.81675 102.836 8.13572C103.879 8.45469 104.789 8.96079 105.561 9.65828C106.337 10.3515 106.941 11.2574 107.381 12.3674C107.816 13.4817 108.036 14.8299 108.036 16.412V29.6302C108.036 31.2165 107.816 32.5647 107.381 33.6747C106.941 34.7848 106.337 35.6906 105.561 36.3839C104.785 37.0771 103.875 37.5875 102.836 37.9064C101.792 38.2254 100.679 38.387 99.4936 38.387Z" fill="#22334F"/>
<path d="M134.889 38.3868C134.579 38.3868 134.29 38.2167 134.035 37.8807C133.781 37.5447 133.552 37.1917 133.354 36.8302L120.822 12.6139V37.4597C120.822 37.7659 120.715 37.9998 120.503 38.1529C120.292 38.306 120.042 38.3826 119.757 38.3826C119.503 38.3826 119.257 38.306 119.033 38.1529C118.804 37.9998 118.692 37.7659 118.692 37.4597V8.5353C118.692 8.19932 118.8 7.96966 119.011 7.84207C119.223 7.71873 119.473 7.65494 119.757 7.65494C120.154 7.65494 120.495 7.85057 120.779 8.24185C121.064 8.63312 121.305 9.01163 121.504 9.37739L133.824 33.3853V8.5353C133.824 8.22909 133.936 8.00368 134.165 7.86333C134.389 7.72298 134.635 7.65494 134.889 7.65494C135.174 7.65494 135.42 7.72298 135.635 7.86333C135.847 8.00368 135.954 8.22909 135.954 8.5353V37.4639C135.954 37.7701 135.847 38.004 135.635 38.1572C135.424 38.3103 135.174 38.3868 134.889 38.3868Z" fill="#22334F"/>
<path d="M146.871 8.53545C146.871 8.22924 146.983 8.00383 147.212 7.86349C147.44 7.72314 147.682 7.65509 147.936 7.65509C148.221 7.65509 148.467 7.72739 148.682 7.86349C148.894 8.00383 149.001 8.22924 149.001 8.53545V37.4598C149.001 37.766 148.894 37.9999 148.682 38.1531C148.471 38.3104 148.221 38.387 147.936 38.387C147.682 38.387 147.436 38.3104 147.212 38.1531C146.988 37.9999 146.871 37.766 146.871 37.4598V8.53545Z" fill="#22334F"/>
<path d="M46.4655 34.483H46.4439C46.4439 34.483 46.431 34.483 46.4223 34.483C46.142 34.483 45.866 34.4532 45.5987 34.4064C45.5642 34.3979 45.5297 34.3979 45.4995 34.3937C43.2614 33.9514 41.5753 31.9993 41.5753 29.6644C41.5753 27.6357 42.8474 25.9005 44.6457 25.186C44.8785 25.0925 45.1243 25.0202 45.3701 24.9649C45.4607 24.9436 45.5512 24.9266 45.6418 24.9138C45.8833 24.8756 46.1291 24.85 46.3792 24.8458C46.3965 24.8458 46.4094 24.8458 46.4267 24.8458C46.431 24.8458 46.4353 24.8458 46.4396 24.8458C46.4482 24.8458 46.4568 24.8458 46.4655 24.8458C47.2762 24.8458 48.0438 25.0414 48.7165 25.3902C49.1952 25.6368 49.6307 25.9601 50.0016 26.3428C50.0188 26.3598 50.0318 26.3768 50.049 26.3939C50.1482 26.5002 50.2474 26.6108 50.3379 26.7298C50.3595 26.7596 50.3811 26.7894 50.4026 26.8192C50.4846 26.9297 50.5622 27.0403 50.6355 27.1594C50.6571 27.1934 50.6743 27.2232 50.6959 27.2572C50.7692 27.3805 50.8339 27.5081 50.8942 27.6357C50.9072 27.6612 50.9244 27.691 50.9374 27.7208C51.084 28.044 51.1961 28.3842 51.2651 28.7415C51.3255 29.0435 51.36 29.3582 51.36 29.6771C51.36 32.3437 49.1693 34.5042 46.4655 34.5042M54.3096 25.4795L48.1904 17.4669H48.212L47.854 16.9991C47.3624 16.1655 47.1123 15.417 47.1123 14.7535C47.1123 14.7067 47.1641 14.09 47.1727 14.039C47.1986 13.8944 47.2374 13.7541 47.2805 13.6137C47.3021 13.5372 47.3236 13.4606 47.3538 13.3883C47.384 13.3118 47.4228 13.2437 47.4616 13.1714C47.5177 13.0566 47.5737 12.9418 47.647 12.8354C47.7074 12.7419 47.785 12.6568 47.8584 12.5717C47.8972 12.525 47.9273 12.4739 47.9705 12.4314C47.9748 12.4229 47.9834 12.4229 47.9877 12.4186C48.5699 11.802 49.3979 11.4107 50.3207 11.4107C52.0888 11.4107 53.5161 12.8227 53.5161 14.5621C53.5161 15.1831 53.3264 15.7615 53.0116 16.2506H57.6042C57.8544 15.6509 57.9794 14.9534 57.9794 14.1581C57.9794 12.4059 57.2722 10.8791 55.8534 9.57766C54.439 8.28051 52.5372 7.62981 50.1482 7.62981C47.7592 7.62981 45.866 8.30603 44.4645 9.66272C44.0074 10.105 43.6323 10.5729 43.3261 11.0577L34.8955 0H29.4102L45.5297 21.1925C43.421 21.269 41.6011 22.0558 40.0703 23.5784C38.4618 25.1775 37.6554 27.2189 37.6554 29.6942C37.6554 32.1694 38.5049 34.2321 40.1953 35.8737C41.8901 37.5153 43.9557 38.3404 46.3965 38.3404C48.2292 38.3404 49.8808 37.8343 51.3513 36.8179C52.8219 35.8057 53.8525 34.5213 54.4347 32.9604L64.4005 45.9957H69.9246L54.3053 25.4752L54.3096 25.4795Z" fill="#22334F"/>
</g>
<defs>
<clipPath id="clip0_60_126">
<rect width="149" height="46" fill="white"/>
</clipPath>
</defs>
</svg>
