<svg width="182" height="47" viewBox="0 0 182 47" fill="none" xmlns="http://www.w3.org/2000/svg">
<g clip-path="url(#clip0_207_1707)">
<path d="M24.16 0.909999C23.88 1.09 23.72 1.21 23.67 1.27C23.62 1.32 23.55 1.4 23.45 1.51C23.35 1.62 23.24 1.78 23.11 1.98C22.98 2.18 22.85 2.44 22.7 2.75C22.56 3.06 22.4 3.45 22.24 3.91C21.98 4.69 21.69 5.56 21.35 6.51C21.01 7.46 20.67 8.44 20.33 9.45C19.99 10.46 19.64 11.47 19.29 12.49C18.94 13.51 18.61 14.47 18.31 15.38L17.3 17.68H17.06C16.63 16.53 16.22 15.42 15.85 14.37C15.47 13.31 15.11 12.3 14.77 11.32C14.43 10.34 14.09 9.4 13.77 8.48C13.45 7.56 13.12 6.65 12.79 5.76C12.53 6.5 12.26 7.27 11.97 8.08C11.68 8.89 11.39 9.71 11.11 10.54C10.82 11.37 10.53 12.19 10.25 13C9.96001 13.81 9.68001 14.59 9.41001 15.34L8.35001 17.69H8.06001C7.56001 16.39 7.10001 15.16 6.66001 13.99C6.22001 12.82 5.80001 11.7 5.39001 10.62C4.98001 9.54 4.59001 8.49 4.20001 7.48C3.82001 6.46 3.43001 5.45 3.05001 4.44C2.94001 4.14 2.84001 3.87 2.75001 3.65C2.66001 3.43 2.58001 3.22 2.51001 3.03C2.44001 2.84 2.36001 2.65 2.28001 2.48C2.20001 2.3 2.11001 2.12 2.02001 1.93C1.97001 1.83 1.90001 1.71 1.82001 1.57C1.73001 1.43 1.61001 1.29 1.45001 1.15C1.29001 1.01 1.10001 0.889998 0.87001 0.789999C0.65001 0.689999 0.36001 0.629999 0.0100098 0.609998V0.349998H6.78001V0.589998C6.70001 0.589998 6.56001 0.609998 6.37001 0.639998C6.18001 0.669998 5.98001 0.729998 5.77001 0.809998C5.56001 0.889998 5.38001 1.01 5.23001 1.17C5.08001 1.33 5.00001 1.55 5.00001 1.82C5.00001 1.96 5.08001 2.3 5.25001 2.82C5.42001 3.34 5.64001 3.97 5.91001 4.72C6.18001 5.46 6.48001 6.28 6.81001 7.16C7.14001 8.04 7.47001 8.91 7.79001 9.76C8.12001 10.62 8.43001 11.42 8.71001 12.16C9.00001 12.9 9.23001 13.52 9.41001 14C9.46001 13.87 9.58001 13.54 9.77001 13C9.96001 12.46 10.2 11.79 10.49 10.98C10.78 10.17 11.1 9.26 11.45 8.24C11.8 7.22 12.15 6.16 12.51 5.06C12.27 4.42 12.05 3.86 11.86 3.37C11.67 2.88 11.46 2.41 11.24 1.94C11.18 1.81 11.09 1.68 10.99 1.53C10.89 1.39 10.74 1.25 10.56 1.11C10.38 0.969998 10.15 0.859998 9.88001 0.769998C9.61001 0.679998 9.28001 0.629999 8.90001 0.609998V0.349998H16.41V0.589998C16.31 0.609998 16.14 0.629999 15.89 0.659999C15.64 0.689999 15.39 0.749998 15.15 0.839998C14.9 0.929998 14.68 1.05 14.48 1.21C14.28 1.37 14.18 1.57 14.18 1.81C14.18 1.91 14.27 2.23 14.44 2.78C14.62 3.33 14.84 4 15.11 4.8C15.38 5.59 15.69 6.45 16.02 7.38C16.36 8.31 16.68 9.2 16.98 10.06C17.28 10.92 17.56 11.68 17.81 12.36C18.06 13.04 18.24 13.53 18.35 13.84C18.4 13.73 18.48 13.49 18.6 13.13C18.72 12.77 18.87 12.33 19.06 11.81C19.24 11.29 19.44 10.71 19.66 10.07C19.88 9.43 20.09 8.78 20.31 8.11C20.53 7.45 20.74 6.78 20.96 6.12C21.18 5.46 21.37 4.84 21.55 4.26C21.77 3.52 21.9 2.99 21.93 2.65C21.96 2.31 21.98 2.07 21.98 1.91C21.98 1.67 21.91 1.47 21.76 1.32C21.61 1.17 21.44 1.04 21.23 0.939999C21.02 0.839999 20.8 0.759998 20.56 0.699998C20.32 0.639998 20.1 0.609998 19.91 0.589998V0.349998H25.19V0.589998C24.79 0.639998 24.45 0.749999 24.17 0.929999L24.16 0.909999Z" fill="#203A52"/>
<path d="M37.49 17.62V17.38C38.08 17.33 38.58 17.22 38.98 17.06C39.38 16.89 39.64 16.7 39.77 16.5C39.8 16.45 39.83 16.36 39.85 16.21C39.87 16.06 39.89 15.9 39.91 15.71C39.93 15.52 39.94 15.32 39.95 15.11C39.95 14.9 39.96 14.7 39.96 14.51C39.98 13.98 39.98 13.44 39.98 12.88V9.09H30.5V14.25C30.5 14.71 30.5 15.16 30.52 15.59C30.54 16.02 30.61 16.33 30.74 16.5C30.93 16.77 31.2 16.98 31.56 17.12C31.91 17.26 32.26 17.35 32.59 17.38V17.62H25.51V17.38C25.91 17.32 26.29 17.21 26.66 17.06C27.03 16.91 27.31 16.72 27.5 16.5C27.56 16.42 27.62 16.29 27.66 16.1C27.7 15.92 27.73 15.7 27.76 15.46C27.78 15.22 27.8 14.96 27.82 14.68C27.84 14.4 27.84 14.13 27.84 13.88C27.84 13.66 27.84 13.35 27.85 12.97C27.85 12.59 27.87 12.17 27.87 11.71C27.87 11.25 27.88 10.79 27.88 10.31V3.36C27.88 3.07 27.87 2.8 27.84 2.56C27.81 2.32 27.78 2.09 27.73 1.89C27.68 1.69 27.61 1.53 27.51 1.42C27.29 1.15 27.01 0.950002 26.68 0.830002C26.35 0.710002 25.98 0.630002 25.56 0.580002V0.340002H32.71V0.580002C32.49 0.610002 32.25 0.660002 31.99 0.720002C31.73 0.780002 31.5 0.890002 31.29 1.02C31.08 1.16 30.91 1.34 30.76 1.58C30.61 1.82 30.54 2.12 30.52 2.49C30.5 3.05 30.49 3.65 30.48 4.3C30.48 4.95 30.47 5.57 30.47 6.16V8.58H39.95V4.72C39.95 4.3 39.95 3.83 39.93 3.3C39.91 3 39.89 2.68 39.87 2.35C39.85 2.02 39.77 1.75 39.64 1.55C39.35 1.12 39.02 0.850002 38.66 0.750002C38.29 0.650002 37.92 0.590002 37.56 0.570002V0.330002H44.78V0.570002C44.4 0.620002 44.02 0.730002 43.65 0.890002C43.28 1.06 43.01 1.3 42.83 1.62C42.77 1.73 42.72 1.89 42.69 2.09C42.66 2.29 42.63 2.51 42.62 2.76C42.6 3.01 42.6 3.26 42.6 3.52V11.37C42.6 11.82 42.6 12.28 42.61 12.76C42.61 13.24 42.62 13.77 42.62 14.34C42.62 14.8 42.63 15.23 42.66 15.62C42.68 16.01 42.74 16.28 42.84 16.42C43.05 16.74 43.33 16.96 43.68 17.09C44.03 17.22 44.42 17.31 44.83 17.35V17.59H37.46L37.49 17.62Z" fill="#203A52"/>
<path d="M47.1599 17.62V17.38C47.5599 17.32 47.9299 17.21 48.2799 17.07C48.6199 16.93 48.9199 16.72 49.1599 16.45C49.2399 16.35 49.2999 16.22 49.3399 16.04C49.3799 15.86 49.4099 15.66 49.4399 15.42C49.4599 15.18 49.4799 14.93 49.4899 14.66C49.4999 14.39 49.4999 14.14 49.4999 13.88C49.4999 13.66 49.4999 13.35 49.5099 12.97C49.5099 12.59 49.5299 12.17 49.5299 11.71C49.5299 11.25 49.5399 10.79 49.5399 10.31V3.36C49.5399 3.07 49.5299 2.8 49.4999 2.56C49.4799 2.31 49.4399 2.09 49.3899 1.89C49.3399 1.69 49.2699 1.53 49.1699 1.42C48.9499 1.15 48.6699 0.950004 48.3399 0.830004C48.0099 0.710004 47.6399 0.630004 47.2199 0.580004V0.340004H54.3999V0.580004C54.0599 0.630004 53.6999 0.720004 53.3199 0.840004C52.9399 0.970004 52.6399 1.22 52.4299 1.61C52.2899 1.88 52.2099 2.23 52.1999 2.64C52.1999 3.06 52.1799 3.45 52.1599 3.82C52.1599 4.22 52.1599 4.62 52.1499 5.01C52.1499 5.4 52.1399 5.8 52.1399 6.2V14.24C52.1399 14.7 52.1399 15.15 52.1599 15.58C52.1799 16.01 52.2499 16.32 52.3799 16.49C52.5699 16.76 52.8799 16.97 53.2899 17.11C53.7099 17.25 54.0799 17.34 54.4199 17.37V17.61H47.1499L47.1599 17.62Z" fill="#203A52"/>
<path d="M73.4199 4.85C73.2899 4.56 73.1399 4.26 72.9599 3.95C72.7799 3.64 72.5999 3.35 72.4199 3.07C72.2399 2.8 72.0599 2.55 71.8799 2.31C71.6999 2.08 71.5499 1.91 71.4199 1.79C71.0799 1.47 70.7199 1.26 70.3299 1.15C69.9399 1.05 69.4399 0.989998 68.8299 0.969998C68.5299 0.969998 68.2599 0.969998 68.0399 0.959998C67.8199 0.959998 67.5899 0.949998 67.3699 0.949998H65.7899C65.7899 1.35 65.7899 1.89 65.7799 2.58C65.7799 3.27 65.7699 3.99 65.7699 4.74V14.12C65.7699 14.58 65.7799 15.03 65.8099 15.45C65.8299 15.87 65.9099 16.17 66.0399 16.35C66.2799 16.7 66.6199 16.94 67.0599 17.07C67.4999 17.2 67.8999 17.29 68.2499 17.36V17.6H60.4499V17.36C60.8699 17.31 61.2699 17.23 61.6499 17.12C62.0299 17.01 62.4099 16.74 62.7799 16.33C62.8599 16.25 62.9199 16.12 62.9599 15.93C62.9999 15.75 63.0299 15.54 63.0599 15.31C63.0799 15.08 63.0999 14.83 63.1099 14.55C63.1199 14.27 63.1199 14.01 63.1199 13.76C63.1199 13.54 63.1199 13.24 63.1299 12.87C63.1299 12.5 63.1499 12.09 63.1499 11.65C63.1499 11.2 63.1599 10.74 63.1599 10.26V0.959998H61.5799C61.3699 0.959998 61.1499 0.959998 60.9199 0.969998C60.6899 0.969998 60.4199 0.979998 60.1199 0.979998C59.5099 0.999998 59.0099 1.07 58.6199 1.2C58.2299 1.33 57.8599 1.55 57.5299 1.87C57.3999 1.98 57.2499 2.15 57.0899 2.37C56.9199 2.59 56.7499 2.84 56.5599 3.1C56.3799 3.36 56.1999 3.65 56.0299 3.95C55.8599 4.25 55.7299 4.55 55.6299 4.84L55.4099 4.77L56.1299 0.209998C56.4999 0.289998 56.8399 0.349998 57.1499 0.399998C57.4599 0.449998 57.9099 0.479998 58.5099 0.499998C59.1199 0.519998 59.6599 0.529999 60.1399 0.539999C60.6199 0.539999 61.0799 0.549998 61.5299 0.549998H66.0899C66.5699 0.549998 67.0299 0.549998 67.4799 0.539999C67.9299 0.539999 68.3899 0.519998 68.8699 0.519998C69.3499 0.519998 69.8899 0.509998 70.4999 0.509998C71.0299 0.489998 71.4599 0.449998 71.8099 0.379998C72.1499 0.309998 72.5099 0.219998 72.8799 0.0999985L73.6499 4.78L73.4299 4.85H73.4199Z" fill="#203A52"/>
<path d="M88.99 17.62H74.3V17.38C74.7 17.32 75.07 17.21 75.42 17.07C75.76 16.93 76.05 16.73 76.27 16.47C76.35 16.37 76.41 16.23 76.46 16.05C76.51 15.87 76.55 15.65 76.59 15.41C76.63 15.17 76.66 14.92 76.67 14.65C76.69 14.39 76.69 14.13 76.69 13.87C76.69 13.65 76.69 13.34 76.7 12.96C76.7 12.58 76.72 12.16 76.72 11.7C76.72 11.24 76.73 10.78 76.73 10.3V4.23C76.73 3.94 76.73 3.65 76.72 3.34C76.72 3.04 76.7 2.75 76.67 2.48C76.65 2.21 76.61 1.96 76.55 1.75C76.49 1.53 76.42 1.38 76.32 1.28C76.08 1.02 75.82 0.859999 75.55 0.789999C75.28 0.719999 74.93 0.649998 74.49 0.589998V0.349998H87.74L89.37 4.31L89.13 4.43C87.83 2.81 86.62 1.73 85.48 1.17C85.21 1.04 84.7 0.929998 83.97 0.829998C83.23 0.729998 82.34 0.689998 81.28 0.689998C80.94 0.689998 80.6 0.699998 80.24 0.729998C79.88 0.749999 79.62 0.779998 79.46 0.809998C79.43 1.07 79.4 1.59 79.38 2.39C79.36 3.19 79.34 4.12 79.34 5.17V6.71C79.34 7.13 79.34 7.47 79.35 7.73C79.35 7.99 79.36 8.2 79.36 8.34V8.6H79.84C80.08 8.6 80.36 8.6 80.67 8.58C80.98 8.56 81.29 8.54 81.61 8.52C81.92 8.5 82.18 8.46 82.39 8.41C82.87 8.3 83.27 8.15 83.59 7.95C83.91 7.76 84.17 7.53 84.37 7.25C84.57 6.98 84.73 6.66 84.85 6.3C84.97 5.94 85.08 5.54 85.17 5.09H85.46V12.65H85.17C85.04 12.14 84.85 11.61 84.58 11.07C84.31 10.53 84.04 10.12 83.75 9.85C83.49 9.63 83.19 9.44 82.83 9.3C82.47 9.16 82.05 9.07 81.57 9.04C81.33 9.02 81.13 9.01 80.97 9C80.81 9 80.65 8.99 80.49 8.99H79.39C79.36 9.21 79.34 9.54 79.34 9.97V12.85C79.34 13.11 79.34 13.35 79.35 13.58C79.35 13.81 79.36 14.01 79.36 14.17C79.38 14.68 79.4 15.17 79.44 15.62C79.48 16.08 79.57 16.42 79.72 16.64C79.86 16.86 80.21 17.02 80.75 17.12C81.29 17.22 81.89 17.26 82.53 17.26C82.8 17.26 83.15 17.26 83.57 17.24C83.99 17.22 84.44 17.18 84.9 17.12C85.41 17.06 85.88 16.93 86.32 16.75C86.75 16.57 87.17 16.31 87.57 15.97C87.97 15.63 88.36 15.22 88.73 14.73C89.11 14.24 89.49 13.65 89.89 12.97L90.15 13.04L88.95 17.62H88.99Z" fill="#203A52"/>
<path d="M111.65 17.62H96.24V17.38C96.64 17.32 97.04 17.21 97.43 17.07C97.82 16.93 98.13 16.73 98.35 16.47C98.43 16.37 98.5 16.23 98.55 16.05C98.61 15.87 98.65 15.65 98.68 15.41C98.71 15.17 98.74 14.92 98.76 14.65C98.78 14.39 98.8 14.13 98.8 13.87C98.8 13.65 98.8 13.34 98.81 12.96C98.81 12.58 98.83 12.16 98.83 11.7C98.83 11.24 98.84 10.78 98.84 10.3V3.41C98.84 3.12 98.83 2.85 98.8 2.61C98.77 2.37 98.74 2.14 98.69 1.95C98.64 1.76 98.57 1.61 98.47 1.49C98.25 1.22 97.95 1.01 97.57 0.870004C97.19 0.730004 96.8 0.630004 96.38 0.580004V0.340004H104.04V0.580004C103.83 0.610004 103.58 0.660004 103.3 0.720004C103.01 0.780004 102.74 0.890004 102.48 1.03C102.22 1.17 102 1.38 101.82 1.64C101.64 1.9 101.54 2.25 101.52 2.68C101.5 3.24 101.49 3.75 101.48 4.22C101.48 4.68 101.46 5.14 101.46 5.59C101.46 6.04 101.45 6.5 101.45 6.98V11.35C101.45 11.77 101.45 12.19 101.46 12.63C101.46 13.07 101.47 13.56 101.47 14.11C101.49 14.62 101.51 15.11 101.53 15.57C101.55 16.03 101.64 16.38 101.78 16.6C101.84 16.68 101.97 16.76 102.16 16.84C102.35 16.92 102.58 16.99 102.86 17.04C103.13 17.1 103.43 17.14 103.75 17.18C104.07 17.22 104.39 17.24 104.71 17.24C104.84 17.24 105.04 17.24 105.32 17.23C105.6 17.23 105.91 17.21 106.24 17.18C106.58 17.16 106.92 17.12 107.27 17.07C107.62 17.02 107.93 16.96 108.21 16.88C108.85 16.7 109.38 16.47 109.81 16.18C110.23 15.89 110.6 15.56 110.9 15.18C111.2 14.8 111.46 14.4 111.67 13.96C111.88 13.52 112.08 13.06 112.27 12.58L112.51 12.65L111.62 17.59L111.65 17.62Z" fill="#203A52"/>
<path d="M123.07 17.62V17.38C123.07 17.38 123.23 17.36 123.42 17.33C123.6 17.3 123.8 17.24 124 17.16C124.2 17.08 124.38 16.97 124.53 16.82C124.68 16.68 124.76 16.49 124.76 16.27C124.76 16.13 124.72 15.89 124.63 15.56C124.54 15.23 124.42 14.83 124.26 14.36C124.1 13.89 123.92 13.36 123.71 12.79C123.5 12.21 123.28 11.61 123.04 10.99H116.66C116.42 11.6 116.19 12.18 115.96 12.73C115.74 13.28 115.51 13.84 115.29 14.4C114.95 15.26 114.79 15.87 114.79 16.22C114.79 16.43 114.85 16.6 114.98 16.74C115.11 16.88 115.27 16.99 115.47 17.08C115.67 17.17 115.89 17.23 116.12 17.27C116.35 17.31 116.57 17.35 116.78 17.38V17.62H111.67V17.36C112.09 17.31 112.44 17.2 112.74 17.02C113.04 16.84 113.21 16.72 113.26 16.66C113.37 16.55 113.56 16.28 113.81 15.87C114.07 15.45 114.38 14.84 114.75 14.02C115.09 13.27 115.46 12.41 115.88 11.45C116.3 10.49 116.72 9.5 117.16 8.49C117.6 7.47 118.04 6.45 118.47 5.42C118.9 4.39 119.31 3.42 119.69 2.53L119.45 2C119.74 1.87 120 1.72 120.23 1.54C120.46 1.36 120.67 1.18 120.84 0.990002C121.02 0.800002 121.16 0.610002 121.28 0.440002C121.4 0.260002 121.49 0.120002 121.56 0.0100021H121.75C122.25 1.34 122.72 2.6 123.17 3.79C123.62 4.98 124.05 6.13 124.45 7.23C124.86 8.33 125.25 9.4 125.64 10.43C126.02 11.46 126.41 12.48 126.79 13.49C126.97 13.99 127.13 14.4 127.28 14.73C127.43 15.06 127.6 15.43 127.8 15.85C127.83 15.91 127.9 16.03 128.02 16.19C128.13 16.35 128.28 16.51 128.46 16.68C128.64 16.85 128.87 17 129.14 17.12C129.41 17.25 129.73 17.32 130.1 17.34V17.63H123.09L123.07 17.62ZM119.93 3.07C119.83 3.28 119.69 3.61 119.51 4.05C119.33 4.5 119.1 5.04 118.83 5.68C118.56 6.32 118.26 7.04 117.93 7.85C117.6 8.66 117.25 9.53 116.86 10.48H122.84C122.57 9.76 122.29 9.04 122.01 8.32C121.73 7.6 121.46 6.91 121.19 6.24C120.93 5.58 120.69 4.97 120.47 4.42C120.25 3.87 120.07 3.42 119.93 3.06V3.07Z" fill="#203A52"/>
<path d="M145.46 14.45C145.28 14.91 145.05 15.32 144.76 15.67C144.47 16.02 144.15 16.32 143.8 16.57C143.45 16.82 143.1 17.01 142.74 17.13C142.13 17.35 141.45 17.49 140.7 17.54C139.95 17.59 139.22 17.61 138.52 17.61H130.24V17.37C130.64 17.31 131.02 17.2 131.38 17.06C131.74 16.92 132.03 16.72 132.26 16.46C132.34 16.36 132.4 16.22 132.45 16.04C132.5 15.86 132.54 15.64 132.58 15.4C132.62 15.16 132.65 14.91 132.66 14.64C132.68 14.38 132.68 14.12 132.68 13.86C132.68 13.64 132.68 13.33 132.69 12.95C132.69 12.57 132.71 12.15 132.71 11.69C132.71 11.23 132.72 10.77 132.72 10.29V6.57C132.72 6.22 132.72 5.86 132.71 5.49C132.7 5.12 132.7 4.7 132.7 4.22C132.7 3.93 132.7 3.64 132.68 3.34C132.66 3.04 132.64 2.76 132.6 2.49C132.56 2.22 132.51 1.97 132.46 1.76C132.4 1.54 132.33 1.39 132.23 1.29C131.99 1.03 131.75 0.860002 131.51 0.770002C131.27 0.680002 130.93 0.610002 130.5 0.570002V0.330002H138.59C139.2 0.330002 139.78 0.370002 140.33 0.440002C140.88 0.510002 141.41 0.640002 141.93 0.840002C142.75 1.14 143.42 1.61 143.95 2.23C144.48 2.85 144.74 3.65 144.74 4.61C144.74 5.67 144.4 6.52 143.72 7.17C143.04 7.82 142.16 8.25 141.07 8.48V8.58C141.65 8.64 142.21 8.78 142.77 9C143.33 9.22 143.83 9.51 144.27 9.88C144.71 10.25 145.06 10.68 145.33 11.19C145.6 11.7 145.73 12.27 145.73 12.91C145.73 13.49 145.64 14.01 145.47 14.47L145.46 14.45ZM141.37 2.47C140.96 1.85 140.45 1.4 139.85 1.13C139.13 0.810002 138.21 0.650002 137.09 0.650002C136.75 0.650002 136.45 0.670002 136.18 0.700002C135.91 0.730002 135.7 0.770002 135.56 0.820002C135.54 0.920002 135.53 1 135.51 1.08C135.49 1.16 135.48 1.26 135.47 1.38C135.47 1.5 135.45 1.65 135.45 1.82C135.45 2 135.43 2.23 135.41 2.52C135.39 3.08 135.38 3.7 135.37 4.37C135.37 5.04 135.36 5.68 135.36 6.29V8.59H136.7C137.07 8.59 137.36 8.59 137.59 8.57C139.03 8.49 140.12 8.08 140.87 7.35C141.61 6.61 141.99 5.7 141.99 4.61C141.99 3.81 141.79 3.1 141.38 2.47H141.37ZM142.69 11.84C142.54 11.43 142.33 11.06 142.07 10.71C141.81 10.37 141.49 10.07 141.13 9.82C140.77 9.57 140.37 9.38 139.94 9.23C139.59 9.12 139.24 9.04 138.9 9C138.56 8.96 138.15 8.94 137.69 8.94H135.36V11.94C135.36 12.39 135.36 12.8 135.37 13.18C135.37 13.56 135.38 13.88 135.38 14.15C135.4 14.76 135.42 15.26 135.46 15.65C135.5 16.04 135.62 16.37 135.81 16.62C135.95 16.8 136.17 16.94 136.46 17.06C136.75 17.18 137.16 17.24 137.71 17.24C138.17 17.24 138.68 17.21 139.22 17.14C139.76 17.08 140.29 16.91 140.8 16.64C141.47 16.29 141.99 15.82 142.36 15.24C142.73 14.66 142.91 13.96 142.91 13.14C142.91 12.68 142.83 12.24 142.68 11.83L142.69 11.84Z" fill="#203A52"/>
<path d="M162.86 17.62H148.17V17.38C148.57 17.32 148.94 17.21 149.29 17.07C149.63 16.93 149.92 16.73 150.14 16.47C150.22 16.37 150.28 16.23 150.33 16.05C150.38 15.87 150.42 15.65 150.46 15.41C150.5 15.17 150.53 14.92 150.54 14.65C150.56 14.39 150.56 14.13 150.56 13.87C150.56 13.65 150.56 13.34 150.57 12.96C150.57 12.58 150.59 12.16 150.59 11.7C150.59 11.24 150.6 10.78 150.6 10.3V4.23C150.6 3.94 150.6 3.65 150.59 3.34C150.59 3.04 150.57 2.75 150.54 2.48C150.52 2.21 150.48 1.96 150.42 1.75C150.36 1.53 150.29 1.38 150.19 1.28C149.95 1.02 149.69 0.859999 149.42 0.789999C149.15 0.719999 148.8 0.649998 148.36 0.589998V0.349998H161.61L163.24 4.31L163 4.43C161.7 2.81 160.49 1.73 159.35 1.17C159.08 1.04 158.57 0.929998 157.84 0.829998C157.1 0.729998 156.21 0.689998 155.15 0.689998C154.81 0.689998 154.47 0.699998 154.11 0.729998C153.75 0.749999 153.49 0.779998 153.33 0.809998C153.3 1.07 153.27 1.59 153.25 2.39C153.23 3.19 153.21 4.12 153.21 5.17V6.71C153.21 7.13 153.21 7.47 153.22 7.73C153.22 7.99 153.23 8.2 153.23 8.34V8.6H153.71C153.95 8.6 154.23 8.6 154.54 8.58C154.85 8.56 155.16 8.54 155.48 8.52C155.79 8.5 156.05 8.46 156.26 8.41C156.74 8.3 157.14 8.15 157.46 7.95C157.78 7.76 158.04 7.53 158.24 7.25C158.44 6.98 158.6 6.66 158.72 6.3C158.84 5.94 158.95 5.54 159.04 5.09H159.33V12.65H159.04C158.91 12.14 158.72 11.61 158.45 11.07C158.18 10.53 157.91 10.12 157.62 9.85C157.36 9.63 157.06 9.44 156.7 9.3C156.34 9.16 155.92 9.07 155.44 9.04C155.2 9.02 155 9.01 154.84 9C154.68 9 154.52 8.99 154.36 8.99H153.26C153.23 9.21 153.21 9.54 153.21 9.97V12.85C153.21 13.11 153.21 13.35 153.22 13.58C153.22 13.81 153.23 14.01 153.23 14.17C153.25 14.68 153.27 15.17 153.31 15.62C153.35 16.08 153.44 16.42 153.59 16.64C153.73 16.86 154.08 17.02 154.62 17.12C155.16 17.22 155.76 17.26 156.4 17.26C156.67 17.26 157.02 17.26 157.44 17.24C157.86 17.22 158.31 17.18 158.77 17.12C159.28 17.06 159.75 16.93 160.19 16.75C160.62 16.57 161.04 16.31 161.44 15.97C161.84 15.63 162.23 15.22 162.6 14.73C162.98 14.24 163.36 13.65 163.76 12.97L164.02 13.04L162.82 17.62H162.86Z" fill="#203A52"/>
<path d="M180.48 17.62H165.07V17.38C165.47 17.32 165.87 17.21 166.26 17.07C166.65 16.93 166.96 16.73 167.18 16.47C167.26 16.37 167.33 16.23 167.38 16.05C167.44 15.87 167.48 15.65 167.51 15.41C167.54 15.17 167.57 14.92 167.59 14.65C167.61 14.39 167.63 14.13 167.63 13.87C167.63 13.65 167.63 13.34 167.64 12.96C167.64 12.58 167.66 12.16 167.66 11.7C167.66 11.24 167.67 10.78 167.67 10.3V3.41C167.67 3.12 167.66 2.85 167.63 2.61C167.6 2.37 167.57 2.14 167.52 1.95C167.47 1.76 167.4 1.61 167.3 1.49C167.08 1.22 166.78 1.01 166.4 0.870004C166.02 0.730004 165.63 0.630004 165.21 0.580004V0.340004H172.87V0.580004C172.66 0.610004 172.41 0.660004 172.13 0.720004C171.84 0.780004 171.57 0.890004 171.31 1.03C171.05 1.17 170.83 1.38 170.65 1.64C170.47 1.9 170.37 2.25 170.35 2.68C170.33 3.24 170.32 3.75 170.31 4.22C170.31 4.68 170.29 5.14 170.29 5.59C170.29 6.04 170.28 6.5 170.28 6.98V11.35C170.28 11.77 170.28 12.19 170.29 12.63C170.29 13.07 170.3 13.56 170.3 14.11C170.32 14.62 170.34 15.11 170.36 15.57C170.38 16.03 170.47 16.38 170.61 16.6C170.67 16.68 170.8 16.76 170.99 16.84C171.18 16.92 171.41 16.99 171.69 17.04C171.96 17.1 172.26 17.14 172.58 17.18C172.9 17.22 173.22 17.24 173.54 17.24C173.67 17.24 173.87 17.24 174.15 17.23C174.43 17.23 174.74 17.21 175.07 17.18C175.41 17.16 175.75 17.12 176.1 17.07C176.45 17.02 176.76 16.96 177.04 16.88C177.68 16.7 178.21 16.47 178.64 16.18C179.06 15.89 179.43 15.56 179.73 15.18C180.03 14.8 180.29 14.4 180.5 13.96C180.71 13.52 180.91 13.06 181.1 12.58L181.34 12.65L180.45 17.59L180.48 17.62Z" fill="#203A52"/>
<path d="M13.7 46.42V46.18C14.29 46.13 14.79 46.02 15.19 45.86C15.59 45.69 15.85 45.5 15.98 45.3C16.01 45.25 16.04 45.16 16.06 45.01C16.08 44.86 16.1 44.7 16.12 44.51C16.14 44.32 16.15 44.12 16.16 43.91C16.16 43.7 16.17 43.5 16.17 43.31C16.19 42.78 16.19 42.24 16.19 41.68V37.89H6.71998V43.05C6.71998 43.51 6.71998 43.96 6.73998 44.39C6.75998 44.82 6.82998 45.13 6.95998 45.3C7.14998 45.57 7.41998 45.78 7.77998 45.92C8.12998 46.06 8.47998 46.15 8.80998 46.18V46.42H1.72998V46.18C2.12998 46.12 2.50998 46.01 2.87998 45.86C3.24998 45.71 3.52998 45.52 3.71998 45.3C3.77998 45.22 3.83998 45.09 3.87998 44.9C3.91998 44.72 3.94998 44.5 3.97998 44.26C3.99998 44.02 4.01998 43.76 4.03998 43.48C4.05998 43.2 4.05998 42.93 4.05998 42.68C4.05998 42.46 4.05998 42.15 4.06998 41.77C4.06998 41.39 4.08998 40.97 4.08998 40.51C4.08998 40.05 4.09998 39.59 4.09998 39.11V32.17C4.09998 31.88 4.08998 31.61 4.05998 31.37C4.02998 31.13 3.99998 30.9 3.94998 30.7C3.89998 30.5 3.82998 30.34 3.72998 30.23C3.50998 29.96 3.22998 29.76 2.89998 29.64C2.56998 29.52 2.19998 29.44 1.77998 29.39V29.15H8.92998V29.39C8.70998 29.42 8.46998 29.47 8.20998 29.53C7.94998 29.59 7.71998 29.7 7.50998 29.83C7.29998 29.97 7.12998 30.15 6.97998 30.39C6.82998 30.63 6.75998 30.93 6.73998 31.3C6.71998 31.86 6.70998 32.46 6.69998 33.11C6.69998 33.76 6.68998 34.38 6.68998 34.97V37.39H16.17V33.53C16.17 33.11 16.17 32.64 16.15 32.11C16.13 31.81 16.11 31.49 16.09 31.16C16.07 30.83 15.99 30.56 15.86 30.36C15.57 29.93 15.24 29.66 14.88 29.56C14.51 29.46 14.14 29.4 13.78 29.38V29.14H21V29.38C20.62 29.43 20.24 29.54 19.87 29.7C19.5 29.87 19.23 30.11 19.05 30.43C18.99 30.54 18.94 30.7 18.91 30.9C18.88 31.1 18.85 31.32 18.84 31.57C18.82 31.82 18.82 32.07 18.82 32.33V40.18C18.82 40.63 18.82 41.09 18.83 41.57C18.83 42.05 18.84 42.58 18.84 43.15C18.84 43.61 18.85 44.04 18.88 44.43C18.9 44.82 18.96 45.09 19.06 45.23C19.27 45.55 19.55 45.77 19.9 45.9C20.25 46.03 20.64 46.12 21.05 46.16V46.4H13.68L13.7 46.42Z" fill="#203A52"/>
<path d="M40.6999 41.21C40.2199 42.3 39.5699 43.24 38.7399 44.04C37.9199 44.84 36.9599 45.46 35.8599 45.89C34.7599 46.32 33.5999 46.54 32.3699 46.54C31.1399 46.54 29.9999 46.33 28.9099 45.9C27.8199 45.48 26.8699 44.88 26.0499 44.1C25.2299 43.32 24.5899 42.4 24.1199 41.32C23.6499 40.24 23.4099 39.05 23.4099 37.76C23.4099 36.38 23.6599 35.15 24.1499 34.05C24.6499 32.95 25.3099 32.03 26.1499 31.27C26.9899 30.51 27.9699 29.93 29.0999 29.52C30.2299 29.11 31.4199 28.91 32.6599 28.91C34.0199 28.91 35.2399 29.15 36.3199 29.63C37.3999 30.11 38.3199 30.75 39.0699 31.56C39.8199 32.37 40.3999 33.3 40.7999 34.36C41.1999 35.42 41.3999 36.52 41.3999 37.67C41.3999 38.95 41.1599 40.13 40.6799 41.22L40.6999 41.21ZM38.0799 34.73C37.8299 33.74 37.4599 32.84 36.9499 32.03C36.4499 31.22 35.8199 30.57 35.0699 30.06C34.3199 29.56 33.4299 29.3 32.4099 29.3C31.3899 29.3 30.4699 29.55 29.7099 30.06C28.9499 30.56 28.3299 31.22 27.8399 32.02C27.3499 32.82 26.9899 33.73 26.7599 34.74C26.5299 35.76 26.4099 36.78 26.4099 37.82C26.4099 38.86 26.5399 39.96 26.7899 40.96C27.0499 41.97 27.4299 42.86 27.9299 43.62C28.4299 44.39 29.0699 45 29.8299 45.47C30.5899 45.93 31.4699 46.17 32.4799 46.17C33.4899 46.17 34.3599 45.91 35.1099 45.4C35.8499 44.89 36.4699 44.23 36.9699 43.42C37.4699 42.61 37.8399 41.7 38.0899 40.7C38.3399 39.7 38.4599 38.68 38.4599 37.68C38.4599 36.68 38.3399 35.72 38.0899 34.73H38.0799Z" fill="#203A52"/>
<path d="M55.5001 43.75C55.1901 44.36 54.7601 44.88 54.2001 45.31C53.6501 45.74 52.9901 46.06 52.2201 46.27C51.4501 46.48 50.6101 46.58 49.7001 46.58C48.9201 46.58 48.2401 46.53 47.6801 46.44C47.1201 46.34 46.6601 46.23 46.2901 46.09C45.9201 45.95 45.6501 45.83 45.4601 45.72C45.2801 45.61 45.1601 45.55 45.1101 45.55C45.0601 45.55 44.9601 45.65 44.8001 45.84C44.6401 46.03 44.5001 46.22 44.3701 46.39H44.1501L44.0801 41.61H44.3201C44.4601 42.04 44.6501 42.46 44.8701 42.87C45.0901 43.28 45.3401 43.66 45.6001 44.02C45.8601 44.38 46.1401 44.7 46.4401 44.97C46.7401 45.24 47.0201 45.45 47.2901 45.59C47.5601 45.73 47.9201 45.88 48.3701 46.02C48.8201 46.16 49.2501 46.24 49.6701 46.24C50.8501 46.24 51.8101 45.92 52.5501 45.27C53.2901 44.62 53.6501 43.75 53.6501 42.64C53.6501 42.19 53.5801 41.8 53.4301 41.46C53.2801 41.12 53.0901 40.83 52.8401 40.58C52.5901 40.33 52.3001 40.12 51.9601 39.94C51.6201 39.76 51.2601 39.6 50.8801 39.46C50.5001 39.32 50.1601 39.2 49.8701 39.1C49.5801 39 49.3101 38.91 49.0701 38.82C48.8201 38.73 48.5701 38.64 48.3001 38.56C48.0401 38.47 47.7201 38.36 47.3501 38.21C46.9301 38.05 46.5301 37.83 46.1501 37.55C45.7701 37.27 45.4301 36.94 45.1401 36.57C44.8501 36.19 44.6201 35.78 44.4401 35.32C44.2601 34.86 44.1801 34.38 44.1801 33.87C44.1801 33.01 44.3401 32.26 44.6501 31.64C44.9701 31.02 45.3901 30.5 45.9201 30.08C46.4501 29.66 47.0701 29.36 47.7601 29.16C48.4501 28.96 49.1901 28.86 49.9601 28.86C50.6801 28.86 51.3001 28.92 51.8101 29.04C52.3201 29.16 52.7401 29.29 53.0701 29.44C53.4001 29.58 53.6501 29.72 53.8101 29.84C53.9701 29.96 54.0701 30.02 54.0901 30.02C54.1401 30.02 54.2401 29.92 54.3901 29.73C54.5401 29.54 54.6801 29.35 54.8101 29.15H55.0701V33.59H54.8101C54.6201 33.06 54.3701 32.54 54.0701 32.02C53.7701 31.5 53.4101 31.04 53.0101 30.63C52.6101 30.22 52.1501 29.89 51.6401 29.63C51.1301 29.37 50.5601 29.25 49.9401 29.25C49.4401 29.25 48.9801 29.32 48.5401 29.47C48.1001 29.61 47.7201 29.83 47.3901 30.12C47.0601 30.41 46.8101 30.76 46.6201 31.19C46.4401 31.61 46.3401 32.1 46.3401 32.64C46.3401 33.49 46.6001 34.17 47.1101 34.68C47.6201 35.19 48.2801 35.6 49.1001 35.9C49.4201 36.03 49.7201 36.14 50.0001 36.24C50.2801 36.34 50.5501 36.43 50.8301 36.52C51.1001 36.61 51.3801 36.7 51.6601 36.8C51.9401 36.9 52.2301 37 52.5301 37.11C53.6201 37.51 54.4601 38.09 55.0601 38.85C55.6601 39.61 55.9601 40.56 55.9601 41.69C55.9601 42.46 55.8001 43.15 55.4901 43.75H55.5001Z" fill="#203A52"/>
<path d="M72.5299 35.74C72.3399 36.22 72.0899 36.64 71.7699 37.01C71.4599 37.38 71.0899 37.69 70.6799 37.96C70.2599 38.22 69.8399 38.44 69.4099 38.6C68.9599 38.76 68.4799 38.88 67.9699 38.96C67.4599 39.04 66.9399 39.1 66.4199 39.14C65.8999 39.18 65.3899 39.2 64.8999 39.2H63.5999V41.46C63.5999 41.73 63.5999 41.98 63.6099 42.22C63.6099 42.45 63.6199 42.7 63.6199 42.98C63.6399 43.49 63.6499 43.93 63.6699 44.3C63.6899 44.67 63.7699 44.97 63.9299 45.21C64.0599 45.42 64.3099 45.63 64.6699 45.83C65.0399 46.04 65.5499 46.16 66.2099 46.19V46.43H58.5299V46.19C58.9299 46.13 59.3099 46.03 59.6799 45.9C60.0499 45.77 60.3399 45.58 60.5399 45.32C60.6199 45.22 60.6799 45.08 60.7299 44.89C60.7799 44.7 60.8099 44.48 60.8399 44.24C60.8599 44 60.8799 43.74 60.8999 43.47C60.9199 43.2 60.9199 42.93 60.9199 42.68C60.9199 42.46 60.9199 42.15 60.9299 41.77C60.9299 41.39 60.9499 40.97 60.9499 40.51C60.9499 40.05 60.9599 39.59 60.9599 39.11V33.04C60.9599 32.75 60.9599 32.46 60.9499 32.16C60.9399 31.86 60.9299 31.58 60.8999 31.32C60.8799 31.06 60.8399 30.82 60.7799 30.6C60.7199 30.38 60.6499 30.23 60.5499 30.13C60.3099 29.87 59.9999 29.7 59.6299 29.61C59.2499 29.52 58.8499 29.45 58.4199 29.38V29.14H58.9999C59.2999 29.14 59.6599 29.14 60.0699 29.13C60.4799 29.12 60.9199 29.12 61.3999 29.12C61.8799 29.12 62.3599 29.12 62.8299 29.11C63.2999 29.11 63.7499 29.1 64.1599 29.1H65.2399C66.2999 29.1 67.2299 29.15 68.0499 29.26C68.8699 29.36 69.6299 29.62 70.3499 30.02C71.0499 30.4 71.6399 30.95 72.0999 31.65C72.5599 32.35 72.7999 33.19 72.7999 34.15C72.7999 34.74 72.6999 35.28 72.5099 35.76L72.5299 35.74ZM69.5199 31.54C69.0499 30.82 68.4299 30.28 67.6599 29.91C67.2799 29.73 66.8699 29.61 66.4399 29.55C66.0099 29.49 65.5599 29.45 65.0999 29.45C64.7599 29.45 64.4999 29.46 64.3199 29.49C64.1399 29.51 63.9899 29.53 63.8799 29.55C63.8599 29.65 63.8399 29.73 63.8199 29.8C63.7999 29.87 63.7799 29.96 63.7599 30.08C63.7399 30.19 63.7299 30.35 63.7099 30.55C63.6899 30.75 63.6799 31.03 63.6599 31.4C63.6399 31.96 63.6299 32.64 63.6199 33.44C63.6199 34.24 63.6099 35.02 63.6099 35.79V38.86C64.2699 38.86 64.8799 38.84 65.4599 38.8C66.0399 38.76 66.5699 38.65 67.0699 38.48C68.0899 38.13 68.8799 37.55 69.4199 36.74C69.9599 35.93 70.2399 35.02 70.2399 34.02C70.2399 33.09 69.9999 32.27 69.5299 31.55L69.5199 31.54Z" fill="#203A52"/>
<path d="M74.8799 46.42V46.18C75.2799 46.12 75.6499 46.01 75.9999 45.87C76.3399 45.73 76.6399 45.52 76.8799 45.25C76.9599 45.15 77.0199 45.02 77.0599 44.84C77.0999 44.66 77.1299 44.46 77.1599 44.22C77.1799 43.98 77.1999 43.73 77.2099 43.46C77.2199 43.19 77.2199 42.94 77.2199 42.68C77.2199 42.46 77.2199 42.15 77.2299 41.77C77.2299 41.39 77.2499 40.97 77.2499 40.51C77.2499 40.05 77.2599 39.59 77.2599 39.11V32.17C77.2599 31.88 77.2499 31.61 77.2199 31.37C77.1999 31.12 77.1599 30.9 77.1099 30.7C77.0599 30.5 76.9899 30.34 76.8899 30.23C76.6699 29.96 76.3899 29.76 76.0599 29.64C75.7299 29.52 75.3599 29.44 74.9399 29.39V29.15H82.1199V29.39C81.7799 29.44 81.4199 29.53 81.0399 29.65C80.6599 29.78 80.3599 30.03 80.1499 30.42C80.0099 30.69 79.9299 31.04 79.9199 31.45C79.9199 31.87 79.8999 32.26 79.8799 32.63C79.8799 33.03 79.8799 33.43 79.8699 33.82C79.8699 34.21 79.8599 34.61 79.8599 35.01V43.05C79.8599 43.51 79.8599 43.96 79.8799 44.39C79.8999 44.82 79.9699 45.13 80.0999 45.3C80.2899 45.57 80.5999 45.78 81.0099 45.92C81.4299 46.06 81.7999 46.15 82.1399 46.18V46.42H74.8699H74.8799Z" fill="#203A52"/>
<path d="M101.62 33.65C101.49 33.36 101.34 33.06 101.16 32.75C100.98 32.44 100.8 32.15 100.62 31.87C100.44 31.6 100.26 31.35 100.08 31.11C99.8999 30.88 99.7499 30.71 99.6199 30.59C99.2799 30.27 98.9199 30.06 98.5299 29.95C98.1399 29.85 97.6399 29.79 97.0299 29.77C96.7299 29.77 96.4599 29.77 96.2399 29.76C96.0199 29.76 95.7899 29.75 95.5699 29.75H93.9899C93.9899 30.15 93.9899 30.69 93.9799 31.38C93.9799 32.07 93.9699 32.79 93.9699 33.54V42.92C93.9699 43.38 93.9799 43.83 94.0099 44.25C94.0299 44.67 94.1099 44.97 94.2399 45.15C94.4799 45.5 94.8199 45.74 95.2599 45.87C95.6999 46 96.0999 46.09 96.4499 46.16V46.4H88.6499V46.16C89.0699 46.11 89.4699 46.03 89.8499 45.92C90.2299 45.81 90.6099 45.54 90.9799 45.13C91.0599 45.05 91.1199 44.92 91.1599 44.73C91.1999 44.55 91.2299 44.34 91.2599 44.11C91.2799 43.88 91.2999 43.63 91.3099 43.35C91.3199 43.07 91.3199 42.81 91.3199 42.56C91.3199 42.34 91.3199 42.04 91.3299 41.67C91.3299 41.3 91.3499 40.89 91.3499 40.45C91.3499 40 91.3599 39.54 91.3599 39.06V29.75H89.7799C89.5699 29.75 89.3499 29.75 89.1199 29.76C88.8899 29.76 88.6199 29.77 88.3199 29.77C87.7099 29.79 87.2099 29.86 86.8199 29.99C86.4299 30.12 86.0599 30.34 85.7299 30.66C85.5999 30.77 85.4499 30.94 85.2899 31.16C85.1199 31.38 84.9499 31.63 84.7599 31.89C84.5799 32.15 84.3999 32.44 84.2299 32.74C84.0599 33.04 83.9299 33.34 83.8299 33.63L83.6099 33.56L84.3299 29C84.6999 29.08 85.0399 29.14 85.3499 29.19C85.6599 29.24 86.1099 29.27 86.7099 29.29C87.3199 29.31 87.8599 29.32 88.3399 29.33C88.8199 29.33 89.2799 29.34 89.7299 29.34H94.2899C94.7699 29.34 95.2299 29.34 95.6799 29.33C96.1299 29.33 96.5899 29.31 97.0699 29.31C97.5499 29.31 98.0899 29.3 98.6999 29.3C99.2299 29.28 99.6599 29.24 100.01 29.17C100.35 29.1 100.71 29.01 101.08 28.89L101.85 33.57L101.63 33.64L101.62 33.65Z" fill="#203A52"/>
<path d="M112.63 46.42V46.18C112.63 46.18 112.79 46.16 112.98 46.13C113.16 46.1 113.36 46.04 113.56 45.96C113.76 45.88 113.94 45.77 114.09 45.62C114.24 45.48 114.32 45.29 114.32 45.07C114.32 44.93 114.28 44.69 114.19 44.36C114.1 44.03 113.98 43.63 113.82 43.16C113.66 42.69 113.48 42.16 113.27 41.59C113.06 41.01 112.84 40.41 112.6 39.79H106.22C105.98 40.4 105.75 40.98 105.52 41.53C105.3 42.08 105.07 42.64 104.85 43.2C104.51 44.06 104.35 44.67 104.35 45.02C104.35 45.23 104.41 45.4 104.54 45.54C104.67 45.68 104.83 45.79 105.03 45.88C105.23 45.97 105.45 46.03 105.68 46.07C105.91 46.11 106.13 46.15 106.34 46.18V46.42H101.23V46.16C101.65 46.11 102 46 102.3 45.82C102.6 45.64 102.77 45.52 102.82 45.46C102.93 45.35 103.12 45.08 103.37 44.67C103.63 44.25 103.94 43.64 104.31 42.82C104.65 42.07 105.02 41.21 105.44 40.25C105.86 39.29 106.28 38.3 106.72 37.29C107.16 36.27 107.6 35.25 108.03 34.22C108.46 33.19 108.87 32.22 109.25 31.33L109.01 30.8C109.3 30.67 109.56 30.52 109.79 30.34C110.02 30.16 110.23 29.98 110.4 29.79C110.58 29.6 110.72 29.41 110.84 29.24C110.96 29.06 111.05 28.92 111.12 28.81H111.31C111.81 30.14 112.28 31.4 112.73 32.59C113.18 33.78 113.61 34.93 114.01 36.03C114.42 37.13 114.81 38.2 115.2 39.23C115.58 40.26 115.97 41.28 116.35 42.29C116.53 42.79 116.69 43.2 116.84 43.53C116.99 43.86 117.16 44.23 117.36 44.65C117.39 44.71 117.46 44.83 117.58 44.99C117.69 45.15 117.84 45.31 118.02 45.48C118.2 45.65 118.43 45.8 118.7 45.92C118.97 46.05 119.29 46.12 119.66 46.14V46.43H112.65L112.63 46.42ZM109.49 31.87C109.39 32.08 109.25 32.41 109.07 32.85C108.89 33.3 108.66 33.84 108.39 34.48C108.12 35.12 107.82 35.84 107.49 36.65C107.16 37.46 106.81 38.33 106.42 39.28H112.4C112.13 38.56 111.85 37.84 111.57 37.12C111.29 36.4 111.02 35.71 110.75 35.04C110.49 34.38 110.25 33.77 110.03 33.22C109.81 32.67 109.63 32.22 109.49 31.86V31.87Z" fill="#203A52"/>
<path d="M135.55 46.42H120.14V46.18C120.54 46.12 120.94 46.01 121.33 45.87C121.72 45.73 122.03 45.53 122.25 45.27C122.33 45.17 122.4 45.03 122.45 44.85C122.51 44.67 122.55 44.45 122.58 44.21C122.61 43.97 122.64 43.72 122.66 43.45C122.68 43.19 122.7 42.93 122.7 42.67C122.7 42.45 122.7 42.14 122.71 41.76C122.71 41.38 122.73 40.96 122.73 40.5C122.73 40.04 122.74 39.58 122.74 39.1V32.21C122.74 31.92 122.73 31.65 122.7 31.41C122.67 31.17 122.64 30.94 122.59 30.75C122.54 30.56 122.47 30.41 122.37 30.29C122.15 30.02 121.85 29.81 121.47 29.67C121.09 29.53 120.7 29.43 120.28 29.38V29.14H127.94V29.38C127.73 29.41 127.48 29.46 127.2 29.52C126.91 29.58 126.64 29.69 126.38 29.83C126.12 29.97 125.9 30.18 125.72 30.44C125.54 30.7 125.44 31.05 125.42 31.48C125.4 32.04 125.39 32.55 125.38 33.02C125.38 33.48 125.36 33.94 125.36 34.39C125.36 34.84 125.35 35.3 125.35 35.78V40.15C125.35 40.57 125.35 40.99 125.36 41.43C125.36 41.87 125.37 42.36 125.37 42.91C125.39 43.42 125.41 43.91 125.43 44.37C125.45 44.83 125.54 45.18 125.68 45.4C125.74 45.48 125.87 45.56 126.06 45.64C126.25 45.72 126.48 45.79 126.76 45.84C127.03 45.9 127.33 45.94 127.65 45.98C127.97 46.02 128.29 46.04 128.61 46.04C128.74 46.04 128.94 46.04 129.22 46.03C129.5 46.03 129.81 46.01 130.14 45.98C130.48 45.96 130.82 45.92 131.17 45.87C131.52 45.82 131.83 45.76 132.11 45.68C132.75 45.5 133.28 45.27 133.71 44.98C134.13 44.69 134.5 44.36 134.8 43.98C135.1 43.6 135.36 43.2 135.57 42.76C135.78 42.32 135.98 41.86 136.17 41.38L136.41 41.45L135.52 46.39L135.55 46.42Z" fill="#203A52"/>
<path d="M137.88 46.42V46.18C138.28 46.12 138.65 46.01 139 45.87C139.34 45.73 139.64 45.52 139.88 45.25C139.96 45.15 140.02 45.02 140.06 44.84C140.1 44.66 140.13 44.46 140.16 44.22C140.18 43.98 140.2 43.73 140.21 43.46C140.22 43.19 140.22 42.94 140.22 42.68C140.22 42.46 140.22 42.15 140.23 41.77C140.23 41.39 140.25 40.97 140.25 40.51C140.25 40.05 140.26 39.59 140.26 39.11V32.17C140.26 31.88 140.25 31.61 140.22 31.37C140.2 31.12 140.16 30.9 140.11 30.7C140.06 30.5 139.99 30.34 139.89 30.23C139.67 29.96 139.39 29.76 139.06 29.64C138.73 29.52 138.36 29.44 137.94 29.39V29.15H145.12V29.39C144.78 29.44 144.42 29.53 144.04 29.65C143.66 29.78 143.36 30.03 143.15 30.42C143.01 30.69 142.93 31.04 142.92 31.45C142.92 31.87 142.9 32.26 142.88 32.63C142.88 33.03 142.88 33.43 142.87 33.82C142.87 34.21 142.86 34.61 142.86 35.01V43.05C142.86 43.51 142.86 43.96 142.88 44.39C142.9 44.82 142.97 45.13 143.1 45.3C143.29 45.57 143.6 45.78 144.01 45.92C144.43 46.06 144.8 46.15 145.14 46.18V46.42H137.87H137.88Z" fill="#203A52"/>
<path d="M164.61 33.65C164.48 33.36 164.33 33.06 164.15 32.75C163.97 32.44 163.79 32.15 163.61 31.87C163.43 31.6 163.25 31.35 163.07 31.11C162.89 30.88 162.74 30.71 162.61 30.59C162.27 30.27 161.91 30.06 161.52 29.95C161.13 29.85 160.63 29.79 160.02 29.77C159.72 29.77 159.45 29.77 159.23 29.76C159.01 29.76 158.78 29.75 158.56 29.75H156.98C156.98 30.15 156.98 30.69 156.97 31.38C156.97 32.07 156.96 32.79 156.96 33.54V42.92C156.96 43.38 156.97 43.83 157 44.25C157.02 44.67 157.1 44.97 157.23 45.15C157.47 45.5 157.81 45.74 158.25 45.87C158.69 46 159.09 46.09 159.44 46.16V46.4H151.64V46.16C152.06 46.11 152.46 46.03 152.84 45.92C153.22 45.81 153.6 45.54 153.97 45.13C154.05 45.05 154.11 44.92 154.15 44.73C154.19 44.55 154.22 44.34 154.25 44.11C154.27 43.88 154.29 43.63 154.3 43.35C154.31 43.07 154.31 42.81 154.31 42.56C154.31 42.34 154.31 42.04 154.32 41.67C154.32 41.3 154.34 40.89 154.34 40.45C154.34 40 154.35 39.54 154.35 39.06V29.75H152.77C152.56 29.75 152.34 29.75 152.11 29.76C151.88 29.76 151.61 29.77 151.31 29.77C150.7 29.79 150.2 29.86 149.81 29.99C149.42 30.12 149.05 30.34 148.72 30.66C148.59 30.77 148.44 30.94 148.28 31.16C148.11 31.38 147.94 31.63 147.75 31.89C147.57 32.15 147.39 32.44 147.22 32.74C147.05 33.04 146.92 33.34 146.82 33.63L146.6 33.56L147.32 29C147.69 29.08 148.03 29.14 148.34 29.19C148.65 29.24 149.1 29.27 149.7 29.29C150.31 29.31 150.85 29.32 151.33 29.33C151.81 29.33 152.27 29.34 152.72 29.34H157.28C157.76 29.34 158.22 29.34 158.67 29.33C159.12 29.33 159.58 29.31 160.06 29.31C160.54 29.31 161.08 29.3 161.69 29.3C162.22 29.28 162.65 29.24 163 29.17C163.34 29.1 163.7 29.01 164.07 28.89L164.84 33.57L164.62 33.64L164.61 33.65Z" fill="#203A52"/>
<path d="M180.21 29.71C179.89 29.87 179.59 30.08 179.32 30.33C179.05 30.59 178.79 30.89 178.54 31.24C178.29 31.59 178.02 31.99 177.74 32.44C177.55 32.74 177.28 33.16 176.94 33.68C176.6 34.2 176.24 34.74 175.88 35.3C175.52 35.86 175.17 36.4 174.84 36.91C174.5 37.42 174.24 37.82 174.05 38.11V42.93C174.05 43.39 174.06 43.85 174.09 44.29C174.11 44.73 174.19 45.04 174.32 45.21C174.56 45.56 174.87 45.79 175.26 45.91C175.65 46.03 176.01 46.11 176.36 46.17V46.41H168.97V46.17C169.39 46.12 169.75 46.05 170.06 45.94C170.37 45.83 170.7 45.58 171.06 45.18C171.14 45.1 171.2 44.96 171.24 44.77C171.28 44.58 171.31 44.36 171.34 44.12C171.36 43.88 171.38 43.62 171.39 43.35C171.39 43.08 171.4 42.81 171.4 42.56C171.42 42.11 171.43 41.58 171.44 40.96C171.44 40.34 171.45 39.6 171.45 38.72C171.42 38.67 171.32 38.52 171.16 38.26C171 38 170.8 37.69 170.57 37.31C170.34 36.93 170.08 36.51 169.8 36.05C169.52 35.59 169.24 35.13 168.97 34.69C168.7 34.25 168.44 33.84 168.2 33.45C167.96 33.07 167.76 32.75 167.6 32.51C167.3 32.05 167.02 31.62 166.77 31.24C166.52 30.86 166.27 30.53 166.01 30.26C165.75 29.99 165.5 29.77 165.25 29.61C165 29.45 164.72 29.36 164.4 29.35V29.11H171.67V29.35C171.43 29.37 171.19 29.39 170.95 29.42C170.71 29.45 170.49 29.5 170.28 29.58C170.07 29.65 169.9 29.75 169.78 29.87C169.65 29.99 169.59 30.15 169.59 30.36C169.59 30.57 169.71 30.88 169.94 31.31C170.17 31.74 170.42 32.16 170.67 32.59C170.85 32.88 171.05 33.23 171.29 33.63C171.53 34.03 171.79 34.47 172.08 34.93C172.37 35.39 172.66 35.85 172.96 36.33C173.26 36.81 173.53 37.27 173.79 37.7C174 37.4 174.25 37.01 174.56 36.54C174.86 36.07 175.17 35.59 175.48 35.1C175.79 34.61 176.09 34.14 176.37 33.7C176.65 33.25 176.86 32.9 177.01 32.64C177.09 32.51 177.18 32.36 177.27 32.2C177.37 32.03 177.46 31.86 177.55 31.67C177.64 31.49 177.71 31.3 177.78 31.11C177.84 30.92 177.88 30.74 177.88 30.58C177.88 30.33 177.82 30.12 177.69 29.98C177.56 29.84 177.4 29.72 177.2 29.64C177 29.56 176.78 29.5 176.54 29.46C176.3 29.42 176.07 29.38 175.84 29.35V29.11H181.38V29.35C180.93 29.41 180.55 29.53 180.23 29.69L180.21 29.71Z" fill="#203A52"/>
</g>
<defs>
<clipPath id="clip0_207_1707">
<rect width="181.37" height="46.58" fill="white"/>
</clipPath>
</defs>
</svg>
