<svg width="250" height="23" viewBox="0 0 250 23" fill="none" xmlns="http://www.w3.org/2000/svg">
<path d="M0.29 12.16C0.29 10.58 0.54 9.13 1.04 7.81C1.54 6.49 2.26 5.34 3.2 4.36C4.14 3.38 5.27 2.62 6.59 2.08C7.91 1.52 9.39 1.24 11.03 1.24C12.11 1.24 13.15 1.35 14.15 1.57C15.17 1.79 16.14 2.11 17.06 2.53L15.95 8.05H15.05L13.88 2.65L15.71 2.98L15.38 3.79C14.62 3.25 13.86 2.88 13.1 2.68C12.34 2.48 11.6 2.38 10.88 2.38C9.68 2.38 8.62 2.64 7.7 3.16C6.78 3.66 6 4.35 5.36 5.23C4.74 6.09 4.27 7.08 3.95 8.2C3.63 9.3 3.47 10.46 3.47 11.68C3.47 13.4 3.75 14.98 4.31 16.42C4.87 17.84 5.71 18.98 6.83 19.84C7.95 20.7 9.35 21.13 11.03 21.13C11.91 21.13 12.73 21.01 13.49 20.77C14.27 20.51 15.01 20.19 15.71 19.81L15.5 20.74L13.91 21.19L15.05 15.73H15.95L17.03 21.19C15.89 21.57 14.8 21.85 13.76 22.03C12.72 22.21 11.69 22.3 10.67 22.3C8.51 22.3 6.65 21.9 5.09 21.1C3.55 20.3 2.36 19.15 1.52 17.65C0.7 16.13 0.29 14.3 0.29 12.16ZM23.8895 13.6L23.5295 13.42C24.0495 12.48 24.5695 11.63 25.0895 10.87C25.6295 10.11 26.2095 9.51 26.8295 9.07C27.4695 8.61 28.1895 8.38 28.9895 8.38C29.0895 8.38 29.2095 8.38 29.3495 8.38C29.5095 8.38 29.6795 8.4 29.8595 8.44L29.4095 11.14C28.2095 11.14 27.1395 11.32 26.1995 11.68C25.2595 12.04 24.4895 12.68 23.8895 13.6ZM24.2495 11.92V18.07C24.2495 18.73 24.2595 19.26 24.2795 19.66C24.3195 20.04 24.3995 20.33 24.5195 20.53C24.6595 20.77 24.8995 20.93 25.2395 21.01C25.5795 21.09 26.1795 21.17 27.0395 21.25V22C26.4595 21.98 25.9795 21.96 25.5995 21.94C25.2395 21.92 24.9195 21.91 24.6395 21.91C24.3795 21.89 24.1095 21.88 23.8295 21.88C23.5695 21.88 23.2495 21.88 22.8695 21.88C22.3695 21.88 21.9595 21.89 21.6395 21.91C21.3395 21.91 21.0295 21.92 20.7095 21.94C20.3895 21.94 19.9695 21.96 19.4495 22V21.25C19.9095 21.17 20.2795 21.1 20.5595 21.04C20.8595 20.96 21.0695 20.82 21.1895 20.62C21.3295 20.4 21.4095 20.1 21.4295 19.72C21.4695 19.32 21.4895 18.76 21.4895 18.04V12.67C21.4895 11.97 21.4795 11.44 21.4595 11.08C21.4395 10.7 21.3495 10.42 21.1895 10.24C21.0695 10.1 20.8795 10 20.6195 9.94C20.3795 9.88 20.0195 9.82 19.5395 9.76V8.98C20.4195 8.9 21.1795 8.79 21.8195 8.65C22.4595 8.49 23.0995 8.31 23.7395 8.11L24.3995 8.44C24.3395 8.94 24.2995 9.47 24.2795 10.03C24.2595 10.59 24.2495 11.22 24.2495 11.92ZM43.4919 19.54C43.0919 19.98 42.6119 20.41 42.0519 20.83C41.5119 21.25 40.8819 21.6 40.1619 21.88C39.4419 22.14 38.6319 22.27 37.7319 22.27C36.3719 22.27 35.2319 21.98 34.3119 21.4C33.3919 20.8 32.7019 20 32.2419 19C31.7819 17.98 31.5519 16.86 31.5519 15.64C31.5519 14.22 31.8319 12.94 32.3919 11.8C32.9519 10.66 33.7419 9.76 34.7619 9.1C35.7819 8.42 37.0019 8.08 38.4219 8.08C40.0419 8.08 41.2919 8.58 42.1719 9.58C43.0719 10.56 43.5219 11.87 43.5219 13.51V14.8H33.7419L33.8619 13.84L40.7619 13.63C40.7619 12.81 40.6719 12.06 40.4919 11.38C40.3119 10.7 40.0019 10.15 39.5619 9.73C39.1419 9.31 38.5719 9.1 37.8519 9.1C37.1119 9.1 36.4819 9.36 35.9619 9.88C35.4619 10.4 35.0719 11.1 34.7919 11.98C34.5319 12.84 34.4019 13.82 34.4019 14.92C34.4019 16.56 34.7719 17.89 35.5119 18.91C36.2719 19.91 37.4219 20.41 38.9619 20.41C39.8619 20.41 40.6319 20.26 41.2719 19.96C41.9119 19.64 42.4519 19.27 42.8919 18.85L43.4919 19.54ZM46.2673 10.69C46.7273 10.23 47.2273 9.8 47.7673 9.4C48.3073 9 48.8973 8.68 49.5373 8.44C50.1973 8.2 50.9273 8.08 51.7273 8.08C53.1473 8.08 54.2773 8.5 55.1173 9.34C55.9773 10.18 56.3973 11.4 56.3773 13L56.3473 18.97C56.3473 19.55 56.4073 20 56.5273 20.32C56.6673 20.64 56.8973 20.86 57.2173 20.98C57.5573 21.1 58.0173 21.16 58.5973 21.16V21.88C58.1573 22.02 57.7373 22.12 57.3373 22.18C56.9373 22.26 56.5673 22.3 56.2273 22.3C55.5073 22.3 54.8973 22.12 54.3973 21.76C53.9173 21.4 53.6773 20.78 53.6773 19.9L53.7373 13.87C53.7373 13.15 53.6473 12.5 53.4673 11.92C53.2873 11.34 52.9673 10.87 52.5073 10.51C52.0673 10.15 51.4273 9.97 50.5873 9.97C49.8273 9.97 49.1173 10.1 48.4573 10.36C47.8173 10.62 47.2573 10.94 46.7773 11.32L46.2673 10.69ZM54.1873 17.47L54.3673 18.37C53.8673 19.07 53.3473 19.73 52.8073 20.35C52.2673 20.95 51.6773 21.43 51.0373 21.79C50.4173 22.13 49.7073 22.3 48.9073 22.3C48.0473 22.3 47.3073 22.04 46.6873 21.52C46.0673 21 45.7573 20.26 45.7573 19.3C45.7573 18.7 45.9073 18.12 46.2073 17.56C46.5073 16.98 46.9673 16.44 47.5873 15.94C48.2273 15.42 49.0473 14.95 50.0473 14.53C51.0473 14.11 52.2473 13.76 53.6473 13.48L55.1473 13.15L54.9673 14.32L53.8273 14.53C52.7673 14.73 51.8273 15.02 51.0073 15.4C50.2073 15.78 49.5873 16.23 49.1473 16.75C48.7073 17.25 48.4873 17.82 48.4873 18.46C48.4873 19.04 48.6573 19.5 48.9973 19.84C49.3573 20.18 49.8173 20.35 50.3773 20.35C50.9573 20.35 51.4773 20.2 51.9373 19.9C52.4173 19.58 52.8473 19.2 53.2273 18.76C53.6073 18.3 53.9273 17.87 54.1873 17.47ZM65.443 22.3C64.283 22.3 63.413 21.98 62.833 21.34C62.273 20.7 61.993 19.77 61.993 18.55V9.82H60.103V9.01C61.103 8.83 61.903 8.37 62.503 7.63C63.103 6.89 63.553 5.96 63.853 4.84H64.753V8.56L69.313 8.38V9.82H64.753V17.44C64.753 18.72 64.943 19.59 65.323 20.05C65.703 20.51 66.293 20.74 67.093 20.74C67.473 20.74 67.823 20.7 68.143 20.62C68.463 20.54 68.763 20.45 69.043 20.35L69.403 21.25C68.803 21.55 68.163 21.8 67.483 22C66.823 22.2 66.143 22.3 65.443 22.3ZM73.9569 5.59C73.4569 5.59 73.0269 5.41 72.6669 5.05C72.3069 4.69 72.1269 4.25 72.1269 3.73C72.1269 3.21 72.3069 2.78 72.6669 2.44C73.0269 2.08 73.4569 1.9 73.9569 1.9C74.4769 1.9 74.9069 2.08 75.2469 2.44C75.6069 2.78 75.7869 3.21 75.7869 3.73C75.7869 4.25 75.6069 4.69 75.2469 5.05C74.9069 5.41 74.4769 5.59 73.9569 5.59ZM75.6069 12.01V18.07C75.6069 18.73 75.6169 19.26 75.6369 19.66C75.6769 20.04 75.7569 20.33 75.8769 20.53C76.0169 20.77 76.2269 20.93 76.5069 21.01C76.7869 21.09 77.1769 21.17 77.6769 21.25V22C77.1369 21.96 76.7069 21.94 76.3869 21.94C76.0669 21.92 75.7569 21.91 75.4569 21.91C75.1569 21.89 74.7469 21.88 74.2269 21.88C73.7269 21.88 73.3169 21.89 72.9969 21.91C72.6969 21.91 72.3869 21.92 72.0669 21.94C71.7469 21.94 71.3269 21.96 70.8069 22V21.25C71.2669 21.17 71.6369 21.1 71.9169 21.04C72.2169 20.96 72.4269 20.82 72.5469 20.62C72.6869 20.4 72.7669 20.1 72.7869 19.72C72.8269 19.32 72.8469 18.76 72.8469 18.04V12.76C72.8469 12.06 72.8369 11.53 72.8169 11.17C72.7969 10.79 72.7069 10.51 72.5469 10.33C72.4269 10.19 72.2369 10.09 71.9769 10.03C71.7369 9.97 71.3769 9.91 70.8969 9.85V9.07C71.7769 8.99 72.5369 8.88 73.1769 8.74C73.8369 8.58 74.5069 8.39 75.1869 8.17L75.7569 8.5C75.6969 9 75.6569 9.54 75.6369 10.12C75.6169 10.68 75.6069 11.31 75.6069 12.01ZM78.8654 9.13V8.38C79.3654 8.4 79.7754 8.42 80.0954 8.44C80.4354 8.46 80.7454 8.48 81.0254 8.5C81.3254 8.5 81.6754 8.5 82.0754 8.5C82.6954 8.5 83.2254 8.49 83.6654 8.47C84.1054 8.45 84.6254 8.42 85.2254 8.38V9.13C84.6654 9.17 84.2454 9.25 83.9654 9.37C83.6854 9.49 83.5454 9.7 83.5454 10C83.5454 10.18 83.5854 10.39 83.6654 10.63C83.7454 10.85 83.8554 11.12 83.9954 11.44L87.4754 19L86.6654 19.39L90.0854 11.5C90.3054 10.96 90.4154 10.53 90.4154 10.21C90.4154 9.87 90.2854 9.62 90.0254 9.46C89.7854 9.28 89.3554 9.17 88.7354 9.13V8.38C89.0554 8.4 89.3354 8.42 89.5754 8.44C89.8154 8.46 90.0654 8.48 90.3254 8.5C90.5854 8.5 90.9054 8.5 91.2854 8.5C91.7054 8.5 92.0454 8.5 92.3054 8.5C92.5654 8.48 92.8154 8.46 93.0554 8.44C93.3154 8.42 93.6154 8.4 93.9554 8.38V9.13C93.4354 9.19 93.0254 9.37 92.7254 9.67C92.4254 9.95 92.1054 10.44 91.7654 11.14L86.7854 22H85.9754L81.0554 11.5C80.6554 10.68 80.3354 10.09 80.0954 9.73C79.8554 9.37 79.4454 9.17 78.8654 9.13ZM106.627 19.54C106.227 19.98 105.747 20.41 105.187 20.83C104.647 21.25 104.017 21.6 103.297 21.88C102.577 22.14 101.767 22.27 100.867 22.27C99.5066 22.27 98.3666 21.98 97.4466 21.4C96.5266 20.8 95.8366 20 95.3766 19C94.9166 17.98 94.6866 16.86 94.6866 15.64C94.6866 14.22 94.9666 12.94 95.5266 11.8C96.0866 10.66 96.8766 9.76 97.8966 9.1C98.9166 8.42 100.137 8.08 101.557 8.08C103.177 8.08 104.427 8.58 105.307 9.58C106.207 10.56 106.657 11.87 106.657 13.51V14.8H96.8766L96.9966 13.84L103.897 13.63C103.897 12.81 103.807 12.06 103.627 11.38C103.447 10.7 103.137 10.15 102.697 9.73C102.277 9.31 101.707 9.1 100.987 9.1C100.247 9.1 99.6166 9.36 99.0966 9.88C98.5966 10.4 98.2066 11.1 97.9266 11.98C97.6666 12.84 97.5366 13.82 97.5366 14.92C97.5366 16.56 97.9066 17.89 98.6466 18.91C99.4066 19.91 100.557 20.41 102.097 20.41C102.997 20.41 103.767 20.26 104.407 19.96C105.047 19.64 105.587 19.27 106.027 18.85L106.627 19.54ZM115.134 12.16C115.134 10.58 115.384 9.13 115.884 7.81C116.384 6.49 117.104 5.34 118.044 4.36C118.984 3.38 120.114 2.62 121.434 2.08C122.754 1.52 124.234 1.24 125.874 1.24C126.954 1.24 127.994 1.35 128.994 1.57C130.014 1.79 130.984 2.11 131.904 2.53L130.794 8.05H129.894L128.724 2.65L130.554 2.98L130.224 3.79C129.464 3.25 128.704 2.88 127.944 2.68C127.184 2.48 126.444 2.38 125.724 2.38C124.524 2.38 123.464 2.64 122.544 3.16C121.624 3.66 120.844 4.35 120.204 5.23C119.584 6.09 119.114 7.08 118.794 8.2C118.474 9.3 118.314 10.46 118.314 11.68C118.314 13.4 118.594 14.98 119.154 16.42C119.714 17.84 120.554 18.98 121.674 19.84C122.794 20.7 124.194 21.13 125.874 21.13C126.754 21.13 127.574 21.01 128.334 20.77C129.114 20.51 129.854 20.19 130.554 19.81L130.344 20.74L128.754 21.19L129.894 15.73H130.794L131.874 21.19C130.734 21.57 129.644 21.85 128.604 22.03C127.564 22.21 126.534 22.3 125.514 22.3C123.354 22.3 121.494 21.9 119.934 21.1C118.394 20.3 117.204 19.15 116.364 17.65C115.544 16.13 115.134 14.3 115.134 12.16ZM141.223 22.3C139.943 22.3 138.783 22.04 137.743 21.52C136.723 21 135.913 20.23 135.313 19.21C134.713 18.19 134.413 16.96 134.413 15.52C134.413 14.04 134.733 12.74 135.373 11.62C136.013 10.5 136.863 9.63 137.923 9.01C139.003 8.39 140.183 8.08 141.463 8.08C142.763 8.08 143.923 8.36 144.943 8.92C145.963 9.46 146.773 10.25 147.373 11.29C147.973 12.31 148.273 13.54 148.273 14.98C148.273 16.44 147.953 17.72 147.313 18.82C146.673 19.92 145.823 20.78 144.763 21.4C143.703 22 142.523 22.3 141.223 22.3ZM141.403 21.25C142.243 21.25 142.953 21.01 143.533 20.53C144.113 20.03 144.553 19.35 144.853 18.49C145.153 17.63 145.303 16.63 145.303 15.49C145.303 14.65 145.223 13.85 145.063 13.09C144.903 12.33 144.663 11.66 144.343 11.08C144.023 10.48 143.613 10.01 143.113 9.67C142.613 9.31 142.013 9.13 141.313 9.13C140.473 9.13 139.753 9.38 139.153 9.88C138.573 10.36 138.133 11.04 137.833 11.92C137.533 12.8 137.383 13.81 137.383 14.95C137.383 15.77 137.463 16.57 137.623 17.35C137.783 18.11 138.023 18.78 138.343 19.36C138.663 19.94 139.073 20.4 139.573 20.74C140.093 21.08 140.703 21.25 141.403 21.25ZM155.405 4.24V17.38C155.405 18.26 155.415 18.95 155.435 19.45C155.455 19.93 155.535 20.29 155.675 20.53C155.815 20.77 156.025 20.93 156.305 21.01C156.605 21.09 156.995 21.17 157.475 21.25V22C156.935 21.96 156.505 21.94 156.185 21.94C155.865 21.92 155.555 21.91 155.255 21.91C154.955 21.89 154.545 21.88 154.025 21.88C153.525 21.88 153.125 21.89 152.825 21.91C152.525 21.91 152.215 21.92 151.895 21.94C151.575 21.94 151.145 21.96 150.605 22V21.25C151.065 21.17 151.435 21.1 151.715 21.04C152.015 20.96 152.235 20.82 152.375 20.62C152.515 20.38 152.595 20.02 152.615 19.54C152.655 19.04 152.675 18.32 152.675 17.38V4.99C152.675 4.29 152.655 3.76 152.615 3.4C152.595 3.02 152.515 2.74 152.375 2.56C152.235 2.4 152.045 2.3 151.805 2.26C151.565 2.2 151.195 2.14 150.695 2.08V1.3C151.575 1.22 152.345 1.11 153.005 0.969999C153.665 0.809999 154.325 0.619999 154.985 0.399999L155.555 0.699999C155.495 1.2 155.455 1.74 155.435 2.32C155.415 2.9 155.405 3.54 155.405 4.24ZM164.34 4.24V17.38C164.34 18.26 164.35 18.95 164.37 19.45C164.39 19.93 164.47 20.29 164.61 20.53C164.75 20.77 164.96 20.93 165.24 21.01C165.54 21.09 165.93 21.17 166.41 21.25V22C165.87 21.96 165.44 21.94 165.12 21.94C164.8 21.92 164.49 21.91 164.19 21.91C163.89 21.89 163.48 21.88 162.96 21.88C162.46 21.88 162.06 21.89 161.76 21.91C161.46 21.91 161.15 21.92 160.83 21.94C160.51 21.94 160.08 21.96 159.54 22V21.25C160 21.17 160.37 21.1 160.65 21.04C160.95 20.96 161.17 20.82 161.31 20.62C161.45 20.38 161.53 20.02 161.55 19.54C161.59 19.04 161.61 18.32 161.61 17.38V4.99C161.61 4.29 161.59 3.76 161.55 3.4C161.53 3.02 161.45 2.74 161.31 2.56C161.17 2.4 160.98 2.3 160.74 2.26C160.5 2.2 160.13 2.14 159.63 2.08V1.3C160.51 1.22 161.28 1.11 161.94 0.969999C162.6 0.809999 163.26 0.619999 163.92 0.399999L164.49 0.699999C164.43 1.2 164.39 1.74 164.37 2.32C164.35 2.9 164.34 3.54 164.34 4.24ZM180.836 19.54C180.436 19.98 179.956 20.41 179.396 20.83C178.856 21.25 178.226 21.6 177.506 21.88C176.786 22.14 175.976 22.27 175.076 22.27C173.716 22.27 172.576 21.98 171.656 21.4C170.736 20.8 170.046 20 169.586 19C169.126 17.98 168.896 16.86 168.896 15.64C168.896 14.22 169.176 12.94 169.736 11.8C170.296 10.66 171.086 9.76 172.106 9.1C173.126 8.42 174.346 8.08 175.766 8.08C177.386 8.08 178.636 8.58 179.516 9.58C180.416 10.56 180.866 11.87 180.866 13.51V14.8H171.086L171.206 13.84L178.106 13.63C178.106 12.81 178.016 12.06 177.836 11.38C177.656 10.7 177.346 10.15 176.906 9.73C176.486 9.31 175.916 9.1 175.196 9.1C174.456 9.1 173.826 9.36 173.306 9.88C172.806 10.4 172.416 11.1 172.136 11.98C171.876 12.84 171.746 13.82 171.746 14.92C171.746 16.56 172.116 17.89 172.856 18.91C173.616 19.91 174.766 20.41 176.306 20.41C177.206 20.41 177.976 20.26 178.616 19.96C179.256 19.64 179.796 19.27 180.236 18.85L180.836 19.54ZM194.741 19.39C194.361 19.87 193.901 20.34 193.361 20.8C192.821 21.24 192.201 21.6 191.501 21.88C190.801 22.16 190.011 22.3 189.131 22.3C187.911 22.3 186.861 22.02 185.981 21.46C185.101 20.88 184.421 20.08 183.941 19.06C183.481 18.04 183.251 16.87 183.251 15.55C183.251 14.15 183.531 12.89 184.091 11.77C184.671 10.63 185.511 9.73 186.611 9.07C187.731 8.41 189.081 8.08 190.661 8.08C191.481 8.08 192.201 8.17 192.821 8.35C193.441 8.53 194.011 8.75 194.531 9.01L193.451 13.06H192.701L191.621 8.83L192.671 9.85C192.171 9.55 191.711 9.36 191.291 9.28C190.871 9.18 190.511 9.13 190.211 9.13C189.291 9.13 188.521 9.4 187.901 9.94C187.301 10.48 186.851 11.18 186.551 12.04C186.251 12.9 186.101 13.83 186.101 14.83C186.101 16.53 186.471 17.89 187.211 18.91C187.951 19.93 189.011 20.44 190.391 20.44C191.271 20.44 192.011 20.26 192.611 19.9C193.231 19.54 193.731 19.14 194.111 18.7L194.741 19.39ZM201.644 22.3C200.484 22.3 199.614 21.98 199.034 21.34C198.474 20.7 198.194 19.77 198.194 18.55V9.82H196.304V9.01C197.304 8.83 198.104 8.37 198.704 7.63C199.304 6.89 199.754 5.96 200.054 4.84H200.954V8.56L205.514 8.38V9.82H200.954V17.44C200.954 18.72 201.144 19.59 201.524 20.05C201.904 20.51 202.494 20.74 203.294 20.74C203.674 20.74 204.024 20.7 204.344 20.62C204.664 20.54 204.964 20.45 205.244 20.35L205.604 21.25C205.004 21.55 204.364 21.8 203.684 22C203.024 22.2 202.344 22.3 201.644 22.3ZM210.158 5.59C209.658 5.59 209.228 5.41 208.868 5.05C208.508 4.69 208.328 4.25 208.328 3.73C208.328 3.21 208.508 2.78 208.868 2.44C209.228 2.08 209.658 1.9 210.158 1.9C210.678 1.9 211.108 2.08 211.448 2.44C211.808 2.78 211.988 3.21 211.988 3.73C211.988 4.25 211.808 4.69 211.448 5.05C211.108 5.41 210.678 5.59 210.158 5.59ZM211.808 12.01V18.07C211.808 18.73 211.818 19.26 211.838 19.66C211.878 20.04 211.958 20.33 212.078 20.53C212.218 20.77 212.428 20.93 212.708 21.01C212.988 21.09 213.378 21.17 213.878 21.25V22C213.338 21.96 212.908 21.94 212.588 21.94C212.268 21.92 211.958 21.91 211.658 21.91C211.358 21.89 210.948 21.88 210.428 21.88C209.928 21.88 209.518 21.89 209.198 21.91C208.898 21.91 208.588 21.92 208.268 21.94C207.948 21.94 207.528 21.96 207.008 22V21.25C207.468 21.17 207.838 21.1 208.118 21.04C208.418 20.96 208.628 20.82 208.748 20.62C208.888 20.4 208.968 20.1 208.988 19.72C209.028 19.32 209.048 18.76 209.048 18.04V12.76C209.048 12.06 209.038 11.53 209.018 11.17C208.998 10.79 208.908 10.51 208.748 10.33C208.628 10.19 208.438 10.09 208.178 10.03C207.938 9.97 207.578 9.91 207.098 9.85V9.07C207.978 8.99 208.738 8.88 209.378 8.74C210.038 8.58 210.708 8.39 211.388 8.17L211.958 8.5C211.898 9 211.858 9.54 211.838 10.12C211.818 10.68 211.808 11.31 211.808 12.01ZM223.167 22.3C221.887 22.3 220.727 22.04 219.687 21.52C218.667 21 217.857 20.23 217.257 19.21C216.657 18.19 216.357 16.96 216.357 15.52C216.357 14.04 216.677 12.74 217.317 11.62C217.957 10.5 218.807 9.63 219.867 9.01C220.947 8.39 222.127 8.08 223.407 8.08C224.707 8.08 225.867 8.36 226.887 8.92C227.907 9.46 228.717 10.25 229.317 11.29C229.917 12.31 230.217 13.54 230.217 14.98C230.217 16.44 229.897 17.72 229.257 18.82C228.617 19.92 227.767 20.78 226.707 21.4C225.647 22 224.467 22.3 223.167 22.3ZM223.347 21.25C224.187 21.25 224.897 21.01 225.477 20.53C226.057 20.03 226.497 19.35 226.797 18.49C227.097 17.63 227.247 16.63 227.247 15.49C227.247 14.65 227.167 13.85 227.007 13.09C226.847 12.33 226.607 11.66 226.287 11.08C225.967 10.48 225.557 10.01 225.057 9.67C224.557 9.31 223.957 9.13 223.257 9.13C222.417 9.13 221.697 9.38 221.097 9.88C220.517 10.36 220.077 11.04 219.777 11.92C219.477 12.8 219.327 13.81 219.327 14.95C219.327 15.77 219.407 16.57 219.567 17.35C219.727 18.11 219.967 18.78 220.287 19.36C220.607 19.94 221.017 20.4 221.517 20.74C222.037 21.08 222.647 21.25 223.347 21.25ZM237.648 12.01V18.07C237.648 18.73 237.658 19.26 237.678 19.66C237.718 20.04 237.798 20.33 237.918 20.53C238.058 20.77 238.268 20.93 238.548 21.01C238.828 21.09 239.218 21.17 239.718 21.25V22C239.178 21.96 238.748 21.94 238.428 21.94C238.108 21.92 237.798 21.91 237.498 21.91C237.198 21.89 236.788 21.88 236.268 21.88C235.768 21.88 235.358 21.89 235.038 21.91C234.738 21.91 234.428 21.92 234.108 21.94C233.788 21.94 233.368 21.96 232.848 22V21.25C233.308 21.17 233.678 21.1 233.958 21.04C234.258 20.96 234.468 20.82 234.588 20.62C234.728 20.4 234.808 20.1 234.828 19.72C234.868 19.32 234.888 18.76 234.888 18.04V12.76C234.888 12.06 234.878 11.53 234.858 11.17C234.838 10.79 234.748 10.51 234.588 10.33C234.468 10.19 234.278 10.09 234.018 10.03C233.778 9.97 233.418 9.91 232.938 9.85V9.07C233.818 8.99 234.578 8.88 235.218 8.74C235.878 8.58 236.548 8.39 237.228 8.17L237.798 8.5C237.738 9 237.698 9.54 237.678 10.12C237.658 10.68 237.648 11.31 237.648 12.01ZM247.338 13.36V18.07C247.338 18.73 247.348 19.26 247.368 19.66C247.408 20.04 247.488 20.33 247.608 20.53C247.748 20.77 247.958 20.93 248.238 21.01C248.538 21.09 248.928 21.17 249.408 21.25V22C248.868 21.96 248.438 21.94 248.118 21.94C247.798 21.92 247.488 21.91 247.188 21.91C246.888 21.89 246.478 21.88 245.958 21.88C245.458 21.88 245.058 21.89 244.758 21.91C244.458 21.91 244.148 21.92 243.828 21.94C243.508 21.94 243.078 21.96 242.538 22V21.25C242.998 21.17 243.368 21.1 243.648 21.04C243.948 20.96 244.168 20.82 244.308 20.62C244.428 20.4 244.508 20.1 244.548 19.72C244.588 19.32 244.608 18.76 244.608 18.04V14.5C244.608 13.42 244.468 12.57 244.188 11.95C243.928 11.31 243.548 10.86 243.048 10.6C242.568 10.32 241.968 10.18 241.248 10.18C240.328 10.18 239.538 10.35 238.878 10.69C238.218 11.01 237.648 11.4 237.168 11.86L236.778 11.5C237.318 10.9 237.868 10.34 238.428 9.82C238.988 9.3 239.608 8.88 240.288 8.56C240.968 8.24 241.748 8.08 242.628 8.08C243.608 8.08 244.448 8.28 245.148 8.68C245.848 9.08 246.388 9.67 246.768 10.45C247.148 11.23 247.338 12.2 247.338 13.36Z" fill="white"/>
</svg>
