<svg width="149" height="46" viewBox="0 0 149 46" fill="none" xmlns="http://www.w3.org/2000/svg">
<g clip-path="url(#clip0_809_249)">
<path d="M2.1303 9.66692V22.0941H8.21932C9.24135 22.0941 10.1685 21.9835 11.0094 21.7581C11.846 21.5369 12.5618 21.1712 13.157 20.6651C13.7521 20.159 14.2221 19.5125 14.5628 18.713C14.9035 17.9134 15.0759 16.9565 15.0759 15.838C15.0759 14.7194 14.9035 13.7668 14.5628 12.9842C14.2221 12.2017 13.7521 11.5637 13.157 11.0747C12.5618 10.5856 11.846 10.2283 11.0094 10.0029C10.1728 9.78175 9.24135 9.66692 8.21932 9.66692H2.1303ZM0 8.53564C0 8.31448 0.0776221 8.11034 0.232866 7.92746C0.388111 7.74459 0.620977 7.65527 0.935778 7.65527H8.21501C9.40522 7.65527 10.548 7.78712 11.6433 8.05505C12.7343 8.32299 13.6917 8.76955 14.5153 9.39899C15.339 10.0284 15.9902 10.8663 16.4731 11.9167C16.9561 12.9672 17.1976 14.2601 17.1976 15.7997C17.1976 17.1181 17.0208 18.2494 16.6672 19.2021C16.3093 20.1547 15.822 20.9543 15.1967 21.5965C14.5714 22.2387 13.834 22.7363 12.9845 23.0893C12.1349 23.438 11.225 23.6847 10.2591 23.825L17.0726 36.8433C17.1588 37.0092 17.1976 37.1793 17.1976 37.3452C17.1976 37.6259 17.0984 37.8725 16.9001 38.0809C16.7017 38.2893 16.4171 38.3957 16.0505 38.3957C15.7961 38.3957 15.5546 38.2255 15.3261 37.8896C15.0975 37.5536 14.8991 37.2346 14.731 36.9241L8.04683 24.0334H2.1303V37.426C2.1303 37.7322 2.02249 37.9661 1.81118 38.1192C1.59988 38.2723 1.34976 38.3489 1.06515 38.3489C0.81072 38.3489 0.564917 38.2723 0.340675 38.1192C0.116433 37.9661 0 37.7364 0 37.426L0 8.53564Z" fill="#22334F"/>
<path d="M26.1768 8.53539C26.1768 8.22918 26.2889 8.00377 26.5174 7.86342C26.746 7.72308 26.9875 7.65503 27.2419 7.65503C27.5265 7.65503 27.7723 7.72733 27.9879 7.86342C28.1992 8.00377 28.3071 8.22918 28.3071 8.53539V37.4598C28.3071 37.766 28.1992 37.9999 27.9879 38.153C27.7766 38.3104 27.5265 38.3869 27.2419 38.3869C26.9875 38.3869 26.7417 38.3104 26.5174 38.153C26.2932 37.9999 26.1768 37.766 26.1768 37.4598V8.53539Z" fill="#22334F"/>
<path d="M83.0177 7.65552C83.3281 7.65552 83.5567 7.75334 83.699 7.94897C83.8413 8.14461 83.9103 8.37001 83.9103 8.62094C83.9103 8.87186 83.837 9.11428 83.699 9.33544C83.5567 9.56084 83.3281 9.67142 83.0177 9.67142H75.6867V37.4603C75.6867 37.7665 75.5746 38.0004 75.346 38.1535C75.1218 38.3066 74.8803 38.3831 74.6215 38.3831C74.3369 38.3831 74.0911 38.3066 73.8755 38.1535C73.6642 38.0004 73.5564 37.7665 73.5564 37.4603V9.67142H66.1392C65.8545 9.67142 65.6346 9.5651 65.4794 9.3567C65.3198 9.14831 65.2422 8.91439 65.2422 8.66347C65.2422 8.41254 65.3198 8.17863 65.4794 7.97024C65.6346 7.76184 65.8545 7.65552 66.1392 7.65552H83.022H83.0177Z" fill="#22334F"/>
<path d="M105.924 16.4119C105.924 14.077 105.359 12.3673 104.233 11.2828C103.108 10.1983 101.529 9.65817 99.4982 9.65817C97.467 9.65817 95.8974 10.2026 94.7848 11.2828C93.6722 12.3631 93.1159 14.077 93.1159 16.4119V29.6301C93.1159 31.9649 93.6722 33.6746 94.7848 34.7591C95.8974 35.8436 97.4714 36.3838 99.4982 36.3838C101.525 36.3838 103.108 35.8394 104.233 34.7591C105.363 33.6746 105.924 31.9649 105.924 29.6301V16.4119ZM99.4938 38.3869C98.2821 38.3869 97.1609 38.2253 96.1345 37.9063C95.1039 37.5873 94.2112 37.0812 93.4479 36.3838C92.689 35.6905 92.0852 34.7846 91.654 33.6746C91.2141 32.5646 90.9985 31.2164 90.9985 29.6301V16.4119C90.9985 14.8255 91.2185 13.4773 91.654 12.3673C92.0896 11.2573 92.689 10.3514 93.4479 9.65817C94.2112 8.96494 95.1039 8.45459 96.1345 8.13561C97.1652 7.81664 98.2821 7.65503 99.4938 7.65503C100.706 7.65503 101.792 7.81664 102.836 8.13561C103.879 8.45459 104.789 8.96069 105.561 9.65817C106.338 10.3514 106.941 11.2573 107.381 12.3673C107.817 13.4816 108.037 14.8298 108.037 16.4119V29.6301C108.037 31.2164 107.817 32.5646 107.381 33.6746C106.941 34.7846 106.338 35.6905 105.561 36.3838C104.785 37.077 103.875 37.5873 102.836 37.9063C101.792 38.2253 100.68 38.3869 99.4938 38.3869Z" fill="#22334F"/>
<path d="M134.89 38.3869C134.579 38.3869 134.29 38.2168 134.036 37.8808C133.781 37.5448 133.553 37.1918 133.354 36.8303L120.823 12.614V37.4598C120.823 37.766 120.715 37.9999 120.504 38.153C120.292 38.3061 120.042 38.3827 119.758 38.3827C119.503 38.3827 119.257 38.3061 119.033 38.153C118.805 37.9999 118.692 37.766 118.692 37.4598V8.53539C118.692 8.19941 118.8 7.96975 119.012 7.84216C119.223 7.71882 119.473 7.65503 119.758 7.65503C120.154 7.65503 120.495 7.85067 120.78 8.24194C121.064 8.63321 121.306 9.01172 121.504 9.37748L133.824 33.3854V8.53539C133.824 8.22918 133.937 8.00377 134.165 7.86342C134.389 7.72308 134.635 7.65503 134.89 7.65503C135.174 7.65503 135.42 7.72308 135.636 7.86342C135.847 8.00377 135.955 8.22918 135.955 8.53539V37.464C135.955 37.7702 135.847 38.0041 135.636 38.1572C135.424 38.3104 135.174 38.3869 134.89 38.3869Z" fill="#22334F"/>
<path d="M146.871 8.53539C146.871 8.22918 146.983 8.00377 147.212 7.86342C147.44 7.72308 147.682 7.65503 147.936 7.65503C148.221 7.65503 148.467 7.72733 148.682 7.86342C148.894 8.00377 149.001 8.22918 149.001 8.53539V37.4598C149.001 37.766 148.894 37.9999 148.682 38.153C148.471 38.3104 148.221 38.3869 147.936 38.3869C147.682 38.3869 147.436 38.3104 147.212 38.153C146.988 37.9999 146.871 37.766 146.871 37.4598V8.53539Z" fill="#22334F"/>
<path d="M46.4655 34.483H46.4439C46.4439 34.483 46.431 34.483 46.4223 34.483C46.142 34.483 45.866 34.4532 45.5987 34.4064C45.5642 34.3979 45.5297 34.3979 45.4995 34.3937C43.2614 33.9514 41.5753 31.9993 41.5753 29.6644C41.5753 27.6357 42.8474 25.9005 44.6457 25.186C44.8785 25.0925 45.1243 25.0202 45.3701 24.9649C45.4607 24.9436 45.5512 24.9266 45.6418 24.9138C45.8833 24.8756 46.1291 24.85 46.3792 24.8458C46.3965 24.8458 46.4094 24.8458 46.4267 24.8458C46.431 24.8458 46.4353 24.8458 46.4396 24.8458C46.4482 24.8458 46.4568 24.8458 46.4655 24.8458C47.2762 24.8458 48.0438 25.0414 48.7165 25.3902C49.1952 25.6368 49.6307 25.9601 50.0016 26.3428C50.0188 26.3598 50.0318 26.3768 50.049 26.3939C50.1482 26.5002 50.2474 26.6108 50.3379 26.7298C50.3595 26.7596 50.3811 26.7894 50.4026 26.8192C50.4846 26.9297 50.5622 27.0403 50.6355 27.1594C50.6571 27.1934 50.6743 27.2232 50.6959 27.2572C50.7692 27.3805 50.8339 27.5081 50.8942 27.6357C50.9072 27.6612 50.9244 27.691 50.9374 27.7208C51.084 28.044 51.1961 28.3842 51.2651 28.7415C51.3255 29.0435 51.36 29.3582 51.36 29.6771C51.36 32.3437 49.1693 34.5042 46.4655 34.5042M54.3096 25.4795L48.1904 17.4669H48.212L47.854 16.9991C47.3624 16.1655 47.1123 15.417 47.1123 14.7535C47.1123 14.7067 47.1641 14.09 47.1727 14.039C47.1986 13.8944 47.2374 13.7541 47.2805 13.6137C47.3021 13.5372 47.3236 13.4606 47.3538 13.3883C47.384 13.3118 47.4228 13.2437 47.4616 13.1714C47.5177 13.0566 47.5737 12.9418 47.647 12.8354C47.7074 12.7419 47.785 12.6568 47.8584 12.5717C47.8972 12.525 47.9273 12.4739 47.9705 12.4314C47.9748 12.4229 47.9834 12.4229 47.9877 12.4186C48.5699 11.802 49.3979 11.4107 50.3207 11.4107C52.0888 11.4107 53.5161 12.8227 53.5161 14.5621C53.5161 15.1831 53.3264 15.7615 53.0116 16.2506H57.6042C57.8544 15.6509 57.9794 14.9534 57.9794 14.1581C57.9794 12.4059 57.2722 10.8791 55.8534 9.57766C54.439 8.28051 52.5372 7.62981 50.1482 7.62981C47.7592 7.62981 45.866 8.30603 44.4645 9.66272C44.0074 10.105 43.6323 10.5729 43.3261 11.0577L34.8955 0H29.4102L45.5297 21.1925C43.421 21.269 41.6011 22.0558 40.0703 23.5784C38.4618 25.1775 37.6554 27.2189 37.6554 29.6942C37.6554 32.1694 38.5049 34.2321 40.1953 35.8737C41.8901 37.5153 43.9557 38.3404 46.3965 38.3404C48.2292 38.3404 49.8808 37.8343 51.3513 36.8179C52.8219 35.8057 53.8525 34.5213 54.4347 32.9604L64.4005 45.9957H69.9246L54.3053 25.4752L54.3096 25.4795Z" fill="#22334F"/>
</g>
<defs>
<clipPath id="clip0_809_249">
<rect width="149" height="46" fill="white"/>
</clipPath>
</defs>
</svg>
